<svg xmlns="http://www.w3.org/2000/svg" xmlns:xlink="http://www.w3.org/1999/xlink" width="52.003" height="52.003" viewBox="0 0 52.003 52.003"><defs><style>.a{fill:none;}.b{fill:#ff265a;}.c{clip-path:url(#a);}.d{fill:#fff;}</style><clipPath id="a"><path class="a" d="M0,0H14.137V4.962H0Z" transform="translate(0.458 0.512)"/></clipPath></defs><g transform="translate(0 0)"><path class="b" d="M3.591,20.024l0,0A11.639,11.639,0,0,1,.967,16.272,11.63,11.63,0,0,1,11.632,0a11.54,11.54,0,0,1,6.822,2.225H14.368A2.568,2.568,0,0,0,11.8,4.79V9.068H10.264A2.568,2.568,0,0,0,7.7,11.633V15.91H6.157a2.569,2.569,0,0,0-2.566,2.566v1.548ZM7.526,3.593A1.881,1.881,0,1,0,9.407,5.475,1.884,1.884,0,0,0,7.526,3.593Z" transform="translate(0 0)"/><path class="b" d="M8.212,0V5.42A2.569,2.569,0,0,1,5.646,7.985H4.107v4.277a2.569,2.569,0,0,1-2.566,2.566H0v1.953a9.567,9.567,0,0,0,2.228.272,9.579,9.579,0,0,0,9.579-9.579A9.555,9.555,0,0,0,8.212,0" transform="translate(40.196 25.371)"/><g transform="translate(9.579 46.53)"><path class="a" d="M0,0H14.137V4.962H0Z" transform="translate(0.458 0.512)"/><g class="c"><path class="b" d="M7.069,4.962A7.522,7.522,0,0,0,14.137,0H0A7.522,7.522,0,0,0,7.069,4.962" transform="translate(0.458 0.512)"/></g></g><path class="d" d="M40.885,44.82a1.881,1.881,0,1,1,1.881-1.882A1.884,1.884,0,0,1,40.885,44.82Zm0-2.737a.855.855,0,1,0,.855.855A.856.856,0,0,0,40.885,42.083Zm-6.846,2.734H2.566A2.569,2.569,0,0,1,0,42.251v-26a2.569,2.569,0,0,1,2.566-2.566h1.54V9.409A2.569,2.569,0,0,1,6.672,6.843h1.54V2.566A2.568,2.568,0,0,1,10.777,0H42.25a2.569,2.569,0,0,1,2.566,2.566v26a2.569,2.569,0,0,1-2.566,2.566H40.712v4.277a2.569,2.569,0,0,1-2.566,2.566H36.6v4.277A2.569,2.569,0,0,1,34.039,44.817ZM2.566,14.712a1.541,1.541,0,0,0-1.54,1.539v26a1.541,1.541,0,0,0,1.54,1.539H34.039a1.541,1.541,0,0,0,1.539-1.539v-26a1.541,1.541,0,0,0-1.539-1.539ZM6.672,7.869a1.541,1.541,0,0,0-1.539,1.54v4.277H34.039A2.569,2.569,0,0,1,36.6,16.251v20.7h1.541a1.541,1.541,0,0,0,1.539-1.539v-26a1.541,1.541,0,0,0-1.539-1.54Zm4.1-6.843a1.541,1.541,0,0,0-1.539,1.54V6.843H38.146a2.569,2.569,0,0,1,2.566,2.566V30.1H42.25a1.541,1.541,0,0,0,1.54-1.539v-26a1.542,1.542,0,0,0-1.54-1.54ZM32.671,41.4H3.934a.514.514,0,0,1-.513-.514V17.62a.514.514,0,0,1,.513-.514H32.671a.514.514,0,0,1,.513.514V40.882a.5.5,0,0,1-.04.2.516.516,0,0,1-.107.16l0,0,0,0a.524.524,0,0,1-.161.107A.493.493,0,0,1,32.671,41.4Zm-8.4-11.666-.161.374-.219.513-.22.514-1.309,3.062-.234.546-.234.546-.71,1.661-.22.514-.22.513-.445,1.04-.58,1.354H32.158V36.9l-2.465-5.767-.221-.514-.194-.456-.025-.057-.159-.374-.731.374-1,.513-.3.157-.142.073a.513.513,0,0,1-.469,0L26,30.618,25,30.1l-.729-.374h0Zm-8.324,4.337-.651.879-1.025,1.382.305.618.506,1.027.74,1.5.44.893h2.343l1.025-2.395.027-.062.192-.451.22-.514,1.119-2.616-.2-.264-1.637.643-.7.274a.542.542,0,0,1-.187.035.535.535,0,0,1-.187-.035l-2.335-.917ZM6.269,32.529,5.133,34.837l-.474.961-.211.427v4.144H15.119l-1.181-2.395-.253-.513-.1-.2-.152-.31-.1-.208-.256-.517-.69-1.4-1.132-2.3-1.979.981-.32.158a.506.506,0,0,1-.228.054.519.519,0,0,1-.233-.057ZM8.762,25.8a.512.512,0,0,1,.461.286l.014.03L11.205,30.1l.5,1.027,1.773,3.6.279.567.4-.535,2.687-3.627.381-.514.381-.513.013-.018.438-.59a.531.531,0,0,1,.824,0l.451.608.381.513.38.514,1.562,2.106.9-2.106L23,30.1l3.215-7.518a.533.533,0,0,1,.943,0l2.412,5.642.8,1.876.219.513.22.514,1.351,3.158V18.133H4.448V33.9l.171-.347.514-1.04,3.079-6.249.091-.184a.5.5,0,0,1,.422-.281l.012,0A.133.133,0,0,1,8.762,25.8Zm9.708,4.866-.347.468-1.542,2.082,1.889.742,1.889-.742-1.543-2.082ZM8.762,27.472l-.038.076-.511,1.037-1.49,3.023,2,1.02L10.8,31.6l-.243-.494-.274-.558-.346-.7-.7-1.417Zm17.92-3.378-2.006,4.691,2.006,1.03,2.006-1.03ZM15.566,27.029a3.25,3.25,0,0,1,0-6.5,3.194,3.194,0,0,1,1.369.313,3.233,3.233,0,0,1,0,5.873A3.2,3.2,0,0,1,15.566,27.029Zm0-5.474a2.223,2.223,0,1,0,.415,4.406,2.184,2.184,0,0,0,.954-.444,2.2,2.2,0,0,0,0-3.478,2.185,2.185,0,0,0-.954-.443A2.264,2.264,0,0,0,15.566,21.555Zm5.475,3.421a.513.513,0,1,1,.513-.513A.514.514,0,0,1,21.041,24.976Zm8.9-2.054a.513.513,0,1,1,.513-.513A.514.514,0,0,1,29.937,22.922Zm-19.844,0a.513.513,0,1,1,.513-.513A.514.514,0,0,1,10.093,22.922ZM23.778,20.87a.513.513,0,1,1,.514-.514A.514.514,0,0,1,23.778,20.87Zm-16.422,0a.513.513,0,1,1,.513-.514A.514.514,0,0,1,7.356,20.87ZM3.934,5.132A1.882,1.882,0,1,1,5.816,3.25,1.884,1.884,0,0,1,3.934,5.132Zm0-2.737a.855.855,0,1,0,.856.855A.856.856,0,0,0,3.934,2.395Z" transform="translate(3.591 2.225)"/><path class="b" d="M3.25,1.368H2.395V.513a.513.513,0,1,0-1.026,0v.855H.513a.513.513,0,1,0,0,1.026h.855V3.25a.513.513,0,0,0,1.026,0V2.395H3.25a.513.513,0,0,0,0-1.026" transform="translate(15.908 4.277)"/><path class="b" d="M3.25,1.368H2.395V.513a.513.513,0,1,0-1.026,0v.855H.513a.513.513,0,1,0,0,1.026h.855V3.25a.513.513,0,0,0,1.026,0V2.395H3.25a.513.513,0,0,0,0-1.026" transform="translate(33.012 11.12)"/><path class="b" d="M.513,0a.513.513,0,1,0,.513.513A.513.513,0,0,0,.513,0" transform="translate(30.275 12.488)"/><path class="b" d="M.513,0a.513.513,0,1,0,.513.513A.513.513,0,0,0,.513,0" transform="translate(28.222 12.488)"/><path class="b" d="M.513,0a.513.513,0,1,0,.513.513A.513.513,0,0,0,.513,0" transform="translate(25.485 12.488)"/><path class="b" d="M.513,0a.513.513,0,1,0,.513.513A.513.513,0,0,0,.513,0" transform="translate(21.379 12.488)"/></g></svg>