<svg xmlns="http://www.w3.org/2000/svg" xmlns:xlink="http://www.w3.org/1999/xlink" width="539.933" height="462.924" viewBox="0 0 539.933 462.924"><defs><style>.a{fill:none;}.b{fill:#e9edff;}.c{fill:#fff;}.d{fill:#1a1a1a;}.e{clip-path:url(#a);}.f{fill:#323261;}.g{fill:#7723ef;}.h{clip-path:url(#b);}</style><clipPath id="a"><path class="a" d="M0,0H539.933V40.613H0Z" transform="translate(0 0.149)"/></clipPath><clipPath id="b"><path class="a" d="M0,462.924H539.933V0H0Z" transform="translate(0 0.001)"/></clipPath></defs><g transform="translate(0 -0.001)"><path class="b" d="M135.536,34.858C110.7,36.126,82.919,49.926,61.282,75.7,48.334,49.795,21.5,38.808,0,43.107a78.689,78.689,0,0,1,135.536-8.249" transform="translate(115.763 308.282)"/><path class="c" d="M136.757,51.451c.1-7.9-6.32-15.851-15.412-20.225,2.739-19.9-4.414-26.315-5.776-27.45C104.427-5.5,76.825,2.114,50.557,28.818,33.766,45.139,15.956,55.685,0,60.435H133.944a17.589,17.589,0,0,0,2.813-8.984" transform="translate(375.091 361.777)"/><path class="d" d="M134.332,61.2H.389a.388.388,0,0,1-.111-.76c16.7-4.972,34.6-16.167,50.4-31.524A133.732,133.732,0,0,1,65.269,16.024a101.178,101.178,0,0,1,14.1-9.008C88.17,2.426,96.57,0,103.664,0a24.19,24.19,0,0,1,7.077.974,15.631,15.631,0,0,1,5.465,2.876c2.606,2.173,8.4,9.2,5.95,27.522a31.269,31.269,0,0,1,11.269,9.035,18.751,18.751,0,0,1,4.11,11.421,18.01,18.01,0,0,1-2.871,9.184A.387.387,0,0,1,134.332,61.2ZM103.683.767h0A43.934,43.934,0,0,0,89.252,3.543C76.876,7.908,63.37,17.113,51.222,29.462a151.8,151.8,0,0,1-23.784,19A109.848,109.848,0,0,1,2.918,60.42h131.2a17.179,17.179,0,0,0,2.641-8.6c.093-7.47-6.012-15.456-15.192-19.871a.387.387,0,0,1-.217-.4c.649-4.714,2.16-20.6-5.639-27.1a14.933,14.933,0,0,0-5.26-2.757,23.336,23.336,0,0,0-6.765-.921Z" transform="translate(374.703 361.404)"/><path class="d" d="M317.188,80.479H2.3a.585.585,0,0,1-.562-.43C-1.591,67.72-.054,56.882,5.652,52.438a14.947,14.947,0,0,1,9.28-2.746,25.508,25.508,0,0,1,3.935.319,33.751,33.751,0,0,1,7.679,2.206,43.316,43.316,0,0,1,7.528,4.08A57.04,57.04,0,0,1,47.56,69.283a62.605,62.605,0,0,1-1.254-16.5,57.387,57.387,0,0,1,3.007-15.429,48.977,48.977,0,0,1,6.912-13.243,40.912,40.912,0,0,1,10.461-9.937,43.556,43.556,0,0,1,23.93-6.742,54.287,54.287,0,0,1,14.172,1.925A58.194,58.194,0,0,1,116.4,13.9a60.134,60.134,0,0,1,10.4,6.875,62.089,62.089,0,0,1,8.868,8.948,63.721,63.721,0,0,1,7.016,10.755c15.228-17.894,34.563-31,54.444-36.914A82.385,82.385,0,0,1,220.556,0,65.8,65.8,0,0,1,236.23,1.838a56.056,56.056,0,0,1,14.034,5.49c16.329,9.15,24.751,25.272,28.941,37.186a.452.452,0,0,1,.018.06c2.9,12.4,8.292,21.58,16.014,27.277,5.888,4.342,13.287,6.854,21.991,7.465a.582.582,0,0,1-.04,1.163ZM14.92,50.856a13.788,13.788,0,0,0-8.552,2.5C3.782,55.37,2.076,58.873,1.434,63.489A41.382,41.382,0,0,0,2.746,79.314h306.41a39.072,39.072,0,0,1-14.61-6.526C286.6,66.927,281.067,57.534,278.1,44.87c-4.125-11.715-12.4-27.561-28.4-36.527a54.9,54.9,0,0,0-13.758-5.378,64.632,64.632,0,0,0-15.38-1.8,81.2,81.2,0,0,0-23.1,3.512C177.521,10.6,158.183,23.82,143.008,41.893a.581.581,0,0,1-.446.208.6.6,0,0,1-.068,0,.581.581,0,0,1-.453-.319,59.836,59.836,0,0,0-37.56-31.3A53.133,53.133,0,0,0,90.614,8.6a42.4,42.4,0,0,0-23.292,6.554C50.882,25.887,43.5,49.21,49.361,71.868a.582.582,0,0,1-1.045.473C40.425,60.753,29.348,52.835,18.686,51.162a24.391,24.391,0,0,0-3.765-.307Z" transform="translate(34.483 342.459)"/><g transform="translate(0 422.163)"><path class="a" d="M0,0H539.933V40.613H0Z" transform="translate(0 0.149)"/><g class="e"><path class="d" d="M524.849,40.613H15.083C6.766,40.613,0,31.5,0,20.307S6.766,0,15.083,0H524.849c8.317,0,15.084,9.11,15.084,20.307S533.167,40.613,524.849,40.613ZM15.083,1.165c-7.675,0-13.918,8.587-13.918,19.142S7.408,39.449,15.083,39.449H524.849c7.675,0,13.919-8.587,13.919-19.142S532.525,1.165,524.849,1.165Z" transform="translate(0 0.149)"/></g></g><path class="d" d="M0,50.752H10.048L50.426,8.768,52.9.983,51.318,0Z" transform="translate(135.22 250.162)"/><path class="d" d="M77.849,2.755,79.688,50.5,63.2,38.562,0,135.106,62.671,36.528,76.28,45.839,74.631,0Z" transform="translate(339.707 40.202)"/><path class="c" d="M14.683,260.711,183.815,95.976l35.354,39.129L281.84,36.528l13.608,9.311L293.8,0,252.475,20.771,266.8,29.008l-50.853,79.861-35.1-33.484L0,248.177Z" transform="translate(120.537 40.202)"/><path class="d" d="M15.071,261.488a.389.389,0,0,1-.252-.093L.136,248.861a.389.389,0,0,1-.016-.576L180.971,75.492a.383.383,0,0,1,.267-.108.388.388,0,0,1,.269.108l34.754,33.158,50.381-79.12L252.67,21.5a.388.388,0,0,1,.019-.683L294.014.041A.39.39,0,0,1,294.188,0a.389.389,0,0,1,.388.374l1.649,45.839a.387.387,0,0,1-.2.355.392.392,0,0,1-.187.048.385.385,0,0,1-.219-.068l-13.278-9.085L219.885,135.7a.392.392,0,0,1-.3.179h-.031a.389.389,0,0,1-.289-.128l-35.084-38.83L15.342,261.377A.386.386,0,0,1,15.071,261.488ZM181.239,76.309.968,248.549l14.087,12.025L183.933,96.087a.387.387,0,0,1,.267-.111h.015a.388.388,0,0,1,.276.128L219.5,134.855l62.4-98.147a.392.392,0,0,1,.329-.18.383.383,0,0,1,.218.068l12.974,8.877-1.6-44.466-40.14,20.176,13.7,7.877a.388.388,0,0,1,.134.545l-50.853,79.861a.387.387,0,0,1-.281.176.375.375,0,0,1-.047,0,.388.388,0,0,1-.268-.107L181.239,76.309Z" transform="translate(120.149 39.814)"/><path class="c" d="M46.848,0S-25.371,8.072,9.525,12.232s81.02,7.5,70.1,11.442S70.214,39.454,94.489,38.544,110.268,22.5,129.385,19.3s41.212,1.951,37.447,4.378S161.084,34.3,183.317,33.689s9.324-24.381,22.909-23.722S215.867,0,215.867,0Z" transform="translate(115.934 422.357)"/><path class="d" d="M92.259,39.371c-5.954,0-10.693-.805-14.083-2.393a10.976,10.976,0,0,1-3.492-2.441,5.767,5.767,0,0,1-1.473-2.782c-.623-3.207,1.993-6.37,6.665-8.057,1.362-.492,1.378-.817,1.378-.831-.051-.42-1.516-1.59-13.978-3.365-8.556-1.218-20-2.429-32.121-3.711C26.723,14.9,18,13.976,9.867,13.006,1.166,11.969,0,10.82,0,9.832c0-.81.01-2.963,23.758-6.684C35.312,1.338,47.086.014,47.193,0l.043,0H216.255a.391.391,0,0,1,.365.253c.066.178,1.586,4.385-.671,7.468-1.483,2.025-4.228,3.052-8.158,3.052-.385,0-.787-.01-1.194-.03-.183-.009-.364-.014-.539-.014-5.157,0-5.908,3.963-6.859,8.979-1.216,6.419-2.73,14.408-15.482,14.756-.714.02-1.429.029-2.125.029a45.25,45.25,0,0,1-10.366-1c-3.723-.9-5.931-2.394-6.563-4.436-.674-2.182.745-4.289,2.35-5.323.288-.187.248-.288.231-.331-.316-.814-3.277-1.9-7.544-2.777a85.786,85.786,0,0,0-16.788-1.6,79.331,79.331,0,0,0-13.071,1.037c-8.583,1.441-11.421,5.22-14.425,9.222-3.517,4.685-7.154,9.53-20.521,10.031C94,39.354,93.117,39.371,92.259,39.371ZM47.258.776h0C47.141.79,35.4,2.111,23.876,3.916,2.45,7.274.778,9.3.777,9.835c0,.218.438,1.358,9.182,2.4C18,13.194,26.667,14.111,35.045,15l.187.02c32.3,3.418,46.481,5.185,46.793,7.755.1.837-1.027,1.345-1.885,1.655-4.292,1.55-6.713,4.368-6.167,7.178a5.53,5.53,0,0,0,2.154,3.28,13.759,13.759,0,0,0,4.387,2.156,42.191,42.191,0,0,0,12.1,1.543c.745,0,1.5-.014,2.243-.042,13-.488,16.364-4.973,19.929-9.721,2.964-3.948,6.029-8.03,14.918-9.521a79.362,79.362,0,0,1,13.075-1.032,94.905,94.905,0,0,1,12.034.771c6.062.789,12.479,2.359,13.147,4.085a1.008,1.008,0,0,1-.535,1.264c-1.366.88-2.583,2.645-2.028,4.441.482,1.559,2.14,2.778,4.927,3.621a40.048,40.048,0,0,0,11.184,1.267c.705,0,1.439-.01,2.18-.03,12.126-.331,13.514-7.658,14.739-14.122v-.007c.937-4.94,1.821-9.606,7.639-9.606.181,0,.369,0,.559.014.4.019.793.029,1.169.029,3.659,0,6.188-.919,7.517-2.731,1.714-2.337.934-5.558.654-6.489H47.258Z" transform="translate(115.545 421.969)"/><path class="d" d="M.2,21.271s8.314,2.3,15.77-11.243C18.77,5.8,28.48,6.824,28.48,4.336S26.605-.829,22.513.243,10.577,4.562,10.577,4.562-1.687,18.038.2,21.271" transform="translate(297.049 432.452)"/><path class="d" d="M26.653,1.468a3.056,3.056,0,0,1,2.731,2.24c.682,2.2-7.359,2.352-8.421,5.31S4.731,24.333.634,21.834,13.453.824,18.536.141a12.5,12.5,0,0,1,8.117,1.326" transform="translate(208.956 436.787)"/><path class="c" d="M0,27.256,24.676,0,12.338,40.013Z" transform="translate(121.633 184.778)"/><path class="d" d="M12.726,40.79a.387.387,0,0,1-.279-.118L.109,27.914A.389.389,0,0,1,.1,27.383L24.777.128A.388.388,0,0,1,25.436.5L13.1,40.516a.39.39,0,0,1-.372.274ZM24.179,1.946.92,27.635,12.549,39.659Z" transform="translate(121.245 184.389)"/><path class="c" d="M0,23.43l14.458,3.118L39.5,0Z" transform="translate(105.77 184.958)"/><path class="d" d="M14.846,27.325a.361.361,0,0,1-.082-.009L.306,24.2a.388.388,0,0,1-.116-.713L39.688.055a.388.388,0,0,1,.481.6L15.129,27.2A.387.387,0,0,1,14.846,27.325ZM37.709,2.132,1.437,23.648,14.714,26.51Z" transform="translate(105.382 184.57)"/><path class="c" d="M0,1.458C0,2.673,2.134,13.2,2.134,13.2L5.1,5.1,1.3,0Z" transform="translate(119.499 212.317)"/><path class="d" d="M2.523,13.98l-.03,0a.388.388,0,0,1-.351-.31C2.055,13.236,0,3.077,0,1.846a.388.388,0,0,1,.1-.257L1.394.131A.384.384,0,0,1,1.685,0H1.7A.389.389,0,0,1,2,.156L5.8,5.259a.389.389,0,0,1,.053.366l-2.969,8.1A.388.388,0,0,1,2.523,13.98ZM1.658,1h0l-.875.984c.106,1.368,1.442,8.137,1.849,10.179l2.423-6.61L1.658,1Z" transform="translate(119.111 211.928)"/><path class="d" d="M337.49,193.74a.582.582,0,0,1-.318-1.07c1.327-.864,2.623-1.735,3.851-2.588a.577.577,0,0,1,.331-.1.582.582,0,0,1,.333,1.061c-1.245.865-2.551,1.743-3.88,2.608A.58.58,0,0,1,337.49,193.74Zm7.647-5.317a.584.584,0,0,1-.577-.668.577.577,0,0,1,.228-.382c1.276-.952,2.51-1.906,3.667-2.837a.582.582,0,1,1,.73.907c-1.18.949-2.426,1.912-3.7,2.863A.575.575,0,0,1,345.137,188.423Zm7.254-5.84a.582.582,0,0,1-.383-1.021c1.182-1.033,2.333-2.084,3.418-3.124a.582.582,0,1,1,.806.841c-1.111,1.063-2.274,2.126-3.457,3.16A.584.584,0,0,1,352.391,182.583Zm6.719-6.446a.582.582,0,0,1-.423-.982c1.073-1.14,2.107-2.3,3.074-3.453a.582.582,0,1,1,.892.748c-.979,1.168-2.028,2.346-3.118,3.5A.584.584,0,0,1,359.111,176.137Zm5.971-7.142a.573.573,0,0,1-.343-.112.582.582,0,0,1-.126-.814c.917-1.253,1.787-2.538,2.585-3.82a.582.582,0,1,1,.988.615c-.8,1.293-1.689,2.6-2.633,3.893A.579.579,0,0,1,365.081,168.995Zm4.9-7.907a.567.567,0,0,1-.265-.065.583.583,0,0,1-.255-.783c.706-1.385,1.343-2.8,1.892-4.191a.582.582,0,1,1,1.084.426c-.564,1.433-1.216,2.878-1.938,4.295A.579.579,0,0,1,369.984,161.087Zm3.385-8.66a.6.6,0,0,1-.154-.02.584.584,0,0,1-.409-.715,38.766,38.766,0,0,0,.947-4.486.582.582,0,1,1,1.152.172,39.855,39.855,0,0,1-.976,4.62A.582.582,0,0,1,373.369,152.428Zm1.357-9.189h-.013a.583.583,0,0,1-.57-.595c.005-.259.008-.519.008-.775a35.377,35.377,0,0,0-.2-3.8.581.581,0,0,1,.517-.642.582.582,0,0,1,.641.517,36.559,36.559,0,0,1,.212,3.922c0,.28,0,.542-.009.8A.585.585,0,0,1,374.726,143.239Zm-.995-9.224a.58.58,0,0,1-.566-.447,37.761,37.761,0,0,0-1.337-4.372.582.582,0,1,1,1.091-.407A38.756,38.756,0,0,1,374.3,133.3a.583.583,0,0,1-.43.7A.6.6,0,0,1,373.731,134.015Zm-3.225-8.694a.58.58,0,0,1-.52-.319,45.605,45.605,0,0,0-2.282-3.982.582.582,0,1,1,.98-.628,46.659,46.659,0,0,1,2.34,4.083.584.584,0,0,1-.256.783A.59.59,0,0,1,370.507,125.321Zm-5-7.828a.581.581,0,0,1-.461-.224c-.921-1.186-1.92-2.371-2.97-3.52a.582.582,0,0,1,.429-.975.585.585,0,0,1,.43.189c1.07,1.172,2.09,2.38,3.03,3.591a.581.581,0,0,1-.459.939Zm-6.261-6.874a.578.578,0,0,1-.4-.16c-1.084-1.03-2.244-2.064-3.448-3.073a.582.582,0,0,1,.374-1.029.584.584,0,0,1,.374.136c1.215,1.017,2.393,2.067,3.5,3.121a.583.583,0,0,1-.4,1Zm-7.127-5.983a.575.575,0,0,1-.347-.116c-1.22-.91-2.491-1.809-3.777-2.673a.582.582,0,0,1,.65-.967c1.312.881,2.6,1.792,3.824,2.706a.583.583,0,0,1-.349,1.049Zm-7.725-5.2a.593.593,0,0,1-.3-.085c-1.291-.786-2.639-1.568-4.007-2.325a.582.582,0,1,1,.563-1.019c1.371.758,2.734,1.548,4.049,2.348a.584.584,0,0,1,.194.8A.577.577,0,0,1,344.395,99.438Zm-8.145-4.514a.573.573,0,0,1-.262-.063c-1.374-.694-2.778-1.374-4.174-2.021a.583.583,0,0,1,.245-1.111.574.574,0,0,1,.245.055c1.409.653,2.826,1.339,4.21,2.038a.582.582,0,0,1-.264,1.1ZM327.8,91a.571.571,0,0,1-.229-.048c-1.395-.594-2.84-1.184-4.3-1.755a.582.582,0,1,1,.425-1.084c1.484.581,2.94,1.176,4.328,1.768A.583.583,0,0,1,327.8,91ZM65.574,89.9h0a.582.582,0,0,1,0-1.165c1.515-.013,3.078-.042,4.645-.088h.007a.583.583,0,0,1,.027,1.165C68.67,89.859,67.1,89.888,65.574,89.9Zm-4.662-.015H60.9c-1.583-.024-3.154-.068-4.67-.131a.581.581,0,0,1-.557-.606.586.586,0,0,1,.579-.559h.025c1.516.062,3.077.106,4.639.131a.583.583,0,0,1,.574.591A.585.585,0,0,1,60.912,89.886Zm13.969-.254a.583.583,0,0,1-.028-1.165c1.475-.071,3.037-.16,4.641-.266h.04a.582.582,0,0,1,.037,1.163c-1.576.1-3.144.194-4.661.267h-.029Zm-23.272-.138h-.041c-1.576-.113-3.143-.25-4.657-.409a.582.582,0,0,1,.122-1.158c1.482.155,3.035.292,4.618.4a.582.582,0,0,1,.539.622A.584.584,0,0,1,51.609,89.494Zm32.568-.473a.582.582,0,0,1-.047-1.163c1.506-.123,3.065-.263,4.632-.414l.057,0a.583.583,0,0,1,.054,1.163c-1.553.149-3.117.289-4.648.415Zm-41.825-.507a.52.52,0,0,1-.084-.006c-1.588-.228-3.141-.486-4.617-.767a.582.582,0,1,1,.217-1.144c1.462.277,3,.532,4.566.759a.581.581,0,0,1,.493.659A.584.584,0,0,1,42.352,88.515Zm51.1-.387a.582.582,0,0,1-.063-1.161c1.45-.16,3-.341,4.62-.538a.573.573,0,0,1,.074,0,.582.582,0,0,1,.068,1.16c-1.563.191-3.122.373-4.634.54A.528.528,0,0,1,93.451,88.128ZM319.13,87.6a.558.558,0,0,1-.2-.035c-1.431-.516-2.907-1.027-4.388-1.519a.582.582,0,1,1,.368-1.105c1.479.491,2.965,1.006,4.415,1.529a.583.583,0,0,1,.35.745A.584.584,0,0,1,319.13,87.6ZM102.7,86.994a.582.582,0,0,1-.077-1.159c1.534-.207,3.084-.424,4.607-.646a.583.583,0,1,1,.168,1.153c-1.588.231-3.142.448-4.62.647A.6.6,0,0,1,102.7,86.994Zm-69.487-.223a.61.61,0,0,1-.139-.016c-1.563-.382-3.084-.8-4.52-1.246a.582.582,0,0,1,.172-1.138.583.583,0,0,1,.172.026c1.424.441,2.922.853,4.452,1.226a.583.583,0,0,1-.138,1.148Zm78.707-1.118a.582.582,0,0,1-.089-1.157c1.481-.231,3.026-.48,4.594-.739a.59.59,0,0,1,.1-.008.582.582,0,0,1,.095,1.156c-1.631.27-3.137.512-4.6.741A.627.627,0,0,1,111.918,85.653Zm198.374-.991a.588.588,0,0,1-.17-.025c-1.46-.447-2.96-.887-4.458-1.309a.582.582,0,1,1,.316-1.12c1.491.419,3,.862,4.482,1.315a.582.582,0,0,1-.17,1.139Zm-189.182-.53a.582.582,0,0,1-.1-1.156c1.618-.284,3.116-.552,4.581-.821a.6.6,0,0,1,.106-.01.582.582,0,0,1,.1,1.155c-1.627.3-3.128.567-4.59.822A.55.55,0,0,1,121.109,84.132Zm-96.779-.127a.57.57,0,0,1-.212-.041c-1.49-.582-2.938-1.218-4.3-1.892a.583.583,0,0,1,.516-1.045c1.324.654,2.741,1.277,4.212,1.852a.583.583,0,0,1-.212,1.125Zm105.943-1.552a.583.583,0,0,1-.109-1.155c1.525-.29,3.067-.577,4.585-.853a.592.592,0,0,1,.1-.009.582.582,0,0,1,.1,1.155c-1.484.27-3.024.557-4.576.852A.638.638,0,0,1,130.273,82.453Zm171.051-.317a.583.583,0,0,1-.146-.019c-1.493-.385-3.011-.761-4.511-1.118a.582.582,0,1,1,.269-1.133c1.56.371,3.086.749,4.533,1.124a.582.582,0,0,1-.146,1.146ZM139.439,80.784a.583.583,0,0,1-.1-1.157c1.643-.285,3.147-.539,4.6-.778a.588.588,0,0,1,.1-.008A.582.582,0,0,1,144.128,80c-1.515.251-3.059.512-4.588.778A.551.551,0,0,1,139.439,80.784Zm152.822-.8a.529.529,0,0,1-.124-.013c-1.5-.326-3.035-.644-4.551-.944a.581.581,0,0,1-.457-.684.581.581,0,0,1,.684-.458c1.553.307,3.091.626,4.572.949a.582.582,0,0,1-.123,1.151Zm-276.25-.115a.583.583,0,0,1-.31-.089,39.076,39.076,0,0,1-3.839-2.746.582.582,0,0,1,.735-.9,37.932,37.932,0,0,0,3.724,2.664.582.582,0,0,1-.311,1.075Zm132.62-.6a.583.583,0,0,1-.089-1.158c1.54-.241,3.091-.477,4.61-.7a.594.594,0,0,1,.085-.006.583.583,0,0,1,.086,1.159c-1.552.23-3.1.465-4.6.7A.628.628,0,0,1,148.631,79.266Zm134.491-1.093a.57.57,0,0,1-.1-.009c-1.489-.269-3.03-.533-4.583-.785a.582.582,0,0,1,.095-1.157.591.591,0,0,1,.092.007c1.507.245,3.055.51,4.6.787a.582.582,0,0,1-.1,1.156ZM157.848,77.9a.584.584,0,0,1-.576-.5.582.582,0,0,1,.5-.657c1.583-.22,3.137-.43,4.622-.623a.6.6,0,0,1,.077-.005.582.582,0,0,1,.073,1.16c-1.56.2-3.111.413-4.612.622A.628.628,0,0,1,157.848,77.9Zm9.238-1.2a.582.582,0,0,1-.069-1.16c1.435-.175,2.95-.352,4.632-.541a.587.587,0,0,1,.064,0,.582.582,0,0,1,.065,1.161c-1.493.167-3.048.349-4.622.539A.474.474,0,0,1,167.087,76.7Zm106.839-.023a.685.685,0,0,1-.085-.006c-1.5-.22-3.054-.435-4.605-.637a.582.582,0,1,1,.15-1.155c1.543.2,3.1.416,4.623.639a.583.583,0,0,1-.084,1.159Zm-97.58-1.014a.582.582,0,0,1-.059-1.162c1.573-.161,3.135-.314,4.641-.455l.052,0a.582.582,0,0,1,.056,1.162c-1.451.135-2.966.284-4.63.454A.444.444,0,0,1,176.346,75.661Zm88.342-.192a.57.57,0,0,1-.067,0c-1.566-.18-3.121-.348-4.623-.5a.583.583,0,0,1,.059-1.162l.058,0c1.485.149,3.046.318,4.639.5a.582.582,0,0,1-.066,1.161ZM185.622,74.8a.586.586,0,0,1-.58-.534.583.583,0,0,1,.532-.629c1.546-.13,3.11-.253,4.649-.367h.039a.582.582,0,0,1,.047,1.163c-1.557.115-3.118.238-4.639.365Zm69.8-.259-.051,0c-1.531-.132-3.091-.256-4.636-.369A.582.582,0,0,1,250.776,73h.04c1.539.112,3.1.237,4.65.371A.582.582,0,0,1,256,74,.585.585,0,0,1,255.418,74.536Zm-60.5-.429a.582.582,0,0,1-.037-1.164c1.554-.1,3.121-.192,4.657-.275h.035a.582.582,0,0,1,.028,1.164c-1.507.082-3.069.174-4.645.274ZM8.834,73.99a.583.583,0,0,1-.427-.186,31,31,0,0,1-2.951-3.7.582.582,0,1,1,.964-.653,30.022,30.022,0,0,0,2.84,3.566.582.582,0,0,1-.427.978Zm237.292-.133h-.035c-1.5-.09-3.059-.173-4.645-.247a.583.583,0,0,1-.553-.609.574.574,0,0,1,.583-.555h.026c1.643.078,3.21.162,4.659.249a.582.582,0,0,1-.034,1.163ZM204.218,73.6a.582.582,0,0,1-.025-1.164c1.553-.068,3.121-.129,4.661-.181h.014a.583.583,0,0,1,.025,1.165c-1.559.052-3.123.112-4.649.179Zm32.6-.185h-.02c-1.562-.054-3.126-.1-4.649-.133a.582.582,0,0,1,.013-1.165h.014c1.525.035,3.094.079,4.663.133a.582.582,0,0,1-.02,1.165Zm-23.289-.125a.582.582,0,0,1-.014-1.165c1.558-.036,3.128-.063,4.665-.081a.582.582,0,1,1,.014,1.165c-1.5.018-3.07.045-4.651.08Zm13.975-.085H227.5c-1.453-.016-2.938-.024-4.412-.024h-.239a.582.582,0,0,1,0-1.165h.239c1.475,0,2.964.008,4.425.024a.582.582,0,0,1-.006,1.165ZM3.641,66.314a.582.582,0,0,1-.527-.337,31.441,31.441,0,0,1-1.676-4.431.582.582,0,0,1,.393-.724.582.582,0,0,1,.724.393,30.376,30.376,0,0,0,1.613,4.268.583.583,0,0,1-.526.83ZM.995,57.423a.585.585,0,0,1-.574-.5A40.039,40.039,0,0,1,0,52.221a.584.584,0,0,1,.564-.6H.579a.588.588,0,0,1,.585.564,38.889,38.889,0,0,0,.407,4.568.584.584,0,0,1-.489.663A.739.739,0,0,1,.995,57.423Zm-.313-9.3-.041,0A.583.583,0,0,1,.1,47.5c.106-1.511.286-3.085.536-4.678a.579.579,0,0,1,.576-.492.6.6,0,0,1,.089.007A.583.583,0,0,1,1.787,43c-.244,1.554-.42,3.094-.525,4.579A.584.584,0,0,1,.681,48.126Zm1.423-9.2a.6.6,0,0,1-.131-.015.582.582,0,0,1-.436-.7c.34-1.47.745-3,1.2-4.54a.586.586,0,0,1,.558-.416A.583.583,0,0,1,3.858,34c-.45,1.512-.85,3.017-1.187,4.471A.579.579,0,0,1,2.1,38.923Zm2.648-8.935a.575.575,0,0,1-.2-.034A.583.583,0,0,1,4.2,29.21c.518-1.449,1.084-2.921,1.682-4.377a.582.582,0,1,1,1.077.442c-.6,1.45-1.155,2.906-1.662,4.327A.585.585,0,0,1,4.752,29.988Zm3.535-8.627a.566.566,0,0,1-.243-.054.581.581,0,0,1-.285-.772c.636-1.382,1.322-2.8,2.04-4.217a.583.583,0,0,1,1.04.527c-.706,1.391-1.386,2.8-2.022,4.178A.584.584,0,0,1,8.287,21.362ZM12.5,13.043a.583.583,0,0,1-.509-.864c.75-1.357,1.535-2.723,2.335-4.061a.582.582,0,0,1,1,.6c-.784,1.31-1.563,2.665-2.316,4.028A.582.582,0,0,1,12.5,13.043Zm4.791-8.008a.573.573,0,0,1-.316-.094.582.582,0,0,1-.173-.8c1.591-2.458,2.643-3.891,2.65-3.9A.585.585,0,0,1,19.923,0,.583.583,0,0,1,20.5.494a.578.578,0,0,1-.107.433l-.01.013c-.262.361-1.224,1.7-2.6,3.829A.582.582,0,0,1,17.293,5.035Z" transform="translate(95.841 224.937)"/><path class="c" d="M11.536,8.586S19.593,9.8,20.31,12.931s-6.028,5.813-8.774,5.992S9,24.175,9,24.175L1.867,22.564S2.7,15.1.613,9.791,2.046-.117,7.059,0,21.682,2.927,21.324,7.463s-1.79,4.357-1.79,4.357" transform="translate(205.276 0.389)"/><path class="d" d="M9.383,24.952a.39.39,0,0,1-.085-.009L2.166,23.331a.386.386,0,0,1-.3-.421c.008-.074.788-7.459-1.229-12.588A7.676,7.676,0,0,1,1.255,3,7.17,7.17,0,0,1,7.248,0l.206,0c3.9.093,10.751,1.823,13.464,4.829A4.018,4.018,0,0,1,22.1,7.882c-.182,2.308-.663,3.8-1.431,4.422l0,0,0,0a2.693,2.693,0,0,1,.417.922,2.826,2.826,0,0,1-.61,2.372c-1.666,2.237-6.23,3.946-8.517,4.094-2.329.152-2.177,4.8-2.175,4.849a.388.388,0,0,1-.388.4ZM7.25.776A6.406,6.406,0,0,0,1.891,3.45a6.912,6.912,0,0,0-.531,6.587,23.81,23.81,0,0,1,1.409,7.506,39.17,39.17,0,0,1-.1,5.107l6.321,1.428a9.952,9.952,0,0,1,.5-3.024,2.771,2.771,0,0,1,2.4-2.129c2.171-.142,6.463-1.794,7.944-3.784a2.086,2.086,0,0,0,.476-1.734,2.057,2.057,0,0,0-.408-.81l-.034,0a.388.388,0,0,1-.343-.4c-1.74-1.587-5.777-2.55-7.669-2.838a.388.388,0,1,1,.116-.767c.238.035,5.847.894,8.171,3.133.343-.266.953-1.126,1.173-3.9a3.278,3.278,0,0,0-.982-2.469C17.775,2.508,11.2.869,7.436.778Z" transform="translate(204.891 0.001)"/><path class="f" d="M5.526,42.248S1.348,38.488,2.6,36.757s2.209-.6,2.209-.6S-3.666,22.731,1.885,18.672s8.177,2.3,8.177,2.3-.358-4.3,1.79-3.223,2.955,3.134,4.029,3.044-4.3-5.909-1.611-11.371S21.164-.786,28.416.109s1.7,5.909,1.611,8.326.806,6.983,4.208,5.73,8.377.806,7.053,5.1,5.122,2.241,7.092,2.374,9.222,6.49,5.461,13.026-5.909,8.416-5.909,8.416,9.043,1.343,7.968,9.222-8.1,10.206-14.613,10.475-10.366,4.745-10.635,6.893-2.775,3.582-4.119,2.776-21.01-30.2-21.01-30.2" transform="translate(258.558 35.438)"/><path class="d" d="M27.6,73.069a1.877,1.877,0,0,1-.984-.257C25.259,72,6.365,43.773,5.561,42.572c-.437-.4-4.232-3.94-2.934-5.732A2.1,2.1,0,0,1,4.147,35.8H4.2a1.178,1.178,0,0,1,.247.027A43.742,43.742,0,0,1,1.267,29.2c-1.9-5.147-1.66-8.775.687-10.49a6.258,6.258,0,0,1,3.634-1.392,4.147,4.147,0,0,1,1.12.154,6.062,6.062,0,0,1,3.319,2.842c.015-.929.173-2.129.823-2.57a.976.976,0,0,1,.556-.169,1.622,1.622,0,0,1,.716.194,8.8,8.8,0,0,1,2.461,1.986c.528.558.983,1.039,1.407,1.039h.026a6.459,6.459,0,0,0-.555-1.281l-.009-.017c-1.07-2.141-3.062-6.125-1.174-9.966C17.433,3.118,21.542,0,26.842,0a14.613,14.613,0,0,1,1.781.113c1.976.244,3.171.807,3.654,1.72.669,1.266-.186,2.934-.94,4.406a7,7,0,0,0-.932,2.4c-.059,1.606.352,4.359,1.73,5.358a1.987,1.987,0,0,0,1.192.383,2.984,2.984,0,0,0,1.024-.2,6.319,6.319,0,0,1,2.192-.379,6.1,6.1,0,0,1,4.125,1.5,3.937,3.937,0,0,1,.989,4.217,1.943,1.943,0,0,0,.115,1.857,2.852,2.852,0,0,0,2.223.64,21.594,21.594,0,0,0,2.6-.218,16.2,16.2,0,0,1,1.767-.162c.078,0,.151,0,.217.007,1.173.079,3.993,2.158,5.57,5.111a8.157,8.157,0,0,1,.046,8.2,42.691,42.691,0,0,1-5.673,8.2,13.215,13.215,0,0,1,4.085,1.614,7.441,7.441,0,0,1,3.671,7.756c-.627,4.6-3.7,10.185-14.8,10.642-6.25.257-10.182,4.577-10.45,6.724a3.821,3.821,0,0,1-2.123,2.848A3.033,3.033,0,0,1,27.6,73.069ZM4.19,36.185H4.157a1.759,1.759,0,0,0-1.215.881c-.945,1.3,1.771,4.219,2.9,5.233a.2.2,0,0,1,.032.036c5.462,8.165,19.873,29.5,20.948,30.144a1.5,1.5,0,0,0,.782.2,2.641,2.641,0,0,0,1.136-.285,3.42,3.42,0,0,0,1.908-2.546c.29-2.321,4.261-6.793,10.819-7.064,10.825-.446,13.821-5.851,14.429-10.307a6.977,6.977,0,0,0-3.482-7.368,12.921,12.921,0,0,0-4.323-1.635.2.2,0,0,1-.158-.137.2.2,0,0,1,.059-.2c.021-.018,2.155-1.912,5.868-8.366a7.789,7.789,0,0,0-.051-7.828c-1.564-2.93-4.291-4.842-5.254-4.907-.059,0-.125-.006-.2-.006a15.817,15.817,0,0,0-1.713.16,22.228,22.228,0,0,1-2.652.224,3.167,3.167,0,0,1-2.516-.782,2.29,2.29,0,0,1-.188-2.22,3.508,3.508,0,0,0-.885-3.821,5.742,5.742,0,0,0-3.882-1.39,5.942,5.942,0,0,0-2.034.348,3.387,3.387,0,0,1-1.163.226,2.363,2.363,0,0,1-1.415-.458c-1.618-1.174-1.944-4.233-1.89-5.687a7.176,7.176,0,0,1,.972-2.56c.713-1.389,1.52-2.963.945-4.05C31.513,1.221,30.415.725,28.576.5A14.1,14.1,0,0,0,26.854.39C21.708.39,17.709,3.436,14.628,9.7c-1.8,3.667.131,7.539,1.171,9.619.505,1.011.7,1.432.558,1.693a.332.332,0,0,1-.275.166c-.029,0-.058,0-.087,0-.593,0-1.077-.51-1.69-1.157a8.44,8.44,0,0,0-2.355-1.91,1.224,1.224,0,0,0-.538-.152.6.6,0,0,0-.343.1c-.689.465-.688,2.383-.629,3.083a.194.194,0,0,1-.193.21.2.2,0,0,1-.18-.12c-.011-.027-1.156-2.747-3.465-3.394a3.739,3.739,0,0,0-1.011-.138,5.886,5.886,0,0,0-3.407,1.317,4.932,4.932,0,0,0-1.8,4.321,17.7,17.7,0,0,0,1.253,5.708,44.215,44.215,0,0,0,3.521,7.2.194.194,0,0,1-.164.3.193.193,0,0,1-.148-.069A.946.946,0,0,0,4.19,36.185Z" transform="translate(258.374 35.242)"/><path class="d" d="M14.347,2.1c-.109-.1-.218-.2-.33-.3C12.506.468,3.278-1.016,2.473.953A8.757,8.757,0,0,1,0,3.744,13.443,13.443,0,0,0,14.347,2.1" transform="translate(218.607 427.585)"/><path class="c" d="M16.212,0A13.443,13.443,0,0,1,1.866,1.646C1.169,2.219.479,2.718,0,3.048,4.718,6.892,11.868,5.2,16.718,1.965c.155-.155.42-.365.7-.631A9.554,9.554,0,0,0,16.212,0" transform="translate(216.741 429.683)"/><path class="d" d="M7.043,6.043a10.618,10.618,0,0,1-6.9-2.3.388.388,0,0,1,.024-.621C.62,2.8,1.307,2.311,2.007,1.734a.39.39,0,0,1,.429-.043,11.934,11.934,0,0,0,5.58,1.327A13.177,13.177,0,0,0,16.352.09a.387.387,0,0,1,.514.015,9.833,9.833,0,0,1,1.251,1.389A.39.39,0,0,1,18.072,2c-.157.15-.314.287-.428.388l-.04.035c-.088.077-.164.144-.223.2a.333.333,0,0,1-.059.049A19.206,19.206,0,0,1,7.043,6.043ZM2.3,2.5c-.4.321-.835.651-1.257.953A10.725,10.725,0,0,0,7.232,5.257,17.626,17.626,0,0,0,16.861,2.05c.062-.06.137-.127.224-.2l.047-.042c.047-.04.1-.083.147-.128a9.039,9.039,0,0,0-.7-.771A14.071,14.071,0,0,1,8.009,3.79,12.79,12.79,0,0,1,2.3,2.5h0Z" transform="translate(216.353 429.295)"/><path class="c" d="M29.119.631c-4.85,3.233-12,4.927-16.718,1.083-.387.267-.636.425-.636.425A22.669,22.669,0,0,0,0,22.009a6.285,6.285,0,0,0,.916,3.649A5.656,5.656,0,0,0,5.249,27.6c4.286.262,8.489-1.844,11.458-4.948a28.069,28.069,0,0,0,6.106-11.213A5.919,5.919,0,0,1,24.5,8.319c.922-.7,2.172-.761,3.248-1.192a4.969,4.969,0,0,0,3.042-4.211A4.467,4.467,0,0,0,29.815,0c-.276.266-.542.477-.7.631" transform="translate(204.34 431.017)"/><path class="d" d="M6.339,28.4c-.231,0-.475-.008-.725-.023A5.97,5.97,0,0,1,.992,26.274,6.7,6.7,0,0,1,0,22.4,23.086,23.086,0,0,1,11.969,2.186L12,2.163c.079-.052.286-.187.564-.38a.386.386,0,0,1,.22-.069.392.392,0,0,1,.246.087,10.431,10.431,0,0,0,6.6,2.122A17.619,17.619,0,0,0,29.262.716c.072-.069.158-.145.273-.245l.037-.032c.111-.1.237-.208.364-.331A.389.389,0,0,1,30.2,0l.034,0a.39.39,0,0,1,.28.158,4.845,4.845,0,0,1,1.046,3.167A5.339,5.339,0,0,1,28.28,7.876a10.535,10.535,0,0,1-1.265.386l-.009,0a5.151,5.151,0,0,0-1.883.752A5.469,5.469,0,0,0,23.6,11.869l-.024.078a28.145,28.145,0,0,1-6.2,11.367,17.364,17.364,0,0,1-5.219,3.752A14.065,14.065,0,0,1,6.339,28.4ZM12.773,2.584h0c-.253.171-.41.271-.411.272A22.32,22.32,0,0,0,.778,22.393a6.013,6.013,0,0,0,.841,3.425c1.016,1.4,2.968,1.721,4.041,1.786.224.014.453.021.681.021a13.279,13.279,0,0,0,5.511-1.274,16.594,16.594,0,0,0,4.962-3.576,27.388,27.388,0,0,0,6.016-11.06l.023-.076,0-.005a6.112,6.112,0,0,1,1.8-3.237,5.814,5.814,0,0,1,2.165-.887,9.658,9.658,0,0,0,1.174-.356,4.611,4.611,0,0,0,2.8-3.875,3.817,3.817,0,0,0-.656-2.3L30.1,1.01l-.053.045-.037.032c-.089.078-.166.146-.226.206a.433.433,0,0,1-.059.049A19.215,19.215,0,0,1,19.444,4.709a10.68,10.68,0,0,1-6.671-2.125Z" transform="translate(203.952 430.629)"/><path class="d" d="M5.969,2.454a.589.589,0,0,1-.136-.016L.447,1.149A.582.582,0,0,1,.718.016L6.1,1.306a.582.582,0,0,1-.135,1.149" transform="translate(212.38 437.21)"/><path class="d" d="M5.969,2.454a.589.589,0,0,1-.136-.016L.447,1.149A.582.582,0,0,1,.718.016L6.1,1.306a.582.582,0,0,1-.135,1.149" transform="translate(207.816 445.999)"/><path class="d" d="M5.969,2.454a.589.589,0,0,1-.136-.016L.447,1.149A.582.582,0,0,1,.718.016L6.1,1.306a.582.582,0,0,1-.135,1.149" transform="translate(209.964 440.589)"/><path class="d" d="M9.891.164A7.457,7.457,0,0,0,7.4.06S1.6.921,1.422,4.5A9.815,9.815,0,0,1,0,8.719C4.65,9.33,8.852,4.743,9.891.164" transform="translate(301.667 418.44)"/><path class="c" d="M12.509,0C11.469,4.578,7.268,9.166,2.617,8.555A18.433,18.433,0,0,1,.409,11.606Q.2,11.831,0,12.061c2.376,1.223,5.174.344,6.772-.295A15.152,15.152,0,0,0,16.035,1.7,8.3,8.3,0,0,0,12.509,0" transform="translate(299.05 418.605)"/><path class="d" d="M3.073,13.448a6.188,6.188,0,0,1-2.862-.653.389.389,0,0,1-.2-.274A.393.393,0,0,1,.1,12.192c.137-.155.277-.31.414-.46A18.147,18.147,0,0,0,2.668,8.75a.39.39,0,0,1,.339-.195l.048,0a6.09,6.09,0,0,0,.791.052A7.917,7.917,0,0,0,9.36,6.026,12.217,12.217,0,0,0,12.518.3.386.386,0,0,1,12.9,0a.4.4,0,0,1,.08.008,8.7,8.7,0,0,1,3.693,1.78.389.389,0,0,1,.13.4A15.489,15.489,0,0,1,7.291,12.52,11.515,11.515,0,0,1,3.073,13.448ZM3.21,9.356a17.389,17.389,0,0,1-2.147,2.882l.021.019-.021.023-.031.034a5.653,5.653,0,0,0,2.041.357,10.816,10.816,0,0,0,3.944-.876,14.391,14.391,0,0,0,5.608-3.731,14.405,14.405,0,0,0,3.356-5.83,8,8,0,0,0-2.8-1.38,13.044,13.044,0,0,1-3.473,5.9,8.626,8.626,0,0,1-5.873,2.63c-.208,0-.419-.01-.626-.029Z" transform="translate(298.662 418.216)"/><path class="c" d="M25.642,5.9A7.994,7.994,0,0,0,22.625,0a15.153,15.153,0,0,1-9.263,10.066c-1.6.639-4.4,1.518-6.772.295C2.43,15.073-1.029,21.628.282,28a6.712,6.712,0,0,0,11.274,3.493c3.4-2.953,4.421-7.611,6.644-11.366C20.906,15.591,25.857,11.6,25.642,5.9" transform="translate(292.46 420.305)"/><path class="d" d="M7.3,34.2A7.173,7.173,0,0,1,.29,28.47c-1.615-7.854,3.935-15.189,6.4-17.977a.389.389,0,0,1,.469-.088,5.425,5.425,0,0,0,2.508.566,10.816,10.816,0,0,0,3.943-.876A14.709,14.709,0,0,0,22.637.289.388.388,0,0,1,23.012,0a.393.393,0,0,1,.246.087,8.363,8.363,0,0,1,3.16,6.187c.157,4.18-2.345,7.44-4.765,10.592l0,0-.011.014a41.223,41.223,0,0,0-2.718,3.831,39.336,39.336,0,0,0-1.949,3.952l-.011.026c-1.2,2.69-2.446,5.471-4.763,7.482A6.992,6.992,0,0,1,7.3,34.2ZM7.076,11.227a30.047,30.047,0,0,0-4.5,6.868A16.325,16.325,0,0,0,1.049,28.31a6.39,6.39,0,0,0,6.242,5.109A6.262,6.262,0,0,0,11.673,31.6c2.2-1.914,3.411-4.616,4.579-7.228a39.985,39.985,0,0,1,2-4.058,41.711,41.711,0,0,1,2.759-3.893l.022-.029c2.338-3.044,4.756-6.193,4.608-10.1a7.476,7.476,0,0,0-2.426-5.22,15.3,15.3,0,0,1-3.557,5.939,15.112,15.112,0,0,1-5.779,3.8,11.527,11.527,0,0,1-4.218.927A6.293,6.293,0,0,1,7.076,11.227Z" transform="translate(292.073 419.917)"/><path class="d" d="M6.272,1.165H.582A.582.582,0,0,1,.582,0h5.69a.582.582,0,1,1,0,1.165" transform="translate(294.732 438.275)"/><path class="d" d="M6.862,1.165H.582A.582.582,0,0,1,.582,0h6.28a.582.582,0,1,1,0,1.165" transform="translate(293.605 442.036)"/><path class="d" d="M6.2,1.7a.58.58,0,0,1-.412-.17A20.885,20.885,0,0,0,.591,1.171.6.6,0,0,1,0,.6.582.582,0,0,1,.573.007c2.4-.036,5.388.056,6.034.7A.582.582,0,0,1,6.2,1.7" transform="translate(297.46 434.898)"/><path class="c" d="M51.775,73.375,46.411,176.89a3.544,3.544,0,0,1-2.573,3.121c-3.857,1.155-8.26,1-11.365-1.563a6.474,6.474,0,0,0,.022-4.311A573.475,573.475,0,0,1,.7,27.194C-.033,18.072-.88,9.781,2.1,1.129L2.47,0,43.938,6.615,97.119,12.91l-1.075,7.135" transform="translate(185.646 251.145)"/><path class="d" d="M39.677,181.488a10.924,10.924,0,0,1-7.065-2.352.388.388,0,0,1-.111-.449,6.142,6.142,0,0,0,.015-4.031A573.253,573.253,0,0,1,.7,27.614L.6,26.4C-.1,17.83-.756,9.735,2.12,1.391L2.486.268A.388.388,0,0,1,2.917.005L44.384,6.621,97.55,12.913a.388.388,0,0,1,.338.443l-1.074,7.135a.388.388,0,1,1-.768-.116l1.015-6.739L44.278,7.389,3.122.824l-.266.814C.031,9.834.684,17.85,1.375,26.337l.1,1.215A572.5,572.5,0,0,0,33.246,174.395a6.888,6.888,0,0,1,.071,4.311c2.7,2.09,6.613,2.573,10.795,1.321a3.165,3.165,0,0,0,2.3-2.764l5.364-103.52a.388.388,0,1,1,.775.04L47.183,177.3a3.97,3.97,0,0,1-2.849,3.473,16.282,16.282,0,0,1-4.658.717" transform="translate(185.261 250.756)"/><path class="c" d="M64.455,0c3.181,25.993-7.075,74.528-7.075,74.528A162.281,162.281,0,0,0,80.45,137.865c3.377,5.4,10.04,10.689,8.688,16.91-1.193,5.489-6.426,7.993-6.426,7.993-15.283-1.543-29.36-10.021-39.543-21.522S26.432,115.4,22.226,100.63s-6.185-30.075-8.15-45.31l.3-.408A82.888,82.888,0,0,1,0,31.788" transform="translate(220.234 264.055)"/><path class="d" d="M83.1,163.544l-.039,0c-14.393-1.453-28.9-9.345-39.794-21.651-9.213-10.406-16.287-24.121-21.027-40.766-4.223-14.832-6.225-30.355-8.162-45.367a.384.384,0,0,1,.073-.28l.115-.156a82.9,82.9,0,0,1-14.237-23,.388.388,0,0,1,.718-.3A82.121,82.121,0,0,0,15.056,55.044a.388.388,0,0,1,.021.487l-.208.283c1.927,14.936,3.926,30.374,8.119,45.1,4.707,16.532,11.725,30.146,20.861,40.464,10.74,12.13,25.014,19.918,39.178,21.382.7-.367,5.07-2.843,6.121-7.677.938-4.313-2.223-8.267-5.279-12.09a50.556,50.556,0,0,1-3.359-4.531A163.316,163.316,0,0,1,57.384,74.97a.388.388,0,0,1,0-.134c.1-.485,10.206-48.769,7.07-74.4a.388.388,0,1,1,.771-.094c1.648,13.469-.366,33.055-2.346,47.112-2.061,14.635-4.513,26.479-4.721,27.476a162.519,162.519,0,0,0,23,63.118,49.216,49.216,0,0,0,3.307,4.459c3.17,3.966,6.447,8.066,5.431,12.74-1.219,5.61-6.416,8.155-6.637,8.26a.388.388,0,0,1-.168.038" transform="translate(219.846 263.667)"/><path class="d" d="M0,3.284S15.111,15.02,34.683,18.662s46.967,4.614,63.353-1.606c-3.119-4.538-6-5.069-6-5.069L6.615,0Z" transform="translate(186.966 250.159)"/><path class="g" d="M102.815,145.019q-2.662,5.6-5.772,10.969s-31.159,3.55-48.951,2.107C23.169,156.074,0,139.166,0,139.166q.7-3.192,1.4-6.381a98.647,98.647,0,0,0,13.783-.064c9.5-2.324,18.546-18.546,19.444-41.285s16.235-57.78,19.457-62.913,7.424-7.543,9.041-10.676c1.413-2.737-.6-11.91-3.393-17.665A31.148,31.148,0,0,1,67.94.4C79.859,1.928,90.633,8.492,98.716,17.482v0c1.056,9.573-5.891,12.621-14.217,19.427s-4.746,38.527-5.449,55-4.767,18.01-7.892,37.024c-3.78,23,31.657,16.082,31.657,16.082" transform="translate(186.538 110.995)"/><path class="d" d="M58.347,159.215c-3.762,0-7.093-.115-9.9-.343C23.7,156.864.392,140.04.159,139.87a.388.388,0,0,1-.15-.4l1.4-6.381a.39.39,0,0,1,.379-.3h.031c1.772.145,3.777.219,5.958.219,4.014,0,7.363-.251,7.732-.28,4.657-1.154,9.155-5.691,12.664-12.776,3.8-7.667,6.03-17.4,6.455-28.141.895-22.769,16.045-57.575,19.516-63.1a34.924,34.924,0,0,1,5.459-6.434l.012-.012a18.4,18.4,0,0,0,3.554-4.2c1.252-2.425-.494-11.327-3.4-17.318a.388.388,0,0,1,.3-.554A25.427,25.427,0,0,1,63.246,0a32.7,32.7,0,0,1,5.149.411c11.317,1.447,22.325,7.556,31,17.2a.387.387,0,0,1,.1.259c.89,8.06-3.726,11.568-10.116,16.423l-.023.017C88,35.343,86.593,36.41,85.133,37.6c-6.027,4.924-5.647,24.123-5.341,39.549.111,5.595.217,10.879.034,15.166a64.031,64.031,0,0,1-3.568,19.294l0,.014A114.377,114.377,0,0,0,71.93,129.39c-.822,5,.2,8.932,3.041,11.689A16.729,16.729,0,0,0,82.817,145a40.156,40.156,0,0,0,9.35.98,64.929,64.929,0,0,0,10.962-.957.389.389,0,0,1,.425.548c-1.784,3.752-3.731,7.452-5.787,11a.387.387,0,0,1-.292.192l-.014,0C96.567,156.866,75.363,159.215,58.347,159.215ZM2.1,133.589h0l-1.277,5.8c2.428,1.715,24.4,16.82,47.689,18.709,2.788.226,6.1.341,9.844.341,16.47,0,36.6-2.177,38.838-2.425,1.886-3.263,3.68-6.658,5.332-10.089a65.675,65.675,0,0,1-10.4.872,40.111,40.111,0,0,1-9.565-1.031,17.523,17.523,0,0,1-8.127-4.13c-3.033-2.944-4.133-7.107-3.268-12.371a115.028,115.028,0,0,1,4.356-17.885l0-.006a62.656,62.656,0,0,0,3.53-19.087c.181-4.25.076-9.53-.034-15.119-.326-16.406-.7-35,5.625-40.165,1.471-1.2,2.88-2.273,4.242-3.309l.023-.017c6.16-4.681,10.61-8.062,9.824-15.638C90.2,8.586,79.383,2.6,68.279,1.179a32.508,32.508,0,0,0-5.066-.4c-.878,0-1.72.04-2.5.118a45.6,45.6,0,0,1,3.133,9.845c.7,3.615.71,6.34.021,7.673a18.862,18.862,0,0,1-3.7,4.4,34.38,34.38,0,0,0-5.359,6.305c-3.449,5.5-18.508,40.093-19.4,62.722-.428,10.851-2.688,20.691-6.534,28.456-3.621,7.31-8.31,11.994-13.206,13.191a.441.441,0,0,1-.06.01c-.033,0-3.535.284-7.822.285-2.066,0-3.979-.065-5.686-.195Z" transform="translate(186.15 110.606)"/><path class="c" d="M58.333,0c2.789,5.755,4.806,14.928,3.393,17.665-1.617,3.133-5.819,5.546-9.041,10.676S34.121,68.511,33.228,91.254s-9.939,38.961-19.444,41.285A98.682,98.682,0,0,1,0,132.6c4.121-18.687,5.767-38.962,9.887-57.649,2.711-12.319,4.991-26.776,9.559-38.537s14-19.305,23.312-27.819A36.552,36.552,0,0,1,55.307.672,15.462,15.462,0,0,1,58.333,0" transform="translate(187.943 111.178)"/><path class="d" d="M6.375,133.6c-2.2,0-4.227-.074-6.018-.221a.39.39,0,0,1-.347-.471c2.059-9.335,3.523-19.23,4.939-28.8S7.833,84.619,9.9,75.259c.638-2.9,1.235-5.833,1.868-8.938,2.063-10.135,4.2-20.615,7.708-29.656,4.088-10.539,11.965-17.636,20.3-25.15l.253-.228c.935-.844,1.9-1.716,2.855-2.587A36.6,36.6,0,0,1,55.57.694,15.778,15.778,0,0,1,58.672,0a.381.381,0,0,1,.048,0,.393.393,0,0,1,.351.219c2.782,5.743,4.914,15.058,3.389,18.013a18.909,18.909,0,0,1-3.7,4.4,34.313,34.313,0,0,0-5.36,6.307c-3.449,5.5-18.509,40.1-19.4,62.722-.428,10.85-2.688,20.69-6.535,28.455-3.62,7.309-8.31,11.994-13.2,13.191a.339.339,0,0,1-.061.01C14.171,133.317,10.659,133.6,6.375,133.6ZM58.494.811a14.733,14.733,0,0,0-2.673.617A35.867,35.867,0,0,0,43.408,9.274c-1.007.921-2.03,1.843-3.02,2.735l-.092.083c-8.268,7.451-16.078,14.489-20.1,24.854-3.487,8.977-5.614,19.425-7.672,29.53-.6,2.951-1.222,6-1.87,8.951-2.057,9.333-3.522,19.227-4.938,28.8C4.322,113.647,2.88,123.394.863,132.639c1.652.121,3.505.184,5.508.184,4.034,0,7.371-.251,7.738-.28,4.658-1.154,9.155-5.69,12.664-12.775,3.8-7.666,6.03-17.4,6.455-28.141.894-22.764,16.045-57.575,19.516-63.1a34.976,34.976,0,0,1,5.47-6.443,18.384,18.384,0,0,0,3.556-4.2c.588-1.137.546-3.756-.113-7.184A43.282,43.282,0,0,0,58.494.811Z" transform="translate(187.554 110.79)"/><path class="c" d="M31.939,127.533S-3.5,134.455.282,111.452C3.407,92.437,7.472,90.9,8.174,74.427s-2.877-48.2,5.449-55S28.9,9.573,27.84,0a60.667,60.667,0,0,1,6.674,8.943c8.216,13.408,11.51,29.328,12.255,45.031a155.162,155.162,0,0,1-14.83,73.559" transform="translate(257.414 128.482)"/><path class="d" d="M21.278,129.287h-.11c-8.19-.015-14.117-1.744-17.615-5.137C.52,121.205-.579,117.042.286,111.776A114.947,114.947,0,0,1,4.641,93.893l0-.006A62.656,62.656,0,0,0,8.173,74.8c.181-4.249.076-9.529-.034-15.119-.326-16.406-.7-35,5.625-40.165,1.455-1.19,2.85-2.251,4.2-3.277l.065-.05c6.187-4.7,10.657-8.1,9.812-15.758a.389.389,0,0,1,.675-.3,61.268,61.268,0,0,1,6.717,9c7.312,11.934,11.454,27.146,12.311,45.215a155.306,155.306,0,0,1-14.867,73.744.386.386,0,0,1-.275.214A65.014,65.014,0,0,1,21.278,129.287ZM28.706,1.515a12.33,12.33,0,0,1-2.7,8.645c-1.835,2.336-4.464,4.334-7.508,6.647l-.022.017c-1.358,1.032-2.762,2.1-4.221,3.293-6.027,4.923-5.646,24.119-5.34,39.543v.006c.111,5.6.215,10.893.033,15.168A64.053,64.053,0,0,1,5.383,94.121,114.418,114.418,0,0,0,1.052,111.9c-.822,5,.2,8.932,3.041,11.688a16.722,16.722,0,0,0,7.846,3.925,40.179,40.179,0,0,0,9.353.98,65.913,65.913,0,0,0,10.769-.921A154.541,154.541,0,0,0,46.769,54.381c-.851-17.936-4.956-33.025-12.2-44.847A60.639,60.639,0,0,0,28.706,1.515Z" transform="translate(257.027 128.094)"/><path class="c" d="M9.048,7.252S3.721,5.417,2.244,6,.23,8.506.006,11.729s6.4,9.311,12.624,7.744S16.255,1.209,16.255,1.209L8.958,0,6.042,6.6" transform="translate(305.187 256.014)"/><path class="d" d="M10.949,20.5a12.2,12.2,0,0,1-7.7-3.033C1.172,15.732-.1,13.622.006,12.09.224,8.951.73,6.719,2.489,6.025a2.644,2.644,0,0,1,.938-.136A13.126,13.126,0,0,1,6.3,6.322L8.991.231A.386.386,0,0,1,9.41.005l7.3,1.209a.388.388,0,0,1,.32.324c.108.7,2.572,17.066-3.915,18.7A8.85,8.85,0,0,1,10.949,20.5ZM3.42,6.659a1.845,1.845,0,0,0-.646.089c-1.181.465-1.759,2.028-1.993,5.4-.088,1.271,1.1,3.172,2.963,4.729a11.426,11.426,0,0,0,7.2,2.852,8.1,8.1,0,0,0,1.977-.239c2.979-.751,3.739-5.5,3.853-9.355a53.03,53.03,0,0,0-.476-8.2L9.58.821,7.063,6.514c1.194.318,2.215.662,2.5.76a.388.388,0,0,1-.127.755.389.389,0,0,1-.126-.021c-.775-.267-1.715-.549-2.579-.775a.388.388,0,0,1-.3.143.384.384,0,0,1-.156-.033.391.391,0,0,1-.224-.279A12.709,12.709,0,0,0,3.42,6.659Z" transform="translate(304.799 255.626)"/><path class="c" d="M0,0A95.566,95.566,0,0,1,17.565,17.45C40.208,48.5,43.969,86.687,34.839,124.019a17.374,17.374,0,0,1-5.785,1.352c-5.56.024-7.29-3.661-7.29-3.661-2.426-22.264-4.52-43.844-14.025-64.123C6.4,54.738,4.94,51.94,3.531,49.121" transform="translate(289.353 133.559)"/><path class="d" d="M29.387,126.147c-5.7,0-7.512-3.725-7.587-3.884a.388.388,0,0,1-.035-.123l-.239-2.194C19.168,98.217,16.94,77.693,7.775,58.139c-.937-2-1.956-4.009-2.941-5.953q-.633-1.25-1.262-2.5a.388.388,0,1,1,.695-.347q.625,1.251,1.261,2.5c.988,1.949,2.009,3.965,2.951,5.975C17.7,77.481,19.933,98.067,22.3,119.862l.231,2.124c.237.451,1.969,3.385,6.857,3.385h.053a16.687,16.687,0,0,0,5.456-1.246c4.679-19.223,5.764-37.827,3.225-55.3A112.69,112.69,0,0,0,17.639,18.067,96.119,96.119,0,0,0,.171.71.388.388,0,0,1,.605.067,95.023,95.023,0,0,1,18.267,17.61a113.46,113.46,0,0,1,20.623,51.1c2.562,17.63,1.457,36.4-3.285,55.787a.388.388,0,0,1-.222.264,17.568,17.568,0,0,1-5.939,1.384Z" transform="translate(288.965 133.171)"/><path class="c" d="M45.1,86.011s-2.427.995-10.178-17.431C24,42.6,18.453,1.611,18.453,1.611S13.976,2.149,6.277,0C-11.45,73.594,14,132.863,14,132.863" transform="translate(196.27 28.205)"/><path class="d" d="M14.358,133.639A.388.388,0,0,1,14,133.4c-.064-.149-6.428-15.134-10.536-38.921C-.324,72.535-2.916,38.378,6.257.3A.388.388,0,0,1,6.738.014c7.52,2.1,11.982,1.605,12.026,1.6a.388.388,0,0,1,.431.333c.056.41,5.663,41.233,16.447,66.87,6.98,16.595,9.528,17.183,9.737,17.2a.388.388,0,0,1,.23.738c-.653.269-3.352-.212-10.683-17.639-5.657-13.451-9.843-30.971-12.357-43.3-2.435-11.942-3.817-21.451-4.092-23.4A36.855,36.855,0,0,1,6.918.869,234.754,234.754,0,0,0,4.227,94.326c4.09,23.7,10.425,38.624,10.488,38.772a.388.388,0,0,1-.357.541" transform="translate(195.913 27.817)"/><path class="d" d="M48.6,10.751A123.54,123.54,0,0,1,.235.745.388.388,0,0,1,.542.032,122.6,122.6,0,0,0,50.109,9.965a.388.388,0,0,1,.01.776c-.507.007-1.015.01-1.518.01" transform="translate(208.455 238.897)"/><path class="c" d="M1.1,3.2S-1.376,1.525,1.1.391s10.5.358,12.206,2.447a2,2,0,0,1-1.88,3.074C9.7,5.733,1.1,3.2,1.1,3.2" transform="translate(202.371 22.055)"/><path class="d" d="M12.026,6.688a2.355,2.355,0,0,1-.251-.013c-1.626-.168-8.917-2.3-10.362-2.72l-.034-.01a.432.432,0,0,1-.107-.05C1.045,3.741-.08,2.918,0,1.892.054,1.291.5.794,1.328.415A7,7,0,0,1,4.057,0,22.632,22.632,0,0,1,9.794.828,8.689,8.689,0,0,1,14,2.97a2.147,2.147,0,0,1,.147,2.416A2.392,2.392,0,0,1,12.026,6.688ZM4.04.752a6.1,6.1,0,0,0-2.389.368c-.38.174-.841.461-.872.834-.039.465.56,1.03.882,1.264.084.025,8.527,2.512,10.194,2.685a1.678,1.678,0,0,0,.171.009,1.657,1.657,0,0,0,1.433-.895,1.4,1.4,0,0,0-.066-1.557,8.374,8.374,0,0,0-3.888-1.9A21.745,21.745,0,0,0,4.04.752Z" transform="translate(201.983 21.678)"/><path class="c" d="M2.331,5.049S-.892,2.78.242.691,9.911,1.885,12.955,2.184a2.4,2.4,0,0,1,.913,4.607C11.821,7.556,3.584,5.646,2.331,5.049" transform="translate(200.992 24.351)"/><path class="d" d="M12.815,7.742A39.769,39.769,0,0,1,2.556,5.787.3.3,0,0,1,2.5,5.754,8.284,8.284,0,0,1,.861,4.174,2.894,2.894,0,0,1,.293.895C.619.292,1.361,0,2.561,0A32.023,32.023,0,0,1,9.388,1.3a32.775,32.775,0,0,0,4,.885A2.784,2.784,0,0,1,14.4,7.542,4.777,4.777,0,0,1,12.815,7.742ZM2.481.77h0c-.821,0-1.328.166-1.506.494C.066,2.941,2.626,4.884,2.921,5.1a39.624,39.624,0,0,0,9.885,1.877,4.024,4.024,0,0,0,1.319-.163,1.991,1.991,0,0,0,1.2-2.134,2.031,2.031,0,0,0-2.011-1.723A32.448,32.448,0,0,1,9.2,2.052l-.006,0A33.355,33.355,0,0,0,2.481.771Z" transform="translate(200.6 23.962)"/><path class="d" d="M6.222,9.468c-1.07,0-2.483-.638-4.21-1.9A4.284,4.284,0,0,1,0,4.293C-.088,2.016,2.017.172,2.107.094a.388.388,0,0,1,.508.588C2.6.7.7,2.364.779,4.265A3.558,3.558,0,0,0,2.47,6.939C4.845,8.678,6.04,8.764,6.541,8.661a.727.727,0,0,0,.491-.28.4.4,0,0,1,.524-.15.382.382,0,0,1,.165.508,1.419,1.419,0,0,1-.957.668,2.3,2.3,0,0,1-.543.062" transform="translate(210.393 4.241)"/><path class="c" d="M24.591,5.849,13.907,0,0,17.369C4.7,29.236,13.062,33.055,24.823,29.434Z" transform="translate(252.206 98.218)"/><path class="d" d="M17.331,31.517A16.2,16.2,0,0,1,7.056,28.107,23.826,23.826,0,0,1,.027,17.9a.387.387,0,0,1,.059-.385L13.992.146A.386.386,0,0,1,14.3,0a.392.392,0,0,1,.187.048L25.166,5.9a.39.39,0,0,1,.2.337L25.6,29.819a.387.387,0,0,1-.274.374A27.394,27.394,0,0,1,17.331,31.517ZM14.395.885h0L.833,17.823a23.1,23.1,0,0,0,6.689,9.719,14.623,14.623,0,0,0,4.467,2.42,16.6,16.6,0,0,0,5.239.8,26.729,26.729,0,0,0,7.593-1.231L24.593,6.468,14.395.885Z" transform="translate(251.818 97.83)"/><path class="d" d="M0,2.688A14.873,14.873,0,0,0,12.966,4.817C5.076,1.138,2.421,0,2.421,0Z" transform="translate(260.232 102.875)"/><path class="c" d="M16.895,7.594S-4.992,24.306,1.057,41.138s29.924,5.372,32.789,2.387c3.7-1.672,8.863-6.6,7.565-10.49s-6.625-2.552-8.192-1.074-5.1,3.671-6.67,1.522,3.044-6.357,5.416-8.281,1.432-7.162-3.447-6.222c-3.626.492-3.581-4.7-5.416-6.267s-5.282-.4-5.059-1.477,6-3.626,4.745-5.417S20.058,5.057,21.133,3s1.254-4.611-1.208-1.656-1.537,5.7-3.029,6.252" transform="translate(258.231 57.08)"/><path class="d" d="M14.854,50.885A18.911,18.911,0,0,1,10.93,50.5a12.874,12.874,0,0,1-9.865-8.834C-1.455,34.65.517,26.542,6.77,18.213A61.029,61.029,0,0,1,17.032,7.678a.39.39,0,0,1,.1-.056c.479-.177.623-.714.857-1.728A9.7,9.7,0,0,1,20,1.486C20.843.472,21.455,0,21.926,0a.656.656,0,0,1,.369.113c.8.531.057,2.493-.445,3.457-.352.673-.336.856-.322.9s.193.137.359.216a3.742,3.742,0,0,1,1.593,1.306C24.491,7.433,22.292,9,20.524,10.264a8.3,8.3,0,0,0-1.718,1.415,5.027,5.027,0,0,0,1.107.106h.015a6.023,6.023,0,0,1,3.8,1.024,7.235,7.235,0,0,1,1.615,2.811c.706,1.746,1.372,3.4,3.094,3.4a3.017,3.017,0,0,0,.4-.028,6.077,6.077,0,0,1,1.146-.114,3.775,3.775,0,0,1,3.6,2.142A4.155,4.155,0,0,1,32.583,25.9c-3.341,2.71-6.5,6.169-5.347,7.751a1.715,1.715,0,0,0,1.293.729c.073.007.149.01.225.01,1.552,0,3.584-1.384,4.572-2.315a7.368,7.368,0,0,1,4.612-1.579,5.594,5.594,0,0,1,1.358.157A3.892,3.892,0,0,1,42.152,33.3c.621,1.863-.081,4.154-1.977,6.449a17.414,17.414,0,0,1-5.729,4.487,25.565,25.565,0,0,1-7.407,4.068A34.759,34.759,0,0,1,14.854,50.885ZM21.859.8h0a4.125,4.125,0,0,0-1.264,1.183,8.893,8.893,0,0,0-1.848,4.082l0,.008C18.508,7.1,18.3,7.98,17.462,8.328,16.584,9.014-3.986,25.313,1.8,41.4a12.14,12.14,0,0,0,9.3,8.338,18.66,18.66,0,0,0,3.875.387A33.4,33.4,0,0,0,27.1,47.451a25.174,25.174,0,0,0,6.839-3.8.388.388,0,0,1,.12-.085c3.79-1.712,8.54-6.464,7.357-10.013A3.106,3.106,0,0,0,39.107,31.4a4.89,4.89,0,0,0-1.188-.138,6.665,6.665,0,0,0-4.061,1.372c-.995.938-3.188,2.526-5.1,2.526-.1,0-.2,0-.3-.013A2.481,2.481,0,0,1,26.608,34.1c-1.739-2.383,2.69-6.543,5.485-8.811a3.406,3.406,0,0,0,.791-3.951,2.986,2.986,0,0,0-2.893-1.692,5.457,5.457,0,0,0-1.028.1,3.94,3.94,0,0,1-.527.037c-2.247,0-3.117-2.151-3.816-3.88a6.761,6.761,0,0,0-1.4-2.51,5.348,5.348,0,0,0-3.32-.84c-.843-.028-1.452-.048-1.742-.417a.7.7,0,0,1-.124-.6c.108-.519.807-1.039,2.034-1.914,1.411-1.006,3.344-2.384,2.773-3.2a2.978,2.978,0,0,0-1.3-1.051c-.329-.16-.639-.312-.758-.672s-.011-.766.371-1.5A4.949,4.949,0,0,0,21.859.8Z" transform="translate(257.858 56.688)"/><path class="d" d="M12.382,8.781C3.612,8.781.072.638.03.539a.388.388,0,1,1,.715-.3C.942.7,5.69,11.561,18.337,6.829a.388.388,0,0,1,.272.727,17.753,17.753,0,0,1-6.227,1.226" transform="translate(261.427 87.444)"/><path class="c" d="M91.264,47.252c-15.039,4.061-24.114.481-27.217,8.837S48.859,71.268,48.859,71.268C38.074,84.776,25.305,82.749,11.524,72.8c0,0-12.536-1.554-11.459-10.982.434-3.827,2.856-4.469,5.7-3.993L22.388,19.486S19.88,4.987,27.4,1.769s19.1-2.86,14.443,25.906c4.3-10.982,10.625-7.4,8.951-1.43l-1.669,5.968s-.017.183-.042.494C55.9,19.06,64.924,5.511,75.029,1.769c22.2-8.232,26.74,14.208,17.431,27.34,15.039-2.626,13.847,14.085-1.2,18.142" transform="translate(323.651 319.921)"/><path class="d" d="M31.922,81.572a25.977,25.977,0,0,1-9.56-2.005,50.461,50.461,0,0,1-10.6-6.015,20.714,20.714,0,0,1-6.7-2.3A10.763,10.763,0,0,1,1.28,67.807,8.438,8.438,0,0,1,.068,62.155a5.053,5.053,0,0,1,1.753-3.649,4.516,4.516,0,0,1,2.82-.825,9.15,9.15,0,0,1,1.271.1l16.461-37.96a34.951,34.951,0,0,1-.3-7.631C22.5,6.763,24.421,3.17,27.637,1.794A16.054,16.054,0,0,1,33.728.409a8.447,8.447,0,0,1,5.341,1.73c4.249,3.321,5.58,11.139,3.954,23.239,2.216-4.185,4.424-4.809,5.543-4.809a2.979,2.979,0,0,1,.948.153c1.943.651,2.822,3.235,2.045,6.01l-.883,3.158c8.213-15.643,16.493-25.1,24.608-28.1A25.835,25.835,0,0,1,84.167,0a14.278,14.278,0,0,1,5.975,1.208,11.812,11.812,0,0,1,4.491,3.6,17.542,17.542,0,0,1,3.135,11.408,25.567,25.567,0,0,1-4.1,12.758,16.866,16.866,0,0,1,2.134-.142c4.336,0,7.241,1.884,7.969,5.17,1.083,4.885-3.2,11.628-12.019,14A83.4,83.4,0,0,1,77.8,50.345c-6.919.706-11.1,1.132-13,6.26a19.873,19.873,0,0,1-3.518,5.755,38.129,38.129,0,0,1-4.865,4.749A52.942,52.942,0,0,1,49.5,71.95a28.089,28.089,0,0,1-8.24,7.217A19.233,19.233,0,0,1,31.922,81.572ZM4.643,58.458a3.78,3.78,0,0,0-2.354.669A4.328,4.328,0,0,0,.84,62.243C-.18,71.175,11.465,72.734,11.961,72.8a.4.4,0,0,1,.179.07c7.337,5.3,13.737,7.9,19.567,7.957h.238c6.38,0,11.94-3.08,17-9.418a.385.385,0,0,1,.112-.1c.12-.067,11.991-6.835,15.015-14.977,2.074-5.581,6.677-6.051,13.645-6.762h.008a82.738,82.738,0,0,0,13.828-2.314C99.923,45,104.02,38.707,103.015,34.17c-.643-2.9-3.277-4.56-7.226-4.56a16.822,16.822,0,0,0-2.874.264.394.394,0,0,1-.069.006.389.389,0,0,1-.315-.613c5.357-7.556,6.009-18.092,1.485-23.986A11.018,11.018,0,0,0,89.8,1.911,13.579,13.579,0,0,0,84.149.781a25.021,25.021,0,0,0-8.6,1.734c-8.442,3.126-17.1,13.471-25.733,30.747a.39.39,0,0,1-.347.215.383.383,0,0,1-.1-.014.388.388,0,0,1-.283-.405c.025-.314.042-.5.042-.5a.44.44,0,0,1,.013-.069l1.669-5.968c.665-2.37,0-4.547-1.544-5.064a2.155,2.155,0,0,0-.687-.109,4.08,4.08,0,0,0-2.865,1.511A16.2,16.2,0,0,0,42.594,28.2a.389.389,0,0,1-.745-.2C44.014,14.626,42.917,6.133,38.591,2.75a7.7,7.7,0,0,0-4.869-1.564,15.258,15.258,0,0,0-5.78,1.322,7.352,7.352,0,0,0-3.77,3.974,17.525,17.525,0,0,0-1.315,5.767,34.554,34.554,0,0,0,.3,7.551.385.385,0,0,1-.027.221L6.505,58.36a.388.388,0,0,1-.357.234.393.393,0,0,1-.064-.005A8.854,8.854,0,0,0,4.643,58.458Z" transform="translate(323.263 319.54)"/><path class="d" d="M.03.561s15.755,7.89,26.3,3.717S38.441.181,38.441.181c2.239-.412,2.736-.052,3.071.379,0,0-6.51,6.727-18.876,7.333S-.652,6.933.03.561" transform="translate(333.211 389.056)"/><path class="c" d="M0,0S3.342,7.64,19.577,6.685,41.7,0,41.7,0L33.424,39.871s-7.965,5.491-20.814,1.194C5.014,15.28,0,0,0,0" transform="translate(333.027 389.617)"/><path class="d" d="M22.557,43.469a30.557,30.557,0,0,1-9.68-1.648.39.39,0,0,1-.25-.259C5.438,17.164.558,2.157.025.526L.02.509A.388.388,0,0,1,.744.232,9.46,9.46,0,0,0,4.355,3.8c3.969,2.454,9.216,2.969,12.918,2.969.863,0,1.761-.027,2.67-.08C35.82,5.751,41.757.166,41.815.11A.386.386,0,0,1,42.085,0a.391.391,0,0,1,.188.048.387.387,0,0,1,.193.419L34.193,40.338a.384.384,0,0,1-.159.24C33.992,40.607,29.773,43.469,22.557,43.469ZM1.495,2.544h0c1.608,5,5.978,18.781,11.82,38.6A29.9,29.9,0,0,0,22.625,42.7a24.424,24.424,0,0,0,5.471-.6,18.309,18.309,0,0,0,5.369-2.077L41.484,1.378c-2.148,1.576-8.547,5.321-21.5,6.083-.949.056-1.885.084-2.782.084A29.021,29.021,0,0,1,6.647,5.821,14.479,14.479,0,0,1,1.495,2.544Z" transform="translate(332.638 389.229)"/><path class="c" d="M25.267,49.656c0,.358-30.918-29.247-24.352-40.706S20.721-6.212,30.758,17.783c-3.342-12.892,0-17.19,5.372-16.473s3.462,12.3,3.462,12.3S46.755,8.7,49.5,15.032s-6.924,21.373-6.924,21.373" transform="translate(309.55 335.783)"/><path class="d" d="M25.674,50.436c-.249,0-.822-.423-4-3.661-1.939-1.975-4.919-5.122-8.1-8.9C5.677,28.509-2.92,15.921.963,9.144,4.464,3.034,9.355-.29,14.376.02,18.484.275,24.367,3.1,29.939,14.554c-1.014-5.561-.574-9.45,1.317-11.585a5.736,5.736,0,0,1,5.311-1.656,3.73,3.73,0,0,1,2.575,1.556c2.027,2.737,1.587,8.272,1.332,10.369,1.257-.7,3.947-1.936,6.37-1.237a5.335,5.335,0,0,1,3.4,3.266c2.8,6.448-6.554,21.116-6.953,21.737a.388.388,0,1,1-.653-.42c.1-.149,9.526-14.939,6.894-21.009a4.6,4.6,0,0,0-2.9-2.828c-2.877-.832-6.4,1.543-6.435,1.567a.388.388,0,0,1-.6-.384c.012-.075,1.206-7.519-1.076-10.6a2.943,2.943,0,0,0-2.054-1.247,4.936,4.936,0,0,0-4.626,1.4c-1.448,1.634-2.677,5.491-.318,14.59a.388.388,0,0,1-.734.247C24.927,4.317,18.6,1.06,14.328.795,9.612.5,4.985,3.686,1.637,9.53-4.5,20.249,23.839,48.257,25.8,49.684a.389.389,0,0,1,.241.359.394.394,0,0,1-.257.368.3.3,0,0,1-.109.024" transform="translate(309.165 335.395)"/><path class="c" d="M0,0S22.663,46.775,27.645,51.022" transform="translate(321.98 343.39)"/><path class="d" d="M28.033,51.8a.388.388,0,0,1-.252-.093C22.8,47.455.966,2.47.039.557a.388.388,0,1,1,.7-.339c.226.467,22.685,46.75,27.547,50.9a.388.388,0,0,1-.252.684" transform="translate(321.592 343.003)"/><path class="c" d="M0,22.892S7.7,3.7,8.738,0" transform="translate(364.041 352.134)"/><path class="d" d="M.388,23.669a.388.388,0,0,1-.36-.533C.105,22.945,7.736,3.918,8.752.284A.388.388,0,1,1,9.5.493C8.473,4.168,1.064,22.641.749,23.426a.389.389,0,0,1-.361.244" transform="translate(363.653 351.746)"/><path class="c" d="M0,44.3S30.3,5.917,34.093,0" transform="translate(368.41 333.303)"/><path class="d" d="M.388,45.079a.388.388,0,0,1-.3-.629C.386,44.067,30.415,6.013,34.154.179A.388.388,0,0,1,34.808.6C31.048,6.463,1,44.548.693,44.932a.388.388,0,0,1-.305.148" transform="translate(368.022 332.914)"/><path class="c" d="M8.694.194H0" transform="translate(377.828 365.426)"/><path class="d" d="M9.082.776H.388A.388.388,0,0,1,.388,0H9.082a.388.388,0,0,1,0,.776" transform="translate(377.44 365.231)"/><path class="c" d="M0,0,1.31,9.778" transform="translate(387.027 342.356)"/><path class="d" d="M1.7,10.555a.389.389,0,0,1-.384-.337L0,.439a.388.388,0,1,1,.769-.1l1.31,9.778a.388.388,0,0,1-.333.436.4.4,0,0,1-.052,0" transform="translate(386.639 341.968)"/><path class="c" d="M0,2.371,15.309,0" transform="translate(395.589 340.333)"/><path class="d" d="M.388,3.148a.388.388,0,0,1-.059-.772L15.638,0a.388.388,0,0,1,.119.767L.448,3.143a.388.388,0,0,1-.06,0" transform="translate(395.2 339.945)"/><path class="c" d="M0,11.582S12.552,5.866,14.722,0" transform="translate(401.39 349.031)"/><path class="d" d="M.389,12.358a.388.388,0,0,1-.161-.741C.352,11.56,12.657,5.9,14.746.253a.388.388,0,1,1,.728.269C13.273,6.472,1.068,12.087.549,12.323a.387.387,0,0,1-.161.035" transform="translate(401.002 348.643)"/><path class="c" d="M0,0S5.653,13.571,6.259,18.325s5.968,13.25,6.777,15.374a7.035,7.035,0,0,1,.53,3.54" transform="translate(340.308 353.566)"/><path class="d" d="M13.956,38.016a.384.384,0,0,1-.075-.007.388.388,0,0,1-.306-.456,6.8,6.8,0,0,0-.512-3.327c-.227-.6-.842-1.743-1.621-3.193C9.554,27.515,6.7,22.2,6.263,18.762,5.669,14.114.086.673.03.538a.388.388,0,1,1,.717-.3C.978.8,6.426,13.913,7.033,18.664c.42,3.295,3.232,8.534,5.093,12,.792,1.475,1.417,2.64,1.662,3.284a7.376,7.376,0,0,1,.549,3.753.388.388,0,0,1-.38.313" transform="translate(339.92 353.178)"/><path class="c" d="M0,0,.641,18.546" transform="translate(356.784 330.016)"/><path class="d" d="M1.029,19.323a.388.388,0,0,1-.388-.375L0,.4A.388.388,0,0,1,.776.375l.641,18.546a.389.389,0,0,1-.375.4H1.029" transform="translate(356.396 329.627)"/><path class="c" d="M87.7,35.032c0,19.348-19.631,35.032-43.848,35.032S0,54.379,0,35.032,19.631,0,43.848,0,87.7,15.684,87.7,35.032" transform="translate(37.166 304.257)"/><path class="d" d="M44.236,70.84C19.844,70.84,0,54.95,0,35.419S19.844,0,44.236,0s44.236,15.889,44.236,35.42S68.628,70.84,44.236,70.84Zm0-70.063C20.272.777.777,16.317.777,35.419s19.5,34.645,43.459,34.645S87.7,54.523,87.7,35.419,68.2.777,44.236.777Z" transform="translate(36.778 303.869)"/><path class="c" d="M7.055,0H15.7S13.2,17.448,9.786,18.586s-9.786,0-9.786,0l.682-2.655S8.724,17.3,9.71,14.793,12.9,2.579,12.9,2.579L6.979,2.352Z" transform="translate(85.338 324.299)"/><path class="d" d="M6.1,19.87a37.092,37.092,0,0,1-5.783-.514.387.387,0,0,1-.307-.479l.682-2.655a.387.387,0,0,1,.441-.286,26.78,26.78,0,0,0,4.273.367c3.166,0,4.1-.688,4.328-1.264.832-2.113,2.556-9.491,3.064-11.7l-5.449-.21a.388.388,0,0,1-.373-.4L7.055.376A.387.387,0,0,1,7.443,0h8.648a.388.388,0,0,1,.384.444c-.259,1.81-2.635,17.718-6.178,18.9A13.692,13.692,0,0,1,6.1,19.87ZM1.359,16.758h0l-.489,1.9a36.842,36.842,0,0,0,5.262.432,12.832,12.832,0,0,0,3.919-.485c1.256-.418,3.782-5.511,5.592-17.829H7.819l-.051,1.59,5.531.212a.388.388,0,0,1,.364.474c-.09.4-2.223,9.78-3.2,12.27-.461,1.17-2.149,1.764-5.017,1.764a28.58,28.58,0,0,1-4.083-.329Z" transform="translate(84.95 323.911)"/><path class="c" d="M19.887,18.48C27.14,15.566,25.874,0,25.874,0H.085S-1.182,15.566,6.071,18.48C9.3,22,8.719,29.586,8.719,29.586L3.078,36.565h19.8l-5.641-6.979S16.663,22,19.887,18.48" transform="translate(67.932 320.809)"/><path class="d" d="M23.267,37.342H3.465a.388.388,0,0,1-.3-.633l5.564-6.882a25.877,25.877,0,0,0-.181-4.5,11.4,11.4,0,0,0-2.317-6.136C3.131,17.9,1.156,14.331.36,8.589A42.534,42.534,0,0,1,.085.356.39.39,0,0,1,.472,0H26.26a.39.39,0,0,1,.387.356,42.538,42.538,0,0,1-.275,8.232c-.8,5.743-2.771,9.311-5.87,10.6a11.4,11.4,0,0,0-2.317,6.136,25.765,25.765,0,0,0-.18,4.5l5.564,6.882a.389.389,0,0,1-.3.633ZM.836.777a41.767,41.767,0,0,0,.469,8.785,18.542,18.542,0,0,0,1.716,5.433A7.183,7.183,0,0,0,6.6,18.508a.385.385,0,0,1,.142.1C10.05,22.215,9.517,29.687,9.493,30a.389.389,0,0,1-.086.214l-5.13,6.348H22.454l-5.13-6.348A.389.389,0,0,1,17.239,30c-.024-.316-.556-7.788,2.749-11.4a.385.385,0,0,1,.142-.1,7.183,7.183,0,0,0,3.58-3.513,18.546,18.546,0,0,0,1.717-5.433A41.839,41.839,0,0,0,25.9.777H.836Z" transform="translate(67.545 320.421)"/><path class="c" d="M8.648,0H0S2.5,17.448,5.917,18.586s9.786,0,9.786,0l-.682-2.655S6.979,17.3,5.993,14.793,2.807,2.579,2.807,2.579l5.917-.227Z" transform="translate(60.781 324.299)"/><path class="d" d="M10.378,19.87a13.692,13.692,0,0,1-4.195-.527C2.647,18.164.264,2.254,0,.444A.388.388,0,0,1,.388,0H9.037a.387.387,0,0,1,.388.376L9.5,2.727a.389.389,0,0,1-.373.4l-5.449.21c.361,1.569,2.2,9.512,3.065,11.7.227.577,1.163,1.265,4.328,1.265a26.736,26.736,0,0,0,4.274-.368.389.389,0,0,1,.441.286l.682,2.655a.388.388,0,0,1-.307.479A37.339,37.339,0,0,1,10.378,19.87ZM.837.777a74.932,74.932,0,0,0,3,13.372c.9,2.551,1.871,4.218,2.593,4.457a12.827,12.827,0,0,0,3.917.485,37.2,37.2,0,0,0,5.264-.432l-.489-1.9a28.658,28.658,0,0,1-4.083.329c-2.868,0-4.557-.593-5.018-1.764-.981-2.491-3.113-11.872-3.2-12.27a.388.388,0,0,1,.364-.474l5.531-.212L8.661.777Z" transform="translate(60.393 323.911)"/><path class="d" d="M0,.849l36.225,42.48,19-33.581-19,29.382L.872,0Z" transform="translate(303.481 136.178)"/><path class="a" d="M0,462.924H539.933V0H0Z" transform="translate(0 0.001)"/><g class="h"><path class="d" d="M0,28.212H24.276V0H0Z" transform="translate(445.895 260.94)"/><path class="c" d="M0,27.447H20.482V0H0Z" transform="translate(461.523 244.273)"/><path class="d" d="M20.871,28.223H.388A.388.388,0,0,1,0,27.835V.388A.388.388,0,0,1,.388,0H20.871a.388.388,0,0,1,.388.388V27.835A.388.388,0,0,1,20.871,28.223ZM.777.776V27.446H20.482V.776Z" transform="translate(461.134 243.885)"/><path class="c" d="M28.411,14.205A14.205,14.205,0,1,0,14.205,28.411,14.205,14.205,0,0,0,28.411,14.205" transform="translate(46.576 139.063)"/><path class="d" d="M14.594,29.188A14.594,14.594,0,1,1,29.187,14.594,14.61,14.61,0,0,1,14.594,29.188Zm0-28.411A13.817,13.817,0,1,0,28.411,14.594,13.832,13.832,0,0,0,14.594.777Z" transform="translate(46.187 138.675)"/><path class="c" d="M58.261,29.131A29.131,29.131,0,1,0,29.13,58.261a29.131,29.131,0,0,0,29.131-29.13" transform="translate(397.58 115.885)"/><path class="d" d="M29.519,59.038A29.519,29.519,0,1,1,59.038,29.519,29.553,29.553,0,0,1,29.519,59.038Zm0-58.262A28.742,28.742,0,1,0,58.262,29.519,28.775,28.775,0,0,0,29.519.777Z" transform="translate(397.192 115.497)"/><path class="c" d="M50.018,25.009A25.009,25.009,0,1,0,25.009,50.018,25.009,25.009,0,0,0,50.018,25.009" transform="translate(401.702 120.007)"/><path class="d" d="M25.4,50.794a25.4,25.4,0,1,1,25.4-25.4A25.426,25.426,0,0,1,25.4,50.794ZM25.4.777A24.62,24.62,0,1,0,50.018,25.4,24.648,24.648,0,0,0,25.4.777Z" transform="translate(401.314 119.619)"/><path class="c" d="M14.672,25.9A4.1,4.1,0,0,0,13.4,22.854a11.346,11.346,0,0,0-4.278-2.242,13.718,13.718,0,0,1-6.107-3.334A7.352,7.352,0,0,1,1.1,12.057,7.559,7.559,0,0,1,2.98,6.766,7.982,7.982,0,0,1,8.143,4.307V0h2.931V4.327A7.582,7.582,0,0,1,16.217,7.1a9.968,9.968,0,0,1,1.839,6.353H14.437a6.852,6.852,0,0,0-1.318-4.42A4.329,4.329,0,0,0,9.559,7.4a4.912,4.912,0,0,0-3.58,1.212A4.509,4.509,0,0,0,4.74,11.986a4.119,4.119,0,0,0,1.307,3.2,12.045,12.045,0,0,0,4.308,2.167A18.152,18.152,0,0,1,15.036,19.5a7.525,7.525,0,0,1,2.478,2.724,7.874,7.874,0,0,1,.8,3.638,7.294,7.294,0,0,1-2,5.35,8.852,8.852,0,0,1-5.6,2.4v3.757H7.808V33.613a8.482,8.482,0,0,1-5.733-2.606A8.79,8.79,0,0,1,0,24.841H3.639A5.788,5.788,0,0,0,5.074,29.05a5.422,5.422,0,0,0,4.072,1.475A6.107,6.107,0,0,0,13.2,29.286,4.184,4.184,0,0,0,14.672,25.9" transform="translate(417.555 126.331)"/><path class="d" d="M11.3,38.534H8.391a.583.583,0,0,1-.582-.582V34.716a8.894,8.894,0,0,1-5.581-2.734A9.389,9.389,0,0,1,0,25.423a.583.583,0,0,1,.582-.582H4.221a.583.583,0,0,1,.582.582,5.258,5.258,0,0,0,1.271,3.8,4.824,4.824,0,0,0,3.654,1.3,5.579,5.579,0,0,0,3.677-1.1,3.6,3.6,0,0,0,1.267-2.938,3.5,3.5,0,0,0-1.094-2.632,10.871,10.871,0,0,0-4.054-2.107,14.29,14.29,0,0,1-6.349-3.488A7.946,7.946,0,0,1,1.1,12.639a8.154,8.154,0,0,1,2.03-5.683,8.4,8.4,0,0,1,5.01-2.572V.582A.583.583,0,0,1,8.725,0h2.931a.583.583,0,0,1,.582.582V4.414a8.042,8.042,0,0,1,5.017,2.907,10.571,10.571,0,0,1,1.966,6.715.583.583,0,0,1-.582.582H15.019a.583.583,0,0,1-.582-.582,6.319,6.319,0,0,0-1.19-4.054A3.74,3.74,0,0,0,10.141,8.56,4.385,4.385,0,0,0,6.969,9.606,3.924,3.924,0,0,0,5.9,12.569a3.537,3.537,0,0,0,1.118,2.772,11.6,11.6,0,0,0,4.095,2.044,18.791,18.791,0,0,1,4.834,2.221,8.128,8.128,0,0,1,2.663,2.936,8.48,8.48,0,0,1,.861,3.9A7.886,7.886,0,0,1,17.312,32.2a9.2,9.2,0,0,1-5.427,2.506v3.242A.583.583,0,0,1,11.3,38.534ZM1.177,26.005A7.99,7.99,0,0,0,3.087,31.2a7.97,7.97,0,0,0,5.357,2.419.579.579,0,0,1,.529.58V37.37H10.72V34.2a.581.581,0,0,1,.522-.58,8.33,8.33,0,0,0,5.241-2.229,6.675,6.675,0,0,0,1.829-4.941,7.334,7.334,0,0,0-.733-3.372,6.991,6.991,0,0,0-2.292-2.512,17.671,17.671,0,0,0-4.529-2.07,12.463,12.463,0,0,1-4.52-2.29,4.7,4.7,0,0,1-1.5-3.632,5.084,5.084,0,0,1,1.415-3.8A5.484,5.484,0,0,1,10.141,7.4a4.9,4.9,0,0,1,4.014,1.856,7.126,7.126,0,0,1,1.431,4.2h2.459a9.065,9.065,0,0,0-1.7-5.409,6.961,6.961,0,0,0-4.765-2.558.585.585,0,0,1-.5-.577V1.165H9.307V4.89a.582.582,0,0,1-.512.578,7.453,7.453,0,0,0-4.8,2.272,6.938,6.938,0,0,0-1.727,4.9,6.732,6.732,0,0,0,1.761,4.825,13.237,13.237,0,0,0,5.851,3.174,11.8,11.8,0,0,1,4.515,2.382,4.677,4.677,0,0,1,1.444,3.465,4.758,4.758,0,0,1-1.683,3.829A6.692,6.692,0,0,1,9.728,31.69a6,6,0,0,1-4.489-1.652,6.086,6.086,0,0,1-1.583-4.033H1.177Z" transform="translate(416.973 125.748)"/></g></g></svg>