<?xml version="1.0" encoding="utf-8"?>
<!-- Generator: Adobe Illustrator 23.1.1, SVG Export Plug-In . SVG Version: 6.00 Build 0)  -->
<svg version="1.1" id="Capa_1" xmlns="http://www.w3.org/2000/svg" xmlns:xlink="http://www.w3.org/1999/xlink" x="0px" y="0px"
	 viewBox="0 0 27 26" style="enable-background:new 0 0 27 26;" xml:space="preserve">
<style type="text/css">
	.st0{fill:none;}
	.st1{filter:url(#Adobe_OpacityMaskFilter);}
	.st2{fill-rule:evenodd;clip-rule:evenodd;fill:#FFFFFF;}
	.st3{mask:url(#mask-2_2_);}
	.st4{fill:#00A9E0;}
</style>
<title>consulta</title>
<desc>Created with Sketch.</desc>
<g id="Page-1">
	<g transform="translate(-960.000000, -1287.000000)">
		<g id="Group-2" transform="translate(0.000000, 1050.000000)">
			<g id="consulta" transform="translate(960.000000, 237.000000)">
				<polygon id="Clip_2-2" class="st0" points="0,0 27,0 27,25 0,25 				"/>
				<g id="Group_3-2-Clipped">
					<g id="Clip_2">
					</g>
					<defs>
						<filter id="Adobe_OpacityMaskFilter" filterUnits="userSpaceOnUse" x="0" y="0" width="27" height="25.6">
							<feColorMatrix  type="matrix" values="1 0 0 0 0  0 1 0 0 0  0 0 1 0 0  0 0 0 1 0"/>
						</filter>
					</defs>
					<mask maskUnits="userSpaceOnUse" x="0" y="0" width="27" height="25.6" id="mask-2_2_">
						<g class="st1">
							<polygon id="path-1_2_" class="st2" points="0,0 27,0 27,25.5 0,25.5 							"/>
						</g>
					</mask>
					<g id="Group_3-2" class="st3">
						<g id="Fill_1" transform="translate(-0.675000, -0.666667)">
							<path class="st4" d="M24.9,26.2H10.7c-0.4,0-0.8-0.1-1.1-0.4s-0.5-0.7-0.4-1.1V24c0-0.5,0-1.5,0-4.2
								c-0.9-0.3-1.7-0.7-2.4-1.3L2,23.3c-0.1,0.1-0.3,0.2-0.5,0.2S1,23.4,0.9,23.3c-0.1-0.1-0.2-0.3-0.2-0.5c0-0.2,0.1-0.4,0.2-0.5
								l4.8-4.7c-1.6-2-2.2-4.6-1.5-7s2.5-4.4,4.9-5.2v-3c0-0.4,0.1-0.8,0.4-1.1s0.7-0.4,1.1-0.4c0.8,0,5.1,0,8.8,0h0
								c0,0,0.1,0,0.1,0c0,0,0.1,0,0.1,0l0,0c0,0,0.1,0,0.1,0l0,0l0,0c0,0,0.1,0.1,0.1,0.1l7.4,7.3c0,0,0.1,0.1,0.1,0.1c0,0,0,0,0,0
								l0,0c0,0,0,0.1,0,0.1l0,0c0,0,0,0,0,0c0,0,0,0.1,0,0.1c0,0,0,0.1,0,0.1c0,0,0,0,0,0c0,0,0,0,0,0c0,5.7,0,15.4,0,16
								c0,0.4-0.1,0.8-0.4,1.1c-0.3,0.3-0.7,0.4-1.1,0.4L24.9,26.2z M22.4,24.7h3.7v0c0-0.6,0-9.7,0-15.3h-2.9
								C22,9.5,20.8,9.1,20,8.2c-0.8-0.8-1.3-2-1.2-3.2c0-0.7,0-1.2,0-1.5V2.2h-1.5c-3,0-5.9,0-6.5,0h0c0,0,0,0,0,0v2.7
								c0.4-0.1,0.7-0.1,1.1-0.1c4.3,0,7.8,3.5,7.8,7.7s-3.5,7.7-7.8,7.7c-0.4,0-0.7,0-1.1-0.1c0,3.3,0,3.8,0,4.3v0.2c0,0,0,0,0,0.1
								H22.4L22.4,24.7z M11.8,6.3c-3,0-5.6,2.1-6.2,5s1,5.8,3.8,7s6,0.2,7.7-2.3s1.3-5.8-0.8-7.9C15,7,13.4,6.3,11.8,6.3z
								 M20.3,3.2v1.8c-0.1,0.8,0.2,1.6,0.8,2.1S22.4,8,23.2,8H25l-2.4-2.4L20.3,3.2z"/>
						</g>
					</g>
				</g>
			</g>
		</g>
	</g>
</g>
</svg>
