<?xml version="1.0" encoding="utf-8"?>
<!-- Generator: Adobe Illustrator 23.1.1, SVG Export Plug-In . SVG Version: 6.00 Build 0)  -->
<svg version="1.1" id="Capa_1" xmlns="http://www.w3.org/2000/svg" xmlns:xlink="http://www.w3.org/1999/xlink" x="0px" y="0px"
	 viewBox="0 0 27 23" style="enable-background:new 0 0 27 23;" xml:space="preserve">
<style type="text/css">
	.st0{fill:none;}
	.st1{filter:url(#Adobe_OpacityMaskFilter);}
	.st2{fill-rule:evenodd;clip-rule:evenodd;fill:#FFFFFF;}
	.st3{mask:url(#mask-2_2_);}
	.st4{fill:#00A9E0;}
</style>
<title>simcard</title>
<desc>Created with Sketch.</desc>
<g id="Page-1">
	<g transform="translate(-770.000000, -1449.000000)">
		<g id="Group-2" transform="translate(0.000000, 1050.000000)">
			<g id="simcard" transform="translate(770.000000, 399.000000)">
				<polygon id="Clip_2-2" class="st0" points="0,0 27,0 27,23 0,23 				"/>
				<g id="Group_3-2-Clipped">
					<g id="Clip_2">
					</g>
					<defs>
						<filter id="Adobe_OpacityMaskFilter" filterUnits="userSpaceOnUse" x="0" y="0" width="26.9" height="22.8">
							<feColorMatrix  type="matrix" values="1 0 0 0 0  0 1 0 0 0  0 0 1 0 0  0 0 0 1 0"/>
						</filter>
					</defs>
					<mask maskUnits="userSpaceOnUse" x="0" y="0" width="26.9" height="22.8" id="mask-2_2_">
						<g class="st1">
							<polygon id="path-1_2_" class="st2" points="0,0 26.9,0 26.9,22.8 0,22.8 							"/>
						</g>
					</mask>
					<g id="Group_3-2" class="st3">
						<path id="Fill_1" class="st4" d="M12,22.8c-3.8,0-6.8-0.9-8.8-2.8C1.1,18,0,15.2,0,11.4s1.1-6.7,3.2-8.6C5.2,0.9,8.2,0,12,0
							s6.8,0.9,8.8,2.8c2.1,1.9,3.2,4.8,3.2,8.6c0,0.5,0,1-0.1,1.5c0.1-0.2,0.3-0.3,0.4-0.5l0,0c0.4-0.4,0.8-0.9,1.2-1.2
							c0.3-0.3,0.8-0.3,1.1,0c0.3,0.3,0.3,0.7,0,1c-0.3,0.3-0.7,0.7-1,1.1l0,0c-0.4,0.4-0.8,0.9-1.2,1.2c-0.4,0.4-0.9,0.6-1.4,0.6
							c-0.5,0-1-0.2-1.4-0.6c-0.3-0.3-0.9-0.9-1.8-1.9l0,0l-0.5-0.5c-0.3-0.3-0.2-0.8,0.1-1c0.3-0.3,0.8-0.2,1.1,0.1l0.5,0.5l0,0
							c0.6,0.6,1,1.1,1.4,1.5c0.1-0.6,0.1-1.2,0.1-1.8c0-3.4-0.9-5.9-2.7-7.5C18,2.3,15.4,1.4,12,1.4S6,2.3,4.2,3.8
							C2.4,5.5,1.5,8,1.5,11.4s0.9,5.9,2.7,7.5c1.7,1.6,4.3,2.4,7.8,2.4c4.2,0,7.2-1.2,8.8-3.6c0.2-0.3,0.7-0.4,1.1-0.2
							c0.4,0.2,0.4,0.7,0.2,1c-1,1.4-2.4,2.6-4.1,3.2C16.1,22.5,14,22.8,12,22.8z M14.8,19.6H8.3c-0.7,0-1.3-0.2-1.8-0.7
							c-0.4-0.4-0.6-1-0.6-1.6V7.1c0-0.3,0.1-0.6,0.3-0.8l3-2.8c0.2-0.2,0.5-0.3,0.8-0.3h4.7c0.7,0,1.3,0.2,1.8,0.7
							c0.4,0.4,0.6,1,0.6,1.6v11.8c0,0.6-0.2,1.2-0.6,1.6C16.1,19.4,15.4,19.6,14.8,19.6L14.8,19.6z M10.1,4.3L10.1,4.3l-3,2.8v10.2
							c0,0.3,0.1,0.7,0.3,0.9c0.2,0.2,0.6,0.4,1,0.3h6.4c0.4,0,0.7-0.1,1-0.3c0.2-0.2,0.4-0.6,0.3-0.9V5.5c0-0.3-0.1-0.7-0.3-0.9
							c-0.2-0.2-0.6-0.4-1-0.3L10.1,4.3L10.1,4.3z M14.8,17.2H8.3c-0.2,0-0.4-0.2-0.4-0.4v-6.4c0-0.2,0.2-0.4,0.4-0.4h6.4
							c0.2,0,0.4,0.2,0.4,0.4v6.4c0,0.1,0,0.2-0.1,0.3C15,17.2,14.9,17.2,14.8,17.2L14.8,17.2z M13,15.2L13,15.2v1.3h1.4v-1.3H13z
							 M10.9,15.2v1.3h1.4v-1.3H10.9z M8.7,15.2v1.3h1.4v-1.3H8.7z M8.7,12.9v1.6h5.7v-1.6L8.7,12.9z M13,10.8L13,10.8v1.3h1.4v-1.3
							L13,10.8L13,10.8z M10.9,10.8v1.3h1.4v-1.3L10.9,10.8z M8.7,10.8v1.3h1.4v-1.3L8.7,10.8z"/>
					</g>
				</g>
			</g>
		</g>
	</g>
</g>
</svg>
