<?xml version="1.0" encoding="UTF-8"?>
<svg width="20px" height="20px" viewBox="0 0 20 20" version="1.1" xmlns="http://www.w3.org/2000/svg" xmlns:xlink="http://www.w3.org/1999/xlink">
    <!-- Generator: Sketch 58 (84663) - https://sketch.com -->
    <title>icono-buscar</title>
    <desc>Created with Sketch.</desc>
    <defs>
        <polygon id="path-1" points="0 -6.19354839e-05 18.9521032 -6.19354839e-05 18.9521032 18.9520103 0 18.9520103"></polygon>
    </defs>
    <g id="Mobile" stroke="none" stroke-width="1" fill="none" fill-rule="evenodd">
        <g id="1M-Menú-Inactivo" transform="translate(-282.000000, -94.000000)">
            <g id="Menú-Bar" transform="translate(0.000000, 70.000000)">
                <g id="icono-buscar" transform="translate(276.000000, 18.000000)">
                    <g id="Group-3" transform="translate(6.400000, 6.400000)">
                        <mask id="mask-2" fill="white">
                            <use xlink:href="#path-1"></use>
                        </mask>
                        <g id="Clip-2"></g>
                        <path d="M13.5483871,7.92006194 C13.5483871,11.023649 11.0232774,13.5487587 7.91969032,13.5487587 C4.81610323,13.5487587 2.29099355,11.023649 2.29099355,7.92006194 C2.29099355,4.81647484 4.81610323,2.29198452 7.91969032,2.29198452 C11.0232774,2.29198452 13.5483871,4.81647484 13.5483871,7.92006194 M18.6060387,16.9378684 L14.2835613,12.6147716 C15.2565677,11.2992619 15.8393806,9.67841032 15.8393806,7.92006194 C15.8393806,3.55299097 12.2867613,-0.000247741935 7.91969032,-0.000247741935 C3.55261935,-0.000247741935 0,3.55299097 0,7.92006194 C0,12.2871329 3.55261935,15.8397523 7.91969032,15.8397523 C9.67803871,15.8397523 11.2988903,15.2569394 12.6144,14.2833135 L16.9381161,18.6064103 C17.3989161,19.0672103 18.1446194,19.0672103 18.6060387,18.6064103 C19.0674581,18.144991 19.0674581,17.3992877 18.6060387,16.9378684" id="Fill-1" fill="#50535A" mask="url(#mask-2)"></path>
                    </g>
                </g>
            </g>
        </g>
    </g>
</svg>