<?xml version="1.0" encoding="UTF-8"?>
<svg width="16px" height="16px" viewBox="0 0 16 16" version="1.1" xmlns="http://www.w3.org/2000/svg" xmlns:xlink="http://www.w3.org/1999/xlink">
    <!-- Generator: Sketch 64 (93537) - https://sketch.com -->
    <title>icono-equipos-libres-filled</title>
    <desc>Created with Sketch.</desc>
    <defs>
        <polygon id="path-1" points="0 0 10.835844 0 10.835844 12.7801878 0 12.7801878"></polygon>
    </defs>
    <g id="Desktop" stroke="none" stroke-width="1" fill="none" fill-rule="evenodd">
        <g id="icono-equipos-libres-filled">
            <g id="Group-3" transform="translate(2.560000, 1.600000)">
                <mask id="mask-2" fill="white">
                    <use xlink:href="#path-1"></use>
                </mask>
                <g id="Clip-2"></g>
                <path d="M2.30683031,5.3041928 C2.30619429,5.3041928 2.30555826,5.30411329 2.30500174,5.30411329 C2.02061913,5.30411329 1.78926509,5.53546733 1.78926509,5.81977043 C1.78926509,5.97281391 1.8561272,6.11536298 1.97100919,6.21275429 L1.97100919,6.62338783 C1.97100919,6.80727851 2.12063404,6.95690335 2.30460422,6.95690335 C2.30531975,6.95690335 2.30603528,6.95666484 2.30683031,6.95666484 C2.48968745,6.9554723 2.63811975,6.80648348 2.63811975,6.62338783 L2.63811975,6.21339031 C2.75347876,6.11599901 2.82065888,5.97321143 2.82065888,5.81977043 C2.82065888,5.53610335 2.59025888,5.30522634 2.30683031,5.3041928 L2.30683031,5.3041928 Z M7.10802286,11.0695195 C6.98161292,11.1990301 6.79716571,11.2674822 6.57487503,11.2674822 C6.35250484,11.2674822 6.16805764,11.1990301 6.0417272,11.0695195 C5.91698683,10.9418375 5.85370236,10.7649431 5.85370236,10.543686 C5.85370236,10.0905978 6.12329739,9.8200487 6.57487503,9.8200487 C7.02637317,9.8200487 7.2959682,10.0905978 7.2959682,10.543686 C7.2959682,10.7649431 7.23268373,10.9418375 7.10802286,11.0695195 L7.10802286,11.0695195 Z M3.94284522,5.74479901 C3.94284522,5.99221267 3.88647752,6.23549217 3.78010236,6.45611329 C3.76857441,6.48004373 3.7554564,6.50317913 3.74289491,6.52663255 C3.64144894,6.70797913 3.43386634,7.00070957 3.07904398,7.19088099 C3.07316075,7.1935841 3.06711851,7.19493565 3.06131478,7.19795677 C2.98825143,7.23611826 2.91312099,7.26768099 2.83648,7.29407602 C2.81692224,7.30051578 2.7981595,7.30767106 2.77796571,7.31339528 C2.6265123,7.35910957 2.46909615,7.38248348 2.30683031,7.38264248 C2.30619429,7.38264248 2.30555826,7.38272199 2.30500174,7.38272199 C1.40184646,7.38272199 0.667078758,6.64787478 0.667078758,5.74479901 L0.667078758,5.10193689 C0.667078758,5.04954435 0.709692422,5.00693068 0.762084969,5.00693068 L3.84783901,5.00693068 C3.90023155,5.00693068 3.94284522,5.04954435 3.94284522,5.10193689 L3.94284522,5.74479901 Z M10.3201868,0.539571677 C9.96687503,0.176480994 9.44557317,-9.54037267e-05 8.72654708,-9.54037267e-05 L4.41620671,-9.54037267e-05 C3.01989366,-9.54037267e-05 2.31048745,0.715671056 2.30714832,2.12677168 L2.41209242,2.12677168 C3.17826385,2.12677168 3.8015682,2.74029714 3.8015682,3.4944636 L3.8015682,3.81621267 C3.8015682,4.07785739 3.61155578,4.29553689 3.36239304,4.33982012 C3.33210236,4.34514683 3.30109615,4.34848596 3.2692154,4.34848596 C3.23741416,4.34848596 3.20632845,4.34514683 3.17611727,4.33982012 L1.66349118,4.33982012 L1.66349118,3.4944636 C1.66349118,3.2435518 1.85684273,3.03565118 2.10807255,2.99900025 C2.13391106,2.9951841 2.16014708,2.99264 2.18709863,2.99264 L2.41209242,2.99264 C2.7008477,2.99264 2.93569988,3.2177928 2.93569988,3.4944636 L2.93569988,3.81621267 C2.93569988,3.99732075 3.08087255,4.14432199 3.26086758,4.14893317 C3.26372969,4.14901267 3.26635329,4.1497282 3.2692154,4.1497282 C3.45318559,4.1497282 3.60281043,4.00018286 3.60281043,3.81621267 L3.60281043,3.4944636 C3.60281043,2.84993193 3.06862907,2.32552944 2.41209242,2.32552944 L2.18709863,2.32552944 C2.16038559,2.32552944 2.13430857,2.32775553 2.10807255,2.32942509 C1.48842534,2.36973317 0.996460124,2.87616795 0.996460124,3.4944636 L0.996460124,4.33982012 L0.762084969,4.33982012 C0.341831553,4.33982012 -3.18012422e-05,4.68168348 -3.18012422e-05,5.10193689 L-3.18012422e-05,5.74479901 C-3.18012422e-05,7.01573565 1.03398559,8.04975304 2.30500174,8.04975304 L2.30683031,8.04975304 L2.30683031,10.6436214 C2.30683031,12.081276 2.99683776,12.7801878 4.41620671,12.7801878 L8.72654708,12.7801878 C10.1459955,12.7801878 10.835844,12.081276 10.835844,10.6436214 L10.835844,2.13655056 C10.835844,1.41871702 10.6672179,0.896381615 10.3201868,0.539571677 L10.3201868,0.539571677 Z" id="Fill-1" fill="#00A9E0" mask="url(#mask-2)"></path>
            </g>
        </g>
    </g>
</svg>