<?xml version="1.0" encoding="UTF-8"?>
<svg width="19px" height="19px" viewBox="0 0 19 19" version="1.1" xmlns="http://www.w3.org/2000/svg" xmlns:xlink="http://www.w3.org/1999/xlink">
    <!-- Generator: Sketch 58 (84663) - https://sketch.com -->
    <title>Fill 1</title>
    <desc>Created with Sketch.</desc>
    <g id="Mobile" stroke="none" stroke-width="1" fill="none" fill-rule="evenodd">
        <g id="2M-Menú-Abierto" transform="translate(-334.000000, -94.000000)" fill="#50535A">
            <g id="Menú-Bar" transform="translate(0.000000, 70.000000)">
                <g id="icono-cerrar-menu" transform="translate(328.000000, 18.000000)">
                    <g id="Group-3" transform="translate(6.400000, 6.400000)">
                        <path d="M10.82112,9.12312 L17.89632,2.04792 C18.36432,1.57992 18.36432,0.82032 17.89632,0.35112 C17.42712,-0.11688 16.66752,-0.11688 16.19832,0.35112 L9.12432,7.42632 L2.04792,0.35112 C1.57992,-0.11688 0.82032,-0.11688 0.35112,0.35112 C-0.11688,0.82032 -0.11688,1.57992 0.35112,2.04792 L7.42752,9.12312 L0.35112,16.19832 C-0.11688,16.66632 -0.11688,17.42592 0.35112,17.89512 C0.58632,18.12912 0.89352,18.24672 1.19952,18.24672 C1.50672,18.24672 1.81392,18.12912 2.04792,17.89512 L9.12432,10.81992 L16.19832,17.89512 C16.43352,18.12912 16.74072,18.24672 17.04672,18.24672 C17.35392,18.24672 17.66112,18.12912 17.89632,17.89512 C18.36432,17.42592 18.36432,16.66632 17.89632,16.19832 L10.82112,9.12312 Z" id="Fill-1"></path>
                    </g>
                </g>
            </g>
        </g>
    </g>
</svg>