<?xml version="1.0" encoding="UTF-8"?>
<svg width="15px" height="16px" viewBox="0 0 15 16" version="1.1" xmlns="http://www.w3.org/2000/svg" xmlns:xlink="http://www.w3.org/1999/xlink">
    <!-- Generator: Sketch 58 (84663) - https://sketch.com -->
    <title>Group 3</title>
    <desc>Created with Sketch.</desc>
    <defs>
        <polygon id="path-1" points="1.81818182e-05 5.45454545e-05 14.205 5.45454545e-05 14.205 15.9772364 1.81818182e-05 15.9772364"></polygon>
    </defs>
    <g id="Desktop" stroke="none" stroke-width="1" fill="none" fill-rule="evenodd">
        <g id="1D---Menú-Inactivo" transform="translate(-1165.000000, -82.000000)">
            <g id="Menu-Bar-Web-Pública" transform="translate(0.000000, 40.000000)">
                <g id="Login" transform="translate(1155.000000, 26.000000)">
                    <g id="Group-4" transform="translate(8.000000, 14.000000)">
                        <g id="icono-usuario-filled">
                            <g id="Group-3" transform="translate(2.800000, 2.000000)">
                                <mask id="mask-2" fill="white">
                                    <use xlink:href="#path-1"></use>
                                </mask>
                                <g id="Clip-2"></g>
                                <path d="M13.0535636,11.0522364 C12.2335636,10.1999636 11.0167455,9.74950909 9.53447273,9.74950909 L4.65947273,9.74950909 C3.17756364,9.74950909 1.96238182,10.2001455 1.14538182,11.0528727 C0.396109091,11.8348727 1.81818182e-05,12.9206 1.81818182e-05,14.1926909 L1.81818182e-05,15.5226909 C1.81818182e-05,15.7737818 0.203472727,15.9772364 0.454563636,15.9772364 L13.7504727,15.9772364 C14.0015636,15.9772364 14.2050182,15.7737818 14.2050182,15.5226909 L14.2050182,14.1926909 C14.2050182,12.9212364 13.8068364,11.8353273 13.0535636,11.0522364 M7.10265455,7.99941818 C8.36592727,7.99941818 9.35265455,7.66732727 10.0356545,7.01214545 C10.7470182,6.32978182 11.1077455,5.31805455 11.1077455,4.00505455 C11.1077455,2.69178182 10.7472909,1.67841818 10.0363818,0.993418182 C9.35238182,0.334236364 8.36538182,5.45454545e-05 7.10265455,5.45454545e-05 C5.84047273,5.45454545e-05 4.85492727,0.334509091 4.17347273,0.994145455 C3.46656364,1.67841818 3.1082,2.69141818 3.1082,4.00514545 C3.1082,5.31850909 3.46683636,6.32996364 4.1742,7.01150909 C4.85465455,7.66705455 5.83992727,7.99941818 7.10265455,7.99941818" id="Fill-1" fill="#FFFFFF" mask="url(#mask-2)"></path>
                            </g>
                        </g>
                    </g>
                </g>
            </g>
        </g>
    </g>
</svg>