<?xml version="1.0" encoding="utf-8"?>
<!-- Generator: Adobe Illustrator 23.1.1, SVG Export Plug-In . SVG Version: 6.00 Build 0)  -->
<svg version="1.1" id="Capa_1" xmlns="http://www.w3.org/2000/svg" xmlns:xlink="http://www.w3.org/1999/xlink" x="0px" y="0px"
	 viewBox="0 0 16 16" style="enable-background:new 0 0 16 16;" xml:space="preserve">
<style type="text/css">
	.st0{fill:#5BC500;}
</style>
<title>ï…</title>
<desc>Created with Sketch.</desc>
<g id="Page-1">
	<g transform="translate(-673.000000, -452.000000)">
		<g id="icono-whatsapp-small" transform="translate(669.000000, 448.000000)">
			<path class="st0" d="M12,4c2.2,0,4.1,0.8,5.6,2.3c1.6,1.5,2.3,3.4,2.3,5.6s-0.8,4.1-2.3,5.6c-1.6,1.5-3.4,2.3-5.6,2.3
				c-1.3,0-2.6-0.3-3.8-1L4,20l1.1-4.1c-0.7-1.2-1-2.5-1-4c0-2.2,0.8-4,2.3-5.6S9.8,4,12,4z M12,18.5c1.8,0,3.4-0.6,4.7-1.9
				s1.9-2.8,1.9-4.7S18,8.5,16.7,7.2S13.8,5.3,12,5.3S8.6,6,7.4,7.2s-1.9,2.8-1.9,4.7c0,1.3,0.3,2.4,1,3.5l0.1,0.2l-0.7,2.4l2.5-0.6
				l0.2,0.1C9.7,18.2,10.8,18.5,12,18.5z M15.7,13.6c0.2,0.1,0.3,0.2,0.4,0.3c0.1,0.1,0.1,0.5-0.1,0.9c-0.1,0.2-0.3,0.4-0.6,0.6
				c-0.3,0.2-0.6,0.3-0.8,0.4c-0.4,0-0.9,0-1.2-0.1c-0.4-0.1-0.8-0.3-1.1-0.4c-0.2-0.1-0.4-0.2-0.6-0.3c-0.2-0.1-0.4-0.2-0.5-0.3
				c-0.2-0.1-0.3-0.2-0.5-0.4s-0.3-0.2-0.4-0.4c-0.1-0.1-0.3-0.3-0.4-0.4c-0.1-0.1-0.2-0.3-0.3-0.4c-0.1-0.1-0.2-0.2-0.3-0.3
				S9,12.5,9,12.5s-0.1-0.1-0.1-0.2l-0.1-0.1C8.2,11.5,8,10.8,8,10.1C8,9.5,8.2,9,8.7,8.5C8.8,8.3,9,8.2,9.2,8.2c0.1,0,0.3,0,0.4,0
				c0.2,0,0.3,0.1,0.4,0.3c0,0.1,0.1,0.2,0.2,0.5l0.3,0.7c0.1,0.2,0.1,0.3,0.1,0.3c0.1,0.1,0.1,0.2,0,0.3c-0.1,0.2-0.1,0.3-0.2,0.3
				l-0.1,0.1c0,0-0.1,0.1-0.1,0.1s0,0.1-0.1,0.1c-0.1,0.1-0.2,0.3-0.1,0.4c0.3,0.5,0.7,1,1.1,1.4c0.3,0.3,0.9,0.6,1.6,1
				c0.2,0.1,0.3,0.1,0.4,0c0.3-0.4,0.5-0.6,0.6-0.8c0.1-0.1,0.2-0.2,0.4-0.1C14.5,13,14.9,13.2,15.7,13.6z"/>
		</g>
	</g>
</g>
</svg>
