<svg xmlns="http://www.w3.org/2000/svg" xmlns:xlink="http://www.w3.org/1999/xlink" width="51.588" height="51.176" viewBox="0 0 51.588 51.176"><defs><style>.a{fill:none;}.b{fill:#1a1a1a;}.c{fill:#fff;}.d{fill:#ff265a;}.e{clip-path:url(#a);}</style><clipPath id="a"><path class="a" d="M0,0H29.134V32.355H0Z" transform="translate(0.723 0.047)"/></clipPath></defs><g transform="translate(0 -0.776)"><path class="b" d="M29.538,6.8C40.213,14.649,45.086,26.152,40.424,32.49S23.329,37.6,12.654,29.747-2.894,10.391,1.768,4.054,18.863-1.056,29.538,6.8" transform="translate(0 15.409)"/><path class="c" d="M29.538,6.8C40.212,14.649,45.086,26.152,40.424,32.49s-17.095,5.11-27.77-2.743S-2.894,10.391,1.768,4.053,18.863-1.056,29.538,6.8" transform="translate(1.536 13.321)"/><path class="b" d="M31.057,36.888c-.676,0-1.382-.036-2.1-.106a33.923,33.923,0,0,1-16.227-6.727A33.9,33.9,0,0,1,1.481,16.565C-.6,11.653-.484,7.231,1.81,4.112A9.358,9.358,0,0,1,5.864,1.019,14.819,14.819,0,0,1,11.53,0c5.74,0,12.409,2.485,18.3,6.817,10.737,7.9,15.637,19.537,10.924,25.943a9.387,9.387,0,0,1-3.973,3.074A14.6,14.6,0,0,1,31.057,36.888ZM11.527.345a14.423,14.423,0,0,0-5.5.985A9.046,9.046,0,0,0,2.1,4.324c-2.216,3.013-2.318,7.311-.287,12.1a33.548,33.548,0,0,0,11.136,13.34A33.552,33.552,0,0,0,29,36.427c.7.069,1.4.1,2.061.1a14.263,14.263,0,0,0,5.561-1.016,9.043,9.043,0,0,0,3.847-2.967A9.289,9.289,0,0,0,42.2,27.031a16.514,16.514,0,0,0-1.465-6.63A33.6,33.6,0,0,0,29.617,7.1C23.778,2.809,17.184.345,11.527.345Z" transform="translate(1.351 13.156)"/><path class="d" d="M26.915,28.7c-4.8,0-10.731-2.255-15.866-6.034C1.521,15.653-1.9,6.387,1,2.455,2.569.319,5.691,0,7.413,0c4.8,0,10.731,2.256,15.866,6.034,9.528,7.008,12.943,16.274,10.052,20.206-1.572,2.136-4.694,2.455-6.416,2.455" transform="translate(5.469 17.245)"/><path class="c" d="M18.32,19.532c-3.267,0-7.3-1.535-10.8-4.107C1.035,10.655-1.291,4.348.679,1.67,1.748.217,3.874,0,5.046,0c3.267,0,7.3,1.535,10.8,4.106,6.485,4.771,8.811,11.078,6.841,13.755-1.069,1.454-3.2,1.67-4.367,1.67" transform="translate(10.95 21.827)"/><path class="b" d="M18.5,19.89c-3.3,0-7.381-1.549-10.906-4.143A20.791,20.791,0,0,1,.949,8.015C-.23,5.433-.315,3.147.718,1.743,1.834.226,4.023,0,5.229,0c3.3,0,7.381,1.548,10.906,4.142a20.809,20.809,0,0,1,6.647,7.732c1.18,2.581,1.265,4.867.232,6.272C21.9,19.663,19.71,19.89,18.5,19.89ZM5.229.357c-1.138,0-3.2.208-4.224,1.6-1.919,2.609.4,8.8,6.8,13.505,3.466,2.55,7.464,4.073,10.695,4.073,1.138,0,3.2-.208,4.224-1.6.939-1.276.838-3.486-.269-5.911a20.456,20.456,0,0,0-6.535-7.593C12.456,1.879,8.458.357,5.229.357Z" transform="translate(10.766 21.648)"/><path class="d" d="M8.688,9.263A9.245,9.245,0,0,1,3.565,7.316C.49,5.053-.612,2.063.322.793A2.59,2.59,0,0,1,2.393,0,9.25,9.25,0,0,1,7.514,1.948C10.589,4.21,11.692,7.2,10.758,8.471a2.589,2.589,0,0,1-2.071.792" transform="translate(17.093 26.961)"/><path class="c" d="M0,30.639,19.874,9.093V4.769L23.626,0,24.2,4.134l4.578.317L23.245,10.3l-2.734-.19L1.371,31.158S.155,33.362,0,30.639" transform="translate(22.633 0.954)"/><g transform="translate(21.731 0.729)"><path class="a" d="M0,0H29.134V32.355H0Z" transform="translate(0.723 0.047)"/><g class="e"><path class="b" d="M.691,32.356A.364.364,0,0,1,.6,32.345c-.353-.079-.543-.562-.6-1.518A.181.181,0,0,1,.048,30.7L19.876,9.2V4.947a.177.177,0,0,1,.037-.111L23.665.068A.181.181,0,0,1,23.806,0a.173.173,0,0,1,.046.006.177.177,0,0,1,.13.148l.553,3.99,4.433.308a.178.178,0,0,1,.118.3L23.553,10.6a.184.184,0,0,1-.135.055h-.007l-2.648-.184L1.7,31.442C1.539,31.716,1.126,32.356.691,32.356Zm23-31.738h0L20.231,5.009V9.271a.179.179,0,0,1-.047.122L.361,30.882C.432,31.943.666,32,.676,32L.7,32c.168,0,.5-.395.7-.749a.2.2,0,0,1,.024-.033l19.14-21.048a.184.184,0,0,1,.135-.058H20.7l2.651.185,5.215-5.515-4.2-.292a.179.179,0,0,1-.165-.153L23.686.618Z" transform="translate(0.723 0.047)"/></g></g></g></svg>