<svg xmlns="http://www.w3.org/2000/svg" xmlns:xlink="http://www.w3.org/1999/xlink" width="49.116" height="51.702" viewBox="0 0 49.116 51.702"><defs><style>.a{fill:none;}.b{fill:#ff265a;}.c{fill:#fff;}.d{clip-path:url(#a);}.e{fill:#1a1a1a;}.f{clip-path:url(#b);}</style><clipPath id="a"><path class="a" d="M0,0H33.969V26.2H0Z" transform="translate(0 0.018)"/></clipPath><clipPath id="b"><path class="a" d="M0,0H2.853V7.6H0Z" transform="translate(0.047 0.097)"/></clipPath></defs><g transform="translate(0 -0.202)"><path class="b" d="M0,.717,5.831,12.639l4.884-1.149L6.3,0Z" transform="translate(10.608 39.063)"/><g transform="translate(0 0.105)"><path class="b" d="M6.033,13.043a.2.2,0,0,1-.181-.113L.021,1.008A.2.2,0,0,1,.179.719L6.479,0,6.5,0A.2.2,0,0,1,6.691.13L11.1,11.62a.2.2,0,0,1-.142.268L6.079,13.037A.2.2,0,0,1,6.033,13.043ZM6.37.419.508,1.087,6.142,12.608l4.5-1.059L6.37.419Z" transform="translate(10.406 38.756)"/><path class="c" d="M33.566,22.308l-16.86,1.919-6.3.717L2.874,25.8,0,19.407,23.265,0c-3.017,3.33,1.256,12.057,1.256,12.057s4.763,10.065,9.046,10.251" transform="translate(0.202 14.731)"/><g transform="translate(0 14.512)"><path class="a" d="M0,0H33.969V26.2H0Z" transform="translate(0 0.018)"/><g class="d"><path class="e" d="M3.075,26.2a.2.2,0,0,1-.184-.119L.018,19.692a.2.2,0,0,1,.055-.238L23.337.047A.2.2,0,0,1,23.467,0a.2.2,0,0,1,.146.062.2.2,0,0,1,0,.275C20.724,3.529,24.861,12.084,24.9,12.17a43.173,43.173,0,0,0,2.913,5.041,20.506,20.506,0,0,0,2.846,3.453,5.2,5.2,0,0,0,3.114,1.645.2.2,0,0,1,.014.4L3.1,26.2ZM22.623,1.167.448,19.666,3.2,25.785l29.381-3.344c-1.659-.667-3.491-2.52-5.446-5.506a41.835,41.835,0,0,1-2.6-4.591C24.395,12.047,20.991,5.023,22.623,1.167Z" transform="translate(0 0.018)"/></g></g><path class="c" d="M11.38,23.46h0a5.374,5.374,0,0,1-3.22-1.68,20.572,20.572,0,0,1-2.908-3.515,42.9,42.9,0,0,1-2.917-5.056A29.642,29.642,0,0,1,.994,9.835c-1.712-5.209-.9-7.6.085-8.683L1.788.56a4.01,4.01,0,0,1,1.1-.473A2.48,2.48,0,0,1,3.538,0c1.964,0,4.4,2.252,6.694,6.179a32.2,32.2,0,0,1,4.1,11.389,9.181,9.181,0,0,1-.192,3.846,2.67,2.67,0,0,1-1.914,1.949l-.845.1ZM8.674,8.074a1.935,1.935,0,0,0-.689.13,1.907,1.907,0,0,0-1.042,2.339c.257,1.4,1.408,2.915,2.819,2.915a2.067,2.067,0,0,0,.774-.155c.769-.309,1.1-1.169.878-2.3a4.414,4.414,0,0,0-.964-2A2.411,2.411,0,0,0,8.674,8.074Z" transform="translate(22.388 13.579)"/><path class="e" d="M11.581,23.862h-.009C9.728,23.782,7.613,22,5.285,18.578A43.727,43.727,0,0,1,2.357,13.5l0-.009,0-.01A30.366,30.366,0,0,1,1,10.1C.041,7.172-.718,3.256,1.13,1.217l0,0L1.15,1.2,1.859.6,1.881.59a4.239,4.239,0,0,1,1.153-.5A2.661,2.661,0,0,1,3.731,0,5.692,5.692,0,0,1,7.469,2.027a28.724,28.724,0,0,1,5.675,9.616c1.531,4.077,2.057,7.664,1.444,9.841a2.921,2.921,0,0,1-2.116,2.276l-.025,0-.844.1ZM3.736.4a2.261,2.261,0,0,0-.6.079A3.848,3.848,0,0,0,2.108.923L1.419,1.5C-.287,3.4.459,7.155,1.386,9.972a29.491,29.491,0,0,0,1.33,3.349,43.392,43.392,0,0,0,2.906,5.031A20.57,20.57,0,0,0,8.463,21.8a5.238,5.238,0,0,0,3.111,1.655l.815-.094a2.546,2.546,0,0,0,1.812-1.99C15.4,17.1,11.6,6.765,7.183,2.31A5.537,5.537,0,0,0,3.736.4ZM9.965,13.859a2.505,2.505,0,0,1-1.555-.584A4.1,4.1,0,0,1,6.92,9.743a1.863,1.863,0,0,1,1.2-1.527,2.117,2.117,0,0,1,.753-.142,3.3,3.3,0,0,1,2.718,2.312c.488,1.246.454,2.812-.773,3.3A2.262,2.262,0,0,1,9.965,13.859Zm-1.1-5.38a1.7,1.7,0,0,0-.606.114A1.462,1.462,0,0,0,7.319,9.8,3.722,3.722,0,0,0,8.66,12.96a2.138,2.138,0,0,0,1.3.5,1.873,1.873,0,0,0,.7-.141c.972-.391.965-1.718.548-2.785A2.907,2.907,0,0,0,8.864,8.479Z" transform="translate(22.187 13.379)"/><path class="e" d="M.3,1.2a.3.3,0,0,1-.225-.5A3.607,3.607,0,0,1,.852.046a.3.3,0,0,1,.353.489L.5,1.127A.3.3,0,0,1,.3,1.2" transform="translate(23.164 13.836)"/><path class="e" d="M.435.7Q.361.7.287.7A.3.3,0,0,1,.268.1L1.112,0a.3.3,0,0,1,.119.591A2.857,2.857,0,0,1,.435.7" transform="translate(33.466 36.64)"/><path class="c" d="M4.958,0,0,4.67" transform="translate(27.967 26.883)"/><path class="e" d="M.2,5.073a.2.2,0,0,1-.138-.348L5.022.055A.2.2,0,0,1,5.3.348L.34,5.018A.2.2,0,0,1,.2,5.073" transform="translate(27.766 26.681)"/><path class="c" d="M6.992,0,0,1.631" transform="translate(23.382 21.784)"/><path class="e" d="M.2,2.034a.2.2,0,0,1-.046-.4L7.148.005A.2.2,0,1,1,7.239.4L.248,2.028A.215.215,0,0,1,.2,2.034" transform="translate(23.18 21.582)"/><path class="b" d="M3.648,5.229C.881,6.344-1.453,1.1,1.1.13c2.666-1.014,4.8,4.2,2.552,5.1" transform="translate(29.277 21.653)"/><path class="b" d="M3.076,5.785A2.505,2.505,0,0,1,1.521,5.2,4.1,4.1,0,0,1,.032,1.669,1.86,1.86,0,0,1,1.227.142,2.115,2.115,0,0,1,1.981,0,3.3,3.3,0,0,1,4.7,2.312c.488,1.246.454,2.811-.773,3.3A2.262,2.262,0,0,1,3.076,5.785ZM1.976.405A1.7,1.7,0,0,0,1.37.519,1.462,1.462,0,0,0,.43,1.731,3.719,3.719,0,0,0,1.771,4.885a2.133,2.133,0,0,0,1.3.5,1.875,1.875,0,0,0,.7-.141c.972-.391.966-1.717.548-2.784A2.907,2.907,0,0,0,1.976.405Z" transform="translate(29.076 21.453)"/><path class="e" d="M.3,7.022a.3.3,0,0,1-.216-.09A.306.306,0,0,1,.04,6.569c.286-.5,5.916-5.5,7.042-6.493A.305.305,0,0,1,7.282,0l.032,0a.306.306,0,0,1,.212.121L8.867,1.943a.3.3,0,0,1-.1.444L.448,6.985A.3.3,0,0,1,.3,7.022ZM7.235.748C5.713,2.1,3.563,4.025,2.092,5.386L8.176,2.024Z" transform="translate(32.623 4.886)"/><path class="e" d="M7.87,3.67l-.027,0L.276,3A.3.3,0,0,1,.2,2.412L7,.017a.3.3,0,0,1,.244.019A.309.309,0,0,1,7.4.23l.766,3.064a.3.3,0,0,1-.293.376ZM6.89.7,1.718,2.519l5.755.509L6.89.7Z" transform="translate(39.411 16.859)"/><path class="e" d="M5.091,4.988a.3.3,0,0,1-.2-.08L.1.526A.3.3,0,0,1,.032.167.3.3,0,0,1,.3,0,.3.3,0,0,1,.36.005L6.682,1.228a.3.3,0,0,1,.214.428L5.364,4.817a.3.3,0,0,1-.273.171ZM1.3.8,5,4.189,6.18,1.746Z" transform="translate(42.189 31.25)"/><g transform="translate(27.008)"><path class="a" d="M0,0H2.853V7.6H0Z" transform="translate(0.047 0.097)"/><g class="f"><path class="e" d="M.913,7.6H.891a.3.3,0,0,1-.28-.275L0,.329A.3.3,0,0,1,.3,0H2.552a.3.3,0,0,1,.294.372L1.207,7.364A.3.3,0,0,1,.913,7.6ZM.632.6h0l.418,4.781L2.17.6H.632Z" transform="translate(0.047 0.097)"/></g></g></g></g></svg>