<svg xmlns="http://www.w3.org/2000/svg" width="23.04" height="23.04" viewBox="0 0 23.04 23.04"><defs><style>.a{fill:#13ffd4;}.b{fill:#323261;}</style></defs><g transform="translate(-0.48 -0.48)"><path class="a" d="M11.52,0A11.52,11.52,0,1,0,23.04,11.52,11.52,11.52,0,0,0,11.52,0Z" transform="translate(0.48 0.48)"/><path class="b" d="M.533,7.2A.7.7,0,0,1,0,6.6V2.224c0-.111,0-.254.206-.132l4.1,2.418a.827.827,0,0,0,.482.12.834.834,0,0,0,.484-.12l4.12-2.417c.209-.122.207.022.207.132V6.6a.7.7,0,0,1-.533.6ZM4.306,3.189.306.771C.046.615-.2,0,.277,0H9.3c.479,0,.231.615-.029.771s-3.865,2.336-4,2.417a.966.966,0,0,1-.484.12h-.02A.953.953,0,0,1,4.306,3.189Z" transform="translate(7.2 8.4)"/></g></svg>