<svg xmlns="http://www.w3.org/2000/svg" width="23.906" height="23.906" viewBox="0 0 23.906 23.906"><defs><style>.a{fill:#13ffd4;}.b{fill:#323261;}</style></defs><g transform="translate(-0.047 -0.047)"><path class="a" d="M11.953,23.906A12.049,12.049,0,0,0,23.906,11.953,12.052,12.052,0,0,0,11.941,0,12.024,12.024,0,0,0,0,11.953,12.042,12.042,0,0,0,11.953,23.906Z" transform="translate(0.047 0.047)"/><path class="b" d="M3.528,9.6C.622,6.709-1.23,3.017.962.826c.129-.129.27-.258.4-.387A1.1,1.1,0,0,1,3.247.65L4.77,2.818a1.166,1.166,0,0,1-.164,1.758l-.48.527A.409.409,0,0,0,4.1,5.63,10.093,10.093,0,0,0,5.637,7.482,10.254,10.254,0,0,0,7.5,9.029a.476.476,0,0,0,.551-.023l.5-.48A1.154,1.154,0,0,1,10.3,8.349c1.008.715,1.617,1.137,2.215,1.547.738.539.914,1.207.164,1.887-.129.129-.246.27-.375.4C10.114,14.361,6.434,12.509,3.528,9.6Z" transform="translate(5.413 5.315)"/></g></svg>