<svg xmlns="http://www.w3.org/2000/svg" xmlns:xlink="http://www.w3.org/1999/xlink" width="539.968" height="549.767" viewBox="0 0 539.968 549.767"><defs><style>.a{fill:none;}.b{fill:#1a1a1a;}.c{fill:#e9edff;}.d{fill:#fff;}.e{clip-path:url(#a);}.f{fill:#323261;}.g{fill:#7723ef;}.h{clip-path:url(#b);}</style><clipPath id="a"><path class="a" d="M0,0H539.968V46.828H0Z" transform="translate(0 0.172)"/></clipPath><clipPath id="b"><path class="a" d="M0,0H1.5V18.556H0Z" transform="translate(0.21 0.233)"/></clipPath></defs><g transform="translate(0 -0.233)"><path class="b" d="M.678,91h0a.673.673,0,0,1-.67-.757c1.431-11.064,7.231-38.572,30.123-55a67.761,67.761,0,0,1,20.015-9.765,80.357,80.357,0,0,1,23.223-3.319,92.97,92.97,0,0,1,13.38.987,104.173,104.173,0,0,1,31.586,10.087,118.087,118.087,0,0,1,28.274,19.877,72.9,72.9,0,0,1,6.255-18.152,62.6,62.6,0,0,1,14.423-18.812C178.007,6.659,191.832,1.129,207.266.151c1.585-.1,3.2-.151,4.8-.151A78.023,78.023,0,0,1,231.2,2.392a74.505,74.505,0,0,1,17.737,6.965C276.52,24.6,291.36,56.8,285.868,89.483a.671.671,0,0,1-.663.561ZM73.366,23.5c-16.075,0-30.753,4.436-42.447,12.829C21.389,43.167,13.859,52.7,8.538,64.647A94.264,94.264,0,0,0,1.447,89.655L284.628,88.7a79.6,79.6,0,0,0,.274-23.6,76.982,76.982,0,0,0-6.424-21.888A73.328,73.328,0,0,0,266.044,24.53a69.967,69.967,0,0,0-17.759-14,73.156,73.156,0,0,0-17.413-6.839,76.588,76.588,0,0,0-18.8-2.35c-1.574,0-3.164.05-4.724.149-15.131.959-28.676,6.371-39.171,15.653-13.309,11.77-18.487,26.847-20.487,37.423a.677.677,0,0,1-1.134.357c-17.067-16.481-38.379-27.3-60.01-30.455A91.662,91.662,0,0,0,73.366,23.5Z" transform="translate(47 413)"/><path class="c" d="M0,96.138C20.894,36.153,78.049-2.825,138.666.16c52.8,2.6,100.221,45.6,121.334,95.978-86.667,2.986-173.333-2.986-260,0" transform="translate(241 406)"/><path class="d" d="M53,26.54A26.5,26.5,0,1,0,7.462,44.992l-.041-.012s7.534,9.463,7.748,16.414c.124,4.049.1,5.281.065,5.606H37.746c-.039-.325-.06-1.557.065-5.606.214-6.951,7.748-16.414,7.748-16.414l-.013,0A26.464,26.464,0,0,0,53,26.54" transform="translate(116 36)"/><path class="b" d="M38.268,68H15.711a.448.448,0,0,1-.445-.5c.03-.257.061-1.32-.068-5.547-.208-6.736-7.591-16.08-7.665-16.172a.475.475,0,0,1-.052-.083,27,27,0,1,1,38.987.053.309.309,0,0,1-.022.03c-.075.092-7.457,9.433-7.664,16.172-.131,4.235-.1,5.293-.068,5.547a.449.449,0,0,1-.445.5ZM27,.9A26.13,26.13,0,0,0,8.248,45.2a.446.446,0,0,1,.1.167,54.875,54.875,0,0,1,4.168,6.268c2.288,4.034,3.491,7.5,3.577,10.291.079,2.574.109,4.317.089,5.179H37.8c-.02-.885.01-2.627.089-5.179.209-6.778,7.025-15.643,7.8-16.631a.45.45,0,0,1,.074-.1A26.129,26.129,0,0,0,27,.9Z" transform="translate(116 35)"/><path class="d" d="M.258.173H.192s.037.233.065,0" transform="translate(130.775 102.775)"/><path class="b" d="M1.026,2H1.008a1,1,0,0,1-1-.961A.868.868,0,0,1,.223.315.946.946,0,0,1,.932,0h.136a.948.948,0,0,1,.7.3.878.878,0,0,1,.229.7A.989.989,0,0,1,1.026,2ZM.978.206A.891.891,0,0,0,.135.834L.973.891l.88-.137A.892.892,0,0,0,1.008.206Z" transform="translate(131 102)"/><path class="d" d="M.258.173H.192c.028.233.066,0,.066,0" transform="translate(153.775 102.775)"/><path class="b" d="M.992,2H.974A.989.989,0,0,1,.006,1,.878.878,0,0,1,.235.3a.951.951,0,0,1,.7-.3h.136a.947.947,0,0,1,.709.315.869.869,0,0,1,.211.724A1,1,0,0,1,.992,2Zm0-1.794a.892.892,0,0,0-.85.572L1,.888l.855-.1A.9.9,0,0,0,1.022.206Z" transform="translate(153 102)"/><path class="b" d="M14.213,24a.446.446,0,0,1-.443-.447V9.491c0-.6.024-1.208.058-1.8a7.452,7.452,0,0,1-1.294.114,7.575,7.575,0,0,1-2.661-.487A4.3,4.3,0,0,1,7.854,5.9,10.131,10.131,0,0,1,4.421,6.962V23.149a.442.442,0,1,1-.885,0V7.006A4.731,4.731,0,0,1,2,6.743,2.814,2.814,0,0,1,.1,4.46C-.161,2.9.082,1.806.826,1.206A2.382,2.382,0,0,1,2.366.727a5.141,5.141,0,0,1,1.78.357.446.446,0,0,1,.274.413V6.062a9.177,9.177,0,0,0,3.015-.943,3.579,3.579,0,0,1-.149-1.84C7.55,1.749,8.672.4,9.687.39c.3,0,1.038.132,1.272,1.358A3.332,3.332,0,0,1,9.529,4.791a7.746,7.746,0,0,1-.891.657,3.517,3.517,0,0,0,1.543,1.03,6.748,6.748,0,0,0,2.37.434,6.6,6.6,0,0,0,1.342-.138,20.45,20.45,0,0,1,.768-4.339C15.085,1.111,15.63.319,16.28.08A1.286,1.286,0,0,1,16.725,0a2.13,2.13,0,0,1,1.553.914A3.226,3.226,0,0,1,18.263,5a6.718,6.718,0,0,1-3.537,2.47c-.042.642-.066,1.322-.071,2.022V23.553A.445.445,0,0,1,14.213,24ZM16.725.895a.381.381,0,0,0-.141.025C15.811,1.2,15.1,3.451,14.8,6.513a5.675,5.675,0,0,0,2.735-2.021,2.345,2.345,0,0,0,.067-3C17.374,1.221,17.034.895,16.725.895ZM2.367,1.618a1.536,1.536,0,0,0-.99.286C.79,2.38.834,3.475.975,4.31A1.923,1.923,0,0,0,2.3,5.9a3.862,3.862,0,0,0,1.232.207v-4.3A4.126,4.126,0,0,0,2.367,1.618Zm7.328-.337h0c-.459,0-1.327.929-1.538,2.149A2.65,2.65,0,0,0,8.22,4.663a7.076,7.076,0,0,0,.734-.552c.5-.43,1.31-1.288,1.137-2.194-.046-.237-.158-.635-.394-.635Z" transform="translate(133 69)"/><path class="d" d="M36.513,5H2.487a2.5,2.5,0,0,1,0-5H36.513a2.5,2.5,0,0,1,0,5" transform="translate(123 94)"/><path class="b" d="M37.054,6H2.947A2.977,2.977,0,0,1,0,3,2.977,2.977,0,0,1,2.947,0H37.054A2.976,2.976,0,0,1,40,3,2.977,2.977,0,0,1,37.054,6ZM2.947.923A2.06,2.06,0,0,0,.907,3,2.061,2.061,0,0,0,2.947,5.077H37.054A2.061,2.061,0,0,0,39.093,3,2.06,2.06,0,0,0,37.054.923Z" transform="translate(123 94)"/><path class="d" d="M36.513,5H2.487a2.5,2.5,0,0,1,0-5H36.513a2.5,2.5,0,0,1,0,5" transform="translate(123 101)"/><path class="b" d="M37.054,6H2.947A2.977,2.977,0,0,1,0,3,2.977,2.977,0,0,1,2.947,0H37.054A2.976,2.976,0,0,1,40,3,2.977,2.977,0,0,1,37.054,6ZM2.947.923A2.06,2.06,0,0,0,.907,3,2.061,2.061,0,0,0,2.947,5.077H37.054A2.061,2.061,0,0,0,39.093,3,2.06,2.06,0,0,0,37.054.923Z" transform="translate(123 100)"/><path class="d" d="M36.513,5H2.487a2.5,2.5,0,0,1,0-5H36.513a2.5,2.5,0,0,1,0,5" transform="translate(123 107)"/><path class="b" d="M37.054,6H2.947A2.977,2.977,0,0,1,0,3,2.977,2.977,0,0,1,2.947,0H37.054A2.976,2.976,0,0,1,40,3,2.977,2.977,0,0,1,37.054,6ZM2.947.923A2.06,2.06,0,0,0,.907,3,2.061,2.061,0,0,0,2.947,5.077H37.054A2.061,2.061,0,0,0,39.093,3,2.06,2.06,0,0,0,37.054.923Z" transform="translate(123 106)"/><path class="d" d="M13.066,9H8.934A8.967,8.967,0,0,1,0,0H22a8.967,8.967,0,0,1-8.934,9" transform="translate(132 112)"/><path class="b" d="M13.576,10H9.425A9.5,9.5,0,0,1,0,.454.452.452,0,0,1,.449,0h22.1A.452.452,0,0,1,23,.454,9.5,9.5,0,0,1,13.576,10ZM.91.91a8.643,8.643,0,0,0,2.638,5.8A8.429,8.429,0,0,0,9.425,9.091h4.151a8.429,8.429,0,0,0,5.876-2.384A8.646,8.646,0,0,0,22.09.91Z" transform="translate(131 111)"/><g transform="translate(0 503)"><path class="a" d="M0,0H539.968V46.828H0Z" transform="translate(0 0.172)"/><g class="e"><path class="b" d="M524.8,46.829H15.172C6.806,46.829,0,36.325,0,23.414S6.806,0,15.172,0H524.8c8.366,0,15.172,10.5,15.172,23.414S533.162,46.829,524.8,46.829ZM15.172,1.343c-7.622,0-13.822,9.9-13.822,22.072s6.2,22.072,13.822,22.072H524.8c7.622,0,13.822-9.9,13.822-22.072S532.418,1.343,524.8,1.343Z" transform="translate(0 0.172)"/></g></g><path class="d" d="M64.987,151.14c.008-.208.013-.33.013-.33l-.09.035C51.658,101.7,47.09,44.722,52.385,0L0,3.074A370.975,370.975,0,0,0,50.973,156.288l-4.7,5.146s2.083,6.08,2.35,6.507,6.987-1.548,7.574-2.241,8.534-7.524,8.534-7.738c0-.183.2-5.314.252-6.768l.015-.005Z" transform="translate(228 359)"/><path class="b" d="M49.361,169l-.076,0a.619.619,0,0,1-.516-.267c-.259-.415-1.763-4.756-2.4-6.6a.449.449,0,0,1,.094-.449l4.479-4.9A372.38,372.38,0,0,1,0,3.572a.456.456,0,0,1,.105-.337.452.452,0,0,1,.316-.157L52.889,0h.031a.451.451,0,0,1,.442.5C48,45.8,52.652,102.056,65.819,150.992a.449.449,0,0,1,.181.377l-.01.265a.458.458,0,0,1-.009.226c-.074,1.933-.246,6.452-.247,6.647,0,.3,0,.314-4.514,4.3l-.025.022c-1.809,1.6-3.859,3.407-4.116,3.711a11,11,0,0,1-3.661,1.547A20.83,20.83,0,0,1,49.361,169ZM52.407.932.945,3.948A371.452,371.452,0,0,0,51.888,156.6a.45.45,0,0,1-.054.535l-4.525,4.952c.818,2.381,1.842,5.281,2.155,6.019,1.187-.02,6.436-1.649,6.933-2.152.277-.328,1.782-1.663,4.228-3.822,1.681-1.485,3.771-3.33,4.214-3.789.024-.742.143-3.871.222-5.942l.026-.685c0-.009,0-.019,0-.028v-.049a.459.459,0,0,1-.063-.138C51.833,102.618,47.115,46.329,52.407.932Z" transform="translate(228 358.999)"/><path class="d" d="M51.718,0a205.94,205.94,0,0,0,73.063,93.077l8.059.852,4.054,8s.24,13.111,0,13.431-4.4,4.637-4.4,4.637l-6.8-3.394c.523-4.36,0-6.2-.913-9.9-25.9-2.733-50.814-13.118-71.237-28.483C29.5,60.134,11.516,35.425,0,8.534Z" transform="translate(282 353)"/><path class="b" d="M133.039,121a.45.45,0,0,1-.2-.047l-6.806-3.4a.45.45,0,0,1-.246-.455,21.237,21.237,0,0,0-.795-9.3l-.033-.134c-25.029-2.7-50.315-12.847-71.2-28.562C30.809,61.831,12.232,37.648.036,9.166a.455.455,0,0,1,.019-.392.448.448,0,0,1,.32-.227L52.131.005A.467.467,0,0,1,52.2,0a.448.448,0,0,1,.42.285,206.454,206.454,0,0,0,72.86,92.885l7.95.841a.449.449,0,0,1,.353.244l4.057,8.009a.46.46,0,0,1,.049.194c.242,13.279.025,13.566-.091,13.72-.263.352-4.267,4.506-4.437,4.683A.447.447,0,0,1,133.039,121ZM51.918.951h0L1.088,9.339C13.222,37.442,31.622,61.318,54.3,78.384c20.853,15.691,46.091,25.784,71.066,28.419a.452.452,0,0,1,.389.339l.108.438v0a21.83,21.83,0,0,1,.85,9.307l6.23,3.109c1.36-1.413,3.673-3.83,4.086-4.3.129-.956.049-8.371-.037-13.122l-3.9-7.7-7.822-.827a.463.463,0,0,1-.211-.079A207.411,207.411,0,0,1,51.918.951Z" transform="translate(281 353)"/><path class="f" d="M9.822,1.49,7.265,0c1.048,5.08,4.2,10.4,2.7,15.9C9.378,17.034,8.93,18.59,8.2,19.293,6.1,21.1,2.784,22.977,0,22.676.836,32.537,1.042,45,1.042,45s11.879-5.452,13.5-14.033S12.938,10.98,12.938,10.98L28,16.782l-.5-1.522Z" transform="translate(407 447)"/><path class="b" d="M1.25,46a.224.224,0,0,1-.119-.034.227.227,0,0,1-.105-.189v-.034C1,44.419.771,32.535,0,23.2a.224.224,0,0,1,.228-.246h.02a5.126,5.126,0,0,0,.568.031c1.68,0,4.487-.894,7.33-3.4a7.066,7.066,0,0,0,1.128-2.107l.008-.019c.17-.411.346-.836.536-1.214,1-3.82-.191-7.59-1.347-11.236l0-.007-.014-.044A45.452,45.452,0,0,1,7.152.272a.23.23,0,0,1,.091-.23A.223.223,0,0,1,7.373,0a.219.219,0,0,1,.114.032L10,1.54a.156.156,0,0,1,.025.017L27.423,15.5a.217.217,0,0,1,.075.108l.491,1.54a.228.228,0,0,1-.059.235.224.224,0,0,1-.154.062.217.217,0,0,1-.082-.016l-14.41-5.711A69.869,69.869,0,0,1,14.759,19.6a39.97,39.97,0,0,1,0,12.009c-1.6,8.682-13.3,14.311-13.414,14.367A.218.218,0,0,1,1.25,46ZM.47,23.427c.718,8.875.957,19.869,1,21.983,1.9-.972,11.436-6.205,12.848-13.882,1.572-8.537-1.546-20.015-1.578-20.128a.23.23,0,0,1,.066-.229.222.222,0,0,1,.233-.043l14.379,5.7-.326-1.018L9.762,1.922,7.7.687c.307,1.368.74,2.731,1.2,4.173,1.18,3.718,2.4,7.563,1.35,11.523a.244.244,0,0,1-.017.045c-.191.377-.377.827-.541,1.223a7.273,7.273,0,0,1-1.237,2.265,16.939,16.939,0,0,1-3.559,2.419,9.238,9.238,0,0,1-4.064,1.1C.709,23.438.588,23.434.47,23.427Z" transform="translate(407 447)"/><path class="f" d="M33.417,1.97C45.222-3.634,61.249,3.3,66.959,15.364c2.026,4.279,2.885,9,4.127,13.57,7.135,26.252,28.275,48.219,54.175,56.3,10.78,3.361,23.792,5.606,28.822,15.745,3.135,6.32,1.988,13.94-.335,20.6a65.865,65.865,0,0,1-29.81,35.209C94.613,173.287,5.963,92.109,5.963,92.109.745,89.347-.9,82.333.451,76.572S5.416,65.9,8.537,60.878s5.9-10.714,5.272-16.6c-.58-5.429-3.972-10.139-5.331-15.427A21.475,21.475,0,0,1,13.2,9.518,21.315,21.315,0,0,1,31.873,2.787Z" transform="translate(218 31)"/><path class="b" d="M34.571,3.217C42.729-.58,52.537,1.748,59.51,6.953a25.6,25.6,0,0,1,8.485,10.912c2.128,5.3,2.963,11.02,4.811,16.417a82.219,82.219,0,0,0,14.281,25.44A84.6,84.6,0,0,0,109.3,78.807a80.507,80.507,0,0,0,13.3,6.314c4.48,1.642,9.125,2.769,13.678,4.181a44.041,44.041,0,0,1,12.472,5.573,18.013,18.013,0,0,1,7.592,11.663c.991,5.673-.5,11.55-2.516,16.835a62.3,62.3,0,0,1-7.366,13.7,66,66,0,0,1-10.378,11.478,58.567,58.567,0,0,1-11.836,8.26c-3.653,1.853-7.92,2.066-11.929,1.658A58.524,58.524,0,0,1,97.265,154.5a137.555,137.555,0,0,1-17.091-8.2c-6.031-3.355-11.891-7.011-17.634-10.833-5.841-3.888-11.561-7.955-17.19-12.142q-7.731-5.751-15.241-11.79-6.235-5-12.334-10.169-4.041-3.423-8.015-6.924Q8.726,93.525,7.7,92.6c-.752-.676-1.648-1.108-2.413-1.774-3.442-3-4.443-8.107-3.731-12.445.929-5.66,4.384-10.535,7.411-15.265,3.106-4.853,6.172-10.2,6.334-16.109.159-5.811-3.128-10.68-4.937-15.992a20.74,20.74,0,0,1,.789-15.412A20.147,20.147,0,0,1,22.43,5.238a21.012,21.012,0,0,1,7.282-1.33q.893,0,1.783.077a3.4,3.4,0,0,0,1.54.04c.527-.213,1.031-.542,1.535-.807.77-.4.087-1.569-.682-1.164l-1.551.815.521-.068a22.335,22.335,0,0,0-14.9,3.141,21.422,21.422,0,0,0-9.117,11.95,22.063,22.063,0,0,0-.929,7.776,24.778,24.778,0,0,0,1.978,7.9c1.088,2.644,2.4,5.207,3.245,7.945a16.924,16.924,0,0,1,.426,8.644C11.174,61.318-.105,69.275,0,81.162c.04,4.417,1.745,9.105,5.606,11.58a9.336,9.336,0,0,1,1.334.991q2.944,2.639,5.942,5.216,5.346,4.613,10.8,9.1,7.149,5.875,14.483,11.522,8.235,6.336,16.74,12.314c5.839,4.085,11.788,8.019,17.893,11.7a180.109,180.109,0,0,0,17.644,9.475,84.572,84.572,0,0,0,16.248,5.824,32.718,32.718,0,0,0,13.7.658,20.258,20.258,0,0,0,6.314-2.557,67.905,67.905,0,0,0,12.447-9.41,64.926,64.926,0,0,0,16.762-26.035c1.8-5.355,2.845-11.309,1.4-16.873a19.569,19.569,0,0,0-8.134-11.122c-7.829-5.368-17.69-6.564-26.438-9.8A80.688,80.688,0,0,1,97.269,68.361,83.275,83.275,0,0,1,78.906,45.012a77.558,77.558,0,0,1-5.7-13.9c-1.668-5.564-2.495-11.483-5.321-16.637A28.969,28.969,0,0,0,46.252.173,22.841,22.841,0,0,0,33.889,2.054c-.788.367-.1,1.529.682,1.164" transform="translate(217 31)"/><path class="g" d="M.57,52.716s25.241,51.244,54.045,52.274C71.312,105.588,82,79.3,82,79.3L67.684,0C25.653,22.218,60.512,68.532,46.2,70.141,40.407,70.791,14.4,42.9,14.4,42.9,10.094,37.325-2.854,45.85.57,52.716" transform="translate(169 115)"/><path class="b" d="M55.679,106c-.18,0-.363,0-.562-.01-15.073-.54-29.1-14.832-38.207-26.726A177.852,177.852,0,0,1,.628,53.422l0-.006c-1.97-3.955,1.024-8.2,4.639-10.461a11,11,0,0,1,5.666-1.821,5.214,5.214,0,0,1,4.305,1.984c7.032,7.537,26.354,27.1,31.246,27.1a1.613,1.613,0,0,0,.175-.009,3.269,3.269,0,0,0,2.419-1.246c1.68-2.279.68-7.51-.585-14.132C45.419,38.748,40.775,14.445,68.007.052a.451.451,0,0,1,.655.319L82.993,79.741a.447.447,0,0,1-.026.25,69.694,69.694,0,0,1-7.493,13.18C69.327,101.563,62.482,106,55.679,106ZM10.9,42.041A10.051,10.051,0,0,0,5.745,43.72c-3.282,2.057-6.03,5.843-4.309,9.294a176.072,176.072,0,0,0,16.2,25.712C33.924,99.986,47.027,104.8,55.15,105.088c.171.006.352.009.539.009a18.04,18.04,0,0,0,10.483-3.691,38.227,38.227,0,0,0,8.165-8.263A69.8,69.8,0,0,0,82.08,79.77L67.883,1.143C41.852,15.26,46.381,38.97,49.379,54.66,50.685,61.5,51.718,66.9,49.8,69.5a4.173,4.173,0,0,1-3.046,1.607,2.163,2.163,0,0,1-.235.012c-4.037,0-14.709-10.177-18.215-13.521C21.1,50.722,14.608,43.768,14.548,43.7A4.415,4.415,0,0,0,10.9,42.041Z" transform="translate(168 115)"/><path class="b" d="M.843,11.1s1.646,5.475,9.677,1.379S13.334,1.042,13.334,1.042s-4.26-3.2-9.922,1.622S.843,11.1.843,11.1" transform="translate(170 157)"/><path class="d" d="M8.617,4.506s-18.16,55.93-1.755,129.982C62.5,126.944,95.891,148.111,129,119.264,105.553,57.388,154.408,35.272,99.448,2.137c-29.8-5.932-90.83,2.37-90.83,2.37" transform="translate(216 231)"/><path class="b" d="M83.537,136c-6.839,0-14.009-.5-21.6-1.025-8.746-.607-17.789-1.235-27.779-1.235a197.583,197.583,0,0,0-26.8,1.741.438.438,0,0,1-.065,0,.451.451,0,0,1-.437-.353A291.427,291.427,0,0,1,1.57,42.148C4.01,19.38,8.438,5.389,8.626,4.8A.455.455,0,0,1,8.994,4.5C9.326,4.451,42.578,0,71.726,0c11.7,0,21.233.716,28.332,2.129a.465.465,0,0,1,.145.056c31.751,19.141,29.171,34.644,25.6,56.1-2.595,15.587-5.823,34.985,4.169,61.354a.45.45,0,0,1-.125.5,61.113,61.113,0,0,1-22.408,12.757C100.574,135.013,92.979,136,83.537,136Zm-49.378-3.161c10,0,19.053.628,27.807,1.235l.034,0c7.554.525,14.689,1.02,21.477,1.02,9.3,0,16.775-.962,23.532-3.026a60.047,60.047,0,0,0,22.006-12.408c-9.943-26.441-6.706-45.891-4.106-61.519v-.006C128.422,37.044,130.959,21.8,99.8,3,92.761,1.6,83.313.9,71.724.9,43.993.9,12.859,4.895,9.4,5.35,9.079,6.394,7.92,10.294,6.547,16.626A244.278,244.278,0,0,0,2.465,42.272,290.547,290.547,0,0,0,7.65,134.534,198.638,198.638,0,0,1,34.159,132.839Z" transform="translate(215 231)"/><path class="b" d="M0,8.82s9.653,3.652,36.062,3.128C63.9,11.4,95.215,3.147,95,1.944,94.685.2,91.151.109,87.451.048,67.405-.285,2.18,1.235,1.909,1.235,1.588,1.235,0,8.82,0,8.82" transform="translate(222 233)"/><path class="g" d="M10.944,31.407C4.209,37.551,2.191,93.364,0,128.891c0,0,65.2,7.673,99-6.255C93.657,105.281,93.646,15.2,87.228,10.7S63.929,0,63.929,0L30.609.253S22.467,1.641,16.368,4.938" transform="translate(218 111)"/><path class="b" d="M40.222,132q-1.484,0-2.913-.013C16.974,131.812.562,129.906.4,129.887a.451.451,0,0,1-.4-.476c.326-5.291.646-10.974.984-16.992C2.974,77.024,5.228,36.906,11.1,31.548a.451.451,0,0,1,.606.667c-5.6,5.109-7.943,46.775-9.824,80.255-.329,5.857-.64,11.4-.958,16.568,5.662.62,66.055,6.827,98.075-6.123-2.384-8.341-3.717-31.507-5.007-53.923-1.488-25.846-3.174-55.141-6.487-57.463C81.424,7.265,65.607,1.364,64.365.9l-33.234.252c-.586.1-8.315,1.518-14.082,4.635A.451.451,0,0,1,16.621,5C22.721,1.7,30.932.274,31.014.26a.481.481,0,0,1,.072-.007L64.44,0A.568.568,0,0,1,64.6.028c.692.254,17.027,6.277,23.425,10.762,3.415,2.394,4.937,24.579,6.869,58.151,1.308,22.728,2.661,46.23,5.087,54.106a.452.452,0,0,1-.259.55c-16.656,6.861-41,8.4-59.5,8.4" transform="translate(218 111)"/><path class="d" d="M48,64.7c-8.32,8.013-24.423,10.44-38.4,2.109,5.333-3.8,10.336-13.014,9.766-19.655s-1.27-7.977-1.27-7.977c-3.484,1.18-7.082,1.9-8.284,1.792C7.47,40.759-3.408,30.422,1.07,14.391.112,11.937.929,8.578.735,5.338,1.824,4.815,8.44,4.886,10.936,0A34.866,34.866,0,0,0,24.074,17.649a35.015,35.015,0,0,0,10.273,4.862,50.322,50.322,0,0,0,5.908,2.845C40.034,26.987,38.369,39.422,38.4,41.6l.212,15.191S39.038,60.584,48,64.7" transform="translate(235 47)"/><path class="b" d="M28.566,73a35.537,35.537,0,0,1-9.61-1.332,37.766,37.766,0,0,1-9.111-3.933.445.445,0,0,1-.031-.746c5.006-3.564,10.174-12.567,9.6-19.282a39.759,39.759,0,0,0-1.1-7.463,32.277,32.277,0,0,1-7.764,1.689c-.111,0-.212,0-.3-.012-1.139-.1-3.543-1.915-5.755-5.074a25.635,25.635,0,0,1-3.44-21.967A14.368,14.368,0,0,1,.685,9.351V9.333A31.03,31.03,0,0,0,.743,5.819.444.444,0,0,1,1,5.39a6.671,6.671,0,0,1,1.495-.348c2.327-.4,6.658-1.154,8.519-4.8A.453.453,0,0,1,11.417,0h.033a.452.452,0,0,1,.4.309A34.384,34.384,0,0,0,24.837,17.755a34.505,34.505,0,0,0,10.157,4.806.434.434,0,0,1,.093.038,35.263,35.263,0,0,0,4.567,2.255l.023.009c.369.145.717.282,1.313.577a.446.446,0,0,1,.247.459c-.019.134-1.887,13.925-1.854,16.2L39.6,57.28a5.733,5.733,0,0,0,1.493,2.456,23.557,23.557,0,0,0,7.649,5.1.445.445,0,0,1,.125.726,28.358,28.358,0,0,1-17.387,7.319C30.517,72.959,29.538,73,28.566,73ZM18.591,39.232a.453.453,0,0,1,.4.242c.076.146.76,1.615,1.321,8.157A21.268,21.268,0,0,1,17.7,58.522,26.716,26.716,0,0,1,10.891,67.3a36.211,36.211,0,0,0,8.592,3.473,37.379,37.379,0,0,0,9.578,1.271,30.833,30.833,0,0,0,9.948-1.574,24.674,24.674,0,0,0,8.746-5.11c-8.535-4.076-9.045-7.839-9.063-8l-.215-15.255C38.444,39.89,40.107,27.5,40.3,26.1c-.4-.188-.665-.292-.971-.412a35.864,35.864,0,0,1-4.633-2.282,35.364,35.364,0,0,1-10.377-4.919A35.407,35.407,0,0,1,11.3,1.518C9.061,4.811,4.89,5.534,2.649,5.923c-.342.059-.728.126-.985.188.043,1.095-.016,2.194-.073,3.257l0,.028a13.294,13.294,0,0,0,.364,5.3.439.439,0,0,1,.014.281A24.77,24.77,0,0,0,5.241,36.337c2.236,3.2,4.42,4.632,5.092,4.692.071.007.155.01.247.01a32.478,32.478,0,0,0,7.865-1.782A.457.457,0,0,1,18.591,39.232Z" transform="translate(235 46)"/><path class="d" d="M15.7,1.369S18.23,17.76,17.983,24.028,13.343,39.607,9.42,38.969,4.4,27.885,5.5,21.457C3.143,24.51.162,23.225,0,21.457S3.666,4.1,3.98.083A30.865,30.865,0,0,1,15.7,1.369" transform="translate(317 258)"/><path class="b" d="M10.317,40a2.884,2.884,0,0,1-.464-.037,3.606,3.606,0,0,1-2.337-1.656C5.334,35.189,4.767,28.229,5.341,23.262a4.018,4.018,0,0,1-2.533,1,3.2,3.2,0,0,1-.928-.138A2.525,2.525,0,0,1,.006,22c-.079-.887.637-4.362,1.825-9.979C2.824,7.337,3.85,2.491,4.006.5A.448.448,0,0,1,4.418.086C5.237.029,6.067,0,6.886,0a29.925,29.925,0,0,1,9.5,1.4.45.45,0,0,1,.288.355c.1.672,2.554,16.535,2.307,22.8-.2,5.112-3.017,11.8-6.024,14.314A4.184,4.184,0,0,1,10.317,40ZM5.974,21.51a.441.441,0,0,1,.181.039.453.453,0,0,1,.256.49c-.874,5.094-.349,12.635,1.825,15.743A2.772,2.772,0,0,0,9.992,39.07a2.012,2.012,0,0,0,.323.026,3.351,3.351,0,0,0,2.082-.923C15.24,35.8,17.9,29.417,18.1,24.521c.229-5.788-2-20.675-2.255-22.353a30.872,30.872,0,0,0-9-1.263c-.661,0-1.331.02-1.989.058C4.607,3.2,3.636,7.781,2.7,12.214l-.011.051c-.92,4.347-1.872,8.843-1.8,9.656a1.659,1.659,0,0,0,1.244,1.335,2.318,2.318,0,0,0,.672.1,3.732,3.732,0,0,0,2.823-1.673A.435.435,0,0,1,5.974,21.51Z" transform="translate(317 257)"/><path class="g" d="M4.02,0S25.951,9.671,35.2,50.086C45.434,94.833,36.123,140,36.123,140l-15.8-1.153s1.94-32.477-6.981-55.457A176.943,176.943,0,0,0,0,56.192" transform="translate(299 121)"/><path class="b" d="M36.688,141h-.034L20.8,139.845a.45.45,0,0,1-.42-.474c.019-.324,1.836-32.67-6.973-55.31A178.17,178.17,0,0,0,.07,56.921.446.446,0,0,1,.212,56.3a.457.457,0,0,1,.626.141A179.209,179.209,0,0,1,14.255,83.736C22.572,105.109,21.5,135,21.311,138.981l15.008,1.092c.868-4.516,8.625-47.414-1-89.4C26.2,10.906,4.52.956,4.3.86a.447.447,0,0,1-.23-.593.454.454,0,0,1,.6-.228c.228.1,5.666,2.545,12.314,10.008,6.11,6.859,14.4,19.441,19.216,40.425,10.172,44.361,1.025,89.715.931,90.168a.453.453,0,0,1-.444.359" transform="translate(298 120)"/><path class="g" d="M0,3.212C1.949,11.005,23.93,11.853,26,0" transform="translate(227 168)"/><path class="b" d="M12.385,9C6.869,9,1.045,7.156.015,3.444a.429.429,0,0,1,.327-.525A.461.461,0,0,1,.9,3.227c.836,3.011,6.132,5.116,12.315,4.9C21.657,7.827,25.4,3.914,26.093.353a.458.458,0,0,1,.532-.346.433.433,0,0,1,.368.5c-.753,3.891-4.76,8.161-13.744,8.478-.286.01-.575.015-.864.015" transform="translate(226 168)"/><path class="g" d="M0,0S3.486,16.135,24,9.322" transform="translate(262 166)"/><path class="b" d="M15.254,12A16.164,16.164,0,0,1,6.97,9.919,15.478,15.478,0,0,1,.01.555.457.457,0,0,1,.352.011.448.448,0,0,1,.886.358,14.817,14.817,0,0,0,7.427,9.133c4.308,2.506,10.023,2.6,16.985.281a.447.447,0,0,1,.565.292.459.459,0,0,1-.287.576A30.108,30.108,0,0,1,15.254,12" transform="translate(262 166)"/><path class="d" d="M43.763,23.066s-12.2-21.7-14.282-19.108A7.618,7.618,0,0,0,28.2,9.949S12.631-3.167,3.966.72,2.522,20.8,9.582,23.066,33.813,27.761,35.9,31c5.368-1.524,9.1-6.67,7.863-7.934" transform="translate(139 138)"/><path class="b" d="M36.43,32a.447.447,0,0,1-.378-.208c-1.291-2.005-9.75-3.889-16.546-5.4l-.016,0-.021,0c-3.69-.821-7.175-1.6-9.551-2.36C5.176,22.5.365,15.067.019,8.73-.189,4.909,1.311,2.08,4.242.764A9.372,9.372,0,0,1,8.1,0c3.235,0,7.185,1.283,11.74,3.815A64.09,64.09,0,0,1,28.12,9.372a7.566,7.566,0,0,1,1.527-5.231,1.01,1.01,0,0,1,.8-.384c.032,0,.064,0,.1,0,1.326.112,3.862,3.014,7.539,8.628,2.867,4.376,5.568,9.1,6.6,10.928a1.662,1.662,0,0,1,.23,1.6c-.545,2.072-3.834,5.781-8.356,7.065A.442.442,0,0,1,36.43,32ZM8.085.914A8.447,8.447,0,0,0,4.609,1.6C1.322,3.071.788,6.262.92,8.68c.323,5.905,4.916,13.075,9.272,14.474,2.344.754,5.817,1.527,9.493,2.345,7.37,1.639,14.991,3.335,16.913,5.521a13.646,13.646,0,0,0,5-2.928,8.174,8.174,0,0,0,2.437-3.408c.1-.365.078-.647-.047-.775a.488.488,0,0,1-.071-.1C39.812,16.5,32.529,4.843,30.467,4.669h-.025a.1.1,0,0,0-.1.047,7.134,7.134,0,0,0-1.2,5.615.458.458,0,0,1-.2.493.451.451,0,0,1-.527-.038,65.022,65.022,0,0,0-7.027-4.979,43.979,43.979,0,0,0-6.56-3.367A18.646,18.646,0,0,0,8.085.914Z" transform="translate(138 137)"/><path class="f" d="M31.292,12.543c-3.154,2.762-7.009,1.3-10-1.727C19,16.48,0,32.931,0,32.931S23.559,34.9,38.018,17.776l3.242,9.261L45,26.759S43.089,10.612,40.227,0c-2.846,4-4.977,9.042-8.934,12.543" transform="translate(253 510)"/><path class="b" d="M2.332,34C.989,34,.213,33.94.206,33.939a.228.228,0,0,1-.128-.4c.047-.041,4.874-4.248,9.963-9.146,4.608-4.436,10.348-10.336,11.524-13.254A.227.227,0,0,1,21.73,11a.24.24,0,0,1,.042,0,.227.227,0,0,1,.162.067c2.038,2.073,4.178,3.168,6.189,3.168a5.38,5.38,0,0,0,3.628-1.422c2.666-2.369,4.518-5.461,6.309-8.452l.025-.042C38.977,2.828,39.819,1.423,40.76.1a.223.223,0,0,1,.182-.1.219.219,0,0,1,.041,0,.226.226,0,0,1,.177.165C44.02,10.819,45.98,27.248,46,27.409a.228.228,0,0,1-.05.171.223.223,0,0,1-.157.083L42,27.945h-.02a.225.225,0,0,1-.208-.151l-3.152-9.046A42.428,42.428,0,0,1,18.286,31.62,56.512,56.512,0,0,1,2.332,34ZM21.847,11.618h0c-1.1,2.349-4.615,6.418-10.437,12.1-4.617,4.5-9.293,8.641-10.616,9.8.25.01.785.03,1.551.03a55.97,55.97,0,0,0,15.943-2.4A41.865,41.865,0,0,0,38.535,18.155a.224.224,0,0,1,.172-.08.224.224,0,0,1,.212.152l3.224,9.252,3.38-.252c-.33-2.7-2.1-16.659-4.673-26.471-.837,1.219-1.6,2.49-2.4,3.837-1.808,3.02-3.678,6.142-6.4,8.559A5.82,5.82,0,0,1,28.123,14.7c-2.044,0-4.214-1.065-6.275-3.08Z" transform="translate(253 509)"/><path class="b" d="M5,0,0,1.221.679,3Z" transform="translate(253 84)"/><path class="d" d="M24,25.455,13.061,28,0,1.59,14.113,0Z" transform="translate(439 235)"/><path class="b" d="M13.565,29a.45.45,0,0,1-.407-.251L.046,2.241a.444.444,0,0,1,.01-.412A.454.454,0,0,1,.4,1.6L14.57,0a.447.447,0,0,1,.055,0,.455.455,0,0,1,.42.288l9.926,25.549a.447.447,0,0,1-.023.37.453.453,0,0,1-.3.227L13.669,28.988A.459.459,0,0,1,13.565,29ZM14.324.932,1.142,2.417,13.813,28.034l10.124-2.355L14.324.932Z" transform="translate(438 235)"/><path class="d" d="M75,50.148,37.329,54.461,23.251,56.074,6.422,58,0,43.628,51.983,0c-6.742,7.485,2.806,27.1,2.806,27.1S65.43,49.731,75,50.148" transform="translate(415 181)"/><path class="b" d="M6.881,58a.453.453,0,0,1-.411-.263L.04,43.586a.446.446,0,0,1,.122-.526L52.213.1A.456.456,0,0,1,52.5,0a.45.45,0,0,1,.326.138.444.444,0,0,1,.009.608c-1.476,1.612-2.248,3.983-2.293,7.046a32.159,32.159,0,0,0,1.271,8.627,65.3,65.3,0,0,0,3.9,10.518c.105.22,10.645,22.046,19.852,22.44a.446.446,0,0,1,.031.889L6.932,58A.319.319,0,0,1,6.881,58ZM50.616,2.584,1,43.529,7.158,57.074l65.736-7.4C63.985,46.131,55.27,28.09,54.9,27.324c-.326-.659-7.932-16.228-4.288-24.74Z" transform="translate(415 181)"/><path class="d" d="M25.225,52h0c-2.166-.094-4.567-1.347-7.138-3.724a45.6,45.6,0,0,1-6.448-7.791A95.12,95.12,0,0,1,5.174,29.279,65.784,65.784,0,0,1,2.2,21.8C.108,15.427-1.56,6.915,2.391,2.554L3.964,1.241A8.933,8.933,0,0,1,6.4.191,5.5,5.5,0,0,1,7.844,0c2.273,0,4.8,1.318,7.5,3.919a45.855,45.855,0,0,1,7.339,9.776c4.692,8.044,8.173,17.717,9.083,25.244a20.357,20.357,0,0,1-.425,8.527A5.92,5.92,0,0,1,27.1,51.786L25.225,52Zm-6-34.1h0a4.291,4.291,0,0,0-1.527.289c-1.908.725-2.771,2.663-2.308,5.184.57,3.107,3.121,6.46,6.247,6.461a4.583,4.583,0,0,0,1.718-.343c1.7-.685,2.432-2.592,1.946-5.1a9.782,9.782,0,0,0-2.137-4.423A5.345,5.345,0,0,0,19.229,17.9Z" transform="translate(465 179)"/><path class="b" d="M25.754,53h-.019c-4.1-.177-8.8-4.125-13.982-11.734a95.325,95.325,0,0,1-6.52-11.29,66.89,66.89,0,0,1-3-7.547C.091,15.93-1.6,7.232,2.513,2.7c.014-.015.03-.03.045-.043L4.136,1.345a.46.46,0,0,1,.048-.035A9.42,9.42,0,0,1,6.747.2,5.873,5.873,0,0,1,8.295,0a8.467,8.467,0,0,1,4,1.137A18.971,18.971,0,0,1,16.61,4.5c4.626,4.66,9.345,12.644,12.622,21.359,3.4,9.055,4.576,17.022,3.213,21.856-.784,2.782-2.367,4.483-4.705,5.056a.416.416,0,0,1-.057.01L25.8,53ZM8.308.893a5.032,5.032,0,0,0-1.323.174,8.585,8.585,0,0,0-2.3.983L3.157,3.327C-.637,7.546,1.023,15.891,3.083,22.15a65.777,65.777,0,0,0,2.957,7.438c.1.221,10.564,22.066,19.7,22.516l1.814-.208c1.987-.5,3.343-1.985,4.03-4.422,2.676-9.5-5.785-32.448-15.609-42.342C14.053,3.2,11.164.893,8.308.893ZM22.16,30.783a5.579,5.579,0,0,1-3.459-1.3,9.1,9.1,0,0,1-3.311-7.845,4.129,4.129,0,0,1,2.657-3.391,4.711,4.711,0,0,1,1.677-.316,5.429,5.429,0,0,1,3.609,1.525,9.634,9.634,0,0,1,2.434,3.611c1.084,2.767,1.007,6.244-1.72,7.339A5.026,5.026,0,0,1,22.16,30.783ZM19.713,18.833a3.789,3.789,0,0,0-1.347.253,3.254,3.254,0,0,0-2.09,2.692,8.261,8.261,0,0,0,2.983,7.007,4.756,4.756,0,0,0,2.894,1.106,4.166,4.166,0,0,0,1.56-.313c2.161-.867,2.148-3.813,1.22-6.183a8.782,8.782,0,0,0-2.124-3.2A4.605,4.605,0,0,0,19.713,18.833Z" transform="translate(465 178)"/><path class="b" d="M.69,3a.661.661,0,0,1-.5-.232A.813.813,0,0,1,.177,1.735,8.454,8.454,0,0,1,1.945.115a.652.652,0,0,1,.924.2.809.809,0,0,1-.117,1.025L1.133,2.824A.651.651,0,0,1,.69,3" transform="translate(467 179)"/><path class="b" d="M.9,2Q.748,2,.595,1.99A.777.777,0,0,1,0,1.16.816.816,0,0,1,.554.28L2.3.006c.325-.051.621.246.685.683a.918.918,0,0,1-.439.994A4.444,4.444,0,0,1,.9,2" transform="translate(490 230)"/><path class="d" d="M11,0,0,10" transform="translate(478 208)"/><path class="b" d="M.451,11a.457.457,0,0,1-.328-.137.428.428,0,0,1,.019-.618L11.24.119a.461.461,0,0,1,.637.019.427.427,0,0,1-.019.618L.761,10.881A.458.458,0,0,1,.451,11" transform="translate(477 208)"/><path class="d" d="M16,0,0,4" transform="translate(467 197)"/><path class="b" d="M.463,5a.472.472,0,0,1-.451-.383.5.5,0,0,1,.346-.6L16.431.013a.463.463,0,0,1,.556.37.5.5,0,0,1-.346.6L.569,4.987A.431.431,0,0,1,.463,5" transform="translate(467 196)"/><path class="d" d="M7.946,11.655C1.918,14.14-3.165,2.451,2.388.29,8.2-1.969,12.836,9.643,7.946,11.655" transform="translate(481 196)"/><path class="b" d="M6.78,13a5.467,5.467,0,0,1-3.428-1.311A9.3,9.3,0,0,1,.07,3.75,4.166,4.166,0,0,1,2.7.32,4.585,4.585,0,0,1,4.364,0,5.326,5.326,0,0,1,7.942,1.543,9.759,9.759,0,0,1,10.355,5.2c1.074,2.8,1,6.318-1.7,7.427A4.906,4.906,0,0,1,6.78,13ZM4.354.91a3.679,3.679,0,0,0-1.336.257A3.286,3.286,0,0,0,.948,3.89,8.441,8.441,0,0,0,3.9,10.979,4.656,4.656,0,0,0,6.773,12.1a4.059,4.059,0,0,0,1.546-.316c2.143-.879,2.129-3.859,1.209-6.256A8.9,8.9,0,0,0,7.422,2.284,4.52,4.52,0,0,0,4.354.91Z" transform="translate(480 196)"/><path class="b" d="M.678,16A.667.667,0,0,1,.194,15.8a.7.7,0,0,1-.1-.826C.731,13.831,13.346,2.444,15.868.173A.676.676,0,0,1,16.319,0a.685.685,0,0,1,.071,0,.672.672,0,0,1,.473.276l3.005,4.147a.694.694,0,0,1-.217,1.011L1.005,15.914A.662.662,0,0,1,.678,16ZM16.212,1.7C12.8,4.777,7.989,9.167,4.688,12.271L18.32,4.612Z" transform="translate(488 159)"/><path class="b" d="M17.334,8l-.059,0L.607,6.536A.658.658,0,0,1,.445,5.258L15.425.037a.672.672,0,0,1,.536.042.656.656,0,0,1,.33.42L17.98,7.181a.657.657,0,0,1-.14.589A.668.668,0,0,1,17.334,8ZM15.178,1.521,3.785,5.491,16.461,6.6Z" transform="translate(503 186)"/><path class="b" d="M11.026,11a.646.646,0,0,1-.442-.175L.212,1.159A.678.678,0,0,1,.07.367.646.646,0,0,1,.779.013l13.69,2.695a.661.661,0,0,1,.462.356.682.682,0,0,1,0,.589l-3.319,6.971a.658.658,0,0,1-.466.365A.631.631,0,0,1,11.026,11ZM2.808,1.77l8.013,7.467,2.563-5.386Z" transform="translate(509 218)"/><path class="b" d="M1.919,17l-.046,0a.654.654,0,0,1-.588-.617L0,.735A.708.708,0,0,1,.167.22.623.623,0,0,1,.635,0H5.364a.619.619,0,0,1,.5.256.706.706,0,0,1,.121.574L2.537,16.478A.642.642,0,0,1,1.919,17ZM1.329,1.353l.877,10.7,2.356-10.7Z" transform="translate(476 148)"/><path class="d" d="M75,51.2,12.878,67,0,15.8,62.122,0Z" transform="translate(16 317)"/><path class="b" d="M13.346,67a.449.449,0,0,1-.437-.338L.014,16.149a.435.435,0,0,1,.049-.338.453.453,0,0,1,.276-.2L62.543.014A.457.457,0,0,1,62.653,0a.45.45,0,0,1,.23.063.438.438,0,0,1,.206.274l12.9,50.513a.442.442,0,0,1-.049.338.447.447,0,0,1-.278.206l-62.2,15.592A.476.476,0,0,1,13.346,67ZM62.327.99h0L1,16.363,13.674,66.01,75,50.638,62.327.99Z" transform="translate(15 317)"/><path class="d" d="M12.65,64,27,50.654,14.349,0,0,13.346Z" transform="translate(78 304)"/><path class="b" d="M13.147,65a.435.435,0,0,1-.127-.019.447.447,0,0,1-.3-.319L.014,13.927a.452.452,0,0,1,.131-.441L14.552.119a.44.44,0,0,1,.427-.1.45.45,0,0,1,.3.32l12.7,50.735a.454.454,0,0,1-.131.441L13.448,64.882A.445.445,0,0,1,13.147,65ZM14.6,1.289.941,13.965,13.4,63.711,27.059,51.035Z" transform="translate(77 303)"/><path class="d" d="M0,29,24.295,13.227,77,0,62.341,13.355Z" transform="translate(15 304)"/><path class="b" d="M.453,30a.454.454,0,0,1-.415-.269.448.448,0,0,1,.167-.557L24.53,13.346a.444.444,0,0,1,.137-.059L77.437.014A.455.455,0,0,1,77.549,0a.45.45,0,0,1,.3.782l-14.677,13.4a.442.442,0,0,1-.2.105L.563,29.986A.428.428,0,0,1,.453,30ZM75.921,1.323h0L24.962,14.141l-22,14.314L62.648,13.442,75.921,1.324Z" transform="translate(15 303)"/><path class="d" d="M23,7.975,2.121,13,0,5.024,20.879,0Z" transform="translate(22 331)"/><path class="b" d="M2.588,14a.475.475,0,0,1-.235-.062.443.443,0,0,1-.211-.27L.014,5.619a.421.421,0,0,1,.05-.333.461.461,0,0,1,.282-.2L21.3.014A.472.472,0,0,1,21.412,0a.455.455,0,0,1,.445.332l2.128,8.05a.421.421,0,0,1-.046.326.453.453,0,0,1-.287.208L2.7,13.987A.475.475,0,0,1,2.588,14ZM21.08.974h0L1.018,5.829l1.9,7.2L22.982,8.171l-1.9-7.2Z" transform="translate(21 331)"/><path class="d" d="M29.146,48,0,23.83,19.855,0,49,24.17Z" transform="translate(466 327)"/><path class="b" d="M29.655,49a.45.45,0,0,1-.286-.1L.162,24.674A.445.445,0,0,1,.1,24.044L20,.161A.449.449,0,0,1,20.632.1L49.838,24.326a.448.448,0,0,1,.058.629L30,48.839A.446.446,0,0,1,29.655,49ZM20.4,1.075,1.078,24.272,29.6,47.924l19.324-23.2Z" transform="translate(465 326)"/><path class="d" d="M0,23.7,11.737,26,32,2.3,20.263,0Z" transform="translate(495 351)"/><path class="b" d="M11.855,27a.421.421,0,0,1-.088-.009L.356,24.686A.445.445,0,0,1,.1,23.965L19.8.161A.438.438,0,0,1,20.144,0a.445.445,0,0,1,.089.009l11.411,2.3a.445.445,0,0,1,.254.721l-19.7,23.8A.441.441,0,0,1,11.855,27ZM20.318.934,1.259,23.96l10.424,2.106L30.74,3.04,20.317.934Z" transform="translate(495 351)"/><path class="d" d="M0,0,16.144,6.162,41,27,29.4,24.647Z" transform="translate(485 327)"/><path class="b" d="M41.549,28a.424.424,0,0,1-.089-.009l-11.628-2.36a.462.462,0,0,1-.2-.1L.163.807a.459.459,0,0,1-.1-.58A.449.449,0,0,1,.612.03L16.794,6.212a.454.454,0,0,1,.129.076L41.837,27.193a.458.458,0,0,1,.119.548A.451.451,0,0,1,41.549,28ZM2.818,1.847h0l27.3,22.911,9.762,1.982L16.4,7.038Z" transform="translate(485 326)"/><path class="d" d="M9.747,12,0,3.909,3.253,0,13,8.092Z" transform="translate(483 331)"/><path class="b" d="M10.269,13a.453.453,0,0,1-.291-.1L.165,4.742A.45.45,0,0,1,0,4.434a.457.457,0,0,1,.1-.332L3.38.164A.452.452,0,0,1,3.689,0l.046,0a.448.448,0,0,1,.286.1l9.814,8.153a.455.455,0,0,1,.059.64l-3.276,3.938A.454.454,0,0,1,10.269,13ZM3.79,1.094,1.1,4.333l9.115,7.572L12.9,8.667Z" transform="translate(482 331)"/><path class="d" d="M62,31A31,31,0,1,0,31,62,31,31,0,0,0,62,31" transform="translate(119 401)"/><path class="b" d="M31,62A31,31,0,1,1,62,31,31.035,31.035,0,0,1,31,62ZM31,.893A30.107,30.107,0,1,0,61.107,31,30.141,30.141,0,0,0,31,.893Z" transform="translate(119 401)"/><path class="d" d="M53,26.5A26.5,26.5,0,1,0,26.5,53,26.5,26.5,0,0,0,53,26.5" transform="translate(123 406)"/><path class="b" d="M27,54A27,27,0,1,1,54,27,27.031,27.031,0,0,1,27,54ZM27,.9A26.1,26.1,0,1,0,53.1,27,26.126,26.126,0,0,0,27,.9Z" transform="translate(123 405)"/><path class="d" d="M15.224,27.033a4.286,4.286,0,0,0-1.316-3.182,11.746,11.746,0,0,0-4.439-2.34,14.2,14.2,0,0,1-6.336-3.479,7.7,7.7,0,0,1-1.99-5.45A7.916,7.916,0,0,1,3.092,7.061,8.262,8.262,0,0,1,8.449,4.5V0H11.49V4.516A7.853,7.853,0,0,1,16.826,7.41a10.442,10.442,0,0,1,1.909,6.63H14.98a7.178,7.178,0,0,0-1.367-4.613A4.482,4.482,0,0,0,9.918,7.718,5.078,5.078,0,0,0,6.2,8.983a4.722,4.722,0,0,0-1.286,3.527,4.312,4.312,0,0,0,1.357,3.342,12.478,12.478,0,0,0,4.469,2.262A18.768,18.768,0,0,1,15.6,20.352a7.842,7.842,0,0,1,2.571,2.843,8.257,8.257,0,0,1,.826,3.8,7.637,7.637,0,0,1-2.071,5.583,9.16,9.16,0,0,1-5.806,2.5V39H8.1V35.08a8.778,8.778,0,0,1-5.949-2.72A9.207,9.207,0,0,1,0,25.925H3.776a6.061,6.061,0,0,0,1.49,4.393A5.607,5.607,0,0,0,9.49,31.857a6.311,6.311,0,0,0,4.2-1.293,4.378,4.378,0,0,0,1.53-3.53" transform="translate(140 413)"/><path class="b" d="M12.177,41H9.056a.682.682,0,0,1-.685-.678V36.941A9.6,9.6,0,0,1,2.4,34.029a9.953,9.953,0,0,1-2.4-7,.682.682,0,0,1,.685-.678h3.9a.682.682,0,0,1,.685.678,5.487,5.487,0,0,0,1.345,3.992,5.153,5.153,0,0,0,3.874,1.36,5.966,5.966,0,0,0,3.9-1.156,3.743,3.743,0,0,0,1.337-3.07,3.645,3.645,0,0,0-1.153-2.75,11.651,11.651,0,0,0-4.324-2.22,15.418,15.418,0,0,1-6.831-3.717,8.442,8.442,0,0,1-2.24-6A8.66,8.66,0,0,1,3.372,7.4,9.082,9.082,0,0,1,8.73,4.66V.678A.682.682,0,0,1,9.414,0h3.142a.682.682,0,0,1,.684.678V4.693a8.694,8.694,0,0,1,5.367,3.1,11.188,11.188,0,0,1,2.12,7.16.682.682,0,0,1-.685.678h-3.88a.682.682,0,0,1-.684-.678,6.6,6.6,0,0,0-1.262-4.264A3.973,3.973,0,0,0,10.932,9.2a4.676,4.676,0,0,0-3.359,1.092,4.085,4.085,0,0,0-1.122,3.1,3.674,3.674,0,0,0,1.178,2.9A12.42,12.42,0,0,0,12,18.446a20.269,20.269,0,0,1,5.2,2.363,8.737,8.737,0,0,1,2.875,3.136A8.992,8.992,0,0,1,21,28.116a8.372,8.372,0,0,1-2.336,6.151,9.943,9.943,0,0,1-5.8,2.669v3.387A.682.682,0,0,1,12.177,41ZM1.385,27.708a8.336,8.336,0,0,0,2.03,5.407,8.51,8.51,0,0,0,5.7,2.547.676.676,0,0,1,.622.675v3.307h1.752V36.338a.679.679,0,0,1,.614-.674,8.916,8.916,0,0,0,5.582-2.347,6.984,6.984,0,0,0,1.943-5.2,7.659,7.659,0,0,0-.778-3.551,7.389,7.389,0,0,0-2.438-2.642,19,19,0,0,0-4.839-2.188,13.477,13.477,0,0,1-4.867-2.443,5.014,5.014,0,0,1-1.626-3.9,5.424,5.424,0,0,1,1.534-4.07,5.981,5.981,0,0,1,4.316-1.478,5.336,5.336,0,0,1,4.35,1.99,7.538,7.538,0,0,1,1.545,4.436h2.515a9.454,9.454,0,0,0-1.81-5.641,7.424,7.424,0,0,0-5.07-2.692.682.682,0,0,1-.592-.67V1.355H10.1V5.247a.682.682,0,0,1-.6.673,7.964,7.964,0,0,0-5.11,2.39A7.261,7.261,0,0,0,2.55,13.469a7.044,7.044,0,0,0,1.872,5.078A14.173,14.173,0,0,0,10.669,21.9a12.758,12.758,0,0,1,4.865,2.543A4.993,4.993,0,0,1,17.1,28.158a5.08,5.08,0,0,1-1.826,4.107,7.277,7.277,0,0,1-4.784,1.473,6.531,6.531,0,0,1-4.855-1.769,6.455,6.455,0,0,1-1.712-4.261Z" transform="translate(139 412)"/><path class="d" d="M15.461,58.179.216,31.607a1.631,1.631,0,0,1,.6-2.225L51.528.217a1.627,1.627,0,0,1,2.222.6L64.784,20.05a1.631,1.631,0,0,1-.6,2.225L19.469,47.992a1.629,1.629,0,0,0-.817,1.382L18.5,57.4a1.627,1.627,0,0,1-3.039.781" transform="translate(61 202)"/><path class="b" d="M17.319,60a2.034,2.034,0,0,1-1.774-1.05L.276,32.334a2.087,2.087,0,0,1,.767-2.843L51.835.277a2.077,2.077,0,0,1,2.838.769L65.724,20.309a2.086,2.086,0,0,1-.767,2.842L20.172,48.911a1.188,1.188,0,0,0-.593,1l-.153,8.038a2.035,2.035,0,0,1-1.562,1.976A2.172,2.172,0,0,1,17.319,60ZM52.869.9a1.181,1.181,0,0,0-.587.158L1.49,30.271a1.185,1.185,0,0,0-.436,1.615L16.322,58.5a1.122,1.122,0,0,0,1,.6,1.272,1.272,0,0,0,.315-.04,1.143,1.143,0,0,0,.887-1.123l.153-8.038a2.093,2.093,0,0,1,1.043-1.766L64.51,22.372a1.185,1.185,0,0,0,.436-1.616L53.9,1.493a1.172,1.172,0,0,0-.716-.553A1.186,1.186,0,0,0,52.869.9Z" transform="translate(60 201)"/><path class="d" d="M0,21.6,37.711,0,39,2.063,1.074,24Z" transform="translate(73 210)"/><path class="b" d="M1.53,25a.433.433,0,0,1-.14-.023.454.454,0,0,1-.274-.247L.041,22.318a.46.46,0,0,1,.189-.588L38.031.059a.45.45,0,0,1,.607.155l1.292,2.07a.464.464,0,0,1-.158.644L1.755,24.94A.455.455,0,0,1,1.53,25ZM38.1,1.074h0L1.037,22.323l.7,1.57L38.911,2.369l-.808-1.3Z" transform="translate(72 209)"/><path class="d" d="M0,21.6,37.711,0,39,2.063,1.074,24Z" transform="translate(77 217)"/><path class="b" d="M1.53,25a.44.44,0,0,1-.14-.022.461.461,0,0,1-.274-.248L.04,22.318a.46.46,0,0,1,.189-.588L38.031.059a.45.45,0,0,1,.607.154L39.93,2.284a.458.458,0,0,1,.056.356.453.453,0,0,1-.214.287L1.755,24.94A.455.455,0,0,1,1.53,25ZM38.1,1.073,1.037,22.323l.7,1.57L38.911,2.369Z" transform="translate(76 216)"/><path class="d" d="M11.42,33.255.16,1.625C-.171.7.028-.031.6,0L38.049,2.1c.576.032,1.31.812,1.641,1.741l8.15,22.893c.331.929.132,1.656-.443,1.624L14.379,26.507c-.366-.021-.6.27-.6.766l-.112,6.956c-.023,1.432-1.636.732-2.244-.974" transform="translate(392 292)"/><path class="b" d="M13.586,36c-.8,0-1.693-.862-2.116-2.05L.187,2.233A2.011,2.011,0,0,1,.25.382.943.943,0,0,1,1.024,0h.058L38.6,2.109c.872.049,1.7,1.09,2.044,2.045l8.166,22.955a2.008,2.008,0,0,1-.063,1.85.939.939,0,0,1-.772.383l-.06,0L14.835,27.482h-.012a.055.055,0,0,0-.037.009.487.487,0,0,0-.079.315l-.113,6.975c-.016.994-.646,1.174-.839,1.205A1.066,1.066,0,0,1,13.586,36ZM1.017.9a.044.044,0,0,0-.044.02A1.291,1.291,0,0,0,1.037,1.93L12.32,33.646c.367,1.033,1.043,1.45,1.263,1.45l.026,0c.026,0,.079-.106.083-.327l.113-6.975a1.3,1.3,0,0,1,.365-.962.944.944,0,0,1,.656-.252l.059,0,33.084,1.858h.017a.042.042,0,0,0,.042-.021,1.289,1.289,0,0,0-.065-1L39.8,4.458c-.305-.857-.941-1.429-1.245-1.446L1.031.9Z" transform="translate(391 291)"/><path class="b" d="M17.308,11a.717.717,0,0,1-.363-.1L.328,1.209A.633.633,0,0,1,.1.31.715.715,0,0,1,1.054.1L17.672,9.791a.633.633,0,0,1,.225.9.7.7,0,0,1-.589.31" transform="translate(91 29)"/><path class="b" d="M.686,9a.688.688,0,0,1-.625-.388A.649.649,0,0,1,.4,7.74L18.032.059a.7.7,0,0,1,.907.329.65.65,0,0,1-.342.873L.968,8.941A.7.7,0,0,1,.686,9" transform="translate(88 67)"/><path class="b" d="M.692,11A.7.7,0,0,1,.1,10.69a.633.633,0,0,1,.225-.9L16.946.1A.716.716,0,0,1,17.9.31a.633.633,0,0,1-.225.9L1.055,10.9a.717.717,0,0,1-.363.1" transform="translate(175 29)"/><path class="b" d="M18.314,9a.7.7,0,0,1-.282-.059L.4,1.26A.65.65,0,0,1,.061.388.7.7,0,0,1,.968.059L18.6,7.74a.649.649,0,0,1,.342.872A.688.688,0,0,1,18.314,9" transform="translate(177 67)"/><g transform="translate(142)"><path class="a" d="M0,0H1.5V18.556H0Z" transform="translate(0.21 0.233)"/><g class="h"><path class="b" d="M.75,18.557A.717.717,0,0,1,0,17.878V.679A.717.717,0,0,1,.75,0,.717.717,0,0,1,1.5.679v17.2a.717.717,0,0,1-.75.679" transform="translate(0.21 0.232)"/></g></g><path class="d" d="M42,21A21,21,0,1,0,21,42,21,21,0,0,0,42,21" transform="translate(22 396)"/><path class="b" d="M21,42A21,21,0,1,1,42,21,21.023,21.023,0,0,1,21,42ZM21,.89A20.11,20.11,0,1,0,41.11,21,20.133,20.133,0,0,0,21,.89Z" transform="translate(22 396)"/></g></svg>