<svg xmlns="http://www.w3.org/2000/svg" xmlns:xlink="http://www.w3.org/1999/xlink" width="729.653" height="286.836" viewBox="0 0 729.653 286.836"><defs><style>.a{fill:none;}.b{fill:#fff;}.c{fill:#ff265a;}.d{fill:#323261;}.e{clip-path:url(#a);}.f{clip-path:url(#b);}.g{clip-path:url(#c);}.h{fill:#e9edff;}</style><clipPath id="a"><path class="a" d="M0,0H349.653V286.835H0Z" transform="translate(0 0.164)"/></clipPath><clipPath id="b"><path class="a" d="M0,0H420V232H0Z"/></clipPath><clipPath id="c"><path class="a" d="M0,215.156H255V0H0Z"/></clipPath></defs><g transform="translate(0 -0.164)"><g transform="translate(380)"><path class="b" d="M107.824,135v0l.749-5.832,2.381-.463.595-.114.859-.167a.112.112,0,0,0,.089-.105c.189-.047.224-.1.243-.123a.226.226,0,0,0,.045-.17.232.232,0,0,0-.229-.2.227.227,0,0,0-.127.038,3.415,3.415,0,0,1-.86.085c-.181.006-.386.009-.611.009h-.084c-.647,0-1.447-.026-2.379-.073h-.016c-.352-.017-.681-.036-1.006-.056-2.824-.548-4.889-2.459-6.139-5.679a24.005,24.005,0,0,1-1.367-8.529c.529.016,1.057.025,1.569.025,4.14,0,5.751-.566,6.372-1.041a.942.942,0,0,1,.547-.236.458.458,0,0,1,.172.033c.611.243.86,1.769,1.061,2.994s.319,1.856.662,1.878c.055,0,.1.006.145.006a.529.529,0,0,0,.379-.116,1.87,1.87,0,0,0,.307-.386c.072-.108.2-.293.388-.56.316-.441.681-.9,1.148-1.436a.88.88,0,0,1,.7-.3,1.55,1.55,0,0,1,.367.047,4.019,4.019,0,0,1,.993,7.088.1.1,0,0,0-.026.035,4.344,4.344,0,0,0,.7,4.424,40.53,40.53,0,0,1,2.452,4.14c.054.1.108.2.162.3l0,0,.066.121c.077.14.154.283.231.427.2.364.4.74.606,1.126l.026.048a2.551,2.551,0,0,0-.632-.207c-.068-.012-.14-.024-.212-.03h-.019c-.039,0-.082,0-.126-.006l-.1,0c-.135-.006-.279-.009-.427-.009a18.59,18.59,0,0,0-5.91,1.113l-.034.012c-.216.078-.439.159-.66.249A15.645,15.645,0,0,0,107.825,135ZM17.133,15.443h0a5.832,5.832,0,0,1-4.747-2.322l-.018-.019c-.311-.327-.631-.664-.978-.967a3.638,3.638,0,0,0-2.322-1.052,2.274,2.274,0,0,0-.375.031,2.7,2.7,0,0,0-1.714,1.164,6.586,6.586,0,0,1-2.531.555,4.223,4.223,0,0,1-1.476-.251A4.223,4.223,0,0,1,.6,10.093,8.155,8.155,0,0,1,1.9,1.965c.148-.078,1.5-.783,3.5-1.647l.354-.15L5.84.13,5.89.109,5.918.1l.024.033.007.009.067.093c.039.054.078.108.118.159a13.341,13.341,0,0,0,4.208,3.319,2.308,2.308,0,0,0,1.044.348.8.8,0,0,0,.38-.086.963.963,0,0,0,.427-.9,2.8,2.8,0,0,1,.8-1.6l.052-.059c.041-.047.083-.095.127-.14s.11-.1.165-.153l.046-.041A4.654,4.654,0,0,1,14.338.4,3.328,3.328,0,0,1,15.834,0,2.352,2.352,0,0,1,17.15.394a2.551,2.551,0,0,1,1.319,2.021c0,.1,0,.173,0,.241a2.319,2.319,0,0,1-.027.235,5.548,5.548,0,0,1-.688,1.75c-.333.616-.307,1.244.065,1.526a.693.693,0,0,0,.428.14,1.754,1.754,0,0,0,1.122-.588,2.87,2.87,0,0,1,2.049-.92c1.151,0,2.464.737,4.013,2.255A4.2,4.2,0,0,1,26.5,9.819a3.1,3.1,0,0,0,.987,2.356C22.916,14.374,19.528,15.443,17.133,15.443Z" transform="translate(139 14)"/><path class="c" d="M182.777,206h0c-.128,0-.258,0-.386,0-.479-.008-.98-.032-1.49-.072a50.064,50.064,0,0,1-12.191-2.835c-1.337-.464-2.769-1.006-4.257-1.61-1.416-.575-2.833-1.191-4.21-1.829-5.168-2.391-9.781-5.062-12.038-6.971l-.11-.091-.065-.053c-.291-.256-.548-.506-.845-.8a14.73,14.73,0,0,1-1.346-1.548c-.065-.085-.122-.162-.174-.234l-.066-.087c-.037-.048-.072-.1-.1-.141l0,0,0-.005a10.577,10.577,0,0,1-1.878-4.842c0-.037-.008-.074-.013-.111s-.01-.085-.014-.125c-.005-.06-.009-.118-.013-.176l0-.065a7.279,7.279,0,0,1,.238-2.5l0-.008a.146.146,0,0,0,.006-.02c0-.021.038-.179.121-.555l.013-.058c.012-.053.024-.11.037-.172l.008-.037c.015-.062.03-.127.043-.193l.009-.039V180.8c.253-1.136.675-3.038,1.234-5.485l.043-.189.1-.425c.319-1.4.676-2.942,1.06-4.585.008-.034.016-.069.024-.1s.02-.084.029-.125l.023-.1v-.005c.01-.043.02-.085.03-.128.464-1.987.961-4.069,1.474-6.187.614.121,1.243.236,1.87.338l.121.02.014,0,.094.016.11.018.119.02a42.761,42.761,0,0,0,6.461.535,30.385,30.385,0,0,0,4.666-.358l.212-.031.012,0c.155-.022.315-.045.469-.073.686-.125,1.294-.258,1.859-.409a18.765,18.765,0,0,0,4.469-1.8l.1-.055c.043-.022.087-.045.127-.068s.09-.057.128-.083.067-.046.1-.067a11.213,11.213,0,0,0,3.946-3.842.228.228,0,0,0-.1-.31.215.215,0,0,0-.1-.024.25.25,0,0,0-.063.008.228.228,0,0,0-.148.112,10.208,10.208,0,0,1-3.536,3.51l-.079.052,0,0c-.048.032-.1.063-.147.1s-.071.045-.1.068-.082.055-.126.081a18.272,18.272,0,0,1-4.589,1.878c-.51.135-1.079.26-1.74.382l-.122.023c-.186.036-.377.073-.571.1a29.939,29.939,0,0,1-4.647.347,42.189,42.189,0,0,1-6.436-.529l-.047-.006c-.061-.008-.122-.017-.183-.027l-.084-.012-.006,0h0l-.139-.021c-.453-.074-.944-.162-1.545-.278l-.118-.024-.008,0-.138-.028-.035-.008-.035-.008-.08-.017-.08-.017-.174-.037-.03-.007-.027-.006a71.693,71.693,0,0,1-8.042-2.192c-6.109-2.035-12.415-6.506-18.743-13.288l-.544-.594-.014-.015a112.685,112.685,0,0,1-11.619-15.365l-.139-.22-.092-.146a.031.031,0,0,0-.005-.008l-.036-.058-.111-.175c-1.449-2.3-2.84-4.642-4.132-6.976l-.064-.115-.064-.115-.06-.109-.007-.012-.06-.109c-.189-.341-.365-.67-.53-.978-.041-.076-.084-.155-.123-.229l-.027-.049c-.033-.062-.066-.122-.1-.181a50.984,50.984,0,0,1-3.357-7.121,6.274,6.274,0,0,1,.832-1.377c.047-.06.1-.12.146-.177.021-.025.042-.051.063-.077s.055-.07.084-.1a10.4,10.4,0,0,1,4.56-2.743l.125-.038.1-.029.048-.014.006,0,.167-.049c.1-.027.2-.053.294-.078.081-.021.15-.037.215-.052l.015,0c.093-.023.172-.039.231-.05l.013,0,.011,0c.061.07.614.707,1.534,1.749l.231.262.231.262c2.795,3.155,7.062,7.892,11.522,12.547.238.25.475.5.655.681,6.81,7.066,11.639,11.4,14.353,12.868,5.015,2.72,10,5.162,15.776,5.162.61,0,1.229-.028,1.841-.082l.11-.009.139-.012.114-.009c.046,0,.09-.006.134-.011a22.774,22.774,0,0,0,3.034-.558,18.391,18.391,0,0,1,4.545-.58c.184,0,.369,0,.551.009s.371.018.547.032l.146.011a16.5,16.5,0,0,1,6.329,1.714c.086.044.16.084.231.125.107.058.178.1.23.131l.007,0c.085.051.146.087.151.092a.2.2,0,0,0,.119.036.265.265,0,0,0,.067-.009.227.227,0,0,0,.135-.088.231.231,0,0,0-.06-.32l-.006,0c-.118-.073-.26-.156-.412-.241-.078-.043-.151-.083-.23-.124l-.152-.077-.079-.04a17.081,17.081,0,0,0-6.329-1.659l-.131-.009h-.018c-.177-.012-.358-.025-.544-.03s-.372-.008-.558-.008a18.884,18.884,0,0,0-4.653.591,21.61,21.61,0,0,1-2.767.52,27.482,27.482,0,0,1,2.421-6.054,10.785,10.785,0,0,1,1.911-2.05c.083-.068.168-.136.258-.207.056-.045.114-.088.17-.13l.089-.067a14.712,14.712,0,0,1,3.129-1.761c.238-.1.471-.192.693-.274a18.124,18.124,0,0,1,5.886-1.13c.161,0,.3.008.438.016l.1,0c.04,0,.08,0,.114,0l.014,0a1.8,1.8,0,0,1,.235.037,2.585,2.585,0,0,1,.754.316c.066.04.134.084.209.135l.026.02.06.044.073.055.005,0,.04.03.054.043.05.04c.082.068.163.136.244.211,2.313,2.112,5.6,7.957,11.734,20.847a129.235,129.235,0,0,1,9.281,23.159l.013.042c.009.03.018.058.026.085l.014.05c.008.03.017.059.024.089.653,2.349,1.185,4.646,1.579,6.827,1.7,9.456.716,16.441-2.856,20.2a6.065,6.065,0,0,1-1.059.866c-.069.047-.145.093-.21.133l-.036.023-.05.031-.057.035-.07.042A12.472,12.472,0,0,1,182.777,206ZM131.33,188.1c-8.216,0-19.178-4.8-23.3-6.6l-.228-.1-.206-.09c-.2-.088-.384-.167-.532-.23l-.023-.009-.012-.005-.344-.143-.176-.072-.272-.112-.009,0-.54-.222c-2.283-.932-4.871-1.989-5.114-2.921a.546.546,0,0,1,.143-.5c.045-.067.085-.138.122-.206l.052-.093.292.065.114.025c.133.718.258,1.232.282,1.321a.23.23,0,0,0,.194.172h.009a2.823,2.823,0,0,0,.289.014,4.322,4.322,0,0,0,1.516-.279,4.444,4.444,0,0,0,2.663-3.053c.712-2.291-.834-3.946-2.257-4.932-.133-.091-.246-.165-.346-.229-.118-.074-.241-.147-.386-.23a7.359,7.359,0,0,0-.711-.36.232.232,0,0,0-.188,0,1.724,1.724,0,0,0-.4.272c-.348-.121-.774-.281-1.23-.463a.059.059,0,0,1,.016-.028.962.962,0,0,1,.621-.135,18.058,18.058,0,0,1,3.832.709c.251.066.535.144.844.23.269.075.555.157.8.229,2.207.643,4.9,1.53,8,2.638a30.5,30.5,0,0,0,8.087,1.883l.036,0c.043,0,.082,0,.121.007.346.02.693.031,1.029.031a16.96,16.96,0,0,0,4.877-.741,56.831,56.831,0,0,0,7.405-3.82l.265-.149.141-.08.254-.145.151-.086c3.633-2.069,7.621-4.428,10.327-6.043-.483,2-.966,4.031-1.436,6.043-.019.077-.037.153-.054.23l-.024.1c-.01.042-.019.084-.03.126-.364,1.561-.714,3.082-1.041,4.521-.035.149-.068.292-.1.434l-.058.255c-.547,2.408-.974,4.33-1.236,5.519-.01.049-.021.1-.032.144l-.019.085c-.02.087-.035.158-.05.23-.027.123-.051.231-.069.315l0,.009,0,.014-.023.107a7.554,7.554,0,0,0-.264,2.823c-2.011.792-4.25,1.689-6.655,2.669A13.645,13.645,0,0,1,131.33,188.1ZM85.2,78.048a2.424,2.424,0,0,1-1.775-.743,4.052,4.052,0,0,1-1.069-2.6,2.29,2.29,0,0,1,.01-.255l.005-.044a1.032,1.032,0,0,1,.023-.144.47.47,0,0,1,.025-.07l.005-.012c.078-.213.31-.656.629-1.26l.164-.312,0-.006.083-.157q.105-.2.218-.418l.079-.152A51.932,51.932,0,0,0,87.306,62.9,34.012,34.012,0,0,0,88.762,49.9c-.022-.239-.051-.476-.079-.705v-.007c-.016-.131-.032-.262-.047-.394-.012-.1-.024-.2-.035-.3v-.005c-.014-.128-.029-.255-.044-.381a55.068,55.068,0,0,0-1.277-6.785c-.01-.04-.02-.08-.03-.121s-.018-.073-.026-.108-.024-.088-.037-.131-.019-.065-.029-.1c-1.591-5.95-4.09-10.675-6.685-12.641l-.019-.014c-.1-.074-.2-.15-.3-.215a4.539,4.539,0,0,0-.392-.229,3.83,3.83,0,0,0-.984-.406.206.206,0,0,0-.052-.006.19.19,0,0,0-.032,0c-1.077.154-2.124.288-3.2.41-.795.09-1.559.165-2.335.23-1.147.094-2.158.146-2.845.146-.182,0-.336,0-.458-.011-.059,0-.136,0-.237,0-.272,0-.682.011-1.19.026-.76.022-1.908.055-3.135.055a38.963,38.963,0,0,1-4.46-.211l-.122-.015-.026,0c-.164-.019-.332-.039-.487-.064-.343-.053-.85-.1-1.464-.148-1.7-.124-4.179-.2-6.8-.2-1.335,0-2.689.018-4.023.054-1.164.031-2.38.08-3.517.142s-2.221.139-3.208.23c-.736.067-1.442.144-2.1.229a17.393,17.393,0,0,0-4.128.914c-1.416.018-5.388,2.923-8.48,5.615a60.208,60.208,0,0,0-6.125,6.113l-.12.143-.072.086-.056.068-.136.162a29.743,29.743,0,0,0-3.321,4.715c-.326.6-.663,1.278-1.031,2.07-.109.234-.215.47-.314.691A121.675,121.675,0,0,0,8.12,71.876c-.037.222-.07.447-.1.689a7.845,7.845,0,0,0-.077.955,2.254,2.254,0,0,1-.957,1.993c-.071.049-.136.092-.2.13l-.046.026c-.055.032-.112.064-.171.094a7.246,7.246,0,0,1-2.3.486,6.039,6.039,0,0,0-.924.127,1.946,1.946,0,0,1-.535.071A2.47,2.47,0,0,1,1.722,76.2l-.039-.019a1.415,1.415,0,0,1-.195-.108l-.012-.006a.056.056,0,0,1-.015-.008,1.318,1.318,0,0,1-.2-.185.925.925,0,0,1-.266-.609.232.232,0,0,0-.007-.05v-.005C.943,75.037.723,74.118.5,72.564c-.028-.2-.061-.441-.092-.688a57.292,57.292,0,0,1-.3-10.387,74.413,74.413,0,0,1,4.17-20.174l.081-.229L4.4,40.97l.006-.017.034-.1a86.833,86.833,0,0,1,5.731-12.641l.046-.087.005-.01c.024-.045.047-.089.072-.133s.035-.064.052-.1l0-.005c.018-.034.036-.068.054-.1a.107.107,0,0,0,.01-.016l.005-.01A100.068,100.068,0,0,1,16.8,17.815,44.613,44.613,0,0,1,28.26,6.677,41.758,41.758,0,0,1,51.665,0c1.149,0,2.328.039,3.5.116-1.658.741-2.746,1.311-2.754,1.315a.216.216,0,0,0-.064.05,9.187,9.187,0,0,0-1.468,2.547,7.929,7.929,0,0,0,.056,6.037,4.642,4.642,0,0,0,2.638,2.72,4.731,4.731,0,0,0,1.646.28A6.961,6.961,0,0,0,58,12.442a.238.238,0,0,0,.1-.093,2.283,2.283,0,0,1,1.434-1,1.817,1.817,0,0,1,.293-.024,3.2,3.2,0,0,1,2.017.932c.338.293.643.611.965.948a6.225,6.225,0,0,0,5.038,2.472c2.5,0,6.06-1.128,10.871-3.45a5.351,5.351,0,0,0,1.971.364l.178,0a7.26,7.26,0,0,0,5.008-2.26,35.908,35.908,0,0,1,3.988,2.954c3.933,3.429,7.052,8.3,9.27,14.466l.044.128.005.015.03.087c.017.047.033.093.049.14l.031.089c.482,1.384.908,2.793,1.266,4.188a56.4,56.4,0,0,1,1.481,8.454c0,.039.007.077.009.115s.006.076.009.115.007.074.01.111.007.08.01.119a43.1,43.1,0,0,1-.3,11.213c-1.189,6.653-5.762,14.411-9.645,19.453-.151.2-.3.395-.455.584-2.431,3.069-4.617,5.136-5.707,5.395a1.061,1.061,0,0,1-.148.02c-.039,0-.076.007-.114.013-.07.011-.162.025-.254.032l-.092.011A1.239,1.239,0,0,1,85.2,78.048ZM3.859,27.734v0A57.542,57.542,0,0,1,25.812,7.847c-.135.1-.269.209-.4.313l-.006.005-.223.177-.121.1c-.122.1-.243.191-.361.287-.414.337-.827.687-1.229,1.04l-.1.089-.069.059c-.437.388-.883.8-1.363,1.265-.078.075-.154.152-.231.229l-.163.163c-.367.364-.665.667-.935.951-.121.127-.243.258-.361.385l-.107.116c-.279.3-.56.613-.837.929l-.063.072c-.13.148-.265.3-.4.456-.258.3-.536.64-.849,1.027l-.126.155-.005.006c-.086.105-.171.21-.256.317-.441.56-.828,1.071-1.184,1.562-.574.788-1.157,1.615-1.732,2.457-.121.176-.239.356-.354.53q-.1.158-.209.316l-.233.348c-.282.421-.573.857-.851,1.289-.13.2-.259.413-.383.615-.084.136-.167.271-.251.405l-.244.389-.014.022c-.22.351-.449.713-.665,1.072-.13.218-.255.436-.377.648-.088.153-.175.3-.264.456l-.233.4-.007.012c-.181.309-.369.629-.546.944l-6.2.288Z" transform="translate(89 14)"/><path class="d" d="M186,286a5.285,5.285,0,0,1-2.577-.6,2.077,2.077,0,0,1-1.125-1.9c-.05-3.08,4.609-8.226,6.528-9.368.648-.387,1.435-.868,2.277-1.39.591.523,1.129.969,1.6,1.326a.223.223,0,0,0,.076.039,4.522,4.522,0,0,0,1.243.159,11.153,11.153,0,0,0,6.252-2.4,6.024,6.024,0,0,0,1.551-1.746c1.141,1.559,2.949,4.422,2.249,6.081-.677,1.605-3.044,2.809-5.133,3.871l-.005,0a18.608,18.608,0,0,0-3.074,1.791C193.817,283.53,189.5,286,186,286Zm81.146-16.942c-.124,0-.231,0-.328-.012a2.188,2.188,0,0,1-1.793-1.123,8.313,8.313,0,0,1-.6-4.724c.018-.216.038-.45.064-.692.092-.8.234-1.678.422-2.606l.058-.04.03-.021.133-.093c3.52-2.674,9.3-7.922,8.459-13.034.124-.01.238-.014.338-.014a2.17,2.17,0,0,1,.79.125c1.188.458,2,4.544,1.3,9.327a24.949,24.949,0,0,1-1.956,6.358c-.106.235-.21.465-.323.692a14.939,14.939,0,0,1-2.851,4.112A5.416,5.416,0,0,1,267.147,269.058Zm-3.457-78.125h0a15.285,15.285,0,0,1-4.943-.81A129.993,129.993,0,0,0,249.4,166.5c-6.557-13.9-9.9-19.727-12.341-21.495-.061-.046-.128-.093-.206-.145l-.006,0c-.017-.01-.031-.018-.046-.028l-.055-.1-.009-.016-.066-.123-.138-.258c-.254-.474-.494-.922-.729-1.355l-.118-.218-.006-.011-.1-.193-.23-.42a36.3,36.3,0,0,0-2.258-3.785,4.117,4.117,0,0,1-.683-4.142,4.233,4.233,0,0,0-1.1-7.439,1.763,1.763,0,0,0-.415-.053,1.109,1.109,0,0,0-.87.375c-.38.439-.7.829-.968,1.192s-.453.63-.579.82c-.036.056-.064.1-.091.134l-.021.03c-.136.2-.2.235-.364.235-.043,0-.093,0-.141-.006-.173-.013-.336-1.013-.444-1.675-.22-1.346-.469-2.872-1.2-3.163a.688.688,0,0,0-.254-.048,1.163,1.163,0,0,0-.686.281c-.588.449-2.138.983-6.189.983-.5,0-1.025-.008-1.563-.025l-.241-.006-.108,0-.123-.005c-1.082-.041-1.915-.1-2.145-.12,0-.546.021-1.1.061-1.633,0-.04.008-.079.012-.117v-.005c0-.036.008-.071.011-.107s.008-.074.013-.11.011-.08.014-.121a13.184,13.184,0,0,1,2.317-6.627c.063-.085.121-.161.177-.23l.059-.079,0,0c.037-.049.074-.1.115-.149a9.853,9.853,0,0,1,1.058-1.114,11.055,11.055,0,0,1,4.017-2.225,17.3,17.3,0,0,1,5.244-.744l.353,0,.264,0c.14,0,.282,0,.427.007.76.034,1.469.094,2.167.184a10.881,10.881,0,0,1,4.13,1.335c.077.044.154.089.23.135.032.02.065.039.1.057s.089.05.131.078c3.97,2.6,5.6,8.131,7.858,15.785.908,3.079,1.936,6.568,3.264,10.394,3.06,8.811,9.574,15.56,15.323,21.515,5.136,5.318,9.987,10.341,11.82,16.088,1.791,5.612-.334,8.771-2.433,10.433A12.976,12.976,0,0,1,263.69,190.933ZM225.9,141.369h0c.013-.2.022-.375.028-.517,0-.03,0-.063,0-.093s0-.058,0-.08h.038c.376,0,1.476.043,2.38.083l.547.024-.2.04-.348.068-2.256.438-.2.038Zm68.1-11.5H276.507V106.782L284,114.3l1.358,1.362,7.077,7.1.106.107.008.008.013.014.1.1.1.1.131.132L294,124.325v5.545ZM13.318,68.224H0v-4.99a6.66,6.66,0,0,1,5.472-6.566.115.115,0,0,0,.027-.218,2.788,2.788,0,1,1,2.319,0,.115.115,0,0,0-.067.118.117.117,0,0,0,.095.1,6.661,6.661,0,0,1,5.473,6.566v4.989Zm134.77-42.737-.154,0a5.671,5.671,0,0,1-1.7-.265,2.589,2.589,0,0,1-.277-.115,2.052,2.052,0,0,1-.25-.141c-.762-.5-.862-1.319-.977-2.264a4.424,4.424,0,0,0-1.138-2.892c-1.591-1.562-2.949-2.322-4.15-2.322a3.079,3.079,0,0,0-2.2.993,1.442,1.442,0,0,1-.952.516.473.473,0,0,1-.289-.089c-.226-.172-.323-.629,0-1.224l0-.008a5.853,5.853,0,0,0,.7-1.777c.011-.068.017-.137.023-.2l0-.029c.006-.068.009-.142.009-.238a2.717,2.717,0,0,0-1.415-2.275,2.565,2.565,0,0,0-1.441-.433,3.442,3.442,0,0,0-1.587.421,4.936,4.936,0,0,0-1.125.821c-.08.077-.141.138-.2.2l-.03.034c-.05.056-.1.109-.145.164A2.9,2.9,0,0,0,130.046,16c-.011.366-.112.6-.3.7a.567.567,0,0,1-.269.059,2,2,0,0,1-.922-.315.065.065,0,0,1-.014-.007,13.206,13.206,0,0,1-3.96-3.065c-.055-.065-.11-.136-.158-.2l-.046-.059c-.041-.052-.081-.107-.12-.16l-.028-.037-.038-.051-.034-.044c-.016-.021-.033-.042-.049-.064-.04-.057-.083-.12-.128-.188a6.222,6.222,0,0,1-1.118-3.848,6.147,6.147,0,0,1,2.354-4.1,17.791,17.791,0,0,1,6.455-3.385A28.666,28.666,0,0,1,140.055,0c.662,0,1.327.023,1.977.069a17.68,17.68,0,0,1,12.22,5.783,11.054,11.054,0,0,1,2.89,7.876,16.6,16.6,0,0,1-1.327,5.354,13.235,13.235,0,0,1-2.6,3.907l-.033.033c-.045.045-.089.089-.135.133s-.074.069-.112.1l-.062.055A7.247,7.247,0,0,1,148.088,25.488Z" transform="translate(20 1)"/><path class="a" d="M0,0H349.653V286.835H0Z" transform="translate(0 0.164)"/><g class="e"><path class="b" d="M207.706,286.835a5.615,5.615,0,0,1-2.731-.639,2.279,2.279,0,0,1-1.245-2.09c-.052-3.2,4.634-8.338,6.642-9.53.6-.357,1.347-.809,2.213-1.343a73.992,73.992,0,0,1-8.515-9.349H.345a.344.344,0,1,1,0-.688H17.89A44.493,44.493,0,0,1,26,234.074a43.951,43.951,0,0,1,3.476-4.271,74.477,74.477,0,0,1,2.378-15.74c3.894-14.628,12.1-26.2,22.511-31.739a38.37,38.37,0,0,1,13.507-4.069V50.877a8.346,8.346,0,0,1,8.343-8.329H92.57a51.134,51.134,0,0,1,6.643-8.557,59.411,59.411,0,0,1,7.529-6.73A54.719,54.719,0,0,1,117.167,21.1,41.909,41.909,0,0,1,140.7,14.357c1.438,0,2.916.061,4.393.182.1-.044.208-.09.317-.135a6.376,6.376,0,0,1-1.13-3.937,6.325,6.325,0,0,1,2.429-4.239,18.069,18.069,0,0,1,6.531-3.412,29.026,29.026,0,0,1,8.468-1.252c.667,0,1.336.023,1.99.069a17.941,17.941,0,0,1,12.38,5.838,11.21,11.21,0,0,1,2.946,8.01,16.377,16.377,0,0,1-3.048,8.264,11.746,11.746,0,0,1-.91,1.066,35.945,35.945,0,0,1,3.946,2.938c2.756,2.413,6.625,6.939,9.4,14.8h24.623c-1.194-1.655-2.967-4.231-4.641-7.093-4.208-7.194-5.916-12.786-5.077-16.623a6.443,6.443,0,0,1,3.568-4.553,8.429,8.429,0,0,1,3.817-.911,12.214,12.214,0,0,1,6.3,2.02,30.89,30.89,0,0,1,6.826,6.006,70.53,70.53,0,0,1,7.7,10.926,57.451,57.451,0,0,1,5.881-15.353A37.085,37.085,0,0,1,246.954,5.7,27.7,27.7,0,0,1,262.66,0h.012a.227.227,0,0,1,.195.109c1.618,2.631,2.654,8.171-1.6,19.624-2.4,6.458-5.946,12.959-7.989,15.512a40.716,40.716,0,0,1,8.526-.973,24.863,24.863,0,0,1,9.325,1.636A13.309,13.309,0,0,1,276.5,39.5a.241.241,0,0,1,.043.188,22.486,22.486,0,0,1-3.7,7.729,27.9,27.9,0,0,1-15.372,10.472v57.4c4.128,2.59,5.786,8.184,8.08,15.927l.01.034c.905,3.056,1.931,6.52,3.252,10.306,3.045,8.732,9.264,15.143,15.277,21.343l.007.008c5.153,5.315,10.02,10.336,11.867,16.1,1.428,4.458.536,8.236-2.511,10.639a13.291,13.291,0,0,1-8.1,2.508,15.637,15.637,0,0,1-4.855-.764c.634,2.329,1.138,4.532,1.5,6.547,1.723,9.6.7,16.71-2.96,20.574a6.728,6.728,0,0,1-1.273,1.033,21.368,21.368,0,0,1,.431,5.738,122.912,122.912,0,0,1,13.256,10.3,29.873,29.873,0,0,1,19.367-15.177,27.981,27.981,0,0,1,6.552-.787,22.689,22.689,0,0,1,13.233,3.968c5.047,3.651,8.379,9.869,9.142,17.059A29.164,29.164,0,0,1,338.53,252.6a30.2,30.2,0,0,1-5.9,10.6h16.682a.344.344,0,1,1,0,.688H295.673a15.4,15.4,0,0,1-2.945,4.251,5.633,5.633,0,0,1-3.9,1.815c-.117,0-.232,0-.342-.014a2.4,2.4,0,0,1-1.973-1.229,8.457,8.457,0,0,1-.624-4.823h-4.3a148.4,148.4,0,0,1-18.77,9.77c-4.537,1.942-13.025,5.2-18.9,5.2a11.4,11.4,0,0,1-2.658-.281c-2.057-.5-3.911-2.5-5.363-5.8a36.868,36.868,0,0,1-2.426-8.886h-11.4c.748,2,1.333,3.776,1.79,5.436a.184.184,0,0,1,.008.049,2.518,2.518,0,0,1-.252,1.18c1.2,1.611,3.1,4.582,2.337,6.376-.709,1.675-3.114,2.894-5.237,3.969l-.005,0-.036.018a18.479,18.479,0,0,0-3.005,1.741C216.235,283.818,211.645,286.835,207.706,286.835Zm5.061-13.444h0c-.87.538-1.636,1-2.276,1.383-1.919,1.137-6.58,6.262-6.53,9.328a2.062,2.062,0,0,0,1.125,1.892,5.306,5.306,0,0,0,2.579.6c3.5,0,7.817-2.46,9.863-4.114a18.566,18.566,0,0,1,3.052-1.771l.029-.014c2.089-1.059,4.456-2.258,5.133-3.856.3-.71.41-2.44-2.249-6.055a5.99,5.99,0,0,1-1.552,1.74,11.173,11.173,0,0,1-6.252,2.387,4.6,4.6,0,0,1-1.244-.157.245.245,0,0,1-.076-.039c-.461-.348-.984-.78-1.6-1.319Zm26.175-47.3a.231.231,0,0,1,.112.029.037.037,0,0,1,.013.016.042.042,0,0,0,.012.015.223.223,0,0,1,.064.281,44.767,44.767,0,0,0-4.249,11.509c-.009.042-.018.085-.027.128s-.016.078-.024.116-.021.091-.031.138v.006c-.007.031-.013.062-.02.093a70.054,70.054,0,0,0-.964,24.772c.034.226.07.459.107.688a36.262,36.262,0,0,0,2.382,8.7c1.392,3.165,3.139,5.081,5.052,5.543a10.984,10.984,0,0,0,2.551.266c4.353,0,10.825-1.785,18.717-5.162a146.84,146.84,0,0,0,18.071-9.347c.336-.2.7-.43,1.116-.688,1.688-1.055,3.249-2.086,4.641-3.064l.027-.018,0,0,.051-.035.03-.024.021-.017c.033-.024.062-.047.089-.07l.053-.043a25.3,25.3,0,0,0,6.992-7.429,7.823,7.823,0,0,0,1.087-4.973c0-.027-.009-.052-.014-.078l-.007-.036-.012-.063-.01-.052a5.491,5.491,0,0,0-.171-.658,8.484,8.484,0,0,0-1.823-.164c-3.333,0-8.635,1.123-13.836,2.932a49.778,49.778,0,0,0-15.243,8.1.232.232,0,0,1-.147.053.23.23,0,0,1-.184-.367c5.932-7.923,13.223-19.664,14.274-30.6.027-.29.046-.57.06-.806.02-.276.032-.548.042-.8a22.235,22.235,0,0,0-.186-3.967l-.153.112-.1.073a29.863,29.863,0,0,1-4.351.7c-.356.031-.718.05-1.068.068l-.13.007c-.53.026-1.072.039-1.611.039a45.092,45.092,0,0,1-18.155-4.272c-1.45-.644-2.911-1.355-4.341-2.115a83.87,83.87,0,0,1-13.36-8.9c-.454-.371-.826-.682-1.138-.949-.5-.424-.853-.737-1.018-.886-.732.058-1.515.143-2.326.253-.681.091-1.409.206-2.164.341a87.475,87.475,0,0,0-11.41,2.943c-3.576,1.158-6.905,2.057-10.125,2.926l-.1.027c-10.853,2.926-18.694,5.04-21.144,13.291-.394,1.326-.11,3.494.844,6.445a68.937,68.937,0,0,0,4.239,9.817,150.2,150.2,0,0,0,14.17,22.265l.218.28,0,.006.313.4a69.005,69.005,0,0,0,8.34,9.1c.031.026.06.053.09.08l.045.039.044.039c.516.448,1,.845,1.437,1.179a4.05,4.05,0,0,0,1.048.124,10.71,10.71,0,0,0,6-2.283,5.24,5.24,0,0,0,1.535-1.784c.013-.027.024-.055.035-.082l.017-.042.021-.052c.011-.027.021-.052.03-.076a1.948,1.948,0,0,0,.119-.707c-.475-1.721-1.088-3.583-1.821-5.533-.074-.193-.149-.387-.224-.58l-.042-.108c-3.848-9.938-10.266-20.576-13.847-24.277a.228.228,0,0,1,.164-.389.237.237,0,0,1,.107.026c1.986,1.035,5.336,1.582,9.688,1.582a66.217,66.217,0,0,0,6.789-.379,82.628,82.628,0,0,0,10.176-1.7,45.441,45.441,0,0,1,4.341-11.848A.23.23,0,0,1,238.942,226.093Zm56.669,21.36c-.1,0-.217,0-.333.014.841,5.091-4.939,10.318-8.46,12.98-.046.033-.093.065-.14.1l-.083.056c-.192.949-.33,1.8-.422,2.6-.022.193-.038.385-.054.571l-.01.117a8.255,8.255,0,0,0,.6,4.705,2.182,2.182,0,0,0,1.794,1.117c.1.009.207.013.328.013a5.427,5.427,0,0,0,3.746-1.739,14.884,14.884,0,0,0,2.852-4.1c.11-.218.212-.441.324-.688a24.8,24.8,0,0,0,1.956-6.331c.695-4.763-.114-8.831-1.3-9.287A2.242,2.242,0,0,0,295.611,247.453Zm-236.052-30.6a39.666,39.666,0,0,0-8.9,1.014,40.792,40.792,0,0,0-20.488,11.861c-.228.241-.455.495-.675.739l-.042.046a43.618,43.618,0,0,0-11.1,32.678H174.472a23.541,23.541,0,0,0-5.734-10.426,22.409,22.409,0,0,0-10.01-6.1,21.954,21.954,0,0,0-6.081-.854,23.555,23.555,0,0,0-18.588,9.281.226.226,0,0,1-.183.091.237.237,0,0,1-.091-.018.231.231,0,0,1-.137-.248c1.4-8.62-3.279-17.133-10.658-19.382a13.38,13.38,0,0,0-3.9-.57,16.337,16.337,0,0,0-8.728,2.661,18.577,18.577,0,0,0-8.386,13.1.227.227,0,0,1-.217.2h-.022a.227.227,0,0,1-.212-.179,43.765,43.765,0,0,0-19.258-27.171,42.874,42.874,0,0,0-15.177-6.021A40.959,40.959,0,0,0,59.559,216.858Zm236.05,30.366a2.435,2.435,0,0,1,.882.141c1.433.55,2.108,5.005,1.446,9.535A24.909,24.909,0,0,1,296,263.2h35.725a29.258,29.258,0,0,0,7.34-22.477c-.745-7-3.976-13.039-8.864-16.572a21.977,21.977,0,0,0-12.821-3.838,27.3,27.3,0,0,0-6.4.769,29.152,29.152,0,0,0-19.122,15.22.338.338,0,0,1-.246.182.348.348,0,0,1-.063.006.341.341,0,0,1-.231-.09,119.7,119.7,0,0,0-13.177-10.319c0,.062-.009.123-.013.184-.007.1-.014.207-.023.312a46.138,46.138,0,0,1-4.88,15.688,95.028,95.028,0,0,1-8.47,13.816,54.13,54.13,0,0,1,14.928-7.394,47.5,47.5,0,0,1,13.162-2.662,8.25,8.25,0,0,1,1.99.2.227.227,0,0,1,.158.143,5.887,5.887,0,0,1,.236.878C295.368,247.229,295.495,247.223,295.609,247.223Zm-9.274,13.557h0c-1.135.79-2.362,1.6-3.646,2.417h3.266c.084-.747.209-1.538.38-2.416ZM208.54,239.41h0a67.973,67.973,0,0,1,6.608,9.865,105.676,105.676,0,0,1,6.666,13.921h11.55a70.449,70.449,0,0,1,.933-24.655,80.1,80.1,0,0,1-16.953,2.061A25.905,25.905,0,0,1,208.54,239.41Zm-55.891,5.948a22.413,22.413,0,0,1,6.207.871,22.864,22.864,0,0,1,10.248,6.263,24.012,24.012,0,0,1,5.838,10.7h28.6a145.933,145.933,0,0,1-9.584-14.161c-5.43-9.068-10.786-20.266-9.53-24.5,2.523-8.5,10.467-10.639,21.463-13.6l.054-.015c3.229-.871,6.568-1.772,10.151-2.933a93.352,93.352,0,0,1,10.134-2.715,102.929,102.929,0,0,0-14.237-1,100.368,100.368,0,0,0-18.723,1.769c-23.957,4.56-41.478,16.888-51.958,26.428a.346.346,0,0,1-.233.09.357.357,0,0,1-.089-.011.342.342,0,0,1-.239-.226A82.5,82.5,0,0,0,116.9,195.937H76.215a8.345,8.345,0,0,1-8.343-8.329v-8.66a37.64,37.64,0,0,0-13.182,3.983C44.446,188.384,36.366,199.8,32.521,214.24A73.693,73.693,0,0,0,30.2,229.046a41.248,41.248,0,0,1,20.357-11.623,40.174,40.174,0,0,1,9-1.025,41.412,41.412,0,0,1,7.615.715A43.331,43.331,0,0,1,82.513,223.2a44.206,44.206,0,0,1,19.2,26.378,19.137,19.137,0,0,1,2.953-7.043,18.683,18.683,0,0,1,5.453-5.288,16.8,16.8,0,0,1,8.976-2.733,13.824,13.824,0,0,1,4.034.59,15.363,15.363,0,0,1,8.685,7.16,19.308,19.308,0,0,1,2.413,11.891,24.275,24.275,0,0,1,8.331-6.5A23.754,23.754,0,0,1,152.649,245.359Zm-34.7-49.421a83.33,83.33,0,0,1,23.29,35.668c10.489-9.461,28.01-21.693,51.9-26.24a101.032,101.032,0,0,1,18.855-1.782,103.787,103.787,0,0,1,16.327,1.309,40.036,40.036,0,0,1,5.2-.546,11.063,11.063,0,0,1-1.751-4.468c-.006-.039-.009-.076-.012-.113s-.005-.059-.009-.088c-1.9.752-4.089,1.632-6.5,2.616a13.956,13.956,0,0,1-5.251.886c-8.292,0-19.255-4.814-23.382-6.626l-.012-.005c-.424-.186-.748-.328-.99-.432l-.2-.083-.005,0-.225-.093Zm118.688-17.816c-.453,1.878-.933,3.9-1.467,6.181l-.023.1v.006c-.009.041-.019.081-.028.123s-.025.106-.038.159v.005l-.015.064c-.385,1.65-.74,3.191-1.055,4.58l-.1.425-.043.189c-.427,1.885-.855,3.795-1.237,5.523l-.026.12-.024.11-.021.094,0,.016c-.009.042-.018.081-.027.119l-.07.324-.019.09-.031.142a.135.135,0,0,1-.005.017l0,.01a7.271,7.271,0,0,0-.237,2.5c0,.079.01.158.016.241,0,.038.009.077.014.117s.01.081.014.119a10.59,10.59,0,0,0,1.868,4.838l.007.009c.03.042.063.086.1.129l0,0,.071.1c.058.081.117.16.173.234a15.136,15.136,0,0,0,1.34,1.546c.3.3.552.546.841.8l.068.056c.036.03.074.06.106.088,2.247,1.907,6.838,4.575,11.981,6.963,1.376.64,2.786,1.255,4.189,1.827,1.515.617,2.9,1.143,4.237,1.608a49.713,49.713,0,0,0,12.133,2.832c.5.039,1,.063,1.482.071q.195,0,.385,0a12.371,12.371,0,0,0,6.044-1.278l.056-.034.07-.042c.023-.013.043-.027.063-.04l.022-.015c.07-.041.135-.084.2-.125l.011-.007a6.032,6.032,0,0,0,1.054-.865c3.555-3.755,4.538-10.733,2.841-20.178-.39-2.17-.919-4.465-1.571-6.82-.007-.031-.016-.062-.025-.093l-.013-.046c-.006-.025-.014-.05-.022-.076l-.016-.052a129.346,129.346,0,0,0-9.238-23.134c-6.1-12.876-9.375-18.715-11.678-20.825-.074-.067-.151-.134-.243-.211-.019-.017-.039-.032-.059-.047l-.045-.035c-.041-.031-.08-.062-.119-.089s-.058-.044-.085-.064c-.064-.045-.131-.089-.207-.135a2.58,2.58,0,0,0-.75-.316,1.592,1.592,0,0,0-.23-.035l-.008,0-.01,0c-.032,0-.068,0-.105,0l-.106,0h-.011c-.142-.008-.275-.016-.431-.016a17.949,17.949,0,0,0-5.857,1.129c-.212.077-.438.166-.69.274a14.6,14.6,0,0,0-3.114,1.759l-.084.063c-.058.043-.116.087-.173.132-.082.064-.169.133-.258.207a10.783,10.783,0,0,0-1.9,2.048,27.509,27.509,0,0,0-2.408,6.048,21.6,21.6,0,0,0,2.753-.52,18.745,18.745,0,0,1,4.632-.591c.185,0,.371,0,.553.008s.376.019.555.031l.135.009a16.976,16.976,0,0,1,6.3,1.657l.115.059.114.059c.087.046.16.085.23.123.1.058.258.147.407.241l.008,0a.229.229,0,0,1,.059.319.229.229,0,0,1-.132.088.266.266,0,0,1-.066.009.213.213,0,0,1-.12-.036s-.073-.047-.156-.1c-.05-.03-.115-.067-.184-.106l-.046-.026c-.072-.04-.145-.08-.23-.124a16.172,16.172,0,0,0-6.3-1.713l-.127-.009c-.184-.014-.371-.027-.563-.033s-.367-.009-.548-.009a18.253,18.253,0,0,0-4.523.579,22.434,22.434,0,0,1-3.02.557c-.048.006-.1.009-.142.012h-.005l-.1.008-.137.012-.11.009c-.609.054-1.225.082-1.832.082-5.754,0-10.71-2.439-15.7-5.157-2.7-1.47-7.506-5.794-14.285-12.854-.218-.226-.436-.454-.652-.68-4.468-4.682-8.7-9.4-11.467-12.534l-.229-.26c-.078-.09-.156-.179-.231-.262-.541-.616-1.055-1.2-1.527-1.748l-.007,0-.017,0-.174.038-.056.013-.037.009h0c-.057.013-.118.028-.186.046s-.168.044-.26.069l-.007,0-.026.007-.161.047-.059.018-.083.025-.006,0-.132.041a10.325,10.325,0,0,0-4.538,2.74c-.035.037-.067.078-.1.118l-.049.062c-.053.061-.1.121-.144.177a6.2,6.2,0,0,0-.829,1.375,51.186,51.186,0,0,0,3.341,7.113c.039.076.082.156.122.23l.1.181.026.048c.188.353.355.664.527.977l.047.086.079.145.047.084.08.145c1.276,2.314,2.66,4.658,4.112,6.969l.146.229a.032.032,0,0,0,.007.011c.077.123.152.244.23.366a112.643,112.643,0,0,0,11.563,15.349l.248.271.03.033.278.3c6.3,6.777,12.575,11.243,18.654,13.274a71.231,71.231,0,0,0,8,2.191l.026.006.032.007.06.013.113.023.158.034.022,0,.047.01.109.022.011,0,.143.029c.564.109,1.068.2,1.539.277l.121.019h.006l.1.015.112.016h.009l.106.016a41.9,41.9,0,0,0,6.4.528,29.714,29.714,0,0,0,4.626-.346c.173-.027.347-.061.514-.093l.02,0,.156-.03c.679-.126,1.229-.248,1.732-.382a18.151,18.151,0,0,0,4.567-1.876c.043-.025.082-.052.121-.078s.071-.048.109-.071.1-.065.151-.1l.079-.052a10.187,10.187,0,0,0,3.518-3.506.23.23,0,0,1,.147-.112.27.27,0,0,1,.062-.008.222.222,0,0,1,.1.024.229.229,0,0,1,.1.311,10.542,10.542,0,0,1-3.925,3.838c-.036.022-.069.044-.1.066s-.084.057-.129.083-.079.044-.119.065-.075.039-.11.059a18.653,18.653,0,0,1-4.45,1.8c-.563.15-1.168.284-1.849.409-.152.028-.31.051-.463.073l-.227.033a30.1,30.1,0,0,1-4.645.357,42.323,42.323,0,0,1-6.43-.534l-.111-.018-.118-.019-.1-.016-.131-.022C237.826,178.35,237.216,178.239,236.634,178.122Zm-46.949,13.3-.045.081-.005.009c-.038.069-.078.141-.124.21a.548.548,0,0,0-.143.5c.242.933,2.818,1.987,5.09,2.918.25.1.493.2.737.3l.079.033.195.08.01,0,.312.13.005,0,.03.013c.148.063.329.14.531.229l.234.1.2.086c4.107,1.8,15.018,6.6,23.2,6.6a13.535,13.535,0,0,0,5.09-.855c2.4-.981,4.628-1.878,6.624-2.666a7.683,7.683,0,0,1,.261-2.822c.017-.077.053-.24.1-.445.011-.047.02-.092.031-.142l.019-.086c.009-.043.02-.088.03-.135l0-.01.02-.085c.259-1.185.683-3.1,1.229-5.513l.054-.238c.034-.151.067-.3.1-.451.345-1.523.694-3.042,1.037-4.515l.018-.079c.011-.05.023-.1.035-.15s.018-.077.027-.115.018-.076.027-.115c.456-1.961.936-3.991,1.428-6.036-3.906,2.339-7.46,4.426-10.277,6.036l-.151.086-.252.144-.4.229a56.675,56.675,0,0,1-7.369,3.815,16.807,16.807,0,0,1-4.852.74c-.335,0-.68-.01-1.026-.031l-.113-.007-.043,0a30.245,30.245,0,0,1-8.05-1.881c-3.091-1.107-5.77-1.994-7.963-2.634l-.013,0-.009,0c-.272-.079-.53-.154-.779-.222l-.01,0c-.263-.073-.562-.157-.83-.228a17.929,17.929,0,0,0-3.814-.708.955.955,0,0,0-.619.135.062.062,0,0,0-.015.023c.421.173.844.334,1.223.466a1.782,1.782,0,0,1,.4-.272.243.243,0,0,1,.1-.022.222.222,0,0,1,.089.018,7.185,7.185,0,0,1,.708.359c.121.069.25.146.384.23.115.072.237.156.343.229,1.416.983,2.956,2.636,2.247,4.927a4.429,4.429,0,0,1-2.651,3.049,4.29,4.29,0,0,1-1.508.279,2.859,2.859,0,0,1-.288-.014h-.008a.231.231,0,0,1-.194-.172c-.014-.055-.137-.551-.28-1.32C189.936,191.477,189.808,191.449,189.686,191.42Zm-9.5-9.878c-3.1,0-5.72.805-7.2,2.209-.3.3-.368.465-.371.552a.13.13,0,0,0,0,.048c.022.06.1.119.241.183a4.067,4.067,0,0,0,.895.229c.425.07.853.114,1.083.138,2.347.234,6.319,1.149,6.319,3.1,0,.883-.714,1.4-1.345,1.862l-.007,0c-.438.319-.851.621-.881.958a1.094,1.094,0,0,0,.4.767,1.838,1.838,0,0,0,1.357.561h.03c1.687,0,3.758-1.619,4.618-2.475a.223.223,0,0,1,.162-.069.235.235,0,0,1,.1.024,19.649,19.649,0,0,0,3.866,1.266l.081.019.143.034.108.025.119.027.042.009.051.011.07.015.175.038.113.024.122.026c.607.127,1.048.205,1.169.226a5.093,5.093,0,0,0-.33-6.459c-.089-.025-.24-.072-.4-.127l-.009,0-.034-.012-.17-.057-.055-.019-.131-.046-.1-.035-.087-.031-.011,0-.065-.023c-.163-.06-.339-.126-.541-.205l-.044-.017-.021-.008-.158-.063-.069-.027-.1-.042-.19-.076c-.97-.395-2.031-.868-3.155-1.408A13.972,13.972,0,0,0,180.184,181.543Zm72.373-53.564a1.782,1.782,0,0,1,.414.052,4.208,4.208,0,0,1,1.1,7.409,4.068,4.068,0,0,0,.684,4.124,36.82,36.82,0,0,1,2.258,3.769l.1.183.016.028.113.207.079.144.022.041.129.236c.25.459.525.969.867,1.606l.13.239a.44.44,0,0,0,.051.031c.072.047.142.1.207.144,2.438,1.759,5.783,7.561,12.344,21.406a129.117,129.117,0,0,1,9.355,23.521,15.358,15.358,0,0,0,4.943.806,13.022,13.022,0,0,0,7.944-2.457c2.1-1.654,4.225-4.8,2.433-10.389-1.831-5.716-6.682-10.719-11.817-16.015l0,0c-5.75-5.93-12.267-12.651-15.328-21.426-1.327-3.8-2.356-7.277-3.264-10.343l0-.008c-2.257-7.62-3.888-13.126-7.859-15.717-.042-.027-.087-.053-.126-.075s-.071-.041-.1-.061c-.068-.042-.139-.083-.207-.123l-.022-.013a10.943,10.943,0,0,0-4.131-1.327c-.7-.089-1.407-.149-2.168-.184-.153-.006-.3-.007-.45-.008l-.24,0-.35,0a17.4,17.4,0,0,0-5.248.741,11.079,11.079,0,0,0-4.02,2.215,10.048,10.048,0,0,0-1.059,1.112c-.042.051-.083.106-.122.159l-.054.073c-.07.087-.126.159-.177.229a13.09,13.09,0,0,0-2.318,6.6c0,.037-.008.074-.014.11s-.011.078-.014.118-.006.06-.009.09v.008c0,.044-.01.087-.013.132-.04.53-.06,1.077-.06,1.624.148.013,1,.077,2.145.121l.231.008.111,0h.013l.116,0c.537.016,1.061.024,1.556.024,4.06,0,5.612-.532,6.2-.979a1.169,1.169,0,0,1,.687-.28.69.69,0,0,1,.253.048c.73.291.978,1.808,1.2,3.146l0,.016c.108.654.271,1.642.443,1.654.049,0,.1.007.144.007.163,0,.228-.041.362-.233l.012-.017c.03-.042.059-.084.1-.147.15-.225.324-.48.578-.815.283-.376.6-.764.968-1.186A1.112,1.112,0,0,1,252.557,127.979Zm-43.279,55.493a.345.345,0,0,1,.345.345v.486h15.285c3.718-2.115,7.956-4.627,10.856-6.361a72.663,72.663,0,0,1-7.632-2.112c-6.078-2.032-12.305-6.413-18.508-13.021v1.724a.345.345,0,0,1-.689,0v-2.455a100.589,100.589,0,0,1-6.4-7.79c-1.7-2.275-3.341-4.657-5.028-7.283v4.679a.23.23,0,0,1-.23.23H82.388a.231.231,0,0,1-.23-.23v-5.9a.23.23,0,0,1,.23-.229h114.2c-1.456-2.334-2.828-4.68-4.079-6.969H82.388a.23.23,0,0,1-.23-.229V94.538a.23.23,0,0,1,.23-.229h8.636a13.09,13.09,0,0,1-.482-3.1.33.33,0,0,0-.039-.021.258.258,0,0,1-.042-.023,1.468,1.468,0,0,1-.652-1.125,49.569,49.569,0,0,1-.888-13.8,75.029,75.029,0,0,1,4.127-20.148H68.332V184.3H172.168a1.369,1.369,0,0,1,.493-.881,8.008,8.008,0,0,1,3.317-1.762,15.422,15.422,0,0,1,4.234-.563,14.376,14.376,0,0,1,5.966,1.177c1.038.5,1.995.925,2.925,1.309a.554.554,0,0,1,.117-.182,1.437,1.437,0,0,1,.972-.237,23.459,23.459,0,0,1,5.51,1.139h13.231v-.486A.345.345,0,0,1,209.279,183.472ZM191.329,56.093a43.778,43.778,0,0,1-.31,11.282c-1.86,10.433-12.693,24.962-16.081,25.769a3.777,3.777,0,0,1-.537.086,9.469,9.469,0,0,1-.5,1.078h23.369a.23.23,0,0,1,.23.229v31.818c2.6,2.951,7.756,8.717,13.017,14.166,6.468,6.7,11.047,10.8,13.608,12.2,4.932,2.688,9.829,5.1,15.491,5.1.653,0,1.316-.033,1.971-.1a28.75,28.75,0,0,1,2.53-6.359,11.253,11.253,0,0,1,2.362-2.438l.89-6.9c0-.017,0-.035,0-.051v-.034l-.3-.017h-.01l-.459-.026-.014,0-.015,0c-4.031-.775-6.632-4.226-7.522-9.979a30.651,30.651,0,0,1-.338-4.579c-1.052-.042-1.864-.1-2.254-.134h-.015a.117.117,0,0,1-.105-.114c0-.588.018-1.17.059-1.731H216.79a.23.23,0,0,1-.23-.23v-7.057a.231.231,0,0,1,.23-.231h22.271a10.011,10.011,0,0,1,1.2-1.283,11.289,11.289,0,0,1,4.088-2.258,17.6,17.6,0,0,1,5.327-.756l.353,0V111.8a.345.345,0,0,1,.69,0v1.754c.78.034,1.5.094,2.2.183a11.307,11.307,0,0,1,4.1,1.284V56.093ZM82.618,146.015v5.44H197.044v-5.161l-.086-.139-.086-.139Zm169.08-4.577a.23.23,0,0,1,.228.2.224.224,0,0,1-.045.169c-.018.025-.055.076-.241.122a.114.114,0,0,1-.088.105l-.854.167-.592.113-2.366.459-.746,5.786a15.5,15.5,0,0,1,3.034-1.633c.212-.087.429-.165.639-.241l.052-.019a18.5,18.5,0,0,1,5.872-1.1c.148,0,.292,0,.427.009l.114,0,.116.005a.069.069,0,0,0,.019,0,1.963,1.963,0,0,1,.211.029,2.573,2.573,0,0,1,.627.206c-.2-.366-.4-.747-.627-1.164l-.23-.424-.094-.173c-.045-.083-.09-.165-.135-.246a40.352,40.352,0,0,0-2.439-4.1,4.313,4.313,0,0,1-.7-4.387.075.075,0,0,1,.026-.034,3.983,3.983,0,0,0-.987-7.029,1.55,1.55,0,0,0-.365-.047.878.878,0,0,0-.694.294c-.594.682-.936,1.14-1.141,1.425-.173.239-.305.433-.385.553a1.783,1.783,0,0,1-.305.383.519.519,0,0,1-.378.116c-.042,0-.089,0-.144-.005-.34-.023-.459-.654-.657-1.862s-.446-2.729-1.054-2.971a.465.465,0,0,0-.171-.032.942.942,0,0,0-.545.234c-.619.471-2.222,1.033-6.34,1.033-.5,0-1.02-.008-1.555-.025a24.8,24.8,0,0,0,1.359,8.457c1.243,3.193,3.3,5.088,6.1,5.631.415.025.723.042,1,.055h.017c.953.048,1.749.073,2.365.074h.084c.222,0,.426,0,.607-.009a3.575,3.575,0,0,0,.854-.085A.233.233,0,0,1,251.7,141.438Zm-4.091.441c0,.036,0,.094-.008.173-.006.149-.015.323-.026.518l.2-.038,2.257-.437.347-.067.2-.04-.249-.012h-.032l-.266-.012c-.914-.04-2.023-.084-2.394-.084h-.026ZM82.618,94.767v43.362H192.256c-.18-.331-.35-.648-.514-.956l0-.007-.008-.015H84.4a.226.226,0,0,1-.229-.229V95.974a.23.23,0,0,1,.229-.23h7.159a9.269,9.269,0,0,1-.388-.977ZM84.629,96.2v40.489H191.488c-1.469-2.788-2.336-4.679-2.495-5.03-.893-1.976-.836-2.114-.795-2.215a6.836,6.836,0,0,1,.951-1.585,16.979,16.979,0,0,0-3.552-3.2c-2.555-1.47-4.331-9-4.605-10.993a3.125,3.125,0,0,1,1.508-2.987,3.558,3.558,0,0,1,1.909-.531,5.849,5.849,0,0,1,3.2,1.109c1.628,1.094,3.378,3.914,5.2,8.384.776,1.9,1.4,3.706,1.787,4.888.169-.047.316-.082.434-.11l0-28.217H172.6a10.83,10.83,0,0,1-5.064,3.361,4.1,4.1,0,0,1-1.025.127,4.362,4.362,0,0,1-2.971-1.126,2,2,0,0,1-.706-1.87,1.576,1.576,0,0,1,.226-.491H102.917a2.3,2.3,0,0,1,.389,1.77,3.146,3.146,0,0,1-2.011,1.936,6.292,6.292,0,0,1-2.378.445,8.77,8.77,0,0,1-4.648-1.432,7.16,7.16,0,0,1-2.48-2.72Zm99.78,14.406a3.1,3.1,0,0,0-1.664.46,2.659,2.659,0,0,0-1.3,2.535c.344,2.515,2.153,9.379,4.379,10.66a17.257,17.257,0,0,1,3.619,3.24,10.639,10.639,0,0,1,4.708-2.844c-1.069-3.258-3.872-11.053-6.8-13.022A5.4,5.4,0,0,0,184.409,110.61Zm11.2,13.7a.227.227,0,0,1,.173.079l.133.152.011.012c.2.225.584.67,1.122,1.283V94.767H173.65a10.272,10.272,0,0,1-.678.977h22.291a.231.231,0,0,1,.23.23v28.348l.049-.008.026,0A.233.233,0,0,1,195.605,124.307Zm21.415-6.011v6.6H236.45a13.447,13.447,0,0,1,2.258-6.6ZM91.012,91.456a12.461,12.461,0,0,0,.49,2.852l.019.062,0,.005c.016.054.032.107.05.162s.034.1.05.141.022.059.033.088a8.88,8.88,0,0,0,.407.977c.023.049.051.1.077.143l.048.087c.04.076.083.153.127.229a6.647,6.647,0,0,0,2.2,2.331,8.306,8.306,0,0,0,4.4,1.362,5.843,5.843,0,0,0,2.207-.413,2.7,2.7,0,0,0,1.736-1.618,2.042,2.042,0,0,0-.494-1.662c-.046-.064-.108-.147-.177-.229s-.136-.161-.2-.23a7.742,7.742,0,0,0-1.119-.977c-.131-.093-.237-.166-.334-.229-.118-.077-.242-.152-.38-.229a3.707,3.707,0,0,0-.606-.288.229.229,0,0,1-.157-.2.232.232,0,0,1,.131-.221c.61-.29.922-.705.856-1.14a.561.561,0,0,0-.348-.482,3.178,3.178,0,0,0-.367-.019h-.044a4.971,4.971,0,0,1-3.163-.913c-.059-.048-.11-.091-.161-.134l-.009-.008-.09-.075a7.055,7.055,0,0,1-2.635.624l-.026,0a5.451,5.451,0,0,0-.811.111,2.439,2.439,0,0,1-.669.089A2.948,2.948,0,0,1,91.012,91.456ZM167.833,90c-1.873,0-2.394.29-2.539.464a.265.265,0,0,0-.051.246c.076.345.95.5,1.588.618.71.129,1.324.24,1.529.59.247.424-.372.885-1.922,1.977l-.066.046-.018.013-.493.349-.068.049-.248.181c-.091.066-.189.139-.31.229a13.7,13.7,0,0,0-1.19.977c-.061.058-.114.114-.165.167l-.007.007-.053.056c-.076.079-.145.156-.2.229a1.5,1.5,0,0,0-.337.59,1.564,1.564,0,0,0,.575,1.44,3.98,3.98,0,0,0,2.637,1,3.656,3.656,0,0,0,.923-.117,10.744,10.744,0,0,0,4.571-2.916l.072-.076,0,0c.046-.048.094-.1.138-.149s.109-.126.16-.188l.035-.042a9.648,9.648,0,0,0,.725-.977c.029-.045.057-.092.083-.138l.054-.092c.04-.064.078-.13.114-.195l.02-.035a8.823,8.823,0,0,0,.52-1.077,2.9,2.9,0,0,1-1.931-.863,4.5,4.5,0,0,1-1.193-2.764,7.5,7.5,0,0,1-2.26.41l-.127,0C168.2,90.007,168.011,90,167.833,90Zm-66.227,4.763a7,7,0,0,1,.987.977H163.41a8.68,8.68,0,0,1,1.068-.977Zm-3.887-7.458a7.871,7.871,0,0,0-.077.954,2.722,2.722,0,0,1-1.04,2.3l.148.121a4.508,4.508,0,0,0,2.878.809,4.141,4.141,0,0,1,.47.024,1,1,0,0,1,.736.868,1.405,1.405,0,0,1-.7,1.392,8.18,8.18,0,0,1,.871.531h64.079c.356-.264.726-.524,1.084-.776l0,0,.007-.005.041-.029a9.391,9.391,0,0,0,1.721-1.374,3.478,3.478,0,0,0-1.187-.337c-.891-.161-1.812-.328-1.955-.97a.719.719,0,0,1,.147-.638c.355-.43,1.269-.63,2.877-.63.187,0,.387,0,.594.008l.11,0a7.281,7.281,0,0,0,2.281-.445l0-.036a1.526,1.526,0,0,1,.027-.18,10,10,0,0,1,.686-1.424l.009-.018c1.806-3.436,6.6-12.563,5.631-22.743-.027-.291-.062-.583-.1-.865l0-.039q-.015-.122-.029-.244H175.5a.345.345,0,1,1,0-.689h1.455a54.605,54.605,0,0,0-1.3-6.778H109.74a30,30,0,0,0-3.484,4.928c-.287.534-.6,1.156-.925,1.85h1.183a.345.345,0,1,1,0,.689h-1.5A120.4,120.4,0,0,0,97.82,86.621h.12a.344.344,0,1,1,0,.688Zm69.915-45.173a.2.2,0,0,1,.051.006,3.792,3.792,0,0,1,.98.405l.028.015c.119.065.242.132.362.214.1.068.2.144.312.229,2.582,1.962,5.07,6.683,6.656,12.628.009.037.02.072.03.108s.023.079.034.12.018.075.027.113l0,.007c.009.037.017.075.027.111a55.268,55.268,0,0,1,1.271,6.778c.02.16.038.324.056.483l.023.206c.015.136.032.27.048.405.028.228.056.463.079.7a34.084,34.084,0,0,1-1.45,12.994,51.941,51.941,0,0,1-3.689,8.962l-.057.111c-.083.161-.161.313-.238.458l-.011.021c-.081.156-.164.316-.238.454l-.016.031c-.3.566-.53,1.014-.609,1.228-.011.027-.025.064-.031.081a.977.977,0,0,0-.021.138c0,.017,0,.034-.006.05a2.531,2.531,0,0,0-.011.255,4.064,4.064,0,0,0,1.066,2.6,2.4,2.4,0,0,0,1.765.743,1.219,1.219,0,0,0,.155-.014l.091-.011c.09-.007.178-.02.253-.032.038-.007.075-.01.111-.013a1.06,1.06,0,0,0,.149-.02c1.084-.258,3.26-2.323,5.681-5.389.142-.179.287-.368.428-.55l.007-.009.019-.025c3.864-5.036,8.415-12.786,9.6-19.432a43.2,43.2,0,0,0,.3-11.2l-.006-.076c0-.051-.008-.1-.013-.155,0-.034-.006-.069-.009-.1v-.012c0-.038-.006-.076-.01-.114a56.638,56.638,0,0,0-1.473-8.446c-.358-1.394-.782-2.8-1.26-4.182l-.035-.1-.044-.128-.034-.1-.045-.13c-2.207-6.163-5.311-11.025-9.226-14.45a36,36,0,0,0-3.969-2.95,7.212,7.212,0,0,1-4.984,2.257l-.177,0a5.318,5.318,0,0,1-1.961-.363c-4.788,2.318-8.327,3.445-10.82,3.445a6.193,6.193,0,0,1-5.014-2.468c-.3-.319-.616-.648-.96-.948a3.183,3.183,0,0,0-2.009-.931,1.814,1.814,0,0,0-.291.023,2.268,2.268,0,0,0-1.425,1,.241.241,0,0,1-.1.093l0,0a6.928,6.928,0,0,1-2.762.623,4.694,4.694,0,0,1-1.638-.28,4.636,4.636,0,0,1-2.625-2.717,7.9,7.9,0,0,1-.056-6.031,9.093,9.093,0,0,1,1.46-2.544.211.211,0,0,1,.064-.049c.01-.005,1.1-.576,2.741-1.314-1.16-.076-2.332-.116-3.485-.116a41.448,41.448,0,0,0-23.294,6.67,44.473,44.473,0,0,0-11.409,11.126,99.99,99.99,0,0,0-6.35,9.93l0,.008a.152.152,0,0,1-.012.018l-.045.085c-.021.04-.041.079-.064.118s-.043.08-.064.12l-.058.11a86.946,86.946,0,0,0-5.7,12.628c-.014.039-.027.077-.041.115s-.026.075-.04.113l-.005.016L93.6,55.9l-.069.2a74.567,74.567,0,0,0-4.151,20.152,57.4,57.4,0,0,0,.3,10.376c.029.235.059.456.088.67l0,.018c.222,1.547.443,2.469.485,2.638v.006a.283.283,0,0,1,.006.05.92.92,0,0,0,.264.609,1.387,1.387,0,0,0,.2.185.058.058,0,0,0,.016.008l.011,0a1.249,1.249,0,0,0,.19.106l.043.021a2.447,2.447,0,0,0,1.074.251,1.929,1.929,0,0,0,.532-.071,5.974,5.974,0,0,1,.921-.127,7.138,7.138,0,0,0,2.293-.485c.059-.029.115-.061.169-.092l.048-.027c.071-.041.141-.089.2-.13a2.255,2.255,0,0,0,.952-1.992,7.843,7.843,0,0,1,.077-.954c.027-.22.062-.451.1-.688a121.734,121.734,0,0,1,7.151-23.061c.11-.245.21-.465.313-.689.358-.773.7-1.469,1.028-2.068a29.5,29.5,0,0,1,3.3-4.71l.076-.091.005-.006.009-.011.1-.121.064-.077c.043-.052.084-.1.127-.151a60,60,0,0,1,6.1-6.106c3.077-2.689,7.03-5.591,8.441-5.609a17.217,17.217,0,0,1,4.108-.913c.655-.086,1.358-.163,2.089-.229.982-.09,2.056-.168,3.192-.229,1.112-.061,2.29-.109,3.5-.142,1.323-.035,2.666-.053,3.992-.053,2.613,0,5.085.071,6.78.2.6.043,1.1.094,1.458.148.157.025.325.045.489.065l.142.017a38.789,38.789,0,0,0,4.446.211c1.227,0,2.362-.033,3.113-.054.464-.014.9-.027,1.18-.027.1,0,.181,0,.24.005.12.007.272.01.452.01.69,0,1.7-.052,2.835-.145.772-.064,1.532-.139,2.324-.229,1.06-.121,2.1-.255,3.184-.41A.188.188,0,0,1,167.633,42.136Zm97.836,2.6a.23.23,0,0,1,.067.45L256.881,47.8a8.256,8.256,0,0,1,.6,3.074v6.537a27.429,27.429,0,0,0,14.986-10.246A23.014,23.014,0,0,0,276.07,39.7a13.626,13.626,0,0,0-5.147-3.378,24.471,24.471,0,0,0-9.121-1.589,40.865,40.865,0,0,0-9.094,1.111.237.237,0,0,1-.052.006.229.229,0,0,1-.169-.386c1.709-1.842,5.561-8.39,8.348-15.891,1.872-5.037,4.583-14.216,1.71-19.107a27.237,27.237,0,0,0-15.306,5.6,36.576,36.576,0,0,0-9.413,11.12,55.67,55.67,0,0,0-5.957,15.832.233.233,0,0,1-.19.186l-.035,0a.232.232,0,0,1-.2-.121,70.475,70.475,0,0,0-6.563-9.711,37.855,37.855,0,0,0-6.615-6.57c-2.667-1.977-5.2-2.979-7.54-2.979a8,8,0,0,0-3.623.869,6,6,0,0,0-3.325,4.241c-1.525,6.964,6.373,18.837,9.839,23.618h35.52a8.286,8.286,0,0,1,4.539,1.348,8.38,8.38,0,0,1,3.022,3.485l8.708-2.632A.236.236,0,0,1,265.469,44.737Zm-26.526.46a3.608,3.608,0,1,0,3.614,3.608A3.616,3.616,0,0,0,238.943,45.2ZM197.5,46.388v5.128h29.734V46.388ZM114.966,22.661A57.316,57.316,0,0,0,93.118,42.527l6.171-.287c.166-.3.344-.6.516-.9l0-.006q.131-.225.262-.45t.246-.426l0-.007c.126-.219.256-.446.388-.668.236-.394.487-.793.729-1.179l.19-.3q.111-.178.22-.357l0-.007c.132-.215.268-.437.407-.655.271-.425.558-.855.835-1.271l.035-.052.207-.311c.082-.122.163-.245.243-.368.1-.156.208-.318.317-.478.586-.857,1.166-1.683,1.725-2.454.345-.478.73-.988,1.178-1.561.077-.1.157-.2.234-.291l0-.005.007-.008.141-.174c.267-.331.554-.684.845-1.026.152-.177.306-.355.457-.527.3-.342.572-.646.834-.928l.047-.051c.136-.148.277-.3.418-.449.272-.288.568-.59.932-.95l.139-.14c.083-.084.167-.169.252-.252.476-.461.92-.874,1.356-1.264l.059-.051c.039-.033.076-.064.112-.1.424-.373.824-.713,1.224-1.04.094-.076.189-.151.285-.226l.195-.154.21-.168C114.687,22.879,114.827,22.767,114.966,22.661Zm33.853,3.018a3.616,3.616,0,0,1,2.309,1.043c.355.309.692.664.99.977a5.8,5.8,0,0,0,4.718,2.3c2.382,0,5.751-1.059,10.3-3.239a3.1,3.1,0,0,1-.98-2.336,4.159,4.159,0,0,0-1.07-2.744c-1.539-1.5-2.844-2.235-3.988-2.235a2.856,2.856,0,0,0-2.036.912,1.75,1.75,0,0,1-1.117.583.688.688,0,0,1-.425-.139c-.369-.278-.4-.9-.064-1.512a5.508,5.508,0,0,0,.684-1.736v-.006c.01-.074.021-.15.025-.226a2.107,2.107,0,0,0,0-.239,2.493,2.493,0,0,0-1.311-2,2.34,2.34,0,0,0-1.307-.391,3.316,3.316,0,0,0-1.489.393,4.606,4.606,0,0,0-.953.671l-.056.049c-.049.043-.1.092-.153.141s-.081.086-.118.129l-.061.069a2.766,2.766,0,0,0-.79,1.591.96.96,0,0,1-.424.9.8.8,0,0,1-.377.085,2.288,2.288,0,0,1-1.039-.344,13.474,13.474,0,0,1-4.182-3.292c-.042-.053-.083-.109-.122-.164l-.063-.086L145.7,14.8l-.015-.02-.04.017-.006,0-.031.013-.165.07-.01,0-.264.113c-1.973.852-3.328,1.555-3.476,1.633a8.067,8.067,0,0,0-1.3,8.061,3.94,3.94,0,0,0,3.832,2.715,6.594,6.594,0,0,0,2.514-.55,2.688,2.688,0,0,1,1.7-1.154A2.336,2.336,0,0,1,148.819,25.679Zm12.276-6.473c1.2,0,2.558.757,4.151,2.313a4.394,4.394,0,0,1,1.137,2.873V24.4c.115.941.215,1.754.978,2.255a2.309,2.309,0,0,0,.25.14c.077.037.163.073.277.115a5.651,5.651,0,0,0,1.7.262l.155,0a7.265,7.265,0,0,0,4.79-2.163l.074-.066c.035-.031.068-.061.1-.092.061-.057.12-.116.168-.166a13.167,13.167,0,0,0,2.6-3.889,16.467,16.467,0,0,0,1.327-5.332,10.98,10.98,0,0,0-2.892-7.843,17.708,17.708,0,0,0-12.222-5.759c-.649-.046-1.314-.069-1.977-.069a28.8,28.8,0,0,0-8.385,1.236A17.837,17.837,0,0,0,146.865,6.4a6.117,6.117,0,0,0-2.354,4.081,6.165,6.165,0,0,0,1.118,3.83c.042.064.085.127.128.189.026.036.053.07.081.1l.039.052.028.038c.04.053.079.106.121.159l.069.087c.044.056.089.114.135.168a13.168,13.168,0,0,0,3.961,3.054l.006,0,.006,0a2.043,2.043,0,0,0,.924.313.569.569,0,0,0,.268-.058c.188-.1.29-.335.3-.7a2.878,2.878,0,0,1,.759-1.638c.054-.062.112-.129.175-.2s.1-.107.158-.16l.037-.037a4.988,4.988,0,0,1,1.127-.816,3.456,3.456,0,0,1,1.588-.419,2.579,2.579,0,0,1,1.441.43,2.708,2.708,0,0,1,1.415,2.266c0,.065,0,.151-.009.238s-.015.156-.026.232a5.843,5.843,0,0,1-.7,1.776c-.324.6-.227,1.05,0,1.221a.472.472,0,0,0,.288.089,1.448,1.448,0,0,0,.953-.514A3.083,3.083,0,0,1,161.095,19.206Zm103.7,217.821a.223.223,0,0,1-.1-.022,11.922,11.922,0,0,1-4.751-3.713,9.714,9.714,0,0,1-1.733-4.158,11.329,11.329,0,0,1,.243-4.846.225.225,0,0,1,.216-.159.23.23,0,0,1,.073.012.225.225,0,0,1,.132.113.23.23,0,0,1,.014.177,10.761,10.761,0,0,0-.249,4.6c.552,3.36,2.654,5.9,6.247,7.56a.23.23,0,0,1-.1.438Zm-55.514-55.621a.345.345,0,0,1-.345-.344v-2.755a.345.345,0,0,1,.689,0v2.755A.345.345,0,0,1,209.279,181.406Zm-12-2.841H82.388a.231.231,0,0,1-.23-.23v-5.9a.23.23,0,0,1,.23-.229H197.275a.229.229,0,0,1,.23.229v5.9A.23.23,0,0,1,197.275,178.564Zm-114.656-5.9v5.439H197.044v-5.439ZM209.279,175.9a.345.345,0,0,1-.345-.344V172.8a.345.345,0,1,1,.689,0v2.754A.345.345,0,0,1,209.279,175.9Zm0-5.51a.345.345,0,0,1-.345-.344v-2.755a.345.345,0,1,1,.689,0v2.755A.345.345,0,0,1,209.279,170.386Zm-166.155-2.8a.368.368,0,0,1-.1-.015,16.207,16.207,0,0,1-4.073-1.793,17.641,17.641,0,0,1-5.551-5.465,16.819,16.819,0,0,1-2.6-7.326.289.289,0,0,1,.066-.231.326.326,0,0,1,.244-.1.367.367,0,0,1,.38.329,15.5,15.5,0,0,0,1.01,4.1,16.84,16.84,0,0,0,4.228,6.141,16.1,16.1,0,0,0,6.478,3.678.324.324,0,0,1,.24.372A.338.338,0,0,1,43.124,167.584Zm154.151-2.345H82.388a.23.23,0,0,1-.23-.229v-5.9a.231.231,0,0,1,.23-.23H197.275a.23.23,0,0,1,.23.23v5.9A.23.23,0,0,1,197.275,165.239Zm-114.656-5.9v5.439H197.044v-5.439Zm-36.733,1.315a.282.282,0,0,1-.222-.119,56.66,56.66,0,0,1-5.552-8.457A58.433,58.433,0,0,1,34.2,135.256a56.988,56.988,0,0,1-.527-17.907.354.354,0,0,1,.341-.345.391.391,0,0,1,.277.133.27.27,0,0,1,.071.212,56.109,56.109,0,0,0-.408,9.921,57.809,57.809,0,0,0,3.528,17.292,56.227,56.227,0,0,0,8.666,15.491.356.356,0,0,1,.042.389A.362.362,0,0,1,45.885,160.656ZM324.172,141.29H305.883a.23.23,0,0,1-.23-.229v-9.714h-7.574a.115.115,0,0,1-.114-.115V108.012a.114.114,0,0,1,.114-.114h13.148a.109.109,0,0,1,.081.033l4.58,4.573a.116.116,0,0,1,.034.081v11.448h8.25a.23.23,0,0,1,.229.23v16.8A.229.229,0,0,1,324.172,141.29Zm-18.06-9.942v9.484h17.83v-16.34h-8.02v6.741a.115.115,0,0,1-.115.115Zm-7.919-23.222v22.991h17.5v-6.626h-1.105l-.219-.217,0,0-.007-.007c-.058-.059-.115-.117-.173-.174l-.056-.056h1.565v-11.4l-4.513-4.506Zm-88.914,29.2a.345.345,0,0,1-.345-.345V134.23a.345.345,0,0,1,.689,0v2.754A.345.345,0,0,1,209.279,137.328Zm0-5.509a.345.345,0,0,1-.345-.345V128.72a.345.345,0,0,1,.689,0v2.755A.345.345,0,0,1,209.279,131.819Zm0-5.51a.345.345,0,0,1-.345-.345V123.21a.345.345,0,0,1,.689,0v2.755A.345.345,0,0,1,209.279,126.31Zm0-5.509a.346.346,0,0,1-.345-.346V117.7a.345.345,0,0,1,.689,0v2.755A.346.346,0,0,1,209.279,120.8Zm0-5.511a.345.345,0,0,1-.345-.345v-2.754a.345.345,0,0,1,.689,0v2.754A.345.345,0,0,1,209.279,115.29Zm0-5.509a.345.345,0,0,1-.345-.345v-2.755a.345.345,0,1,1,.689,0v2.755A.345.345,0,0,1,209.279,109.781Zm41.094-.393a.345.345,0,0,1-.346-.344V106.29a.345.345,0,1,1,.69,0v2.754A.345.345,0,0,1,250.373,109.388Zm-7.513-.5H216.79a.23.23,0,0,1-.23-.23V101.6a.23.23,0,0,1,.23-.23H242.86a.231.231,0,0,1,.23.23v7.058A.231.231,0,0,1,242.86,108.885Zm-25.839-7.059v6.6h25.61v-6.6Zm-7.742,2.444a.345.345,0,0,1-.345-.344v-2.755a.345.345,0,1,1,.689,0v2.755A.345.345,0,0,1,209.279,104.27Zm41.094-.392a.345.345,0,0,1-.346-.344v-2.757a.345.345,0,0,1,.69,0v2.757A.345.345,0,0,1,250.373,103.879Zm-41.094-5.117a.345.345,0,0,1-.345-.345V95.662a.345.345,0,0,1,.689,0v2.755A.345.345,0,0,1,209.279,98.761Zm41.094-.393a.346.346,0,0,1-.346-.345V95.27a.345.345,0,0,1,.69,0v2.754A.345.345,0,0,1,250.373,98.368Zm-41.094-5.116a.345.345,0,0,1-.345-.345V90.152a.345.345,0,0,1,.689,0v2.756A.345.345,0,0,1,209.279,93.253Zm41.094-.393a.346.346,0,0,1-.346-.345V89.76a.345.345,0,0,1,.69,0v2.755A.345.345,0,0,1,250.373,92.859Zm-7.513-.445H216.79a.229.229,0,0,1-.23-.229v-7.06a.23.23,0,0,1,.23-.23H242.86a.23.23,0,0,1,.23.23v7.06A.23.23,0,0,1,242.86,92.415Zm-25.839-7.058v6.6h25.61v-6.6Zm-7.742,2.386a.345.345,0,0,1-.345-.345V84.643a.345.345,0,0,1,.689,0V87.4A.345.345,0,0,1,209.279,87.743Zm41.094-.393a.346.346,0,0,1-.346-.345V84.25a.345.345,0,0,1,.69,0V87A.345.345,0,0,1,250.373,87.35Zm-53.1-.041h-2.759a.344.344,0,1,1,0-.688h2.414V85.55a.346.346,0,0,1,.691,0v1.415A.345.345,0,0,1,197.275,87.309Zm-5.519,0H189a.344.344,0,1,1,0-.688h2.758a.344.344,0,1,1,0,.688Zm-5.518,0h-2.759a.344.344,0,1,1,0-.688h2.759a.344.344,0,1,1,0,.688Zm-16.555,0h-2.761a.344.344,0,1,1,0-.688h2.761a.344.344,0,1,1,0,.688Zm-5.519,0H161.4a.344.344,0,1,1,0-.688h2.759a.344.344,0,1,1,0,.688Zm-5.52,0h-2.759a.344.344,0,1,1,0-.688h2.759a.344.344,0,1,1,0,.688Zm-5.519,0h-2.758a.344.344,0,1,1,0-.688h2.758a.344.344,0,1,1,0,.688Zm-5.519,0h-2.759a.344.344,0,1,1,0-.688h2.759a.344.344,0,1,1,0,.688Zm-5.519,0h-2.758a.344.344,0,1,1,0-.688h2.758a.344.344,0,1,1,0,.688Zm-5.518,0h-2.76a.344.344,0,1,1,0-.688h2.76a.344.344,0,1,1,0,.688Zm-5.517,0h-2.761a.344.344,0,1,1,0-.688h2.761a.344.344,0,1,1,0,.688Zm-5.521,0h-2.759a.344.344,0,1,1,0-.688h2.759a.344.344,0,1,1,0,.688Zm-5.518,0h-2.759a.344.344,0,1,1,0-.688h2.759a.344.344,0,1,1,0,.688Zm-5.52,0h-2.759a.344.344,0,0,1,0-.688h2.759a.344.344,0,1,1,0,.688Zm-5.518,0h-2.759a.344.344,0,1,1,0-.688h2.759a.344.344,0,1,1,0,.688Zm-5.519,0H100.7a.344.344,0,1,1,0-.688h2.758a.344.344,0,1,1,0,.688Zm-16.555,0H84.143a.344.344,0,1,1,0-.688H86.9a.344.344,0,1,1,0,.688Zm-4.514-1a.345.345,0,0,1-.345-.345V83.207a.346.346,0,0,1,.691,0v2.755A.346.346,0,0,1,82.388,86.306ZM197.275,83.14a.346.346,0,0,1-.346-.345V80.041a.346.346,0,0,1,.691,0V82.8A.346.346,0,0,1,197.275,83.14Zm12-.907a.345.345,0,0,1-.345-.345V79.133a.345.345,0,1,1,.689,0v2.755A.345.345,0,0,1,209.279,82.233Zm41.094-.393a.346.346,0,0,1-.346-.345V78.74a.345.345,0,0,1,.69,0V81.5A.345.345,0,0,1,250.373,81.84ZM82.388,80.8a.346.346,0,0,1-.345-.346V77.7a.346.346,0,0,1,.691,0v2.755A.346.346,0,0,1,82.388,80.8Zm114.887-3.166a.346.346,0,0,1-.346-.346V74.531a.346.346,0,0,1,.691,0v2.755A.346.346,0,0,1,197.275,77.631Zm12-.909a.345.345,0,0,1-.345-.344V73.624a.345.345,0,0,1,.689,0v2.754A.345.345,0,0,1,209.279,76.722Zm41.094-.392a.346.346,0,0,1-.346-.345V73.231a.345.345,0,1,1,.69,0v2.755A.345.345,0,0,1,250.373,76.331Zm-7.513-.385H216.79a.23.23,0,0,1-.23-.23V68.657a.229.229,0,0,1,.23-.229H242.86a.23.23,0,0,1,.23.229v7.059A.231.231,0,0,1,242.86,75.946Zm-25.839-7.06v6.6h25.61v-6.6Zm-134.633,6.4a.345.345,0,0,1-.345-.345V72.188a.346.346,0,0,1,.691,0v2.754A.346.346,0,0,1,82.388,75.287ZM33.229,73.461H23.323a7.319,7.319,0,0,1-7.316-7.3V56.267a7.319,7.319,0,0,1,7.316-7.3h9.905a7.319,7.319,0,0,1,7.316,7.3v9.889A7.319,7.319,0,0,1,33.229,73.461ZM23.323,49.194a7.087,7.087,0,0,0-7.086,7.073v9.889a7.088,7.088,0,0,0,7.086,7.075h9.905a7.088,7.088,0,0,0,7.086-7.075V56.267a7.087,7.087,0,0,0-7.086-7.073ZM197.275,72.121a.346.346,0,0,1-.346-.345V69.022a.346.346,0,0,1,.691,0v2.754A.346.346,0,0,1,197.275,72.121Zm12-.907a.345.345,0,0,1-.345-.345V68.114a.345.345,0,0,1,.689,0v2.755A.345.345,0,0,1,209.279,71.213Zm41.094-.392a.346.346,0,0,1-.346-.345V67.721a.345.345,0,0,1,.69,0v2.755A.345.345,0,0,1,250.373,70.821Zm-215.321-.86H21.5a.114.114,0,0,1-.114-.114V64.763a6.872,6.872,0,0,1,5.344-6.7,3.02,3.02,0,1,1,3.091,0,6.872,6.872,0,0,1,5.346,6.7v5.083A.114.114,0,0,1,35.051,69.961ZM28.276,52.693a2.782,2.782,0,0,0-1.16,5.315.113.113,0,0,1,.067.117.117.117,0,0,1-.094.1,6.642,6.642,0,0,0-5.475,6.539v4.969H34.936V64.763a6.642,6.642,0,0,0-5.473-6.539.115.115,0,0,1-.095-.1.112.112,0,0,1,.067-.117,2.782,2.782,0,0,0-1.159-5.315ZM82.388,69.778a.345.345,0,0,1-.345-.345V66.678a.346.346,0,0,1,.691,0v2.755A.346.346,0,0,1,82.388,69.778Zm114.887-3.166a.346.346,0,0,1-.346-.345V63.512a.346.346,0,0,1,.691,0v2.755A.346.346,0,0,1,197.275,66.612Zm12-.909a.345.345,0,0,1-.345-.344V62.6a.345.345,0,1,1,.689,0v2.754A.345.345,0,0,1,209.279,65.7Zm41.094-.392a.346.346,0,0,1-.346-.345V62.438a.352.352,0,0,1-.049-.177.346.346,0,0,1,.346-.345h.049a.345.345,0,0,1,.345.345v2.706A.345.345,0,0,1,250.373,65.311ZM82.388,64.266a.344.344,0,0,1-.345-.343v-.707a.345.345,0,0,1,.345-.345h2.051a.345.345,0,1,1,0,.689h-1.7v.363A.345.345,0,0,1,82.388,64.266Zm112.424-.706h-2.76a.345.345,0,0,1,0-.689h2.76a.345.345,0,0,1,0,.689Zm-22.075,0h-2.758a.345.345,0,1,1,0-.689h2.758a.345.345,0,1,1,0,.689Zm-5.518,0h-2.76a.345.345,0,1,1,0-.689h2.76a.345.345,0,1,1,0,.689Zm-5.519,0h-2.759a.345.345,0,1,1,0-.689H161.7a.345.345,0,0,1,0,.689Zm-5.519,0h-2.759a.345.345,0,1,1,0-.689h2.759a.345.345,0,1,1,0,.689Zm-5.518,0H147.9a.345.345,0,1,1,0-.689h2.759a.345.345,0,0,1,0,.689Zm-5.52,0h-2.759a.345.345,0,0,1,0-.689h2.759a.345.345,0,0,1,0,.689Zm-5.518,0h-2.759a.345.345,0,1,1,0-.689h2.759a.345.345,0,1,1,0,.689Zm-5.519,0h-2.759a.345.345,0,1,1,0-.689h2.759a.345.345,0,0,1,0,.689Zm-5.518,0h-2.761a.345.345,0,0,1,0-.689h2.761a.345.345,0,0,1,0,.689Zm-5.521,0h-2.758a.345.345,0,1,1,0-.689h2.758a.345.345,0,1,1,0,.689Zm-5.517,0h-2.759a.345.345,0,1,1,0-.689h2.759a.345.345,0,0,1,0,.689Zm-5.521,0h-2.758a.345.345,0,1,1,0-.689h2.758a.345.345,0,1,1,0,.689Zm-22.073,0H87.2a.345.345,0,1,1,0-.689h2.759a.345.345,0,1,1,0,.689Zm157.606-.955H244.8a.345.345,0,0,1,0-.69h2.759a.345.345,0,0,1,0,.69Zm-5.518,0h-2.759a.345.345,0,1,1,0-.69h2.759a.345.345,0,0,1,0,.69Zm-5.519,0h-2.759a.345.345,0,1,1,0-.69h2.759a.345.345,0,0,1,0,.69Zm-5.518,0h-2.76a.345.345,0,1,1,0-.69h2.76a.345.345,0,0,1,0,.69Zm-5.52,0h-2.758a.345.345,0,1,1,0-.69h2.758a.345.345,0,0,1,0,.69Zm-5.518,0h-2.759a.345.345,0,1,1,0-.69h2.759a.345.345,0,0,1,0,.69Zm-5.519,0h-2.759a.345.345,0,1,1,0-.69h2.759a.345.345,0,0,1,0,.69Zm25.381-24.894a.221.221,0,0,1-.122-.036.229.229,0,0,1-.071-.316l13.852-21.911a.23.23,0,0,1,.389.245L240.029,37.6A.234.234,0,0,1,239.834,37.712Zm-19.14-3.53a.231.231,0,0,1-.2-.106l-5.45-8.677a.229.229,0,0,1,.075-.316.222.222,0,0,1,.12-.035.233.233,0,0,1,.2.108l5.449,8.676a.229.229,0,0,1-.072.316A.232.232,0,0,1,220.693,34.182Z" transform="translate(0 0.164)"/></g></g><g transform="translate(0 32)"><path class="a" d="M0,0H420V232H0Z"/><g class="f"><path class="b" d="M419.586,232H.414a.415.415,0,0,1,0-.831H34.482a93.185,93.185,0,0,1,5.036-23.619,78.115,78.115,0,0,1,10.643-20.419,60.918,60.918,0,0,1,19.911-17.5A82.771,82.771,0,0,1,90.5,161.881a98.831,98.831,0,0,1,22.884-2.615,113.126,113.126,0,0,1,20.146,1.845c24.484,4.444,47.752,16.437,67.288,34.683a66.337,66.337,0,0,1,9.845-18.687,71.27,71.27,0,0,1,15.082-14.838A75.415,75.415,0,0,1,244.819,152.2a77.3,77.3,0,0,1,21.822-4.39c1.43-.078,2.88-.118,4.309-.118a77.919,77.919,0,0,1,19.616,2.5,76.725,76.725,0,0,1,18.275,7.37,70.31,70.31,0,0,1,28.734,29.787,47.792,47.792,0,0,1,22.117-12.207,38.429,38.429,0,0,1,8.6-1.016,27.164,27.164,0,0,1,12.745,2.932c6.92,3.7,12.016,11.375,13.631,20.542a36.85,36.85,0,0,1,.476,8.764,39.017,39.017,0,0,1-1.58,8.7,42.365,42.365,0,0,1-3.547,8.361,46.382,46.382,0,0,1-5.423,7.742h34.988a.415.415,0,0,1,0,.831Zm-98.414-18.256h0a53.1,53.1,0,0,1,21.707,4.7.27.27,0,0,1,.147.158.273.273,0,0,1-.01.215,31.245,31.245,0,0,1-11.377,12.354h51.875c8.609-9.682,12.379-21.865,10.342-33.425-1.572-8.918-6.509-16.377-13.206-19.953a26.329,26.329,0,0,0-12.355-2.836,37.628,37.628,0,0,0-8.418.994,46.942,46.942,0,0,0-22.131,12.39.41.41,0,0,1-.288.12.4.4,0,0,1-.072-.007.412.412,0,0,1-.3-.226,69.391,69.391,0,0,0-28.65-29.942,75.879,75.879,0,0,0-18.079-7.292,77.079,77.079,0,0,0-19.406-2.475c-1.414,0-2.849.039-4.265.116-30.267,1.652-56.5,20.954-65.282,48.032a.416.416,0,0,1-.292.274.424.424,0,0,1-.1.013.41.41,0,0,1-.283-.113c-19.519-18.387-42.806-30.46-67.343-34.915a112.294,112.294,0,0,0-20-1.832,97.99,97.99,0,0,0-22.678,2.59,81.961,81.961,0,0,0-20.235,7.672,60.091,60.091,0,0,0-19.642,17.269,77.274,77.274,0,0,0-10.527,20.2,92.283,92.283,0,0,0-4.988,23.341H44.9a38.494,38.494,0,0,1,7.6-22.361,33.982,33.982,0,0,1,18.594-12.647,31.674,31.674,0,0,1,7.785-.959,34.4,34.4,0,0,1,9.458,1.344,36.369,36.369,0,0,1,8.991,3.96A38.143,38.143,0,0,1,114.115,222.8a72.81,72.81,0,0,1,16.314-12.855,64.8,64.8,0,0,1,14.907-6.394,56.007,56.007,0,0,1,15.241-2.151,53.422,53.422,0,0,1,10.164.977,56.422,56.422,0,0,1,24.166,11.164A63.64,63.64,0,0,1,207.3,226.408a38.342,38.342,0,0,1,7.417-8.509,30.812,30.812,0,0,1,15.6-7.244,30.15,30.15,0,0,1,4.384-.321,30.914,30.914,0,0,1,7.727.992,33.887,33.887,0,0,1,7.489,2.943,67.4,67.4,0,0,1,1.255-8.861,53.492,53.492,0,0,1,7.079-17.772,44.9,44.9,0,0,1,16.507-15.357.276.276,0,0,1,.374.111,39.956,39.956,0,0,1,4.569,16.469,60.3,60.3,0,0,1-1.428,17.421,97.2,97.2,0,0,1,15.675-15.656c6.991-5.41,14.118-8.892,21.183-10.348a.28.28,0,0,1,.054-.005.276.276,0,0,1,.264.19c3.373,10.385,1.807,22.549-4.408,34.251A54.7,54.7,0,0,1,321.173,213.744Zm-.01.549a54.161,54.161,0,0,0-10.457,1.038,73.373,73.373,0,0,1-11.883,15.838h31.815a31.221,31.221,0,0,0,11.755-12.336A52.519,52.519,0,0,0,321.163,214.293Zm-6.171-33.427h0c-12.447,2.651-25.247,11.863-37.016,26.64l-.03.036-.03.036c-.082.1-.161.205-.24.308l-.152.2c-.145.182-.283.359-.435.555a144.585,144.585,0,0,0-12.742,19.511c.044.074.092.146.138.217s.106.162.156.247c.028.049.055.1.082.15s.043.081.066.122.056.1.082.153.042.08.063.12c.352.627.726,1.3,1.075,2.013h32.05a73.444,73.444,0,0,0,11.923-15.686c.025-.044.051-.089.076-.134l0-.008c.034-.059.07-.12.1-.18.02-.036.041-.073.062-.109s.041-.07.059-.1l.023-.046,0-.005c.01-.02.02-.04.031-.061,6.264-11.589,7.915-23.654,4.648-33.972ZM78.874,195.755a31.1,31.1,0,0,0-7.65.943A33.429,33.429,0,0,0,52.935,209.14a37.956,37.956,0,0,0-7.488,21.929h219.9c-.334-.664-.706-1.315-1.034-1.89-.024-.042-.047-.085-.07-.128s-.05-.094-.076-.139-.037-.066-.054-.1-.039-.074-.06-.109c-.007-.012-.014-.025-.02-.038l-.012-.023c-.021-.035-.043-.069-.064-.1l0-.005c-.024-.038-.046-.073-.068-.108s-.062-.1-.093-.145l0-.005c-.025-.038-.05-.076-.075-.115a38.721,38.721,0,0,0-3.112-4.384c-.1-.122-.208-.242-.311-.359l-.006-.006c-.069-.077-.137-.155-.205-.233a36.4,36.4,0,0,0-9.554-7.944l-.063-.034-.058-.031-.131-.072-.005,0-.136-.075-.057-.031-.206-.112a33.452,33.452,0,0,0-7.469-2.982,30.381,30.381,0,0,0-7.708-1.006,29.584,29.584,0,0,0-4.3.315c-13.424,1.979-20.877,12.631-22.842,15.849a.28.28,0,0,1-.227.132l-.03,0a.255.255,0,0,1-.2-.119c-4.19-5.947-16.13-20.2-36.449-24.152a54.012,54.012,0,0,0-10.269-1c-9.989,0-19.968,2.86-29.66,8.5a70.221,70.221,0,0,0-16.516,13.119.277.277,0,0,1-.476-.111,37.563,37.563,0,0,0-16.68-22.45,35.849,35.849,0,0,0-8.853-3.9A33.836,33.836,0,0,0,78.874,195.755Zm193.249,8.111a.415.415,0,0,1,.193.783l-7,3.658L260.907,223.3a39.094,39.094,0,0,1,3.1,4.314,145.015,145.015,0,0,1,13.431-20.323c.293-1.189.549-2.363.761-3.488,2.209-11.705.991-22.68-3.431-30.9a44.322,44.322,0,0,0-16.064,15.035,52.91,52.91,0,0,0-7,17.589,66.742,66.742,0,0,0-1.263,9.038l.12.065c.081.044.159.086.236.13a36.958,36.958,0,0,1,9.467,7.793l1.808-6.149-4.541-10.775a.415.415,0,0,1,.764-.322l4.147,9.841,2.131-7.248,3.51-11.931-2.69-8.423a.415.415,0,1,1,.79-.253l2.317,7.257,3.225-10.963a.415.415,0,1,1,.8.235L265.643,207.2l6.288-3.287A.421.421,0,0,1,272.123,203.866Zm5.974,24.7a.415.415,0,0,1-.191-.784c.3-.228,1.684-1.807,4.127-4.693a.416.416,0,0,1-.118-.312c.2-3.054.782-12.054.788-12.383a.406.406,0,0,1,.4-.41h.02a.414.414,0,0,1,.41.412c0,.183-.251,4.155-.747,11.805,1.74-2.062,3.99-4.753,6.684-8l.085-.1.077-.093c2.523-3.04,5.349-6.459,8.173-9.886l.652-9.338a.413.413,0,0,1,.408-.387h.034a.417.417,0,0,1,.385.443l-.572,8.179c3.4-4.125,7.256-8.827,11.159-13.6a.413.413,0,0,1,.583-.058.409.409,0,0,1,.149.278.414.414,0,0,1-.092.306l-.2.249-.061.075c-5.442,6.648-10.929,13.325-15.451,18.8-1.345,1.629-2.617,3.166-3.78,4.568l17.5-4.335a.418.418,0,0,1,.1-.012.411.411,0,0,1,.4.315.417.417,0,0,1-.3.5l-18.593,4.606c-11.318,13.636-11.679,13.757-11.894,13.829A.4.4,0,0,1,278.1,228.565Zm-222.173-66.4a1.763,1.763,0,0,1-1.129-.411l-3.577-2.971a1.217,1.217,0,0,0-1.111-.235l-4.471,1.266a1.793,1.793,0,0,1-.489.068,1.777,1.777,0,0,1-1.642-2.434l1.715-4.324a1.226,1.226,0,0,0-.121-1.133l-2.585-3.868a1.777,1.777,0,0,1,1.474-2.764c.038,0,.076,0,.114,0l4.636.3.075,0a1.217,1.217,0,0,0,.963-.466l2.873-3.658a1.758,1.758,0,0,1,1.388-.679,1.792,1.792,0,0,1,.372.039,1.763,1.763,0,0,1,1.352,1.3l1.15,4.51a1.218,1.218,0,0,0,.761.844l4.36,1.607a1.777,1.777,0,0,1,.336,3.169l-3.925,2.49a1.221,1.221,0,0,0-.567.986l-.179,4.65a1.78,1.78,0,0,1-1.775,1.711Zm-5.484-4.218a1.771,1.771,0,0,1,1.132.41l3.576,2.971a1.2,1.2,0,0,0,.772.285,1.231,1.231,0,0,0,.506-.11,1.2,1.2,0,0,0,.721-1.069l.179-4.651a1.776,1.776,0,0,1,.823-1.433l3.926-2.489a1.224,1.224,0,0,0-.231-2.182l-4.36-1.607a1.777,1.777,0,0,1-1.106-1.228l-1.149-4.509a1.2,1.2,0,0,0-.932-.895,1.258,1.258,0,0,0-.264-.028,1.2,1.2,0,0,0-.948.468l-2.875,3.658a1.762,1.762,0,0,1-1.4.677c-.037,0-.074,0-.111,0l-4.635-.3q-.046,0-.091,0a1.181,1.181,0,0,0-1.046.614,1.2,1.2,0,0,0,.043,1.29l2.585,3.869a1.777,1.777,0,0,1,.174,1.642l-1.715,4.328a1.226,1.226,0,0,0,1.123,1.676,1.261,1.261,0,0,0,.344-.049l4.47-1.267A1.777,1.777,0,0,1,50.439,157.951ZM26.265,95.838a1.774,1.774,0,0,1-1.129-.41L21.56,92.455a1.222,1.222,0,0,0-1.112-.235l-4.47,1.267a1.8,1.8,0,0,1-.489.068,1.777,1.777,0,0,1-1.643-2.433L15.562,86.8a1.224,1.224,0,0,0-.12-1.131L12.857,81.8a1.777,1.777,0,0,1,1.475-2.765c.037,0,.075,0,.112,0l4.637.3.074,0a1.231,1.231,0,0,0,.963-.467l2.873-3.658a1.756,1.756,0,0,1,1.387-.68,1.794,1.794,0,0,1,.374.04,1.765,1.765,0,0,1,1.351,1.3l1.15,4.51a1.219,1.219,0,0,0,.761.845l4.361,1.606A1.779,1.779,0,0,1,32.711,86L28.786,88.49a1.22,1.22,0,0,0-.567.987l-.178,4.651a1.781,1.781,0,0,1-1.776,1.71Zm-5.484-4.217h0a1.776,1.776,0,0,1,1.131.409L25.489,95a1.2,1.2,0,0,0,.773.285,1.231,1.231,0,0,0,.5-.109,1.2,1.2,0,0,0,.722-1.07l.178-4.651a1.78,1.78,0,0,1,.824-1.434l3.927-2.489a1.224,1.224,0,0,0-.232-2.182l-4.36-1.607a1.772,1.772,0,0,1-1.106-1.228l-1.15-4.51a1.2,1.2,0,0,0-.931-.895,1.323,1.323,0,0,0-.264-.028,1.2,1.2,0,0,0-.948.468l-2.874,3.659a1.763,1.763,0,0,1-1.394.678c-.037,0-.075,0-.113,0l-4.637-.3q-.047,0-.092,0a1.178,1.178,0,0,0-1.043.613,1.2,1.2,0,0,0,.042,1.292L15.9,85.356A1.782,1.782,0,0,1,16.075,87L14.36,91.327A1.225,1.225,0,0,0,15.484,93a1.264,1.264,0,0,0,.343-.048L20.3,91.688A1.764,1.764,0,0,1,20.781,91.621Zm8.576-60.148a1.52,1.52,0,0,1-.838-.322,3.614,3.614,0,0,1-.427-.368,2.622,2.622,0,0,1-2.183-1.219l-.082-.131a2.623,2.623,0,0,1-.345-1.985,1.424,1.424,0,0,1,.053-.165c.009-.025.018-.049.027-.074L18.884,22.49a7.32,7.32,0,1,1,9.454-6l1.4,8.067a2.623,2.623,0,0,1,1.895,1.191l.082.132a2.62,2.62,0,0,1,.345,1.984,2.843,2.843,0,0,1-.175.517c.293.845.225,1.48-.187,1.741l-1.949,1.237A.71.71,0,0,1,29.357,31.473ZM31.478,29a2.65,2.65,0,0,1-.579.517l-1.365.866a2.652,2.652,0,0,1-.7.311l.007,0a.956.956,0,0,0,.517.222.183.183,0,0,0,.1-.022L31.4,29.659C31.511,29.589,31.541,29.342,31.478,29Zm-2.07-3.916a2.072,2.072,0,0,0-.764.166c-.045.018-.089.039-.136.062-.028.014-.057.025-.083.036a.68.68,0,0,0-.123.058l-.283.177-1.084.688a1.13,1.13,0,0,0-.1.077l-.058.047-.02.016a1.9,1.9,0,0,0-.173.147,2.264,2.264,0,0,0-.2.229,2.142,2.142,0,0,0-.218.361,2.187,2.187,0,0,0-.147.425,2.066,2.066,0,0,0,.273,1.566l.081.131a2.074,2.074,0,0,0,1.17.874,2.1,2.1,0,0,0,.407.077c.053,0,.109.007.165.007s.123,0,.19-.008a2.054,2.054,0,0,0,.931-.306l1.366-.866a2.054,2.054,0,0,0,.672-.71,1.9,1.9,0,0,0,.153-.322l.009-.025a1.9,1.9,0,0,0,.08-.242.711.711,0,0,0,.009-.075c0-.022,0-.042.007-.061a2.032,2.032,0,0,0-.289-1.431l-.081-.132a2.068,2.068,0,0,0-1.742-.964h-.014ZM21.083,8.743A6.77,6.77,0,0,0,19.09,21.974a.239.239,0,0,1,.077.039l6.626,4.681a2.229,2.229,0,0,1,.185-.278c-2.1-1.909-6.975-6.484-6.893-7.721A.5.5,0,0,1,19.3,18.3a1.472,1.472,0,0,1,.811-.287,1.427,1.427,0,0,1,.842.343c.161.116.243.167.308.167a.158.158,0,0,0,.069-.018,1.757,1.757,0,0,0-.224-.591c-.25-.5-.592-1.186-.035-1.618a.832.832,0,0,1,.486-.21.479.479,0,0,1,.092.009c.241.048.36.256.474.458a1.57,1.57,0,0,0,.745.746.552.552,0,0,0,.13.044,2.357,2.357,0,0,0,.051-.6c.008-.58.019-1.373.686-1.613a.433.433,0,0,1,.143-.025c.73,0,1.628,1.9,4,8.488.133.372.277.77.428,1.183a2.6,2.6,0,0,1,.863-.231l-1.39-8a.271.271,0,0,1,0-.085,6.777,6.777,0,0,0-.98-4.568A6.706,6.706,0,0,0,22.579,8.91,6.814,6.814,0,0,0,21.083,8.743Zm-.971,9.826a.9.9,0,0,0-.479.178c-.062.7,3.339,4.186,6.73,7.271l.034-.029a2.339,2.339,0,0,1,.243-.187l1.183-.75c-.129-.35-.27-.74-.459-1.266l-.012-.035c-.83-2.3-2.774-7.684-3.468-8.078-.246.128-.272.547-.28,1.083-.006.471-.012.877-.308,1.065a.51.51,0,0,1-.278.078.916.916,0,0,1-.375-.094,2.08,2.08,0,0,1-1-.976,2.027,2.027,0,0,0-.11-.177.674.674,0,0,0-.127.084c-.183.141-.037.475.191.932.217.436.515,1.034-.005,1.318a.7.7,0,0,1-.334.091,1.105,1.105,0,0,1-.627-.271A.911.911,0,0,0,20.112,18.569Zm-8.338,9.442a.414.414,0,0,1-.4-.331.412.412,0,0,1,.06-.312l2.447-3.719a.414.414,0,1,1,.69.456l-2.445,3.719A.416.416,0,0,1,11.774,28.011ZM6.139,17.73a.415.415,0,0,1-.083-.822l4.355-.895a.413.413,0,0,1,.083-.008.415.415,0,0,1,.083.822l-4.353.894A.4.4,0,0,1,6.139,17.73ZM32.182,15.3a.417.417,0,0,1-.406-.333.415.415,0,0,1,.324-.488l4.356-.888a.408.408,0,0,1,.084-.009.417.417,0,0,1,.4.332.415.415,0,0,1-.324.49l-4.355.888A.448.448,0,0,1,32.182,15.3ZM13.124,8.923a.421.421,0,0,1-.228-.067L9.186,6.4a.415.415,0,0,1,.229-.762.41.41,0,0,1,.227.069l3.71,2.454a.415.415,0,0,1-.229.761ZM28.467,7.835a.415.415,0,0,1-.346-.644l2.452-3.714a.416.416,0,0,1,.347-.187.41.41,0,0,1,.228.069.417.417,0,0,1,.116.576L28.812,7.648A.408.408,0,0,1,28.467,7.835Zm-7.9-2.641a.416.416,0,0,1-.405-.332L19.275.5A.417.417,0,0,1,19.6.008a.414.414,0,0,1,.488.323l.89,4.365a.416.416,0,0,1-.323.49A.441.441,0,0,1,20.57,5.194Z"/></g></g><g transform="translate(65 48)"><path class="b" d="M225.971,48.809c-.2,0-.387,0-.562-.01H.184A.184.184,0,0,1,0,48.655a.182.182,0,0,1,.1-.205,88.775,88.775,0,0,1,17.278-5.883,78.715,78.715,0,0,1,17.358-1.979,72.371,72.371,0,0,1,11.539.92,73.189,73.189,0,0,1,11.606,2.883c-3.659-8.938-4.1-17.172-1.291-23.812C59.833,12.946,67.283,7.369,78.743,4.005,88.16,1.241,98.035.6,103.935.211h.01c2.145-.14,4.327-.21,6.485-.21,15.176,0,30.614,3.454,45.887,10.267a155.142,155.142,0,0,1,33.658,20.8c2.119-5.513,6.506-9.546,12.685-11.663a30.434,30.434,0,0,1,9.755-1.547,33.859,33.859,0,0,1,8.714,1.134c7.327,1.953,12.765,4.751,16.163,8.317,2.916,3.059,4.176,6.557,3.643,10.115a12.687,12.687,0,0,1-5.175,8.191A16.431,16.431,0,0,1,225.971,48.809ZM34.739,40.955a78.235,78.235,0,0,0-16.882,1.882,88.043,88.043,0,0,0-16.821,5.6H225.416c.183.006.368.009.551.009a16.064,16.064,0,0,0,9.572-3.124,12.324,12.324,0,0,0,5.032-7.951c.516-3.442-.71-6.833-3.546-9.808-3.355-3.519-8.735-6.283-15.991-8.215a33.487,33.487,0,0,0-8.621-1.123,30.075,30.075,0,0,0-9.633,1.527c-4.3,1.474-9.965,4.7-12.547,11.682a.187.187,0,0,1-.125.113.179.179,0,0,1-.049.007.189.189,0,0,1-.116-.04A154.965,154.965,0,0,0,156.167,10.6C140.942,3.81,125.556.367,110.439.367c-2.152,0-4.328.071-6.468.21C98.086.96,88.236,1.6,78.847,4.357,67.5,7.688,60.127,13.193,56.937,20.721c-2.817,6.648-2.316,14.914,1.447,23.9a.184.184,0,0,1-.17.254.178.178,0,0,1-.06-.01,71.589,71.589,0,0,0-23.415-3.914Z" transform="translate(5.977 147.422)"/><path class="d" d="M9.169,43.828s-7.527-.586-7.443-4.434,2.76-4.1,2.76-4.1S-3.794,24.671,2.144,17.226s13.1-6.37,13.1-6.37S14.238,2.588,20.343.58a11.039,11.039,0,0,1,10.4,1.839s8.279-6.943,16.81,3.1c3.625,4.935,4.739,8.95,8.475,8.5s9.869.39,4.8,7.417S50.051,25.858,46.985,25.8,19.568,39.673,19.568,39.673Z" transform="translate(125.508 62.754)"/><path class="b" d="M9.226,43.828h0a17.777,17.777,0,0,1-3.769-.775c-2.483-.832-3.777-2.122-3.743-3.733a4.388,4.388,0,0,1,1.443-3.549,2.992,2.992,0,0,1,1.237-.6,26.34,26.34,0,0,1-3.309-6.12c-1.216-3.281-2.018-8,1.067-11.867a16.667,16.667,0,0,1,8.8-5.984,13.449,13.449,0,0,1,3.359-.447c.425,0,.73.025.874.039a14.684,14.684,0,0,1,.41-4.786A8.836,8.836,0,0,1,17.119,2.82,6.655,6.655,0,0,1,20.34.577a11.113,11.113,0,0,1,10.4,1.8A11.843,11.843,0,0,1,35.922.2,10.554,10.554,0,0,1,37.515.075,11.111,11.111,0,0,1,43.39,1.834a17.933,17.933,0,0,1,4.187,3.685c.942,1.281,1.717,2.5,2.4,3.584L50,9.137c1.85,2.923,3.072,4.854,5.411,4.854a4.586,4.586,0,0,0,.538-.033,14.036,14.036,0,0,1,1.662-.1c3.25,0,4.4,1.126,4.8,1.8.784,1.33.249,3.293-1.59,5.836-2.42,3.348-5.185,4.907-8.7,4.907a21.884,21.884,0,0,1-3.249-.309l-.012,0a16.361,16.361,0,0,0-1.918-.211h-.018c-3.063,0-27.034,13.664-27.274,13.8L9.26,43.821A.09.09,0,0,1,9.226,43.828Zm5.083-32.89a13.285,13.285,0,0,0-3.322.443A16.5,16.5,0,0,0,2.292,17.3C-.74,21.1.054,25.752,1.254,28.989a26.227,26.227,0,0,0,3.372,6.19.092.092,0,0,1,.013.1.091.091,0,0,1-.075.055c-.106.011-2.59.306-2.669,3.993a2.774,2.774,0,0,0,1.048,2.189A7.306,7.306,0,0,0,5.36,42.819a17.794,17.794,0,0,0,3.853.824l10.349-4.13c.241-.138,24.2-13.82,27.356-13.82h.02a15.985,15.985,0,0,1,1.913.208l.04.006a21.609,21.609,0,0,0,3.2.3,9.345,9.345,0,0,0,4.214-.929,11.94,11.94,0,0,0,4.357-3.9c1.792-2.478,2.324-4.373,1.58-5.635-.376-.637-1.477-1.706-4.626-1.706a14,14,0,0,0-1.651.1,4.867,4.867,0,0,1-.573.035c-2.425,0-3.668-1.965-5.55-4.939l-.035-.055c-.68-1.071-1.45-2.286-2.378-3.548C43.653,1.192,39.953.26,37.514.26a10.364,10.364,0,0,0-1.557.119A11.438,11.438,0,0,0,30.8,2.567a.092.092,0,0,1-.121,0A10.927,10.927,0,0,0,20.4.752C14.458,2.7,15.367,10.806,15.376,10.887a.093.093,0,0,1-.027.077.1.1,0,0,1-.065.025h-.014A7.7,7.7,0,0,0,14.309,10.939Z" transform="translate(125.508 62.754)"/><path class="c" d="M7.787,35.019c0-1.172,7.123-30.3,25.181-33.819s35.123,1,39.6,9.544,7.123,69.941,7.123,69.941H0Z" transform="translate(89.648 115.547)"/><path class="b" d="M80.5,80.683H.185a.184.184,0,0,1-.14-.065A.181.181,0,0,1,0,80.469L7.849,35.02a64.918,64.918,0,0,1,5.884-16.025c3.695-7.11,10.1-15.97,19.645-17.8A65.686,65.686,0,0,1,45.754,0a49.563,49.563,0,0,1,17.4,2.867c5.023,1.917,8.593,4.655,10.323,7.918,4.483,8.45,7.092,67.21,7.2,69.707a.183.183,0,0,1-.05.135A.186.186,0,0,1,80.5,80.683ZM45.8.361a65.57,65.57,0,0,0-12.349,1.19c-9.4,1.808-15.73,10.576-19.386,17.613A64.077,64.077,0,0,0,8.216,35.039a.185.185,0,0,1,0,.032L.4,80.315h79.9c-.031-.67-.75-16.618-2.023-33.052-.706-9.118-1.451-16.712-2.216-22.572-.946-7.253-1.926-11.874-2.912-13.734-2.183-4.116-7.4-7.368-14.7-9.157A53.31,53.31,0,0,0,45.8.361Z" transform="translate(88.652 115.547)"/><path class="b" d="M246.809,18.926H6.2c-3.418,0-6.2-4.245-6.2-9.464S2.781,0,6.2,0H246.809c3.418,0,6.2,4.245,6.2,9.463S250.227,18.926,246.809,18.926ZM6.2.543c-3.114,0-5.647,4-5.647,8.92S3.085,18.383,6.2,18.383H246.809c3.114,0,5.647-4,5.647-8.921s-2.533-8.92-5.647-8.92Z" transform="translate(0 195.234)"/><path class="b" d="M5.836,0S17.766,4.441,20.918,7.731c-.384,1.234-.767,1.234-.767,1.234L0,8.348Z" transform="translate(131.484 180.293)"/><path class="b" d="M19.979,8.965h0L.179,8.372a.184.184,0,0,1-.158-.1A.164.164,0,0,1,.032,8.1L5.765.077A.187.187,0,0,1,5.918,0a.193.193,0,0,1,.067.012c1.206.441,11.874,4.4,14.884,7.475a.167.167,0,0,1,.041.167C20.524,8.87,20.1,8.965,19.979,8.965ZM5.989.389.525,8.033l19.438.581c.046-.02.291-.159.563-.965C17.559,4.733,7.164.825,5.989.389Z" transform="translate(131.484 180.293)"/><path class="c" d="M28.82,57.812S58.3,52.3,73.711,63.159L61.483,77.7H9.054S-4.682,72.85,1.684,60.318,22.9,16.825,28.485,10.36,40.992,1.225,49.7,0" transform="translate(68.73 117.539)"/><path class="b" d="M61.36,77.7H9.193a.176.176,0,0,1-.062-.011C9.068,77.663,2.817,75.4.7,70.138c-1.2-2.984-.864-6.35.992-10,1.2-2.37,2.686-5.35,4.4-8.8C13.174,37.1,23.869,15.6,28.387,10.374,33.479,4.481,39.826,1.379,49.612,0a.184.184,0,1,1,.052.364c-9.689,1.363-15.969,4.427-21,10.248-4.488,5.194-15.17,26.67-22.238,40.88-1.717,3.453-3.2,6.435-4.4,8.806C.218,63.855-.111,67.118,1.044,70c1.977,4.93,7.722,7.157,8.182,7.328H61.274L73.256,63.079c-7.815-5.413-19.271-6.566-27.609-6.566h-.2A102.525,102.525,0,0,0,28.894,57.9a.182.182,0,0,1-.215-.146.184.184,0,0,1,.147-.215,102.738,102.738,0,0,1,16.617-1.4h.2c8.45,0,20.088,1.18,27.986,6.748a.183.183,0,0,1,.035.268L61.5,77.629a.182.182,0,0,1-.141.066" transform="translate(68.73 117.539)"/><path class="b" d="M.266,10.957a.263.263,0,0,1-.259-.2.264.264,0,0,1,.034-.2C.409,9.972.818,9.381,1.255,8.8a.27.27,0,0,1,.214-.106.264.264,0,0,1,.158.052.26.26,0,0,1,.1.172.263.263,0,0,1-.049.2c-.43.574-.832,1.153-1.193,1.723A.261.261,0,0,1,.266,10.957ZM2.8,7.568a.264.264,0,0,1-.2-.436c.447-.518.93-1.049,1.437-1.576a.264.264,0,0,1,.192-.081.268.268,0,0,1,.184.073.265.265,0,0,1,.008.373C3.915,6.44,3.438,6.963,3,7.475A.265.265,0,0,1,2.8,7.568Zm2.94-3.05a.265.265,0,0,1-.266-.273.26.26,0,0,1,.083-.183c.513-.478,1.05-.955,1.595-1.418a.267.267,0,0,1,.374.03.263.263,0,0,1-.03.372c-.529.448-1.059.92-1.575,1.4A.262.262,0,0,1,5.736,4.518ZM8.969,1.774a.265.265,0,0,1-.21-.1.262.262,0,0,1,.047-.37C9.864.489,10.539.047,10.545.043A.269.269,0,0,1,10.692,0a.266.266,0,0,1,.222.118.261.261,0,0,1,.039.2.264.264,0,0,1-.115.169s-.676.443-1.7,1.235A.262.262,0,0,1,8.969,1.774Z" transform="translate(124.512 179.297)"/><path class="a" d="M0,215.156H255V0H0Z"/><g class="g"><path class="b" d="M0,5.977H27.891V0H0Z" transform="translate(121.523 189.258)"/><path class="b" d="M27.707,5.977H.185A.181.181,0,0,1,0,5.8V.177A.181.181,0,0,1,.185,0H27.707a.181.181,0,0,1,.184.177V5.8A.181.181,0,0,1,27.707,5.977ZM.369.354V5.621H27.522V.354Z" transform="translate(121.523 189.258)"/><path class="b" d="M0,5.977H47.813V0H0Z" transform="translate(149.414 189.258)"/><path class="b" d="M48.624,5.977H.185A.182.182,0,0,1,0,5.8V.177A.182.182,0,0,1,.185,0H48.624a.181.181,0,0,1,.185.177V5.8A.181.181,0,0,1,48.624,5.977ZM.37.354V5.621H48.439V.354Z" transform="translate(149.414 189.258)"/><path class="c" d="M0,33.31c10.577,33.753,39.693,25.605,48.044,16.4,6.53-7.193,22.6-43.785,22.6-43.785C71.8,2.963,59.233-2.36,57.064,1.164A167.28,167.28,0,0,0,42.589,23.111C36.8,34.085,27.335,37.3,21.322,26.437S5.384,4.875,5.091,4.5" transform="translate(156.387 120.527)"/><path class="b" d="M27.811,57.773a26.738,26.738,0,0,1-5.707-.608C9.133,54.333,2.929,42.642.009,33.334a.182.182,0,0,1,.121-.229.186.186,0,0,1,.23.12c2.891,9.216,9.024,20.788,21.823,23.584a28.82,28.82,0,0,0,15.06-.957,25.429,25.429,0,0,0,10.6-6.394c2.644-2.909,7.363-11.343,13.649-24.388C66.244,15.2,70.255,6.093,70.3,6c.383-.983-1.146-2.529-3.808-3.841a17.861,17.861,0,0,0-5.6-1.735c-1.347-.151-3.1-.1-3.779,1.008l-.013.018A167.453,167.453,0,0,0,42.713,23.231C39.407,29.491,34.824,33.254,30.455,33.3h-.08c-3.53,0-6.69-2.336-9.141-6.759A125.861,125.861,0,0,0,5.441,5.15c-.217-.243-.307-.344-.337-.382a.182.182,0,0,1,.032-.256.184.184,0,0,1,.257.031c.024.031.149.171.322.364A126.3,126.3,0,0,1,21.556,26.362c2.382,4.3,5.431,6.57,8.82,6.57h.075c4.233-.042,8.695-3.732,11.938-9.871A167.462,167.462,0,0,1,56.8,1.234c.623-1,2.049-1.4,4.127-1.17a18.215,18.215,0,0,1,5.724,1.77c2.3,1.131,4.549,2.857,3.984,4.307-.043.1-4.057,9.214-8.813,19.086-6.39,13.264-11,21.5-13.707,24.476A25.807,25.807,0,0,1,37.359,56.2a30.67,30.67,0,0,1-9.548,1.576" transform="translate(156.387 120.527)"/><path class="b" d="M.188,14.941a.189.189,0,0,1-.139-.061.184.184,0,0,1,.013-.262C5.244,9.992,6.586.26,6.6.161A.187.187,0,0,1,6.81,0,.185.185,0,0,1,6.971.21C6.959.309,5.6,10.175.314,14.894a.192.192,0,0,1-.126.047" transform="translate(104.59 160.371)"/><path class="b" d="M31.253,28.384c-5.65,7.869-2.43,16.564-3.1,17.82-1.594,3.1-13.844,3.432-21.982,1s-6.8-4.521-4.028-6.362c6.461-4.185,9.9-23.858,10.068-24.276,0,0,1.007-3.014,1.763-3.182-1.511-2.846-1.595-7.618,3.188-7.952S23.2,10.291,23.2,10.291s5.37-1,6.936-8.873c2.181,6.474,7.551,7.758,12.137.279,3.077-4.856,6.315,1.936,7.358,5.07.5,1.508.921,19.374-14.126,21.383s-18.4-8.985-18.4-8.985" transform="translate(122.52 80.684)"/><path class="b" d="M18.134,48.809a44.17,44.17,0,0,1-11.88-1.587C.311,45.449.089,43.972.016,43.487c-.176-1.17,1.078-2.169,2.191-2.909,2.585-1.674,6.375-7.064,9.752-23.235.116-.554.151-.721.175-.779.146-.439.914-2.657,1.67-3.173a8.255,8.255,0,0,1-.823-2.944,5.273,5.273,0,0,1,.557-2.99A4.264,4.264,0,0,1,17.205,5.4c.149-.01.3-.016.445-.016a5.281,5.281,0,0,1,4.242,2.066,8.369,8.369,0,0,1,1.451,2.732c.858-.24,5.215-1.781,6.577-8.624a.185.185,0,0,1,.169-.148H30.1a.186.186,0,0,1,.179.125C31.31,4.6,33.09,6.5,35.158,6.732a3.972,3.972,0,0,0,.441.025c2.153,0,4.425-1.77,6.4-4.984C42.739.6,43.558,0,44.427,0a1.959,1.959,0,0,1,.236.015c1.011.123,2.043,1.028,3.068,2.689a21.45,21.45,0,0,1,1.9,4.14c.308.925.65,8.509-3.091,14.481a14.786,14.786,0,0,1-11.082,6.985,26.216,26.216,0,0,1-3.46.238c-.23,0-.461,0-.688-.01-4.05,5.7-3.391,11.854-3.037,15.16a5.73,5.73,0,0,1,.022,2.439C27.43,47.81,23.633,48.809,18.134,48.809Zm-.477-43.06c-.143,0-.286,0-.426.014a3.875,3.875,0,0,0-3.373,1.872c-.953,1.712-.507,4.123.357,5.754a.178.178,0,0,1,0,.162.183.183,0,0,1-.127.1c-.447.1-1.213,1.834-1.614,3.036-.018.051-.072.31-.14.638l-.019.09c-2.7,12.9-6.122,21.014-9.91,23.468-1.5,1-2.141,1.8-2.03,2.548.173,1.149,2.185,2.306,5.98,3.437a42.607,42.607,0,0,0,11.646,1.574,29.372,29.372,0,0,0,6.526-.633c1.85-.437,3.037-1.075,3.433-1.846a6.336,6.336,0,0,0-.06-2.229c-.355-3.305-1.015-9.457,2.965-15.216a15.889,15.889,0,0,1-10.3-3.969,13.236,13.236,0,0,1-3.585-5.289.182.182,0,0,1,.014-.14.184.184,0,0,1,.11-.09.181.181,0,0,1,.054-.008.184.184,0,0,1,.174.13,13.087,13.087,0,0,0,3.5,5.139c2.816,2.579,6.567,3.887,11.147,3.887a25.968,25.968,0,0,0,3.426-.235,14.424,14.424,0,0,0,10.817-6.814C49.9,15.266,49.579,7.86,49.28,6.959A20.878,20.878,0,0,0,47.417,2.9c-.949-1.54-1.917-2.41-2.8-2.517A1.559,1.559,0,0,0,44.43.367c-.738,0-1.453.538-2.124,1.6C40.265,5.292,37.884,7.124,35.6,7.124a4.332,4.332,0,0,1-.484-.027,4.825,4.825,0,0,1-2.847-1.438,9.5,9.5,0,0,1-2.124-3.4c-1.718,7.279-6.845,8.316-6.9,8.326a.185.185,0,0,1-.034,0,.181.181,0,0,1-.177-.14C22.99,10.251,21.837,5.748,17.657,5.748Z" transform="translate(122.52 80.684)"/><path class="b" d="M0,0S3.9,5.809,6.759,4.88l1.21-2.274S2.677,2.134,0,0" transform="translate(146.426 106.582)"/><path class="b" d="M25.942,43.828s2.683-4.9,1.753-7.244-3.083-1.752-2.967-2.074,3.374-6.543-1.1-8.42-5.061-4.719-3.374-6.542-.407-8.045-3.606-8.688-4.6-1.5-4.421-3.379S3.322-2.228,1.112.615A4.449,4.449,0,0,0,2.275,7.426c1.919,1.18,3.316,5.524-.174,7.616S.356,29.576,8.849,33.438,18.5,43.828,18.5,43.828Z" transform="translate(0.996 141.445)"/><path class="b" d="M25.784,44.825h-7.34a.185.185,0,0,1-.181-.153c-.051-.269-1.351-6.631-9.425-10.4C3.444,31.745.7,25.527.425,20.816c-.155-2.7.494-4.768,1.735-5.534a4.009,4.009,0,0,0,2.025-3.53A4.834,4.834,0,0,0,2.331,7.871,5.031,5.031,0,0,1,.07,4.59,4.925,4.925,0,0,1,1.135.695,1.826,1.826,0,0,1,2.683,0,4.848,4.848,0,0,1,4.4.377a18.424,18.424,0,0,1,5.34,3.628c1.352,1.265,2.769,2.922,2.692,3.781-.153,1.687.99,2.562,4.217,3.23,1.188.246,2.91,1.56,3.856,4.454.786,2.4.413,3.985-.2,4.664a2.884,2.884,0,0,0-.747,2.585c.315,1.445,1.74,2.78,4.012,3.758A3.771,3.771,0,0,1,25.692,28.6c.431,1.107.63,3.134-.871,6.5l-.008.018.1.014.055.008a3.018,3.018,0,0,1,2.72,2.077c.939,2.427-1.629,7.3-1.739,7.5A.185.185,0,0,1,25.784,44.825ZM2.676.364A1.473,1.473,0,0,0,1.427.918,4.571,4.571,0,0,0,.433,4.524,4.663,4.663,0,0,0,2.527,7.559a5.147,5.147,0,0,1,2.026,4.195,4.421,4.421,0,0,1-2.2,3.843C1.23,16.29.646,18.233.792,20.8c.265,4.6,2.944,10.678,8.2,13.136a18.306,18.306,0,0,1,7.986,6.808,12.606,12.606,0,0,1,1.615,3.714h7.078c.419-.82,2.473-5.019,1.67-7.1a2.66,2.66,0,0,0-2.421-1.845h-.006c-.254-.033-.407-.053-.483-.179a.238.238,0,0,1-.02-.207c.008-.024.03-.075.073-.169,1.45-3.253,1.271-5.177.865-6.217a3.413,3.413,0,0,0-1.927-1.923C21.039,25.79,19.538,24.362,19.2,22.8a3.241,3.241,0,0,1,.832-2.912c.68-.756.727-2.444.121-4.3-.561-1.716-1.836-3.848-3.58-4.208-2.931-.607-4.708-1.425-4.509-3.625.11-1.213-4.3-5.672-7.8-7.031A4.532,4.532,0,0,0,2.676.364Z" transform="translate(0.996 141.445)"/><path class="h" d="M.229,26.355C.22,26.134-.8,12.883,1.55,10.9S4.862,6.979,3.205,4.3s5.286-7.836,7.236-.59c.4,2.093-.86,4.186,1.721,5.045s3.844,3.005,1.664,4.079-2.352,2.523-1.377,3.6,3.844,7.138.114,8.91-4.589,17.5-4.589,17.5H3.844S.36,29.308.229,26.355" transform="translate(21.914 143.438)"/><path class="b" d="M3.636,29.883S8.959,23.42,12.23,23.34s5.515-5.237,3.976-7.083c1.6-2.42,9.3-1.465,8.658-5.858S19.477,3.266,15.5,6.259C12.358,5.3,13.249-.363,10.4.018S6.586,5.113,7.035,7.787C2.609,8.615-.4,14.474.044,19.886" transform="translate(27.891 156.387)"/><path class="b" d="M3.765,29.883a.185.185,0,0,1-.116-.041.182.182,0,0,1-.026-.257c.216-.264,5.336-6.45,8.605-6.529,1.138-.028,2.705-.827,3.693-2.984.674-1.473.71-2.966.088-3.714A.183.183,0,0,1,16,16.14c.666-1.008,2.259-1.436,3.945-1.888,2.417-.649,4.915-1.319,4.558-3.772a6.071,6.071,0,0,0-3.609-4.79,5.275,5.275,0,0,0-5.324.821.184.184,0,0,1-.164.029c-1.613-.491-2.2-2.155-2.718-3.623C12.094,1.24,11.667.22,10.453.383A2.823,2.823,0,0,0,8.559,1.606,9.161,9.161,0,0,0,7.3,7.846a.183.183,0,0,1-.148.209C3.1,8.814-.046,14.307.41,19.81a.184.184,0,0,1-.366.03,14.017,14.017,0,0,1,1.665-7.777,8.2,8.2,0,0,1,5.2-4.332A9.548,9.548,0,0,1,8.264,1.389,3.173,3.173,0,0,1,10.4.021C11.979-.193,12.489,1.26,13.032,2.8c.5,1.424,1.02,2.9,2.39,3.366a5.687,5.687,0,0,1,5.609-.811,6.437,6.437,0,0,1,3.833,5.075c.4,2.774-2.374,3.52-4.825,4.177-1.552.417-3.022.811-3.658,1.632a4.2,4.2,0,0,1-.124,3.986c-.694,1.516-2.113,3.151-4.018,3.2-3.1.076-8.278,6.333-8.33,6.4a.183.183,0,0,1-.142.067" transform="translate(27.891 156.387)"/><path class="h" d="M17.57,13.031s-.094-.752,1.031-3.384a3.513,3.513,0,0,0-4.186-4.842c-.3-2.115-2.748-2.962-4.763-2.069S8.2-.225,4.592.01,1.406,5.04,2.952,7.3C.234,6.4.094,8.284.094,8.284-.75,13.6,4.264,14.63,8.481,12.89s7.355,4.043,7.355,4.043l4.085-.283" transform="translate(0 168.34)"/><path class="h" d="M.174,10.685C.111,9.228-1.075.323,3.733.516c2.061.192,1.561,3.01,1.561,3.01S5.231-.573,7.355.068s1.9,2.844.671,4.563c4.011,2.931.543,3.507.543,3.507L5.731,10.957Z" transform="translate(29.883 175.313)"/><path class="b" d="M0,0,.355,1H1.992Q1.8.5,1.617,0Z" transform="translate(14.941 190.254)"/><path class="b" d="M20.918,0H0Q.2.5.412,1H20.442Z" transform="translate(16.934 190.254)"/><path class="b" d="M21.238,1H.609A.2.2,0,0,1,.444.918C.3.687.155.449.017.211A.123.123,0,0,1,.03.068.2.2,0,0,1,.185,0H21.729a.2.2,0,0,1,.159.073.122.122,0,0,1,0,.148l-.489.7A.2.2,0,0,1,21.238,1ZM.477.3C.555.426.638.565.724.7H21.13L21.413.3Z" transform="translate(15.938 190.254)"/><path class="b" d="M1.553.105s-4.3,1.232,1.417,1.717A105.887,105.887,0,0,0,17.145,1.6S19.065.7,16.9.516,4.317-.231,1.376.105" transform="translate(16.934 199.219)"/><path class="b" d="M21.914,0,16.38,9.961H4.537L0,0Z" transform="translate(14.941 191.25)"/><path class="b" d="M17.032,10.957H4.852a.184.184,0,0,1-.168-.112L.016.272A.2.2,0,0,1,.03.088.184.184,0,0,1,.186,0H22.723a.186.186,0,0,1,.161.095.2.2,0,0,1,0,.191L17.195,10.858A.185.185,0,0,1,17.032,10.957ZM.475.384l4.5,10.189H16.923L22.408.384Z" transform="translate(14.941 190.254)"/><path class="b" d="M0,4.98H26.895V0H0Z" transform="translate(12.949 185.273)"/><path class="b" d="M27.706,4.981H.185A.177.177,0,0,1,0,4.812V.169A.178.178,0,0,1,.185,0H27.706a.178.178,0,0,1,.185.169V4.812A.178.178,0,0,1,27.706,4.981ZM.371.338v4.3H27.52V.338Z" transform="translate(11.953 185.273)"/><path class="b" d="M0,28.887C0,28.557,13.835,0,13.835,0H61.758L44.6,28.887Z" transform="translate(153.398 158.379)"/><path class="b" d="M45.24,29.883H.185A.186.186,0,0,1,0,29.7C0,29.353,9.786,8.888,13.993.105A.186.186,0,0,1,14.16,0H62.569a.187.187,0,0,1,.161.094.191.191,0,0,1,0,.187L45.4,29.791A.186.186,0,0,1,45.24,29.883ZM14.277.372C9.593,10.15,1.412,27.29.455,29.51H45.134L62.245.372Z" transform="translate(152.402 158.379)"/><path class="b" d="M14.5.536,17.93,0,4.264,28.887H0Z" transform="translate(148.418 158.379)"/><path class="b" d="M0,1H75.7V0H0Z" transform="translate(122.52 195.234)"/><path class="b" d="M5.977,2.988A2.988,2.988,0,1,1,2.989,0,2.989,2.989,0,0,1,5.977,2.988" transform="translate(182.285 169.336)"/><path class="b" d="M2.8,13.945h0a.183.183,0,0,1-.181-.185A34.152,34.152,0,0,0,1.369,3.674,16.432,16.432,0,0,0,.026.275.182.182,0,0,1,.09.026.184.184,0,0,1,.341.09,16.318,16.318,0,0,1,1.717,3.554,34.512,34.512,0,0,1,2.984,13.766a.184.184,0,0,1-.184.18" transform="translate(141.445 134.473)"/><path class="b" d="M.051,1.709S-.835,6.065,4.8,7.517s7.087-1,7.15-1.659S11.662,1.916,7.137.776.557-.4.051,1.709" transform="translate(213.164 121.523)"/><path class="b" d="M.126,18.317s-.945-8.066,2.335-9.479,10.62.749,13.372-1.33,8.173-8.4,11.259-7.4-3.67,6.3-5.171,9.052-3.586,7.5-6.756,7.828a8.857,8.857,0,0,0-6.672,4.656c-4.31,1.12-8.79-1.473-8.368-3.326" transform="translate(215.156 106.582)"/><path class="b" d="M6.444,21.914h0A8.34,8.34,0,0,1,.908,19.976a2.031,2.031,0,0,1-.78-1.787A23.268,23.268,0,0,1,.09,13.74c.268-2.756,1.093-4.449,2.454-5.034A9.348,9.348,0,0,1,6.2,8.181c.817,0,1.7.038,2.559.075s1.718.073,2.542.073c1.488,0,3.334-.1,4.4-.908.7-.526,1.62-1.373,2.511-2.193C20.749,2.9,23.9,0,26.229,0a2.439,2.439,0,0,1,.748.113A1.189,1.189,0,0,1,27.853.9C28.171,2.079,26.435,4,24.6,6.031a21.155,21.155,0,0,0-2.618,3.244c-.176.323-.359.669-.552,1.036-1.436,2.726-3.4,6.459-6.255,6.758a8.565,8.565,0,0,0-6.435,4.469.182.182,0,0,1-.122.106A8.686,8.686,0,0,1,6.444,21.914ZM6.237,8.544a9.3,9.3,0,0,0-3.549.495C1.1,9.722.584,12.154.433,14.074a24.244,24.244,0,0,0,.059,4.1.176.176,0,0,1,0,.061,1.675,1.675,0,0,0,.671,1.48,7.95,7.95,0,0,0,5.27,1.838,8.357,8.357,0,0,0,2.006-.24,8.99,8.99,0,0,1,6.7-4.606c2.66-.278,4.573-3.912,5.971-6.565.194-.369.378-.717.554-1.04A21.344,21.344,0,0,1,24.327,5.79C25.94,4.006,27.769,1.983,27.5,1a.842.842,0,0,0-.637-.542,2.057,2.057,0,0,0-.632-.095c-2.19,0-5.416,2.965-7.772,5.13l-.043.04c-.927.851-1.8,1.654-2.5,2.175-1.156.871-3.081.982-4.629.983-.833,0-1.707-.037-2.552-.073H8.708C7.887,8.58,7.039,8.544,6.237,8.544Z" transform="translate(215.156 106.582)"/><path class="b" d="M16.629,4.98H2.3A2.4,2.4,0,0,1,0,2.49,2.4,2.4,0,0,1,2.3,0H16.629a2.4,2.4,0,0,1,2.3,2.49,2.4,2.4,0,0,1-2.3,2.49" transform="translate(230.098 191.25)"/><path class="b" d="M16.934,0V4.507a8.4,8.4,0,0,1-1.077,4.126A8.473,8.473,0,0,1,0,4.507V0Z" transform="translate(231.094 180.293)"/><path class="b" d="M8.964,13.946A9.009,9.009,0,0,1,0,4.912V.191A.19.19,0,0,1,.188,0H17.742a.19.19,0,0,1,.188.191V4.912A9.032,9.032,0,0,1,15.1,11.5,8.906,8.906,0,0,1,8.964,13.946ZM.377.381V4.912a8.63,8.63,0,0,0,8.587,8.653,8.53,8.53,0,0,0,5.879-2.343,8.656,8.656,0,0,0,2.711-6.31V.381Z" transform="translate(230.098 180.293)"/><path class="b" d="M6.675.305A.944.944,0,0,0,5.964,0L5.5.007C4.871.019,3.7.038,2.55.05V2.2c.884-.01,1.784-.022,2.442-.034V7.309a11.238,11.238,0,0,1-3.47.5A8.764,8.764,0,0,1,0,9.918c.468.029.908.043,1.325.043a10.684,10.684,0,0,0,5.128-.973,1.091,1.091,0,0,0,.52-.945V1.073a1.125,1.125,0,0,0-.3-.768" transform="translate(245.039 181.289)"/><path class="b" d="M1.572,9.961c-.427,0-.883-.014-1.394-.042A.185.185,0,0,1,.012,9.8a.175.175,0,0,1,.048-.194A8.325,8.325,0,0,0,1.681,7.619a.194.194,0,0,1,.164-.092,13.909,13.909,0,0,0,3.59-.437V2.451c-.878.012-1.755.022-2.469.029h0a.186.186,0,0,1-.134-.052A.176.176,0,0,1,2.777,2.3V.23A.185.185,0,0,1,2.963.049C4.126.038,5.384.021,6.174.008l.315,0h.075l.118,0h.04a1.263,1.263,0,0,1,.866.345,1.211,1.211,0,0,1,.381.87V7.932A1.206,1.206,0,0,1,7.3,9a12.85,12.85,0,0,1-5.657.959ZM5.621,2.085h0a.205.205,0,0,1,.135.052.177.177,0,0,1,.057.129V7.223A.181.181,0,0,1,5.68,7.4a13.677,13.677,0,0,1-3.722.492A8.7,8.7,0,0,1,.628,9.578c.375.014.641.021.888.021h.129a12.9,12.9,0,0,0,5.477-.914.85.85,0,0,0,.468-.752V1.216a.849.849,0,0,0-.266-.61A.919.919,0,0,0,6.7.363H6.687L6.207.37H6.18C5.537.381,4.352.4,3.154.409V2.116C4.263,2.1,5.047,2.095,5.621,2.085Z" transform="translate(245.039 181.289)"/><path class="b" d="M6.988.326S-9.16,3.119,7.638,2.983,57.773,1.029,57.773,1.029V0Z" transform="translate(63.75 195.234)"/><path class="b" d="M61.573,5.977H.185A.178.178,0,0,1,0,5.806V.171A.178.178,0,0,1,.185,0H61.573a.179.179,0,0,1,.185.171V5.806A.179.179,0,0,1,61.573,5.977ZM.37.341V5.635H61.388V.341Z" transform="translate(15.938 87.656)"/><path class="b" d="M0,23.906H7.969V0H0Z" transform="translate(17.93 63.75)"/><path class="b" d="M7.786,23.906H.183A.182.182,0,0,1,0,23.726V.18A.182.182,0,0,1,.183,0h7.6a.182.182,0,0,1,.183.18V23.726A.182.182,0,0,1,7.786,23.906ZM.366.361V23.546H7.6V.361Z" transform="translate(17.93 63.75)"/><path class="h" d="M0,23.906H7.969V0H0Z" transform="translate(29.883 63.75)"/><path class="b" d="M0,9.961H7.969V0H0Z" transform="translate(42.832 77.695)"/><path class="b" d="M0,9.961H7.969V0H0Z" transform="translate(52.793 77.695)"/><path class="b" d="M6.475,12.949a6.475,6.475,0,1,1,6.475-6.475A6.482,6.482,0,0,1,6.475,12.949Zm0-12.584a6.109,6.109,0,1,0,6.109,6.109A6.116,6.116,0,0,0,6.475.365Z" transform="translate(240.059 156.387)"/><path class="b" d="M4.98,2.491A2.49,2.49,0,1,0,2.49,4.98a2.49,2.49,0,0,0,2.49-2.49" transform="translate(234.082 148.418)"/><path class="b" d="M1.494,2.988A1.494,1.494,0,1,1,2.988,1.494,1.5,1.5,0,0,1,1.494,2.988Zm0-2.637A1.143,1.143,0,1,0,2.638,1.494,1.144,1.144,0,0,0,1.494.351Z" transform="translate(247.031 142.441)"/><path class="b" d="M62.479,51.8H.275A.277.277,0,0,1,0,51.519V.277A.277.277,0,0,1,.275,0H46.014a.276.276,0,0,1,.275.277.276.276,0,0,1-.275.278H.55V51.241H62.2V.277a.275.275,0,1,1,.55,0V51.519a.276.276,0,0,1-.275.277" transform="translate(192.246 16.934)"/><path class="c" d="M2.491,0,0,4.98H4.98Z" transform="translate(230.098 36.855)"/><path class="c" d="M4.8,5.977H.177a.176.176,0,0,1-.149-.089A.214.214,0,0,1,.015,5.7L2.328.114A.176.176,0,0,1,2.49,0a.178.178,0,0,1,.162.114L4.964,5.7a.21.21,0,0,1-.013.185A.176.176,0,0,1,4.8,5.977ZM2.49.665.453,5.589H4.528L2.49.665Z" transform="translate(230.098 35.859)"/><path class="d" d="M12.949,2.279,11.129.326,9.644,2.342,7.687.521,5.325,3.058,3.166,0,0,2.342V29.883H12.949Z" transform="translate(226.113 50.801)"/><path class="d" d="M12.766,30.879H.185A.186.186,0,0,1,0,30.692V2.577a.188.188,0,0,1,.072-.148L3.149.038A.185.185,0,0,1,3.261,0L3.29,0a.179.179,0,0,1,.122.079L5.378,3.006,7.516.593A.184.184,0,0,1,7.646.531h.007a.174.174,0,0,1,.127.052L9.528,2.292,10.847.41a.182.182,0,0,1,.139-.079h.007a.181.181,0,0,1,.141.062L12.9,2.387a.187.187,0,0,1,.047.125v28.18A.186.186,0,0,1,12.766,30.879ZM3.218.455.368,2.669V30.506H12.582V2.583L11.014.816,9.7,2.685a.187.187,0,0,1-.133.078H9.554a.181.181,0,0,1-.127-.053L7.663.986,5.495,3.432a.181.181,0,0,1-.136.063H5.345a.183.183,0,0,1-.14-.082L3.218.455Z" transform="translate(226.113 49.805)"/><path class="c" d="M0,0V1.45c0,4.708,12.949,4.708,12.949,0V0Z" transform="translate(226.113 80.684)"/><path class="b" d="M12.949,8.717v2.444L11.129,9.18,9.644,11.226,7.687,9.377,5.325,11.953l-2.158-3.1L0,11.226V8.717L4.013,0H8.936Z" transform="translate(226.113 41.836)"/><path class="b" d="M0,9.961H12.949V0H0Z" transform="translate(200.215 22.91)"/><path class="b" d="M12.771,10.957H.178A.183.183,0,0,1,0,10.769V.186A.183.183,0,0,1,.178,0H12.771a.183.183,0,0,1,.178.186V10.769A.183.183,0,0,1,12.771,10.957ZM.356.374v10.21H12.593V.374Z" transform="translate(200.215 22.91)"/><path class="c" d="M0,3.445,4.317,7.969l6.641-6.775L9.933,0,4.31,5.79,1.179,2.7Z" transform="translate(202.207 21.914)"/><path class="b" d="M0,9.961H12.949V0H0Z" transform="translate(200.215 37.852)"/><path class="b" d="M12.771,10.957H.178A.182.182,0,0,1,0,10.771V.187A.183.183,0,0,1,.178,0H12.771a.183.183,0,0,1,.178.187V10.771A.182.182,0,0,1,12.771,10.957ZM.356.374v10.21H12.593V.374Z" transform="translate(200.215 36.855)"/><path class="c" d="M0,3.445,4.317,7.969l6.641-6.775L9.933,0,4.31,5.79,1.179,2.7Z" transform="translate(202.207 36.855)"/><path class="b" d="M5.836,0,0,22.91H12.949Z" transform="translate(73.711 4.98)"/><path class="b" d="M27.709,24.9H.182a.18.18,0,0,1-.144-.072.18.18,0,0,1-.032-.157L6.451.136A.181.181,0,0,1,6.627,0H19.854a.184.184,0,0,1,.173.127l7.855,24.536a.186.186,0,0,1-.026.165A.182.182,0,0,1,27.709,24.9ZM6.766.366h0L.417,24.537H27.46L19.722.366H6.766Z" transform="translate(66.738 27.891)"/><path class="b" d="M5.837,0,0,22.91H12.949Z" transform="translate(119.531 4.98)"/><path class="b" d="M27.709,24.9H.182a.18.18,0,0,1-.144-.072.183.183,0,0,1-.032-.157L6.451.136A.181.181,0,0,1,6.627,0H19.854a.183.183,0,0,1,.173.127l7.855,24.536a.189.189,0,0,1-.026.165A.182.182,0,0,1,27.709,24.9ZM6.766.366h0L.418,24.537H27.461L19.723.366H6.766Z" transform="translate(112.559 27.891)"/><path class="b" d="M0,9.961H3.984V0H0Z" transform="translate(77.695)"/><path class="b" d="M3.8,10.957H.186A.186.186,0,0,1,0,10.772V.185A.186.186,0,0,1,.186,0H3.8a.186.186,0,0,1,.186.185V10.772A.186.186,0,0,1,3.8,10.957ZM.374.372V10.585H3.611V.372Z" transform="translate(77.695)"/><path class="b" d="M0,9.961H3.984V0H0Z" transform="translate(123.516)"/><path class="b" d="M3.8,10.957H.186A.186.186,0,0,1,0,10.772V.185A.186.186,0,0,1,.186,0H3.8a.186.186,0,0,1,.186.185V10.772A.186.186,0,0,1,3.8,10.957ZM.374.372V10.585H3.612V.372Z" transform="translate(123.516)"/><path class="b" d="M13.051,16.934H2.588a.184.184,0,0,1-.17-.117A39.765,39.765,0,0,1,.05,1.679.186.186,0,0,1,.227,1.5c.482-.018,11.852-.46,15.39-1.495A.185.185,0,0,1,15.667,0a.181.181,0,0,1,.107.035.189.189,0,0,1,.076.144C16.5,14.31,13.294,16.8,13.157,16.9A.18.18,0,0,1,13.051,16.934ZM15.494.43h0C11.892,1.381,2.3,1.8.408,1.871a36.722,36.722,0,0,0,.879,9.71,37.459,37.459,0,0,0,1.427,4.977H12.984a7.4,7.4,0,0,0,1.6-3.39A43.561,43.561,0,0,0,15.494.43Z" transform="translate(118.535 149.414)"/><path class="b" d="M1.654,4.98,0,1.553,15.938,0,14.148,3.735Z" transform="translate(118.535 150.41)"/><path class="b" d="M1.8,4.981a.184.184,0,0,1-.166-.1L.019,1.7a.175.175,0,0,1,0-.167.185.185,0,0,1,.145-.092L15.735,0h.019A.181.181,0,0,1,15.9.077a.173.173,0,0,1,.014.182L14.171,3.724a.183.183,0,0,1-.148.1L1.82,4.98ZM15.44.39.47,1.775,1.911,4.61,13.883,3.477,15.44.39Z" transform="translate(118.535 150.41)"/><path class="c" d="M.149,7.057S-1.459-2.46,7.9.61C9.05.986,6.335,2.181,6.884,3.816s6.313,9.4,8.335,10.12c2.629,1.341-2.465,4.149-7.1,2.485S-.867,9.242.149,7.057" transform="translate(121.523 114.551)"/><path class="b" d="M11.758,16.934a9.925,9.925,0,0,1-3.193-.511A15.273,15.273,0,0,1,.354,9.3,2.851,2.851,0,0,1,.147,7.062,9.856,9.856,0,0,1,.076,4.829a5.4,5.4,0,0,1,1.679-3.8A4.835,4.835,0,0,1,4.97,0,12.056,12.056,0,0,1,8.457.6a.583.583,0,0,1,.414.339c.081.284-.186.579-.525.951-.489.537-1.1,1.206-.828,1.962.568,1.595,6.542,9.121,8.545,9.788l.022.008c1.026.493.882,1.134.772,1.387a3.049,3.049,0,0,1-1.77,1.321A9.526,9.526,0,0,1,11.758,16.934ZM4.971.365A4.469,4.469,0,0,0,2,1.3C-.106,3.087.5,6.893.527,7.054a.179.179,0,0,1-.015.112A2.46,2.46,0,0,0,.7,9.155a14.855,14.855,0,0,0,7.987,6.923,9.548,9.548,0,0,0,3.069.5c2.408,0,4.4-.866,4.75-1.676.15-.345-.045-.652-.58-.912-2.142-.735-8.175-8.352-8.766-10.01-.341-.958.377-1.747.9-2.324.187-.206.471-.518.445-.612,0-.012-.041-.05-.165-.087A11.638,11.638,0,0,0,4.971.365Z" transform="translate(120.527 114.551)"/><path class="c" d="M.031,12.225C.68,8.391,5,10.93,6.789,6.829A18.467,18.467,0,0,0,8.316.231c.044-.695,1.655.343,2.73.943,2.868,1.6,2.135,7.927.163,9.643S-.62,16.059.031,12.225" transform="translate(142.441 117.539)"/><path class="b" d="M2.26,13.946a3.237,3.237,0,0,1-1.571-.319,1.375,1.375,0,0,1-.656-1.57c.335-1.984,1.631-2.32,3-2.676,1.349-.348,2.744-.708,3.579-2.623A17.77,17.77,0,0,0,8.087.392a.384.384,0,0,1,.2-.339A.477.477,0,0,1,8.52,0a5.634,5.634,0,0,1,2.044.913l.2.117.239.136a4.378,4.378,0,0,1,1.9,3.56c.246,2.384-.5,5.075-1.706,6.125a14.647,14.647,0,0,1-3.867,1.965A16.486,16.486,0,0,1,2.26,13.946ZM8.535.351a.166.166,0,0,0-.079.016c-.01,0-.014.04-.014.047A18.063,18.063,0,0,1,6.943,6.9C6.038,8.977,4.492,9.375,3.128,9.727S.68,10.36.383,12.117a1.033,1.033,0,0,0,.479,1.2,2.8,2.8,0,0,0,1.347.263,18.762,18.762,0,0,0,8.753-3C12.068,9.614,12.78,7,12.548,4.762a4.04,4.04,0,0,0-1.715-3.284c-.126-.071-.26-.148-.4-.227l-.049-.028,0,0A7.1,7.1,0,0,0,8.535.351Z" transform="translate(142.441 117.539)"/><path class="b" d="M8.953,5.977a11.417,11.417,0,0,1-2.2-.208A.279.279,0,0,1,6.57,5.65a.247.247,0,0,1-.036-.191.28.28,0,0,1,.276-.208.3.3,0,0,1,.057.005,10.853,10.853,0,0,0,2.086.2h.085a.273.273,0,0,1,.283.26.252.252,0,0,1-.081.186.29.29,0,0,1-.2.078Zm2.32-.2A.276.276,0,0,1,11,5.561a.244.244,0,0,1,.04-.187.284.284,0,0,1,.188-.116c.113-.019.226-.04.342-.061l.05-.009a.3.3,0,0,1,.056-.005.278.278,0,0,1,.275.21.243.243,0,0,1-.035.188.284.284,0,0,1-.184.12c-.142.027-.278.051-.406.072A.3.3,0,0,1,11.273,5.777ZM4.693,5.094a.306.306,0,0,1-.125-.027,9.013,9.013,0,0,1-1.92-1.2.253.253,0,0,1-.1-.182.247.247,0,0,1,.07-.187.3.3,0,0,1,.4-.024A8.414,8.414,0,0,0,4.817,4.6a.265.265,0,0,1,.143.156.243.243,0,0,1-.017.194A.28.28,0,0,1,4.693,5.094ZM1.34,2.371a.286.286,0,0,1-.23-.112A8.119,8.119,0,0,1,.015.346.248.248,0,0,1,.027.15.271.271,0,0,1,.192.014.305.305,0,0,1,.281,0,.277.277,0,0,1,.547.179,7.611,7.611,0,0,0,1.57,1.959a.245.245,0,0,1,.047.192.257.257,0,0,1-.117.172A.288.288,0,0,1,1.34,2.371Z" transform="translate(210.176 125.508)"/></g></g></g></svg>