<?xml version="1.0" encoding="utf-8"?>
<!-- Generator: Adobe Illustrator 23.1.1, SVG Export Plug-In . SVG Version: 6.00 Build 0)  -->
<svg version="1.1" id="Capa_1" xmlns="http://www.w3.org/2000/svg" xmlns:xlink="http://www.w3.org/1999/xlink" x="0px" y="0px"
	 viewBox="0 0 27 21" style="enable-background:new 0 0 27 21;" xml:space="preserve">
<style type="text/css">
	.st0{fill:none;}
	.st1{filter:url(#Adobe_OpacityMaskFilter);}
	.st2{fill-rule:evenodd;clip-rule:evenodd;fill:#FFFFFF;}
	.st3{mask:url(#mask-2_2_);}
	.st4{fill:#00A9E0;}
</style>
<title>facturaweb</title>
<desc>Created with Sketch.</desc>
<g id="Page-1">
	<g transform="translate(-389.000000, -1452.000000)">
		<g id="Group-2" transform="translate(0.000000, 1050.000000)">
			<g id="facturaweb" transform="translate(389.000000, 402.000000)">
				<polygon id="Clip_2-2" class="st0" points="0,0 27,0 27,20 0,20 				"/>
				<g id="Group_3-2-Clipped">
					<g id="Clip_2">
					</g>
					<defs>
						<filter id="Adobe_OpacityMaskFilter" filterUnits="userSpaceOnUse" x="0" y="0" width="27" height="20.4">
							<feColorMatrix  type="matrix" values="1 0 0 0 0  0 1 0 0 0  0 0 1 0 0  0 0 0 1 0"/>
						</filter>
					</defs>
					<mask maskUnits="userSpaceOnUse" x="0" y="0" width="27" height="20.4" id="mask-2_2_">
						<g class="st1">
							<polygon id="path-1_2_" class="st2" points="0,0 27,0 27,20.4 0,20.4 							"/>
						</g>
					</mask>
					<g id="Group_3-2" class="st3">
						<g id="Fill_1" transform="translate(-0.675000, 0.000000)">
							<path class="st4" d="M26.9,20.4L26.9,20.4l-25.4,0c-0.4,0-0.8-0.3-0.8-0.7s0.3-0.7,0.8-0.7l25.4,0c0.4,0,0.7,0.3,0.7,0.7
								S27.3,20.4,26.9,20.4L26.9,20.4z M22.9,17.5l-17.5,0c-1.3,0.1-2.6-0.4-3.5-1.2c-0.8-0.9-1.3-2.1-1.2-3.3V4.5
								C0.7,1.6,2.3,0,5.4,0l17.5,0c3,0,4.7,1.6,4.7,4.5v8.4c0.1,1.2-0.3,2.4-1.2,3.3C25.5,17.1,24.2,17.6,22.9,17.5L22.9,17.5z
								 M5.4,1.5C4.5,1.4,3.6,1.7,3,2.3C2.4,2.9,2.1,3.7,2.2,4.5v8.4c0,2.1,1,3.1,3.2,3.1l17.5,0c2.2,0,3.2-1,3.2-3.1V4.6
								c0.1-0.8-0.2-1.6-0.7-2.3c-0.7-0.6-1.6-0.8-2.4-0.8L5.4,1.5z M17.2,14h-6.1c-0.2,0-0.5-0.1-0.6-0.2c-0.2-0.2-0.3-0.4-0.2-0.6
								c0-0.5,0-8.2,0-8.8c0-0.2,0.1-0.5,0.2-0.6s0.4-0.3,0.6-0.2h3.8c0.2,0,0.3,0.1,0.4,0.2l2.6,2.5c0.1,0.1,0.2,0.2,0.2,0.4v6.6
								c0,0.2-0.1,0.4-0.2,0.6S17.5,14,17.2,14L17.2,14z M14.4,4.6h-3.1c0,1.4,0,7,0,8.3h5.6V7h-1.2c-0.8,0-1.4-0.6-1.4-1.6V5.1
								C14.4,5,14.4,4.8,14.4,4.6L14.4,4.6z M15.2,5.1v0.4c0,0.5,0.2,0.8,0.6,0.8h0.7L15.2,5.1z M16,11.7h-3.6
								c-0.1,0-0.3-0.1-0.3-0.2c-0.1-0.1-0.1-0.3,0-0.4c0.1-0.1,0.2-0.2,0.3-0.2H16c0.2,0,0.4,0.2,0.4,0.4S16.2,11.7,16,11.7
								L16,11.7z M16,10.1h-3.6c-0.2,0-0.4-0.2-0.4-0.4s0.2-0.4,0.4-0.4H16c0.2,0,0.4,0.2,0.4,0.4S16.2,10.1,16,10.1L16,10.1z
								 M16,8.6h-3.6c-0.2,0-0.4-0.2-0.4-0.4c0-0.2,0.2-0.4,0.4-0.4H16c0.2,0,0.4,0.2,0.4,0.4C16.4,8.5,16.2,8.6,16,8.6L16,8.6z"/>
						</g>
					</g>
				</g>
			</g>
		</g>
	</g>
</g>
</svg>
