<?xml version="1.0" encoding="utf-8"?>
<!-- Generator: Adobe Illustrator 23.1.0, SVG Export Plug-In . SVG Version: 6.00 Build 0)  -->
<svg version="1.1" id="Capa_1" xmlns="http://www.w3.org/2000/svg" xmlns:xlink="http://www.w3.org/1999/xlink" x="0px" y="0px"
	 viewBox="0 0 1092.7 297.1" style="enable-background:new 0 0 1092.7 297.1;" xml:space="preserve">
<style type="text/css">
	.st0{fill:none;stroke:#FFFFFF;stroke-width:7;stroke-miterlimit:10;}
	.st1{fill:#FFFFFF;}
	.st2{fill:#E6BF42;}
	.st3{fill:none;stroke:#48A39E;stroke-width:4;stroke-linecap:round;stroke-linejoin:round;stroke-miterlimit:10;}
</style>
<circle class="st0" cx="107.4" cy="184.1" r="100.4"/>
<g>
	<path class="st1" d="M35.1,192h-6.8v-20.2h6.8c1.7,0,3.2,0.2,4.3,0.6s2,1,2.6,1.8c0.6,0.8,1.1,1.8,1.3,3c0.2,1.1,0.4,2.6,0.4,4.5
		s-0.1,3.3-0.3,4.5c-0.2,1.2-0.6,2.3-1.2,3.2c-0.6,0.9-1.5,1.6-2.6,2.1C38.4,191.8,36.9,192,35.1,192z M39.4,184
		c0-0.6,0.1-1.5,0.1-2.6c0-1.1,0-2-0.1-2.7c-0.1-0.7-0.3-1.3-0.6-1.8c-0.3-0.6-0.7-0.9-1.3-1.1c-0.6-0.2-1.4-0.3-2.4-0.3h-2.7v13.1
		h2.7c1.5,0,2.6-0.4,3.2-1.1C38.9,186.7,39.3,185.6,39.4,184z"/>
	<path class="st1" d="M50.9,188.2c0.5,0.4,1.1,0.6,2,0.6c1.8,0,3.5-0.1,4.9-0.2l0.8-0.1l0.1,2.9c-2.3,0.6-4.3,0.8-6.2,0.8
		c-2.2,0-3.9-0.6-4.9-1.8c-1-1.2-1.5-3.1-1.5-5.8c0-5.3,2.2-8,6.6-8c4.3,0,6.5,2.2,6.5,6.7l-0.3,2.8h-8.8
		C50.2,187.2,50.5,187.8,50.9,188.2z M55.3,183.2c0-1.2-0.2-2-0.6-2.5c-0.4-0.5-1-0.7-2-0.7s-1.6,0.2-2,0.7
		c-0.4,0.5-0.6,1.3-0.6,2.5H55.3z"/>
	<path class="st1" d="M72.8,180.8c-2.5-0.3-4.2-0.5-5.2-0.5c-1,0-1.6,0.1-1.9,0.3c-0.3,0.2-0.4,0.5-0.4,0.8c0,0.4,0.2,0.7,0.6,0.8
		s1.4,0.4,3,0.7c1.6,0.3,2.7,0.8,3.4,1.4c0.7,0.7,1,1.7,1,3.2c0,3.2-2,4.8-6,4.8c-1.3,0-2.9-0.2-4.8-0.5l-1-0.2l0.1-3.3
		c2.5,0.3,4.2,0.5,5.1,0.5s1.6-0.1,2-0.3c0.3-0.2,0.5-0.5,0.5-0.8c0-0.4-0.2-0.7-0.6-0.8c-0.4-0.2-1.3-0.4-2.9-0.7
		c-1.5-0.3-2.7-0.7-3.4-1.3c-0.8-0.6-1.1-1.7-1.1-3.3s0.5-2.8,1.6-3.6c1.1-0.8,2.5-1.2,4.1-1.2c1.2,0,2.8,0.2,4.8,0.6l1,0.2
		L72.8,180.8z"/>
	<path class="st1" d="M81.7,176.8c1,0,2.4,0.2,4,0.5l0.8,0.2l-0.1,3.2c-1.6-0.2-2.7-0.2-3.5-0.2c-1.4,0-2.3,0.3-2.7,0.9
		c-0.4,0.6-0.7,1.7-0.7,3.3c0,1.6,0.2,2.7,0.7,3.3c0.4,0.6,1.4,0.9,2.8,0.9l3.5-0.2l0.1,3.2c-2.1,0.4-3.7,0.6-4.9,0.6
		c-2.2,0-3.8-0.6-4.7-1.9c-1-1.2-1.4-3.2-1.4-6s0.5-4.7,1.5-5.9S79.5,176.8,81.7,176.8z"/>
	<path class="st1" d="M90.1,178.8c1.1-1.4,2.8-2,5.3-2c2.5,0,4.2,0.7,5.3,2s1.6,3.3,1.6,5.7c0,5.2-2.3,7.8-6.8,7.8
		c-4.6,0-6.8-2.6-6.8-7.8C88.5,182.1,89.1,180.2,90.1,178.8z M93.2,187.9c0.4,0.7,1.1,1.1,2.2,1.1c1.1,0,1.8-0.4,2.2-1.1
		c0.4-0.7,0.6-1.8,0.6-3.4s-0.2-2.6-0.6-3.3c-0.4-0.7-1.1-1-2.2-1c-1.1,0-1.8,0.3-2.2,1c-0.4,0.7-0.6,1.8-0.6,3.3
		S92.8,187.2,93.2,187.9z"/>
	<path class="st1" d="M109.1,192h-4v-14.9h4v0.8c1.3-0.8,2.6-1.2,3.7-1.2c2,0,3.4,0.6,4.1,1.8c0.8,1.2,1.1,3,1.1,5.4v8.1h-4v-8
		c0-1.3-0.1-2.2-0.4-2.8s-0.9-0.9-1.8-0.9c-0.8,0-1.6,0.1-2.4,0.4l-0.4,0.1V192z"/>
	<path class="st1" d="M122.4,178.8c1.1-1.4,2.8-2,5.3-2c2.5,0,4.2,0.7,5.3,2s1.6,3.3,1.6,5.7c0,5.2-2.3,7.8-6.8,7.8
		c-4.6,0-6.8-2.6-6.8-7.8C120.8,182.1,121.4,180.2,122.4,178.8z M125.5,187.9c0.4,0.7,1.1,1.1,2.2,1.1c1.1,0,1.8-0.4,2.2-1.1
		c0.4-0.7,0.6-1.8,0.6-3.4s-0.2-2.6-0.6-3.3c-0.4-0.7-1.1-1-2.2-1c-1.1,0-1.8,0.3-2.2,1c-0.4,0.7-0.6,1.8-0.6,3.3
		S125.1,187.2,125.5,187.9z"/>
	<path class="st1" d="M143,176.8c1,0,2.4,0.2,4,0.5l0.8,0.2l-0.1,3.2c-1.6-0.2-2.7-0.2-3.5-0.2c-1.4,0-2.3,0.3-2.7,0.9
		c-0.4,0.6-0.7,1.7-0.7,3.3c0,1.6,0.2,2.7,0.7,3.3c0.4,0.6,1.4,0.9,2.8,0.9l3.5-0.2l0.1,3.2c-2.1,0.4-3.7,0.6-4.9,0.6
		c-2.2,0-3.8-0.6-4.7-1.9c-1-1.2-1.4-3.2-1.4-6s0.5-4.7,1.5-5.9S140.8,176.8,143,176.8z"/>
	<path class="st1" d="M150.7,175.2v-4h4v4H150.7z M150.7,192v-14.9h4V192H150.7z"/>
	<path class="st1" d="M171.1,171.2V192h-4v-0.6c-1.4,0.7-2.6,1-3.6,1c-2.2,0-3.7-0.6-4.5-1.9s-1.3-3.2-1.3-5.9
		c0-2.7,0.5-4.7,1.5-5.9c1-1.2,2.6-1.9,4.6-1.9c0.6,0,1.5,0.1,2.6,0.3l0.6,0.1v-6H171.1z M166.7,188.4l0.4-0.1v-7.8
		c-1.1-0.2-2.1-0.3-2.9-0.3c-1.6,0-2.4,1.4-2.4,4.3c0,1.5,0.2,2.7,0.5,3.3s0.9,1,1.8,1C164.9,188.8,165.8,188.7,166.7,188.4z"/>
	<path class="st1" d="M175.6,178.8c1.1-1.4,2.8-2,5.3-2c2.5,0,4.2,0.7,5.3,2s1.6,3.3,1.6,5.7c0,5.2-2.3,7.8-6.8,7.8
		c-4.6,0-6.8-2.6-6.8-7.8C174,182.1,174.5,180.2,175.6,178.8z M178.7,187.9c0.4,0.7,1.1,1.1,2.2,1.1c1.1,0,1.8-0.4,2.2-1.1
		c0.4-0.7,0.6-1.8,0.6-3.4s-0.2-2.6-0.6-3.3c-0.4-0.7-1.1-1-2.2-1c-1.1,0-1.8,0.3-2.2,1c-0.4,0.7-0.6,1.8-0.6,3.3
		S178.2,187.2,178.7,187.9z"/>
</g>
<g>
	<path class="st2" d="M146.9,40.8l5.7-25.5h9.8l5.7,25.5H163l-1-4.6h-8.9l-1,4.6H146.9z M156.7,19.6l-2.6,12.1h7l-2.6-12.1H156.7z"
		/>
	<path class="st2" d="M167.9,19.9v-4.6h18.7v4.6h-6.7v20.9h-5.2V19.9H167.9z"/>
	<path class="st2" d="M195.1,32.2v8.5h-5.2V15.3h9.9c6,0,9,2.8,9,8.4c0,3.3-1.2,5.8-3.7,7.3l3.6,9.7H203l-3-8.5H195.1z M202.6,26.7
		c0.6-0.7,0.9-1.7,0.9-3c0-1.2-0.3-2.2-1-2.9c-0.6-0.7-1.6-1.1-2.8-1.1h-4.7v8.1h4.8C201.1,27.8,202,27.4,202.6,26.7z"/>
	<path class="st2" d="M210.7,40.8l5.7-25.5h9.8l5.7,25.5h-5.2l-1-4.6h-8.9l-1,4.6H210.7z M220.5,19.6l-2.6,12.1h7l-2.6-12.1H220.5z"
		/>
	<path class="st2" d="M235.4,40.8V15.3h16.5v4.5h-11.3v6h9.1v4.4h-9.1v6.1h11.3v4.5H235.4z"/>
	<path class="st2" d="M261.3,32.2v8.5h-5.2V15.3h9.9c6,0,9,2.8,9,8.4c0,3.3-1.2,5.8-3.7,7.3l3.6,9.7h-5.7l-3-8.5H261.3z M268.9,26.7
		c0.6-0.7,0.9-1.7,0.9-3c0-1.2-0.3-2.2-1-2.9c-0.6-0.7-1.6-1.1-2.8-1.1h-4.7v8.1h4.8C267.4,27.8,268.3,27.4,268.9,26.7z"/>
</g>
<g>
	<path class="st2" d="M358,40.4c-2.6,0.6-5,0.9-7.2,0.9s-3.8-0.3-5.1-0.8c-1.3-0.5-2.3-1.4-3-2.5c-0.7-1.1-1.2-2.5-1.5-4
		c-0.3-1.5-0.4-3.5-0.4-5.8c0-4.9,0.7-8.3,2.1-10.3c1.4-1.9,3.9-2.9,7.7-2.9c2.1,0,4.6,0.3,7.5,1l-0.1,4.1c-2.5-0.4-4.5-0.6-6.2-0.6
		c-1.6,0-2.8,0.2-3.5,0.7s-1.2,1.3-1.6,2.5c-0.3,1.2-0.5,3.3-0.5,6.3c0,2.9,0.3,5,1,6.1c0.7,1.1,2.1,1.7,4.1,1.7
		c2.1,0,4.3-0.2,6.6-0.5L358,40.4z"/>
	<path class="st2" d="M379.6,38.1c-1.6,2.1-4.3,3.2-8.2,3.2s-6.6-1.1-8.2-3.2c-1.6-2.1-2.4-5.4-2.4-9.9s0.8-7.8,2.4-10
		c1.6-2.2,4.3-3.3,8.2-3.3s6.6,1.1,8.2,3.3c1.6,2.2,2.4,5.5,2.4,10S381.2,36,379.6,38.1z M367.2,34.8c0.7,1.3,2.1,2,4.1,2
		s3.4-0.7,4.1-2c0.7-1.3,1.1-3.5,1.1-6.6c0-3.1-0.4-5.3-1.1-6.7c-0.8-1.4-2.1-2.1-4.1-2.1s-3.4,0.7-4.1,2.1s-1.1,3.6-1.1,6.7
		C366.1,31.3,366.5,33.5,367.2,34.8z"/>
	<path class="st2" d="M386.4,40.8V15.3h8.7l6.1,21h0.4v-21h5.2v25.5h-8.5l-6.4-21h-0.4v21H386.4z"/>
	<path class="st2" d="M426.1,15.3h5.4l-5.9,25.5h-9.6l-5.9-25.5h5.4l4.4,21h1.7L426.1,15.3z"/>
	<path class="st2" d="M434.9,40.8V15.3h16.5v4.5h-11.3v6h9.1v4.4h-9.1v6.1h11.3v4.5H434.9z"/>
	<path class="st2" d="M460.9,32.2v8.5h-5.2V15.3h9.9c6,0,9,2.8,9,8.4c0,3.3-1.2,5.8-3.7,7.3l3.6,9.7h-5.7l-3-8.5H460.9z M468.4,26.7
		c0.6-0.7,0.9-1.7,0.9-3c0-1.2-0.3-2.2-1-2.9c-0.6-0.7-1.6-1.1-2.8-1.1h-4.7v8.1h4.8C466.9,27.8,467.8,27.4,468.4,26.7z"/>
	<path class="st2" d="M476.6,19.9v-4.6h18.7v4.6h-6.7v20.9h-5.2V19.9H476.6z"/>
	<path class="st2" d="M498.6,40.8V15.3h5.2v25.5H498.6z"/>
	<path class="st2" d="M514.5,32.2v8.5h-5.2V15.3h9.9c6,0,9,2.8,9,8.4c0,3.3-1.2,5.8-3.7,7.3l3.6,9.7h-5.7l-3-8.5H514.5z M522,26.7
		c0.6-0.7,0.9-1.7,0.9-3c0-1.2-0.3-2.2-1-2.9c-0.6-0.7-1.6-1.1-2.8-1.1h-4.7v8.1h4.8C520.5,27.8,521.4,27.4,522,26.7z"/>
</g>
<g>
	<path class="st2" d="M608.3,40.4c-2.6,0.6-5,0.9-7.2,0.9s-3.8-0.3-5.1-0.8c-1.3-0.5-2.3-1.4-3-2.5c-0.7-1.1-1.2-2.5-1.5-4
		c-0.3-1.5-0.4-3.5-0.4-5.8c0-4.9,0.7-8.3,2.1-10.3c1.4-1.9,3.9-2.9,7.7-2.9c2.1,0,4.6,0.3,7.5,1l-0.2,4.1c-2.5-0.4-4.5-0.6-6.2-0.6
		c-1.6,0-2.8,0.2-3.5,0.7c-0.7,0.4-1.2,1.3-1.6,2.5c-0.3,1.2-0.5,3.3-0.5,6.3c0,2.9,0.3,5,1,6.1c0.7,1.1,2.1,1.7,4.1,1.7
		s4.3-0.2,6.6-0.5L608.3,40.4z"/>
	<path class="st2" d="M612.5,40.8V15.3H629v4.5h-11.3v6h9.1v4.4h-9.1v6.1H629v4.5H612.5z"/>
	<path class="st2" d="M638.5,32.2v8.5h-5.2V15.3h9.9c6,0,9,2.8,9,8.4c0,3.3-1.2,5.8-3.7,7.3l3.6,9.7h-5.7l-3-8.5H638.5z M646,26.7
		c0.6-0.7,0.9-1.7,0.9-3c0-1.2-0.3-2.2-1-2.9c-0.6-0.7-1.6-1.1-2.8-1.1h-4.7v8.1h4.8C644.5,27.8,645.4,27.4,646,26.7z"/>
	<path class="st2" d="M661.7,32.2v8.5h-5.2V15.3h9.9c6,0,9,2.8,9,8.4c0,3.3-1.2,5.8-3.7,7.3l3.6,9.7h-5.7l-3-8.5H661.7z M669.2,26.7
		c0.6-0.7,0.9-1.7,0.9-3c0-1.2-0.3-2.2-1-2.9c-0.6-0.7-1.6-1.1-2.8-1.1h-4.7v8.1h4.8C667.7,27.8,668.6,27.4,669.2,26.7z"/>
	<path class="st2" d="M677.3,40.8l5.7-25.5h9.8l5.7,25.5h-5.2l-1-4.6h-8.9l-1,4.6H677.3z M687.1,19.6l-2.6,12.1h7l-2.6-12.1H687.1z"
		/>
	<path class="st2" d="M707.2,32.2v8.5H702V15.3h9.9c6,0,9,2.8,9,8.4c0,3.3-1.2,5.8-3.7,7.3l3.6,9.7h-5.7l-3-8.5H707.2z M714.7,26.7
		c0.6-0.7,0.9-1.7,0.9-3c0-1.2-0.3-2.2-1-2.9c-0.6-0.7-1.6-1.1-2.8-1.1h-4.7v8.1h4.8C713.2,27.8,714.1,27.4,714.7,26.7z"/>
</g>
<g>
	<path class="st2" d="M800.2,40.8h-8.6V15.3h8.6c2.2,0,4,0.2,5.4,0.7c1.4,0.5,2.5,1.2,3.3,2.3c0.8,1.1,1.3,2.3,1.6,3.7
		c0.3,1.4,0.4,3.3,0.4,5.6c0,2.3-0.1,4.2-0.4,5.7c-0.3,1.5-0.8,2.9-1.6,4c-0.8,1.2-1.9,2-3.3,2.6C804.3,40.5,802.4,40.8,800.2,40.8z
		 M805.6,30.7c0-0.8,0.1-1.9,0.1-3.3c0-1.4,0-2.5-0.1-3.4c-0.1-0.8-0.3-1.6-0.7-2.3c-0.4-0.7-0.9-1.2-1.7-1.4
		c-0.7-0.3-1.7-0.4-3-0.4h-3.4v16.5h3.4c1.9,0,3.2-0.5,4.1-1.4C805,34.1,805.4,32.7,805.6,30.7z"/>
	<path class="st2" d="M815.5,40.8V15.3H832v4.5h-11.3v6h9.1v4.4h-9.1v6.1H832v4.5H815.5z"/>
	<path class="st2" d="M850.7,40.8h-14.5V15.3h5.2v20.9h9.3V40.8z"/>
	<path class="st2" d="M853.9,40.8V15.3h16.5v4.5h-11.3v6h9.1v4.4h-9.1v6.1h11.3v4.5H853.9z"/>
	<path class="st2" d="M874.7,40.8V15.3h5.2v25.5H874.7z"/>
	<path class="st2" d="M883.1,19.9v-4.6h18.7v4.6h-6.7v20.9h-5.2V19.9H883.1z"/>
	<path class="st2" d="M901.6,40.8l5.7-25.5h9.8l5.7,25.5h-5.2l-1-4.6h-8.9l-1,4.6H901.6z M911.3,19.6l-2.6,12.1h7l-2.6-12.1H911.3z"
		/>
	<path class="st2" d="M931.5,32.2v8.5h-5.2V15.3h9.9c6,0,9,2.8,9,8.4c0,3.3-1.2,5.8-3.7,7.3l3.6,9.7h-5.7l-3-8.5H931.5z M939,26.7
		c0.6-0.7,0.9-1.7,0.9-3c0-1.2-0.3-2.2-1-2.9c-0.6-0.7-1.6-1.1-2.8-1.1h-4.7v8.1h4.8C937.5,27.8,938.4,27.4,939,26.7z"/>
</g>
<polyline class="st3" points="196.9,254 234.8,254 221.1,240.3 "/>
<line class="st3" x1="234.8" y1="254" x2="221.1" y2="267.7"/>
<circle class="st0" cx="327.2" cy="184.1" r="100.4"/>
<g>
	<path class="st1" d="M282.4,171.8h4.3L282,192h-7.6l-4.7-20.2h4.3l3.5,16.7h1.3L282.4,171.8z"/>
	<path class="st1" d="M289,175.2v-4h4v4H289z M289,192v-14.9h4V192H289z"/>
	<path class="st1" d="M307.4,180.8c-2.5-0.3-4.2-0.5-5.2-0.5c-1,0-1.6,0.1-1.9,0.3c-0.3,0.2-0.4,0.5-0.4,0.8c0,0.4,0.2,0.7,0.6,0.8
		s1.4,0.4,3,0.7c1.6,0.3,2.7,0.8,3.4,1.4c0.7,0.7,1,1.7,1,3.2c0,3.2-2,4.8-6,4.8c-1.3,0-2.9-0.2-4.8-0.5l-1-0.2l0.1-3.3
		c2.5,0.3,4.2,0.5,5.1,0.5s1.6-0.1,2-0.3c0.3-0.2,0.5-0.5,0.5-0.8c0-0.4-0.2-0.7-0.6-0.8c-0.4-0.2-1.3-0.4-2.9-0.7
		c-1.5-0.3-2.7-0.7-3.4-1.3c-0.8-0.6-1.1-1.7-1.1-3.3s0.5-2.8,1.6-3.6c1.1-0.8,2.5-1.2,4.1-1.2c1.2,0,2.8,0.2,4.8,0.6l1,0.2
		L307.4,180.8z"/>
	<path class="st1" d="M310.7,175.2v-4h4v4H310.7z M310.7,192v-14.9h4V192H310.7z"/>
	<path class="st1" d="M326.7,180.5H323v6.1c0,0.6,0,1,0,1.3c0,0.2,0.1,0.5,0.3,0.6c0.2,0.2,0.5,0.3,0.9,0.3l2.3-0.1l0.2,3.2
		c-1.3,0.3-2.3,0.4-3,0.4c-1.8,0-3-0.4-3.7-1.2c-0.7-0.8-1-2.3-1-4.5v-6.2h-1.8v-3.4h1.8V173h4v4.1h3.7V180.5z"/>
	<path class="st1" d="M340.7,181.8v6.2c0,0.5,0.1,0.8,0.2,1s0.4,0.3,0.7,0.4l-0.1,3c-1,0-1.8-0.1-2.4-0.2c-0.6-0.1-1.2-0.4-1.8-0.8
		c-1.4,0.7-2.9,1-4.4,1c-3.1,0-4.6-1.6-4.6-4.9c0-1.6,0.4-2.7,1.3-3.4c0.9-0.7,2.2-1.1,3.9-1.2l3.2-0.2v-0.9c0-0.6-0.1-1-0.4-1.3
		c-0.3-0.2-0.7-0.3-1.3-0.3l-5.6,0.2l-0.1-2.8c2.1-0.6,4.1-0.9,6.1-0.9s3.3,0.4,4.1,1.2C340.2,178.7,340.7,180,340.7,181.8z
		 M334,185.7c-1.1,0.1-1.7,0.7-1.7,1.8s0.5,1.6,1.5,1.6c0.8,0,1.6-0.1,2.5-0.4l0.4-0.1v-3.2L334,185.7z"/>
	<path class="st1" d="M348.5,192h-4v-14.9h4v0.8c1.3-0.8,2.6-1.2,3.7-1.2c2,0,3.4,0.6,4.1,1.8c0.8,1.2,1.1,3,1.1,5.4v8.1h-4v-8
		c0-1.3-0.1-2.2-0.4-2.8s-0.9-0.9-1.8-0.9c-0.8,0-1.6,0.1-2.4,0.4l-0.4,0.1V192z"/>
	<path class="st1" d="M369.2,180.5h-3.7v6.1c0,0.6,0,1,0,1.3c0,0.2,0.1,0.5,0.3,0.6c0.2,0.2,0.5,0.3,0.9,0.3l2.3-0.1l0.2,3.2
		c-1.3,0.3-2.3,0.4-3,0.4c-1.8,0-3-0.4-3.7-1.2c-0.7-0.8-1-2.3-1-4.5v-6.2h-1.8v-3.4h1.8V173h4v4.1h3.7V180.5z"/>
	<path class="st1" d="M375.8,188.2c0.5,0.4,1.1,0.6,2,0.6c1.8,0,3.5-0.1,4.9-0.2l0.8-0.1l0.1,2.9c-2.3,0.6-4.3,0.8-6.2,0.8
		c-2.2,0-3.9-0.6-4.9-1.8c-1-1.2-1.5-3.1-1.5-5.8c0-5.3,2.2-8,6.6-8c4.3,0,6.5,2.2,6.5,6.7l-0.3,2.8h-8.8
		C375.1,187.2,375.3,187.8,375.8,188.2z M380.2,183.2c0-1.2-0.2-2-0.6-2.5c-0.4-0.5-1-0.7-2-0.7s-1.6,0.2-2,0.7
		c-0.4,0.5-0.6,1.3-0.6,2.5H380.2z"/>
</g>
<polyline class="st3" points="416.7,254 454.5,254 440.8,240.3 "/>
<line class="st3" x1="454.5" y1="254" x2="440.8" y2="267.7"/>
<circle class="st0" cx="546.9" cy="184.1" r="100.4"/>
<g>
	<path class="st1" d="M530.2,192h-11.5v-20.2h4.1v16.6h7.4V192z"/>
	<path class="st1" d="M536.4,188.2c0.5,0.4,1.1,0.6,2,0.6c1.8,0,3.5-0.1,4.9-0.2l0.8-0.1l0.1,2.9c-2.3,0.6-4.3,0.8-6.2,0.8
		c-2.2,0-3.9-0.6-4.9-1.8c-1-1.2-1.5-3.1-1.5-5.8c0-5.3,2.2-8,6.6-8c4.3,0,6.5,2.2,6.5,6.7l-0.3,2.8h-8.8
		C535.7,187.2,536,187.8,536.4,188.2z M540.8,183.2c0-1.2-0.2-2-0.6-2.5c-0.4-0.5-1-0.7-2-0.7s-1.6,0.2-2,0.7
		c-0.4,0.5-0.6,1.3-0.6,2.5H540.8z"/>
	<path class="st1" d="M559,181.8v6.2c0,0.5,0.1,0.8,0.2,1s0.4,0.3,0.7,0.4l-0.1,3c-1,0-1.8-0.1-2.4-0.2s-1.2-0.4-1.8-0.8
		c-1.4,0.7-2.9,1-4.4,1c-3.1,0-4.6-1.6-4.6-4.9c0-1.6,0.4-2.7,1.3-3.4c0.9-0.7,2.2-1.1,3.9-1.2l3.2-0.2v-0.9c0-0.6-0.1-1-0.4-1.3
		c-0.3-0.2-0.7-0.3-1.3-0.3l-5.6,0.2l-0.1-2.8c2.1-0.6,4.1-0.9,6.1-0.9c1.9,0,3.3,0.4,4.1,1.2S559,180,559,181.8z M552.3,185.7
		c-1.1,0.1-1.7,0.7-1.7,1.8s0.5,1.6,1.5,1.6c0.8,0,1.6-0.1,2.5-0.4l0.4-0.1v-3.2L552.3,185.7z"/>
	<path class="st1" d="M575.5,171.2V192h-4v-0.6c-1.4,0.7-2.6,1-3.6,1c-2.2,0-3.7-0.6-4.5-1.9s-1.3-3.2-1.3-5.9
		c0-2.7,0.5-4.7,1.5-5.9c1-1.2,2.6-1.9,4.6-1.9c0.6,0,1.5,0.1,2.6,0.3l0.6,0.1v-6H575.5z M571.1,188.4l0.4-0.1v-7.8
		c-1.1-0.2-2.1-0.3-2.9-0.3c-1.6,0-2.4,1.4-2.4,4.3c0,1.5,0.2,2.7,0.5,3.3s0.9,1,1.8,1C569.3,188.8,570.2,188.7,571.1,188.4z"/>
</g>
<polyline class="st3" points="636.4,254 674.3,254 660.6,240.3 "/>
<line class="st3" x1="674.3" y1="254" x2="660.6" y2="267.7"/>
<circle class="st0" cx="766.7" cy="184.1" r="100.4"/>
<g>
	<path class="st1" d="M736.9,191.7c-2.1,0.5-4,0.7-5.7,0.7c-1.7,0-3-0.2-4-0.6c-1-0.4-1.8-1.1-2.4-2c-0.6-0.9-1-2-1.2-3.2
		s-0.3-2.8-0.3-4.6c0-3.9,0.6-6.6,1.7-8.2s3.1-2.3,6.1-2.3c1.7,0,3.7,0.3,5.9,0.8l-0.1,3.3c-2-0.3-3.6-0.4-4.9-0.4s-2.2,0.2-2.8,0.5
		c-0.6,0.3-1,1-1.2,2s-0.4,2.6-0.4,5c0,2.3,0.3,4,0.8,4.9s1.6,1.4,3.3,1.4s3.4-0.1,5.2-0.4L736.9,191.7z"/>
	<path class="st1" d="M740.1,192v-20.8h4V192H740.1z"/>
	<path class="st1" d="M747.9,175.2v-4h4v4H747.9z M747.9,192v-14.9h4V192H747.9z"/>
	<path class="st1" d="M759.6,188.2c0.5,0.4,1.1,0.6,2,0.6c1.8,0,3.5-0.1,4.9-0.2l0.8-0.1l0.1,2.9c-2.3,0.6-4.3,0.8-6.2,0.8
		c-2.2,0-3.9-0.6-4.9-1.8c-1-1.2-1.5-3.1-1.5-5.8c0-5.3,2.2-8,6.6-8c4.3,0,6.5,2.2,6.5,6.7l-0.3,2.8h-8.8
		C758.9,187.2,759.2,187.8,759.6,188.2z M764,183.2c0-1.2-0.2-2-0.6-2.5c-0.4-0.5-1-0.7-2-0.7c-0.9,0-1.6,0.2-2,0.7
		s-0.6,1.3-0.6,2.5H764z"/>
	<path class="st1" d="M774.8,192h-4v-14.9h4v0.8c1.3-0.8,2.6-1.2,3.7-1.2c2,0,3.4,0.6,4.1,1.8c0.8,1.2,1.1,3,1.1,5.4v8.1h-4v-8
		c0-1.3-0.1-2.2-0.4-2.8s-0.9-0.9-1.8-0.9c-0.8,0-1.6,0.1-2.4,0.4l-0.4,0.1V192z"/>
	<path class="st1" d="M795.5,180.5h-3.7v6.1c0,0.6,0,1,0,1.3c0,0.2,0.1,0.5,0.3,0.6c0.2,0.2,0.5,0.3,0.9,0.3l2.3-0.1l0.2,3.2
		c-1.3,0.3-2.3,0.4-3,0.4c-1.8,0-3-0.4-3.7-1.2s-1-2.3-1-4.5v-6.2h-1.8v-3.4h1.8V173h4v4.1h3.7V180.5z"/>
	<path class="st1" d="M802.1,188.2c0.5,0.4,1.1,0.6,2,0.6c1.8,0,3.5-0.1,4.9-0.2l0.8-0.1l0.1,2.9c-2.3,0.6-4.3,0.8-6.2,0.8
		c-2.2,0-3.9-0.6-4.9-1.8c-1-1.2-1.5-3.1-1.5-5.8c0-5.3,2.2-8,6.6-8c4.3,0,6.5,2.2,6.5,6.7l-0.3,2.8h-8.8
		C801.4,187.2,801.6,187.8,802.1,188.2z M806.5,183.2c0-1.2-0.2-2-0.6-2.5c-0.4-0.5-1-0.7-2-0.7c-0.9,0-1.6,0.2-2,0.7
		s-0.6,1.3-0.6,2.5H806.5z"/>
</g>
<polyline class="st3" points="856.2,254 894,254 880.3,240.3 "/>
<line class="st3" x1="894" y1="254" x2="880.3" y2="267.7"/>
<circle class="st0" cx="986.4" cy="184.1" r="100.4"/>
<g>
	<path class="st1" d="M916.5,186.1h-3.3v5.9h-4.1v-20.2h7.4c4.8,0,7.2,2.3,7.2,7c0,2.4-0.6,4.2-1.8,5.4S918.9,186.1,916.5,186.1z
		 M913.2,182.6h3.3c2,0,3.1-1.3,3.1-3.8c0-1.2-0.2-2.1-0.7-2.7s-1.3-0.8-2.3-0.8h-3.3V182.6z"/>
	<path class="st1" d="M926.3,192v-14.9h4v1.6c1.7-1,3.3-1.6,4.8-1.9v4c-1.6,0.3-3,0.7-4.1,1l-0.6,0.2v10H926.3z"/>
	<path class="st1" d="M941.4,188.2c0.5,0.4,1.1,0.6,2,0.6c1.8,0,3.5-0.1,4.9-0.2l0.8-0.1l0.1,2.9c-2.3,0.6-4.3,0.8-6.2,0.8
		c-2.2,0-3.9-0.6-4.9-1.8c-1-1.2-1.5-3.1-1.5-5.8c0-5.3,2.2-8,6.6-8c4.3,0,6.5,2.2,6.5,6.7l-0.3,2.8h-8.8
		C940.7,187.2,940.9,187.8,941.4,188.2z M945.8,183.2c0-1.2-0.2-2-0.6-2.5c-0.4-0.5-1-0.7-2-0.7s-1.6,0.2-2,0.7
		c-0.4,0.5-0.6,1.3-0.6,2.5H945.8z"/>
	<path class="st1" d="M956.5,188.2c0.5,0.4,1.1,0.6,2,0.6c1.8,0,3.5-0.1,4.9-0.2l0.8-0.1l0.1,2.9c-2.3,0.6-4.3,0.8-6.2,0.8
		c-2.2,0-3.9-0.6-4.9-1.8c-1-1.2-1.5-3.1-1.5-5.8c0-5.3,2.2-8,6.6-8c4.3,0,6.5,2.2,6.5,6.7l-0.3,2.8h-8.8
		C955.8,187.2,956.1,187.8,956.5,188.2z M960.9,183.2c0-1.2-0.2-2-0.6-2.5c-0.4-0.5-1-0.7-2-0.7s-1.6,0.2-2,0.7
		c-0.4,0.5-0.6,1.3-0.6,2.5H960.9z"/>
	<path class="st1" d="M978.4,180.8c-2.5-0.3-4.2-0.5-5.2-0.5s-1.6,0.1-1.9,0.3s-0.4,0.5-0.4,0.8c0,0.4,0.2,0.7,0.6,0.8
		c0.4,0.1,1.4,0.4,3,0.7s2.7,0.8,3.4,1.4c0.7,0.7,1,1.7,1,3.2c0,3.2-2,4.8-6,4.8c-1.3,0-2.9-0.2-4.8-0.5l-1-0.2l0.1-3.3
		c2.5,0.3,4.2,0.5,5.1,0.5s1.6-0.1,2-0.3c0.3-0.2,0.5-0.5,0.5-0.8c0-0.4-0.2-0.7-0.6-0.8c-0.4-0.2-1.3-0.4-2.9-0.7
		c-1.5-0.3-2.7-0.7-3.4-1.3c-0.8-0.6-1.1-1.7-1.1-3.3s0.5-2.8,1.6-3.6c1.1-0.8,2.5-1.2,4.1-1.2c1.2,0,2.8,0.2,4.8,0.6l1,0.2
		L978.4,180.8z"/>
	<path class="st1" d="M987.4,176.8c1,0,2.4,0.2,4,0.5l0.8,0.2l-0.1,3.2c-1.6-0.2-2.7-0.2-3.5-0.2c-1.4,0-2.3,0.3-2.7,0.9
		c-0.4,0.6-0.7,1.7-0.7,3.3c0,1.6,0.2,2.7,0.7,3.3c0.4,0.6,1.4,0.9,2.8,0.9l3.5-0.2l0.1,3.2c-2.1,0.4-3.7,0.6-4.9,0.6
		c-2.2,0-3.8-0.6-4.8-1.9c-1-1.2-1.4-3.2-1.4-6s0.5-4.7,1.5-5.9S985.1,176.8,987.4,176.8z"/>
	<path class="st1" d="M995.1,192v-14.9h4v1.6c1.7-1,3.3-1.6,4.8-1.9v4c-1.6,0.3-3,0.7-4.1,1l-0.6,0.2v10H995.1z"/>
	<path class="st1" d="M1006.1,175.2v-4h4v4H1006.1z M1006.1,192v-14.9h4V192H1006.1z"/>
	<path class="st1" d="M1013.8,198.3v-21.1h4v0.8c1.3-0.8,2.4-1.2,3.4-1.2c2,0,3.5,0.6,4.4,1.8c1,1.2,1.4,3.2,1.4,6.1
		c0,2.9-0.5,4.9-1.6,6c-1.1,1.1-2.8,1.7-5.2,1.7c-0.7,0-1.4-0.1-2.1-0.2l-0.4-0.1v6.1H1013.8z M1020.4,180.3c-0.7,0-1.5,0.1-2.2,0.4
		l-0.4,0.1v7.8c0.9,0.1,1.6,0.2,2.2,0.2c1.2,0,1.9-0.3,2.4-1c0.4-0.7,0.6-1.8,0.6-3.5C1023,181.7,1022.1,180.3,1020.4,180.3z"/>
	<path class="st1" d="M1038.3,180.5h-3.7v6.1c0,0.6,0,1,0,1.3c0,0.2,0.1,0.5,0.3,0.6s0.5,0.3,0.9,0.3l2.3-0.1l0.2,3.2
		c-1.3,0.3-2.3,0.4-3,0.4c-1.8,0-3-0.4-3.7-1.2c-0.7-0.8-1-2.3-1-4.5v-6.2h-1.8v-3.4h1.8V173h4v4.1h3.7V180.5z"/>
	<path class="st1" d="M1041.7,178.8c1.1-1.4,2.8-2,5.3-2c2.5,0,4.2,0.7,5.3,2c1.1,1.4,1.6,3.3,1.6,5.7c0,5.2-2.3,7.8-6.8,7.8
		s-6.8-2.6-6.8-7.8C1040.1,182.1,1040.6,180.2,1041.7,178.8z M1044.7,187.9c0.4,0.7,1.1,1.1,2.2,1.1c1.1,0,1.8-0.4,2.2-1.1
		c0.4-0.7,0.6-1.8,0.6-3.4s-0.2-2.6-0.6-3.3c-0.4-0.7-1.1-1-2.2-1c-1.1,0-1.8,0.3-2.2,1c-0.4,0.7-0.6,1.8-0.6,3.3
		S1044.3,187.2,1044.7,187.9z"/>
	<path class="st1" d="M1056.7,192v-14.9h4v1.6c1.7-1,3.3-1.6,4.8-1.9v4c-1.6,0.3-3,0.7-4.1,1l-0.6,0.2v10H1056.7z"/>
</g>
</svg>
