<?xml version="1.0" encoding="UTF-8"?>
<svg width="14px" height="14px" viewBox="0 0 14 14" version="1.1" xmlns="http://www.w3.org/2000/svg" xmlns:xlink="http://www.w3.org/1999/xlink">
    <!-- Generator: Sketch 58 (84663) - https://sketch.com -->
    <title>Group 3</title>
    <desc>Created with Sketch.</desc>
    <defs>
        <polygon id="path-1" points="2.18181818e-05 2.18181818e-05 12.7868582 2.18181818e-05 12.7868582 12.7817455 2.18181818e-05 12.7817455"></polygon>
    </defs>
    <g id="Desktop" stroke="none" stroke-width="1" fill="none" fill-rule="evenodd">
        <g id="4D---Tienda-Online" transform="translate(-706.000000, -257.000000)">
            <g id="Group-6" transform="translate(691.000000, 136.000000)">
                <g id="Group-5-Copy-2" transform="translate(1.000000, 105.000000)">
                    <g id="icono-lanzar-filled" transform="translate(13.000000, 15.000000)">
                        <g id="Group-3" transform="translate(1.600000, 1.600000)">
                            <mask id="mask-2" fill="white">
                                <use xlink:href="#path-1"></use>
                            </mask>
                            <g id="Clip-2"></g>
                            <path d="M0.396821818,9.54584 C0.49144,9.54584 0.585912727,9.50918545 0.657112727,9.43616727 L2.14605818,7.91042182 C2.28627636,7.76671273 2.28351273,7.53645818 2.13980364,7.39616727 C1.99602182,7.25587636 1.76584,7.25878545 1.62562182,7.40242182 L0.136603636,8.92824 C-0.00368727273,9.07194909 -0.000850909091,9.30213091 0.142930909,9.44242182 C0.213549091,9.51144 0.305258182,9.54584 0.396821818,9.54584 M4.86154909,10.6383491 L3.37253091,12.1640945 C3.23224,12.3078764 3.23507636,12.5381309 3.37878545,12.6783491 C3.44954909,12.7473673 3.54118545,12.7817673 3.63274909,12.7817673 C3.72729455,12.7817673 3.82176727,12.7451127 3.89304,12.6720945 L5.38198545,11.1463491 C5.52227636,11.0025673 5.51951273,10.7723855 5.37573091,10.6320945 C5.23194909,10.4918036 5.00176727,10.49464 4.86154909,10.6383491 M3.62765818,9.15216727 C3.48562182,9.01013091 3.25544,9.01013091 3.11340364,9.15216727 L0.106494545,12.1590036 C-0.0354690909,12.30104 -0.0354690909,12.5312945 0.106494545,12.6732582 C0.177476364,12.7443127 0.270567273,12.7798036 0.363658182,12.7798036 C0.456676364,12.7798036 0.54984,12.7443127 0.620749091,12.6732582 L3.62765818,9.66642182 C3.76962182,9.52438545 3.76962182,9.29420364 3.62765818,9.15216727 M12.0595855,2.18181818e-05 L6.51464,2.18181818e-05 C6.22045818,2.18181818e-05 5.95536727,0.177258182 5.84278545,0.448967273 C5.73020364,0.720749091 5.79238545,1.03354909 6.00038545,1.24154909 L6.76402182,2.00511273 L2.59667636,6.17245818 C2.31267636,6.45645818 2.31267636,6.91696727 2.59667636,7.20096727 L5.57827636,10.1825673 C5.72024,10.3246036 5.90642182,10.3956582 6.09253091,10.3956582 C6.27864,10.3956582 6.46482182,10.3246036 6.60678545,10.1825673 L10.7740582,6.01529455 L11.5453309,6.78649455 C11.6844582,6.92562182 11.8704945,6.99951273 12.0597309,6.99951273 C12.1534036,6.99951273 12.2479491,6.98140364 12.3379127,6.94416727 C12.6096945,6.83158545 12.7868582,6.56634909 12.7868582,6.27224 L12.7868582,0.727294545 C12.7868582,0.325621818 12.4612582,2.18181818e-05 12.0595855,2.18181818e-05" id="Fill-1" fill="#00A9E0" mask="url(#mask-2)"></path>
                        </g>
                    </g>
                </g>
            </g>
        </g>
    </g>
</svg>