<?xml version="1.0" encoding="utf-8"?>
<!-- Generator: Adobe Illustrator 23.1.1, SVG Export Plug-In . SVG Version: 6.00 Build 0)  -->
<svg version="1.1" id="Capa_1" xmlns="http://www.w3.org/2000/svg" xmlns:xlink="http://www.w3.org/1999/xlink" x="0px" y="0px"
	 viewBox="0 0 18 27" style="enable-background:new 0 0 18 27;" xml:space="preserve">
<style type="text/css">
	.st0{fill:none;}
	.st1{filter:url(#Adobe_OpacityMaskFilter);}
	.st2{fill-rule:evenodd;clip-rule:evenodd;fill:#FFFFFF;}
	.st3{mask:url(#mask-2_2_);}
	.st4{fill:#00A9E0;}
</style>
<title>descarga</title>
<desc>Created with Sketch.</desc>
<g id="Page-1">
	<g transform="translate(-204.000000, -1286.000000)">
		<g id="Group-2" transform="translate(0.000000, 1050.000000)">
			<g id="descarga" transform="translate(204.000000, 236.000000)">
				<polygon id="Clip_2-2" class="st0" points="0,0 17,0 17,27 0,27 				"/>
				<g id="Group_3-2-Clipped">
					<g id="Clip_2">
					</g>
					<defs>
						<filter id="Adobe_OpacityMaskFilter" filterUnits="userSpaceOnUse" x="0" y="0" width="17.6" height="26.9">
							<feColorMatrix  type="matrix" values="1 0 0 0 0  0 1 0 0 0  0 0 1 0 0  0 0 0 1 0"/>
						</filter>
					</defs>
					<mask maskUnits="userSpaceOnUse" x="0" y="0" width="17.6" height="26.9" id="mask-2_2_">
						<g class="st1">
							<polygon id="path-1_2_" class="st2" points="0,0 17.6,0 17.6,26.9 0,26.9 							"/>
						</g>
					</mask>
					<g id="Group_3-2" class="st3">
						<g id="Fill_1" transform="translate(-0.666667, -0.675000)">
							<path class="st4" d="M14,27.6H4.9c-1.1,0.1-2.2-0.3-3.1-1.1c-0.8-0.8-1.2-1.9-1.1-3c0,0,0,0,0-0.1V5C0.6,3.8,1,2.6,1.8,1.8
								C2.6,1,3.7,0.6,4.9,0.7H14c1.1-0.1,2.2,0.3,3.1,1.1c0.8,0.9,1.2,2,1.2,3.2v18.2c0.1,1.2-0.4,2.4-1.2,3.2
								C16.2,27.3,15.1,27.6,14,27.6z M4.9,2C2.9,2,2,3,2,5v18.2c0,2,0.9,3,2.8,3H14c1.9,0,2.8-0.9,2.9-3V5c0-2-0.9-3-2.9-3L4.9,2z
								 M9.4,24.2c-0.3,0-0.6-0.1-0.8-0.3c-0.2-0.2-0.3-0.5-0.3-0.8c0-0.3,0.1-0.6,0.3-0.8C8.9,22.1,9.1,22,9.4,22
								c0.3,0,0.6,0.1,0.8,0.3c0.2,0.2,0.3,0.5,0.3,0.8c0,0.3-0.1,0.6-0.3,0.8C10,24.1,9.7,24.2,9.4,24.2L9.4,24.2z M9.4,19.6
								c-0.2,0-0.4-0.1-0.5-0.2l-4.4-5.2c-0.2-0.2-0.2-0.5-0.1-0.7s0.3-0.4,0.6-0.4h1.9V6.4c0-0.3,0.1-0.7,0.4-0.9
								c0.2-0.2,0.5-0.3,0.8-0.3c0,0,0.1,0,0.1,0h2.5c0.3,0,0.6,0.1,0.9,0.4c0.2,0.2,0.3,0.6,0.3,0.9v6.6h2c0.3,0,0.5,0.2,0.6,0.4
								c0.1,0.2,0.1,0.5-0.1,0.7l-4.4,5.2C9.8,19.5,9.6,19.6,9.4,19.6L9.4,19.6z M6.5,14.4l3,3.5l3-3.5h-1.2c-0.4,0-0.7-0.3-0.7-0.7
								V6.5H8.3v7.2c0,0.4-0.3,0.7-0.7,0.7H6.5z"/>
						</g>
					</g>
				</g>
			</g>
		</g>
	</g>
</g>
</svg>
