<?xml version="1.0" encoding="utf-8"?>
<!-- Generator: Adobe Illustrator 23.1.1, SVG Export Plug-In . SVG Version: 6.00 Build 0)  -->
<svg version="1.1" id="Capa_1" xmlns="http://www.w3.org/2000/svg" xmlns:xlink="http://www.w3.org/1999/xlink" x="0px" y="0px"
	 viewBox="0 0 21 27" style="enable-background:new 0 0 21 27;" xml:space="preserve">
<style type="text/css">
	.st0{fill:none;}
	.st1{filter:url(#Adobe_OpacityMaskFilter);}
	.st2{fill-rule:evenodd;clip-rule:evenodd;fill:#FFFFFF;}
	.st3{mask:url(#mask-2_2_);}
	.st4{fill:#00A9E0;}
</style>
<title>facturasweb2</title>
<desc>Created with Sketch.</desc>
<g id="Page-1">
	<g transform="translate(-583.000000, -1286.000000)">
		<g id="Group-2" transform="translate(0.000000, 1050.000000)">
			<g id="facturasweb2" transform="translate(583.000000, 236.000000)">
				<polygon id="Clip_2-2" class="st0" points="0,0 21,0 21,27 0,27 				"/>
				<g id="Group_3-2-Clipped">
					<g id="Clip_2">
					</g>
					<defs>
						<filter id="Adobe_OpacityMaskFilter" filterUnits="userSpaceOnUse" x="0" y="0" width="20.6" height="27">
							<feColorMatrix  type="matrix" values="1 0 0 0 0  0 1 0 0 0  0 0 1 0 0  0 0 0 1 0"/>
						</filter>
					</defs>
					<mask maskUnits="userSpaceOnUse" x="0" y="0" width="20.6" height="27" id="mask-2_2_">
						<g class="st1">
							<polygon id="path-1_2_" class="st2" points="0,0 20.6,0 20.6,27 0,27 							"/>
						</g>
					</mask>
					<g id="Group_3-2" class="st3">
						<path id="Fill_1" class="st4" d="M19,27H1.6c-0.9,0-1.6-0.7-1.6-1.5V1.5C0,0.7,0.7,0,1.6,0h10.5c0.2,0,0.4,0.1,0.5,0.2
							l7.8,7.1c0.2,0.1,0.2,0.3,0.2,0.6v17.6C20.6,26.3,19.9,26.9,19,27z M1.6,1.5L1.6,1.5C1.6,1.5,1.6,1.6,1.6,1.5l0,23.9
							c0,0,0,0,0,0H19l0,0v-16h-3.5c-1.3,0-2.5-0.4-3.4-1.3c-0.9-0.9-1.3-2-1.3-3.3V1.5L1.6,1.5L1.6,1.5z M12.4,2.2v2.7
							c0,0.8,0.3,1.6,0.8,2.2c0.6,0.5,1.4,0.8,2.2,0.8h3.1L12.4,2.2z M14.4,24.2c-0.3,0-0.6-0.3-0.6-0.6v-0.4
							c-0.6-0.1-1.3-0.3-1.8-0.7c-0.2-0.1-0.3-0.3-0.3-0.5c0-0.3,0.3-0.6,0.6-0.6c0.1,0,0.3,0,0.4,0.1c0.3,0.2,0.7,0.4,1.1,0.5v-2.2
							c-1.1-0.1-1.9-1-1.9-2c0-1.1,0.8-2,1.9-2.1v-0.4c0-0.3,0.3-0.5,0.6-0.5S15,15,15,15.3v0.4c0.5,0.1,1,0.2,1.4,0.5
							c0.2,0.1,0.3,0.3,0.3,0.5c0,0.3-0.3,0.6-0.6,0.6c-0.1,0-0.2,0-0.3-0.1l0,0c-0.2-0.1-0.5-0.2-0.8-0.3v2
							c1.8,0.3,2.1,1.3,2.1,2.1c0,0.6-0.2,1.2-0.7,1.6c-0.4,0.3-0.9,0.5-1.4,0.6v0.4C15,23.9,14.8,24.2,14.4,24.2L14.4,24.2z
							 M15,20.1v2c0.5-0.1,0.9-0.5,0.9-1C16,20.7,15.9,20.3,15,20.1L15,20.1z M13.8,16.9c-0.4,0.1-0.7,0.5-0.7,0.9
							c0,0.3,0.1,0.7,0.7,0.9V16.9z M8.8,24C8.3,24,8,23.6,8,23.2v-9.7c0-0.4,0.4-0.8,0.8-0.8s0.8,0.3,0.8,0.8v9.7
							C9.6,23.6,9.2,24,8.8,24L8.8,24z M4.8,23.9c-0.4,0-0.8-0.3-0.8-0.8V7.5C4,7.2,4.2,7,4.4,6.8c0.2-0.1,0.6-0.1,0.8,0
							s0.4,0.4,0.4,0.7v15.6C5.6,23.6,5.3,23.9,4.8,23.9L4.8,23.9z"/>
					</g>
				</g>
			</g>
		</g>
	</g>
</g>
</svg>
