<?xml version="1.0" encoding="UTF-8"?>
<svg width="20px" height="20px" viewBox="0 0 20 20" version="1.1" xmlns="http://www.w3.org/2000/svg" xmlns:xlink="http://www.w3.org/1999/xlink">
    <!-- Generator: Sketch 64 (93537) - https://sketch.com -->
    <title>icono-carrito-de-compra-filled</title>
    <desc>Created with Sketch.</desc>
    <defs>
        <polygon id="path-1" points="4e-05 0 15.995 0 15.995 16 4e-05 16"></polygon>
    </defs>
    <g id="Desktop" stroke="none" stroke-width="1" fill="none" fill-rule="evenodd">
        <g id="icono-carrito-de-compra-filled">
            <g id="Group-3" transform="translate(2.000000, 2.000000)">
                <mask id="mask-2" fill="white">
                    <use xlink:href="#path-1"></use>
                </mask>
                <g id="Clip-2"></g>
                <path d="M11.32754,13.3127 C10.92014,13.3127 10.59344,13.4285 10.35644,13.6569 C10.10924,13.8952 9.98384,14.2315 9.98384,14.6564 C9.98384,15.0813 10.10924,15.4175 10.35644,15.6558 C10.59344,15.8843 10.92014,16 11.32754,16 C11.73494,16 12.06174,15.8843 12.29874,15.6558 C12.54594,15.4175 12.67134,15.0813 12.67134,14.6564 C12.67134,14.2315 12.54594,13.8952 12.29874,13.6569 C12.06174,13.4285 11.73494,13.3127 11.32754,13.3127 M6.88664,13.3127 C6.47924,13.3127 6.15254,13.4285 5.91554,13.6569 C5.66834,13.8952 5.54294,14.2315 5.54294,14.6564 C5.54294,15.0813 5.66834,15.4175 5.91554,15.6558 C6.15254,15.8843 6.47924,16 6.88664,16 C7.29404,16 7.62084,15.8843 7.85784,15.6558 C8.10494,15.4175 8.23024,15.0813 8.23024,14.6564 C8.23024,14.2315 8.10494,13.8952 7.85784,13.6569 C7.62084,13.4285 7.29404,13.3127 6.88664,13.3127 M15.89714,3.939 C15.81084,3.8282 15.67824,3.7634 15.53784,3.7634 L4.11114,3.7634 C3.92474,2.7157 3.78634,1.7302 3.78224,1.7076 C3.60534,0.7182 2.66974,0 1.55754,0 L0.45544,0 C0.20394,0 4e-05,0.204 4e-05,0.4556 C4e-05,0.7071 0.20394,0.911 0.45544,0.911 L1.55754,0.911 C2.21714,0.911 2.78794,1.3224 2.88554,1.868 C3.07214,2.9118 4.11044,8.9471 4.21624,9.6189 C4.34764,10.4532 4.65854,11.1064 5.14024,11.5604 C5.60094,11.9944 6.20484,12.2239 6.88664,12.2239 L11.77164,12.2239 C12.44604,12.2239 13.01834,11.9937 13.47274,11.5396 C13.90334,11.1094 14.19154,10.4881 14.43314,9.6621 C14.54044,9.2951 15.83704,4.8306 15.97944,4.3305 C16.01784,4.1954 15.98344,4.0498 15.89714,3.939" id="Fill-1" fill="#FFFFFF" mask="url(#mask-2)"></path>
            </g>
        </g>
    </g>
</svg>