<?xml version="1.0" encoding="UTF-8"?>
<svg width="40px" height="40px" viewBox="0 0 40 40" version="1.1" xmlns="http://www.w3.org/2000/svg" xmlns:xlink="http://www.w3.org/1999/xlink">
    <!-- Generator: Sketch 63.1 (92452) - https://sketch.com -->
    <title>icono-4g-inactive</title>
    <desc>Created with Sketch.</desc>
    <g id="Page-1" stroke="none" stroke-width="1" fill="none" fill-rule="evenodd">
        <g id="Artboard" transform="translate(-26.000000, -325.000000)" fill="#B6B7B7" fill-rule="nonzero">
            <g id="icono-4g-inactive" transform="translate(26.000000, 325.000000)">
                <path d="M13.028,25.3748571 L5.804,25.3748571 C5.73999968,25.150856 5.708,24.8708588 5.708,24.5348571 C5.708,23.7988535 5.87599832,22.9668618 6.212,22.0388571 L9.62,12.7268571 L12.932,12.7268571 L9.236,22.8068571 L13.028,22.8068571 L13.028,18.8948571 L16.46,18.8948571 L16.46,22.8068571 L18.38,22.8068571 L18.38,25.3748571 L16.46,25.3748571 L16.46,29.1428571 L13.028,29.1428571 L13.028,25.3748571 Z M28.1,29.4788571 C25.2839859,29.4788571 23.2680061,28.7588643 22.052,27.3188571 C20.8359939,25.8788499 20.228,23.7828709 20.228,21.0308571 C20.228,18.3748439 20.931993,16.2748649 22.34,14.7308571 C23.748007,13.1868494 25.8119864,12.4148571 28.532,12.4148571 C29.3480041,12.4148571 30.1919956,12.4908564 31.064,12.6428571 C31.9360044,12.7948579 32.6359974,12.982856 33.164,13.2068571 L32.684,15.9428571 C31.275993,15.5428551 29.9800059,15.3428571 28.796,15.3428571 C27.1799919,15.3428571 25.9960038,15.8068525 25.244,16.7348571 C24.4919962,17.6628618 24.116,19.0468479 24.116,20.8868571 C24.116,22.9028672 24.4359968,24.3588527 25.076,25.2548571 C25.7000031,26.1348615 26.7559926,26.5748571 28.244,26.5748571 C28.9000033,26.5748571 29.5639966,26.5188577 30.236,26.4068571 L30.236,22.9508571 L27.932,22.9508571 L27.932,20.2628571 L33.956,20.2628571 L33.956,28.6388571 C33.1719961,28.8788583 32.2240056,29.0788563 31.112,29.2388571 C29.9999944,29.3988579 28.9960045,29.4788571 28.1,29.4788571 Z" id="4G"></path>
            </g>
        </g>
    </g>
</svg>