<?xml version="1.0" encoding="UTF-8"?>
<svg width="26px" height="15px" viewBox="0 0 26 15" version="1.1" xmlns="http://www.w3.org/2000/svg" xmlns:xlink="http://www.w3.org/1999/xlink">
    <!-- Generator: Sketch 58 (84663) - https://sketch.com -->
    <title>icono-menu-mobile</title>
    <desc>Created with Sketch.</desc>
    <g id="Mobile" stroke="none" stroke-width="1" fill="none" fill-rule="evenodd">
        <g id="1M-Menú-Inactivo" transform="translate(-331.000000, -96.000000)" fill="#50535A">
            <g id="Menú-Bar" transform="translate(0.000000, 70.000000)">
                <g id="icono-menu-mobile" transform="translate(328.000000, 18.000000)">
                    <path d="M4.41904762,11.3980952 L27.185981,11.3980952 C27.8601143,11.3980952 28.4050286,10.853181 28.4050286,10.1790476 C28.4050286,9.50491429 27.8601143,8.96 27.185981,8.96 L4.41904762,8.96 C3.74491429,8.96 3.2,9.50491429 3.2,10.1790476 C3.2,10.853181 3.74491429,11.3980952 4.41904762,11.3980952 M27.185981,14.6517333 L4.41904762,14.6517333 C3.74491429,14.6517333 3.2,15.1966476 3.2,15.870781 C3.2,16.5449143 3.74491429,17.0898286 4.41904762,17.0898286 L27.185981,17.0898286 C27.8601143,17.0898286 28.4050286,16.5449143 28.4050286,15.870781 C28.4050286,15.1966476 27.8601143,14.6517333 27.185981,14.6517333 M27.185981,20.3434667 L4.41904762,20.3434667 C3.74491429,20.3434667 3.2,20.888381 3.2,21.5625143 C3.2,22.2366476 3.74491429,22.7815619 4.41904762,22.7815619 L27.185981,22.7815619 C27.8601143,22.7815619 28.4050286,22.2366476 28.4050286,21.5625143 C28.4050286,20.888381 27.8601143,20.3434667 27.185981,20.3434667" id="Fill-1"></path>
                </g>
            </g>
        </g>
    </g>
</svg>