<?xml version="1.0" encoding="UTF-8"?>
<svg width="16px" height="16px" viewBox="0 0 16 16" version="1.1" xmlns="http://www.w3.org/2000/svg" xmlns:xlink="http://www.w3.org/1999/xlink">
    <!-- Generator: Sketch 64 (93537) - https://sketch.com -->
    <title>icono-portabilidad-filled</title>
    <desc>Created with Sketch.</desc>
    <defs>
        <polygon id="path-1" points="0 0 12.7313718 0 12.7313718 11.4140565 0 11.4140565"></polygon>
    </defs>
    <g id="Desktop" stroke="none" stroke-width="1" fill="none" fill-rule="evenodd">
        <g id="icono-portabilidad-filled">
            <g id="Group-3" transform="translate(1.600000, 2.240000)">
                <mask id="mask-2" fill="white">
                    <use xlink:href="#path-1"></use>
                </mask>
                <g id="Clip-2"></g>
                <path d="M6.3368678,6.07898757 L6.98106215,6.07898757 L6.98106215,5.43479322 L6.3368678,5.43479322 L6.3368678,6.07898757 Z M4.1520452,7.33816045 L6.98106215,7.33816045 L6.98106215,6.5271322 L4.1520452,6.5271322 L4.1520452,7.33816045 Z M6.33404746,8.43057175 L6.98106215,8.43057175 L6.98106215,7.78630508 L6.33404746,7.78630508 L6.33404746,8.43057175 Z M5.24170847,8.43057175 L5.88590282,8.43057175 L5.88590282,7.78630508 L5.24170847,7.78630508 L5.24170847,8.43057175 Z M4.1520452,8.43057175 L4.79349153,8.43057175 L4.79349153,7.78630508 L4.1520452,7.78630508 L4.1520452,8.43057175 Z M4.1520452,6.07891525 L4.79349153,6.07891525 L4.79349153,5.4347209 L4.1520452,5.4347209 L4.1520452,6.07891525 Z M5.24163616,6.07891525 L5.88583051,6.07891525 L5.88583051,5.4347209 L5.24163616,5.4347209 L5.24163616,6.07891525 Z M4.80188023,1.76748475 C4.74800452,1.76748475 4.69593672,1.78686554 4.65515028,1.82215593 L3.01646102,3.24165424 C2.96728588,3.28424859 2.93908249,3.3460791 2.93908249,3.41101921 L2.93908249,8.76698757 C2.93908249,9.02645876 3.0155209,9.24456497 3.16022599,9.39758644 C3.35468475,9.60339887 3.62558192,9.64657175 3.81866667,9.64657175 L7.31350056,9.64657175 C7.66329492,9.64657175 7.86455141,9.51119548 7.97186893,9.39758644 C8.11650169,9.24456497 8.19301243,9.02645876 8.19301243,8.76698757 L8.19301243,2.64706893 C8.19301243,2.38759774 8.11650169,2.16949153 7.97186893,2.01639774 C7.77748249,1.81065763 7.50658531,1.76748475 7.31350056,1.76748475 L4.80188023,1.76748475 Z M12.6254282,5.57985989 C12.4841944,5.43862599 12.2552407,5.43869831 12.1140791,5.5799322 C11.9493424,5.74474124 11.7536542,5.97470734 11.5644023,6.19700791 C11.4903503,6.28407684 11.4154305,6.37201356 11.3425356,6.45590056 C11.3614102,6.21385763 11.3714621,5.96400452 11.3714621,5.70691977 C11.3714621,3.82105311 10.8641627,2.37400226 9.86373785,1.40583051 C8.89976045,0.472949153 7.49407458,0 5.68573107,0 C3.87738757,0 2.47170169,0.472949153 1.50772429,1.40583051 C0.507299435,2.37400226 0,3.82105311 0,5.70691977 C0,7.59285876 0.507299435,9.03998192 1.50772429,10.008226 C2.47170169,10.941035 3.87738757,11.4140565 5.68573107,11.4140565 C6.77626215,11.4140565 7.72895819,11.2402802 8.51742373,10.8975729 C9.34096271,10.5396791 9.99752316,9.99376271 10.4689537,9.27508249 C10.5784407,9.10803164 10.5318689,8.88392316 10.3648904,8.77443616 C10.1979119,8.66480452 9.97373107,8.71144859 9.86417175,8.87842712 C9.07548927,10.0810486 7.66965876,10.6908927 5.68573107,10.6908927 C4.07155706,10.6908927 2.83509153,10.2862825 2.01061243,9.48848814 C1.15633898,8.66169492 0.723163842,7.38950508 0.723163842,5.70691977 C0.723163842,4.02440678 1.15633898,2.75228927 2.01061243,1.92556836 C2.83509153,1.12770169 4.07155706,0.723163842 5.68573107,0.723163842 C7.29990508,0.723163842 8.53637062,1.12770169 9.36084972,1.92556836 C10.2151232,2.75228927 10.6482983,4.02440678 10.6482983,5.70691977 C10.6482983,6.02142373 10.6327503,6.32348927 10.6024497,6.61072994 C10.4529718,6.4436791 10.2342147,6.18948701 9.94885424,5.85806102 L9.72626441,5.59960226 C9.59587797,5.44824407 9.36757514,5.43139435 9.21628927,5.56170847 C9.06507571,5.6920226 9.04808136,5.92032542 9.1784678,6.0716113 L9.40084068,6.32978079 C9.84204294,6.84235932 10.1083119,7.15172881 10.2523661,7.29563842 C10.4575277,7.50072768 10.6784542,7.60312768 10.9001763,7.60312768 C11.1246463,7.60312768 11.3498395,7.49819661 11.5602802,7.28811751 C11.7266079,7.12215141 11.9241763,6.89008814 12.1150915,6.66576271 C12.2951593,6.45423729 12.4813017,6.23548023 12.6255006,6.09128136 C12.7667345,5.94997514 12.7666621,5.72102147 12.6254282,5.57985989 L12.6254282,5.57985989 Z" id="Fill-1" fill="#00A9E0" mask="url(#mask-2)"></path>
            </g>
        </g>
    </g>
</svg>