<?xml version="1.0" encoding="UTF-8"?>
<svg width="16px" height="16px" viewBox="0 0 16 16" version="1.1" xmlns="http://www.w3.org/2000/svg" xmlns:xlink="http://www.w3.org/1999/xlink">
    <!-- Generator: Sketch 64 (93537) - https://sketch.com -->
    <title>icono-contratar-plan-filled</title>
    <desc>Created with Sketch.</desc>
    <defs>
        <polygon id="path-1" points="3.63636364e-05 0 12.7744727 0 12.7744727 12.7825455 3.63636364e-05 12.7825455"></polygon>
    </defs>
    <g id="Desktop" stroke="none" stroke-width="1" fill="none" fill-rule="evenodd">
        <g id="icono-contratar-plan-filled">
            <g id="Group-3" transform="translate(1.600000, 1.600000)">
                <mask id="mask-2" fill="white">
                    <use xlink:href="#path-1"></use>
                </mask>
                <g id="Clip-2"></g>
                <path d="M10.3470909,3.36298182 C10.0364727,3.36167273 9.80956364,3.25854545 9.65356364,3.04785455 C9.49647273,2.83570909 9.41290909,2.51847273 9.41196364,2.1304 C9.41181818,2.06378182 9.4116,1.74829091 9.41152727,1.24181818 L11.5329818,3.36421818 C10.8673091,3.364 10.4842545,3.36356364 10.3470909,3.36298182 L10.3470909,3.36298182 Z M10.5696364,6.21890909 L7.61523636,6.21890909 C7.41436364,6.21890909 7.2516,6.05607273 7.2516,5.85527273 C7.2516,5.6544 7.41436364,5.49163636 7.61523636,5.49163636 L10.5696364,5.49163636 C10.7704364,5.49163636 10.9332727,5.6544 10.9332727,5.85527273 C10.9332727,6.05607273 10.7704364,6.21890909 10.5696364,6.21890909 L10.5696364,6.21890909 Z M10.5696364,8.34618182 L6.19705455,8.34618182 C5.99618182,8.34618182 5.83341818,8.18334545 5.83341818,7.98254545 C5.83341818,7.78167273 5.99618182,7.61890909 6.19705455,7.61890909 L10.5696364,7.61890909 C10.7704364,7.61890909 10.9332727,7.78167273 10.9332727,7.98254545 C10.9332727,8.18334545 10.7704364,8.34618182 10.5696364,8.34618182 L10.5696364,8.34618182 Z M10.5696364,10.4734545 L5.35269091,10.4734545 C5.15181818,10.4734545 4.98905455,10.3106182 4.98905455,10.1098182 C4.98905455,9.90894545 5.15181818,9.74618182 5.35269091,9.74618182 L10.5696364,9.74618182 C10.7704364,9.74618182 10.9332727,9.90894545 10.9332727,10.1098182 C10.9332727,10.3106182 10.7704364,10.4734545 10.5696364,10.4734545 L10.5696364,10.4734545 Z M3.36098182,7.26450909 C1.57443636,7.26450909 0.706,6.39570909 0.706,4.60836364 C0.706,2.82101818 1.57443636,1.95221818 3.36098182,1.95221818 C4.2964,1.95221818 4.95770909,2.15854545 5.38294545,2.58312727 C5.80898182,3.00850909 6.01596364,3.67098182 6.01596364,4.60836364 C6.01596364,6.39570909 5.14752727,7.26450909 3.36098182,7.26450909 L3.36098182,7.26450909 Z M12.7743636,3.728 C12.7743636,3.72610909 12.7741455,3.72429091 12.7740727,3.72247273 C12.774,3.71410909 12.7735636,3.70581818 12.7728364,3.6976 C12.7726182,3.69461818 12.7724,3.69163636 12.7721091,3.68865455 C12.7709455,3.67796364 12.7694909,3.66734545 12.7673091,3.65687273 L12.7670909,3.65585455 C12.7650545,3.64574545 12.7624364,3.63570909 12.7595273,3.62574545 C12.7586545,3.62283636 12.7577091,3.61992727 12.7568364,3.61701818 C12.7543636,3.60930909 12.7516,3.60167273 12.7486182,3.59410909 C12.7475273,3.59149091 12.7465091,3.58872727 12.7454909,3.58618182 C12.7412727,3.57629091 12.7366909,3.56647273 12.7316,3.55694545 C12.7314545,3.55658182 12.7312364,3.55629091 12.7310182,3.55592727 C12.7262182,3.54690909 12.7208364,3.53803636 12.7152364,3.52938182 C12.7134909,3.52683636 12.7117455,3.52436364 12.71,3.52181818 C12.7054909,3.5152 12.7006182,3.50872727 12.6956,3.5024 C12.6937091,3.49992727 12.6918182,3.49745455 12.6897818,3.49505455 C12.6828727,3.48676364 12.6756727,3.47869091 12.6678909,3.47090909 L9.30498182,0.106545455 C9.2972,0.0987636364 9.28912727,0.0916363636 9.28083636,0.0846545455 C9.27843636,0.0826909091 9.27596364,0.0808 9.27349091,0.0788363636 C9.26716364,0.0738181818 9.26069091,0.0690181818 9.25407273,0.0644363636 C9.2516,0.0626909091 9.24905455,0.0609454545 9.24650909,0.0592727273 C9.23778182,0.0536 9.22898182,0.0482181818 9.21989091,0.0432727273 C9.21952727,0.0432 9.21923636,0.0429818182 9.21894545,0.0427636364 C9.20934545,0.0376727273 9.19967273,0.0331636364 9.18970909,0.0289454545 C9.18709091,0.0278545455 9.18447273,0.0268363636 9.18178182,0.0258181818 C9.17421818,0.0228363636 9.16658182,0.0200727273 9.1588,0.0176 C9.15589091,0.0166545455 9.15298182,0.0157090909 9.15007273,0.0148363636 C9.14003636,0.0119272727 9.13,0.00930909091 9.11981818,0.0072 L9.11894545,0.00698181818 C9.10854545,0.00494545455 9.09785455,0.00349090909 9.08723636,0.00232727273 C9.08425455,0.00196363636 9.08127273,0.00174545455 9.07821818,0.00145454545 C9.06992727,0.0008 9.06163636,0.000436363636 9.05334545,0.000290909091 C9.05152727,0.000218181818 9.04970909,-1.75121284e-05 9.04781818,-1.75121284e-05 C7.19414545,-0.000145454545 4.5356,0.000654545455 4.11589091,0.000945454545 C3.64490909,0.00145454545 3.35218182,0.293018182 3.35203636,0.761745455 C3.35196364,0.8432 3.35196364,1.00421818 3.35189091,1.24625455 C2.29494545,1.24785455 1.4692,1.52807273 0.897490909,2.07927273 C0.302,2.65352727 3.63636364e-05,3.50443636 3.63636364e-05,4.60836364 C3.63636364e-05,5.71229091 0.302,6.5632 0.897490909,7.13752727 C1.46912727,7.68865455 2.29465455,7.9688 3.35138182,7.97054545 C3.35145455,10.0711273 3.35152727,11.6825455 3.3516,12.0122909 C3.3516,12.2495273 3.42003636,12.4389091 3.55487273,12.5751273 C3.69072727,12.7122909 3.87989091,12.7819636 4.11741818,12.7822545 C4.55101818,12.7826909 8.74054545,12.7825455 10.1172,12.7824 L10.5326909,12.7823273 L10.9728364,12.7825455 C11.1194545,12.7825455 11.2660727,12.7825455 11.4126909,12.7825455 C11.6169818,12.7825455 11.8212727,12.7825455 12.0254909,12.7821091 C12.4864364,12.7811636 12.7732,12.4937455 12.7739273,12.032 C12.7743636,11.736 12.7747273,6.63963636 12.7743636,3.728 L12.7743636,3.728 Z M3.63341818,5.80109091 L3.63341818,4.86661818 C4.00098182,4.95941818 4.05792727,5.13418182 4.05792727,5.31294545 C4.05792727,5.55963636 3.90054545,5.73410909 3.63341818,5.80109091 L3.63341818,5.80109091 Z M3.08796364,4.23083636 C2.81029091,4.13294545 2.76512727,3.97301818 2.76512727,3.82138182 C2.76512727,3.59956364 2.882,3.44305455 3.08796364,3.37432727 L3.08796364,4.23083636 Z M3.63341818,4.33141818 L3.63341818,3.36749091 C3.74992727,3.39505455 3.86541818,3.44065455 3.98505455,3.50567273 L3.98890909,3.50770909 C4.02738182,3.52690909 4.07916364,3.54901818 4.1388,3.54901818 C4.27814545,3.54901818 4.39152727,3.43563636 4.39152727,3.29629091 C4.39152727,3.24145455 4.37218182,3.13745455 4.24294545,3.05796364 C4.0716,2.95185455 3.86105455,2.88036364 3.63341818,2.84865455 L3.63341818,2.53963636 C3.63341818,2.38894545 3.51130909,2.26690909 3.36069091,2.26690909 C3.21,2.26690909 3.08796364,2.38894545 3.08796364,2.53963636 L3.08796364,2.85389091 C2.56825455,2.94807273 2.24570909,3.316 2.24570909,3.84465455 C2.24570909,4.19636364 2.39749091,4.62981818 3.08796364,4.77738182 L3.08796364,5.79723636 C2.92432727,5.75730909 2.76003636,5.68283636 2.59705455,5.57418182 C2.54556364,5.53992727 2.48432727,5.52029091 2.42876364,5.52029091 C2.28432727,5.52029091 2.1668,5.63570909 2.1668,5.77767273 C2.1668,5.87250909 2.20847273,5.94974545 2.2908,6.00734545 C2.5228,6.16981818 2.80367273,6.27825455 3.08796364,6.31890909 L3.08796364,6.56436364 C3.08796364,6.71498182 3.21,6.83709091 3.36069091,6.83709091 C3.51130909,6.83709091 3.63341818,6.71498182 3.63341818,6.56436364 L3.63341818,6.31454545 C3.88272727,6.27541818 4.0932,6.1856 4.25123636,6.04865455 C4.46454545,5.86378182 4.57741818,5.60290909 4.57741818,5.2944 C4.57741818,4.92261818 4.41036364,4.46123636 3.63341818,4.33141818 L3.63341818,4.33141818 Z" id="Fill-1" fill="#00A9E0" mask="url(#mask-2)"></path>
            </g>
        </g>
    </g>
</svg>