<?xml version="1.0" encoding="UTF-8"?>
<svg width="16px" height="16px" viewBox="0 0 16 16" version="1.1" xmlns="http://www.w3.org/2000/svg" xmlns:xlink="http://www.w3.org/1999/xlink">
    <!-- Generator: Sketch 64 (93537) - https://sketch.com -->
    <title>icono-renovar-equipo-filled</title>
    <desc>Created with Sketch.</desc>
    <defs>
        <polygon id="path-1" points="3.63636364e-05 0 12.7784727 0 12.7784727 11.3467345 3.63636364e-05 11.3467345"></polygon>
    </defs>
    <g id="Desktop" stroke="none" stroke-width="1" fill="none" fill-rule="evenodd">
        <g id="icono-renovar-equipo-filled">
            <g id="Group-3" transform="translate(1.600000, 2.240000)">
                <mask id="mask-2" fill="white">
                    <use xlink:href="#path-1"></use>
                </mask>
                <g id="Clip-2"></g>
                <path d="M1.56832727,4.44935273 C1.74403636,4.44935273 1.88650909,4.30688 1.88650909,4.13117091 L1.88650909,3.71618909 C1.88650909,2.82898909 2.29952727,2.41575273 3.18636364,2.41575273 L3.22767273,2.41575273 C3.16629091,2.46891636 3.10316364,2.52324364 3.04192727,2.57582545 C2.90854545,2.69029818 2.8932,2.89117091 3.0076,3.02455273 C3.07050909,3.09786182 3.1596,3.13553455 3.2492,3.13553455 C3.32250909,3.13553455 3.39625455,3.11029818 3.45625455,3.05880727 C3.54527273,2.98251636 3.99341818,2.59742545 4.07589091,2.51473455 C4.33596364,2.25458909 4.33458182,1.92964364 4.07232727,1.66680727 C3.91007273,1.50426182 3.47370909,1.13277091 3.45516364,1.11706182 C3.32134545,1.00324364 3.12061818,1.01938909 3.00665455,1.15328 C2.89283636,1.28709818 2.90905455,1.48789818 3.04287273,1.60178909 C3.08832727,1.64040727 3.16498182,1.70622545 3.24905455,1.77938909 L3.18636364,1.77938909 C2.58112727,1.77938909 2.10534545,1.94229818 1.77218182,2.26346182 C1.42578182,2.59749818 1.25014545,3.08622545 1.25014545,3.71618909 L1.25014545,4.13117091 C1.25014545,4.30688 1.39261818,4.44935273 1.56832727,4.44935273 M9.14330909,9.89160727 C9.0716,9.96418909 8.966,9.99917091 8.83669091,9.99917091 C8.70745455,9.99917091 8.60185455,9.96418909 8.53014545,9.89160727 C8.46381818,9.82448 8.42658182,9.72535273 8.42658182,9.59182545 C8.42658182,9.31371636 8.58803636,9.18448 8.83669091,9.18448 C9.08534545,9.18448 9.24694545,9.31371636 9.24694545,9.59182545 C9.24694545,9.72535273 9.20956364,9.82448 9.14330909,9.89160727 M12.2583636,0.482007273 C11.9266545,0.162152727 11.4552364,-2.90909091e-05 10.8572727,-2.90909091e-05 L6.90709091,-2.90909091e-05 C6.3092,-2.90909091e-05 5.83770909,0.162152727 5.50607273,0.482007273 C5.16083636,0.814807273 4.98592727,1.29924364 4.98592727,1.92178909 L4.98592727,9.42498909 C4.98592727,10.0476073 5.16083636,10.5319709 5.50607273,10.8647709 C5.83770909,11.1846255 6.30912727,11.3467345 6.90709091,11.3467345 L10.8572727,11.3467345 C11.4552364,11.3467345 11.9266545,11.1846255 12.2583636,10.8647709 C12.6034545,10.5319709 12.7785091,10.0476073 12.7785091,9.42498909 L12.7785091,1.92178909 C12.7785091,1.29924364 12.6034545,0.814807273 12.2583636,0.482007273 M2.35058182,10.1262982 C2.30781818,10.1695709 2.24490909,10.1904436 2.16781818,10.1904436 C2.0908,10.1904436 2.02781818,10.1695709 1.98505455,10.1262982 C1.94556364,10.0862982 1.92330909,10.0272436 1.92330909,9.94768 C1.92330909,9.78193455 2.0196,9.70491636 2.16781818,9.70491636 C2.31603636,9.70491636 2.41232727,9.78193455 2.41232727,9.94768 C2.41232727,10.0272436 2.39007273,10.0862982 2.35058182,10.1262982 M3.16301818,5.14229818 L1.14898182,5.14229818 C0.429563636,5.14229818 3.63636364e-05,5.57197091 3.63636364e-05,6.29160727 L3.63636364e-05,10.1799709 C3.63636364e-05,10.8996073 0.429563636,11.32928 1.14898182,11.32928 L3.16301818,11.32928 C3.88243636,11.32928 4.31203636,10.8996073 4.31203636,10.1799709 L4.31203636,6.29160727 C4.31203636,5.57197091 3.88243636,5.14229818 3.16301818,5.14229818" id="Fill-1" fill="#00A9E0" mask="url(#mask-2)"></path>
            </g>
        </g>
    </g>
</svg>