<?xml version="1.0" encoding="UTF-8"?>
<svg width="16px" height="16px" viewBox="0 0 16 16" version="1.1" xmlns="http://www.w3.org/2000/svg" xmlns:xlink="http://www.w3.org/1999/xlink">
    <!-- Generator: Sketch 64 (93537) - https://sketch.com -->
    <title>icono-prepago-a-plan-filled</title>
    <desc>Created with Sketch.</desc>
    <defs>
        <polygon id="path-1" points="5.46230441e-06 0 11.3784535 0 11.3784535 12.7999927 5.46230441e-06 12.7999927"></polygon>
    </defs>
    <g id="Desktop" stroke="none" stroke-width="1" fill="none" fill-rule="evenodd">
        <g id="icono-prepago-a-plan-filled">
            <g id="Group-3" transform="translate(2.240000, 1.600000)">
                <mask id="mask-2" fill="white">
                    <use xlink:href="#path-1"></use>
                </mask>
                <g id="Clip-2"></g>
                <path d="M7.64260688,11.0842101 C7.5160635,11.213867 7.33143761,11.2824189 7.10875767,11.2824189 C6.88607772,11.2824189 6.70148825,11.213867 6.57487203,11.0841919 C6.45002196,10.9563193 6.38669565,10.7791768 6.38669565,10.557735 C6.38669565,10.1039449 6.65664273,9.83303283 7.10875767,9.83303283 C7.5608726,9.83303283 7.83080148,10.1039449 7.83080148,10.557735 C7.83080148,10.779195 7.76747516,10.9563375 7.64260688,11.0842101 L7.64260688,11.0842101 Z M5.04757531,7.03920979 C4.80965553,7.2684627 4.49824956,7.43138504 4.11701713,7.52713923 C4.20146435,7.41711021 4.28032182,7.29000239 4.35240603,7.14672615 C4.43929309,6.97400808 4.51341656,6.78313696 4.57424842,6.57886498 C4.81619209,6.6502573 5.03512125,6.74124108 5.21849081,6.84669997 C5.16592523,6.91570708 5.10902623,6.9799802 5.04757531,7.03920979 L5.04757531,7.03920979 Z M1.16167374,6.80755346 C1.34721001,6.69799784 1.5704544,6.60339073 1.81813349,6.52921263 C1.88191499,6.75553411 1.96159181,6.96639727 2.05669053,7.15541121 C2.12646236,7.29409912 2.20260688,7.41749257 2.28397701,7.52504535 C1.90645895,7.42903624 1.59774771,7.26682401 1.36153946,7.03920979 C1.2886177,6.96892814 1.22208683,6.8915637 1.16167374,6.80755346 L1.16167374,6.80755346 Z M0.730770754,5.30789599 L1.64033548,5.30789599 C1.64876563,5.62527408 1.68381542,5.93323881 1.74328171,6.2219398 C1.46625183,6.30356484 1.21487659,6.40940609 0.9999167,6.53678703 C0.836557383,6.20426014 0.746411152,5.79344023 0.730770754,5.30789599 L0.730770754,5.30789599 Z M1.02298583,3.72342714 C1.235779,3.84763994 1.48389508,3.95075004 1.75671898,4.03033582 C1.68995141,4.33338447 1.65036791,4.65881036 1.64075425,4.9950334 L0.730861792,4.9950334 C0.747467198,4.48831363 0.8453699,4.06312785 1.02298583,3.72342714 L1.02298583,3.72342714 Z M1.36153946,3.26634151 C1.59944102,3.03708859 1.910847,2.87416626 2.29207943,2.77841206 C2.2076322,2.88844108 2.12877474,3.0155489 2.05669053,3.15882515 C1.96978526,3.33152501 1.89566179,3.52239613 1.83482993,3.72668632 C1.59290447,3.655294 1.37397531,3.56432842 1.19060575,3.45885132 C1.24317132,3.38984421 1.30007033,3.3255711 1.36153946,3.26634151 L1.36153946,3.26634151 Z M5.04757531,3.26634151 C5.12047886,3.33660495 5.18702794,3.41396939 5.24744102,3.49799784 C5.06190475,3.60753525 4.83864216,3.70214236 4.59096307,3.77633866 C4.52718156,3.55001718 4.44750475,3.33915403 4.35240603,3.15014009 C4.2826342,3.01145218 4.20648967,2.88805872 4.12510134,2.78048774 C4.50263761,2.87651505 4.81134885,3.03872728 5.04757531,3.26634151 L5.04757531,3.26634151 Z M4.76876108,4.99765531 C4.76033092,4.68027721 4.72526293,4.37231249 4.66581485,4.08361149 C4.94284472,4.00196825 5.19421997,3.89614521 5.40917986,3.76876427 C5.57255738,4.10127294 5.66270361,4.51209286 5.6783258,4.99765531 L4.76876108,4.99765531 Z M3.36312808,6.08645644 L3.36312808,5.31049969 L4.45529764,5.31049969 C4.44597531,5.62088603 4.40981485,5.92040239 4.34920148,6.19861576 C4.04021713,6.1321031 3.70725326,6.09373952 3.36312808,6.08645644 L3.36312808,6.08645644 Z M3.04596848,5.30789599 L3.04596848,6.02862885 C2.69690902,6.03651277 2.35939323,6.0761691 2.04653064,6.14446612 C1.99318213,5.88078248 1.96151898,5.59901861 1.95338014,5.30789599 L3.04596848,5.30789599 Z M3.04596848,4.21909485 L3.04596848,4.9950334 L1.95379892,4.9950334 C1.96312125,4.68464706 1.99928171,4.3851489 2.05989508,4.10693553 C2.36886122,4.17342999 2.7018433,4.21181178 3.04596848,4.21909485 L3.04596848,4.21909485 Z M3.36312808,4.27692245 C3.71218754,4.26903852 4.04968512,4.22938219 4.36256592,4.16108518 C4.41589622,4.42476882 4.44757758,4.70653269 4.45571642,4.99765531 L3.36312808,4.99765531 L3.36312808,4.27692245 Z M3.67597246,2.75583454 C3.82298128,2.87944649 3.95653462,3.05941121 4.07291812,3.29075801 C4.15831215,3.46047181 4.23015966,3.65021405 4.28815112,3.85428575 C3.99509849,3.91806725 3.68502168,3.95393639 3.36312808,3.96151078 L3.36312808,2.67916199 C3.4414029,2.68174748 3.51767488,2.68631761 3.59207147,2.69278134 C3.62022054,2.71153525 3.64820575,2.7325105 3.67597246,2.75583454 L3.67597246,2.75583454 Z M2.7331241,2.76453781 C2.76598896,2.73689855 2.79918156,2.71259129 2.83262908,2.69136114 C2.90205496,2.68560751 2.97319238,2.68156541 3.04596848,2.67916199 L3.04596848,3.90621405 C2.73024728,3.8992223 2.42596051,3.86475516 2.13804245,3.80332245 C2.19284757,3.62179186 2.25912353,3.45258788 2.33617844,3.29942486 C2.45256193,3.06809627 2.58611528,2.88813155 2.7331241,2.76453781 L2.7331241,2.76453781 Z M2.7331241,7.54971676 C2.58611528,7.42610481 2.45256193,7.24614009 2.33617844,7.01479329 C2.25078441,6.84507949 2.1789369,6.65533724 2.12094543,6.45126555 C2.41397986,6.38748404 2.72407488,6.35161491 3.04596848,6.34404051 L3.04596848,7.6263893 C2.96769366,7.62380381 2.89142168,7.61921548 2.81702509,7.61276996 C2.78885781,7.59401605 2.7608726,7.5730408 2.7331241,7.54971676 L2.7331241,7.54971676 Z M3.67597246,7.54099528 C3.64308939,7.56865275 3.60989679,7.59296 3.57646748,7.61419016 C3.50704159,7.61992558 3.43590418,7.62398589 3.36312808,7.6263893 L3.36312808,6.39933724 C3.67884927,6.40632899 3.98313605,6.44079613 4.27105411,6.50222885 C4.21623078,6.68374122 4.14997303,6.85294521 4.07291812,7.00610822 C3.95653462,7.23745502 3.82298128,7.41740154 3.67597246,7.54099528 L3.67597246,7.54099528 Z M5.38611073,6.58210595 C5.17331755,6.45791135 4.92520148,6.35480125 4.65237758,6.27521548 C4.71914515,5.97214862 4.75872865,5.64672273 4.7683423,5.31049969 L5.67823477,5.31049969 C5.66164757,5.81723767 5.56374486,6.24242344 5.38611073,6.58210595 L5.38611073,6.58210595 Z M10.8453562,0.537283186 C10.4851537,0.175751465 9.95973462,-7.28307255e-06 9.23905639,-7.28307255e-06 L4.97845895,-7.28307255e-06 C4.26424444,-7.28307255e-06 3.73966293,0.179429417 3.37470817,0.548517326 C3.04547687,0.881481195 2.87086521,1.34459357 2.84308028,1.96026811 C2.00310532,2.01753127 1.33581201,2.27970367 0.856167055,2.74190566 C0.288050982,3.28933781 5.46230441e-06,4.10047181 5.46230441e-06,5.15276654 C5.46230441e-06,6.20506128 0.288050982,7.01621349 0.856167055,7.56364563 C1.33504728,8.0250829 2.00093861,8.28720068 2.83905639,8.34502828 L2.83905639,10.6605902 C2.83905639,11.385438 3.01501542,11.9123136 3.37696592,12.2713145 C3.73563903,12.6270562 4.25947403,12.7999927 4.97845895,12.7999927 L9.23905639,12.7999927 C9.9580231,12.7999927 10.4818763,12.6270562 10.8405494,12.2713145 C11.2025181,11.9123136 11.3784589,11.3854562 11.3784589,10.6605902 L11.3784589,2.13939528 C11.3784589,1.42141178 11.204084,0.897358293 10.8453562,0.537283186 L10.8453562,0.537283186 Z" id="Fill-1" fill="#00A9E0" mask="url(#mask-2)"></path>
            </g>
        </g>
    </g>
</svg>