<svg xmlns="http://www.w3.org/2000/svg" xmlns:xlink="http://www.w3.org/1999/xlink" width="51.35" height="51.35" viewBox="0 0 51.35 51.35"><defs><style>.a{fill:none;}.b{fill:#fff;}.c{clip-path:url(#a);}.d{fill:#1a1a1a;}.e{fill:#ff265a;}</style><clipPath id="a"><path class="a" d="M0,0H51.35V51.35H0Z" transform="translate(0 0.312)"/></clipPath></defs><g transform="translate(0 -0.338)"><path class="b" d="M50.675,25.338A25.338,25.338,0,1,0,25.338,50.675,25.338,25.338,0,0,0,50.675,25.338" transform="translate(0.338 0.675)"/><g transform="translate(0 0.026)"><path class="a" d="M0,0H51.35V51.35H0Z" transform="translate(0 0.312)"/><g class="c"><path class="d" d="M25.675,51.35A25.675,25.675,0,1,1,51.35,25.675,25.7,25.7,0,0,1,25.675,51.35Zm0-50.675a25,25,0,1,0,25,25A25.029,25.029,0,0,0,25.675.675Z" transform="translate(0 0.312)"/></g></g><path class="b" d="M43.505,21.753A21.753,21.753,0,1,0,21.753,43.505,21.753,21.753,0,0,0,43.505,21.753" transform="translate(3.923 4.26)"/><path class="d" d="M22.09,44.18A22.09,22.09,0,1,1,44.18,22.09,22.115,22.115,0,0,1,22.09,44.18Zm0-43.505A21.415,21.415,0,1,0,43.505,22.09,21.44,21.44,0,0,0,22.09.675Z" transform="translate(3.585 3.923)"/><path class="e" d="M12.762,22.53a3.561,3.561,0,0,0-1.1-2.652,9.866,9.866,0,0,0-3.721-1.95,11.927,11.927,0,0,1-5.312-2.9A6.393,6.393,0,0,1,.958,10.487a6.574,6.574,0,0,1,1.634-4.6A6.944,6.944,0,0,1,7.082,3.746V0H9.631V3.764a6.6,6.6,0,0,1,4.474,2.412A8.671,8.671,0,0,1,15.7,11.7H12.557a5.958,5.958,0,0,0-1.146-3.844,3.766,3.766,0,0,0-3.1-1.425A4.273,4.273,0,0,0,5.2,7.486a3.923,3.923,0,0,0-1.078,2.939A3.582,3.582,0,0,0,5.26,13.21,10.477,10.477,0,0,0,9.007,15.1a15.788,15.788,0,0,1,4.071,1.866,6.551,6.551,0,0,1,2.156,2.369,6.849,6.849,0,0,1,.693,3.165,6.343,6.343,0,0,1-1.737,4.653,7.7,7.7,0,0,1-4.867,2.087V32.5H6.791V29.236a7.375,7.375,0,0,1-4.986-2.267A7.646,7.646,0,0,1,0,21.607H3.165a5.034,5.034,0,0,0,1.249,3.661A4.714,4.714,0,0,0,7.955,26.55a5.311,5.311,0,0,0,3.524-1.078,3.639,3.639,0,0,0,1.283-2.942" transform="translate(17.712 9.761)"/></g></svg>