<svg xmlns="http://www.w3.org/2000/svg" xmlns:xlink="http://www.w3.org/1999/xlink" width="52.004" height="46.503" viewBox="0 0 52.004 46.503"><defs><style>.a{fill:none;}.b{fill:#ff265a;}.c{clip-path:url(#a);}.d{clip-path:url(#b);}.e{fill:#fff;}</style><clipPath id="a"><path class="a" d="M0,0H17.891V17.5H0Z" transform="translate(0.001 0.496)"/></clipPath><clipPath id="b"><path class="a" d="M0,0H43.667V43.668H0Z" transform="translate(0.167 0.163)"/></clipPath></defs><g transform="translate(0 -0.666)"><path class="b" d="M6.361,19.516a11.2,11.2,0,0,1-5.053-1.2.48.48,0,0,0,.024-.154.5.5,0,0,0-.506-.481H.814L.333,17.7V16.034l.519-.02a.5.5,0,0,0,.481-.519.493.493,0,0,0-.5-.481H.815L0,15.046V13.779a6.828,6.828,0,0,1,.1-1.1H11.691a2.5,2.5,0,0,0,2.5-2.5V0a11.335,11.335,0,0,1,2.56,3.658A11.329,11.329,0,0,1,14.375,16.2,11.26,11.26,0,0,1,6.361,19.516Zm-.861-4.5a1.833,1.833,0,1,0,1.833,1.833A1.835,1.835,0,0,0,5.5,15.014Z" transform="translate(34.309 16.987)"/><path class="b" d="M0,8.175a9.328,9.328,0,0,0,4.833,8.176V0A9.328,9.328,0,0,0,0,8.175" transform="translate(0 8.325)"/><g transform="translate(7.333 29.17)"><path class="a" d="M0,0H17.891V17.5H0Z" transform="translate(0.001 0.496)"/><g class="c"><path class="b" d="M10.667,17.5A10.679,10.679,0,0,1,0,6.837,10.714,10.714,0,0,1,.152,5.109L6.646,0H11.2a7.7,7.7,0,0,1,.111,1.254V2.969L10.455,3a.5.5,0,0,0,.019,1h.019l.481-.019V5.648l-.518.02a.5.5,0,0,0,.019,1h.019l.481-.018V8.316l-.518.02a.5.5,0,0,0,.019,1h.019l.481-.018v1.667L10.455,11a.5.5,0,0,0,.019,1h.019l.992-.038h.008l1.178-.046a3.017,3.017,0,0,0,3.009,2.75h2.211A10.629,10.629,0,0,1,10.667,17.5ZM5.138,5.668A1.833,1.833,0,1,0,6.971,7.5,1.835,1.835,0,0,0,5.138,5.668Z" transform="translate(0.001 0.496)"/></g></g><g transform="translate(4.667 0.503)"><path class="a" d="M0,0H43.667V43.668H0Z" transform="translate(0.167 0.163)"/><g class="d"><path class="e" d="M25.1,43.668H18.181a3.018,3.018,0,0,1-3.009-2.75l-.825.032-.36.013L13,41h-.02a.5.5,0,0,1-.019-1l.519-.019V38.317L13,38.335h-.02a.5.5,0,0,1-.019-1l.519-.02V35.65L13,35.668h-.02a.5.5,0,0,1-.019-1l.519-.02V32.982L13,33h-.02a.5.5,0,0,1-.019-1l.852-.032V30.253A7.7,7.7,0,0,0,13.7,29H9.148L2.653,34.109.809,35.56A.5.5,0,0,1,0,35.167V6.5A2.5,2.5,0,0,1,2.5,4h9.2A14.453,14.453,0,0,1,20.848.022c.269-.014.541-.022.809-.022a14.424,14.424,0,0,1,9.961,3.976l.009.01L31.64,4h9.527a2.5,2.5,0,0,1,2.5,2.5v20a2.5,2.5,0,0,1-2.5,2.5H29.573a6.83,6.83,0,0,0-.1,1.1v1.267l.815-.032h.017a.494.494,0,0,1,.5.481.5.5,0,0,1-.481.519l-.519.02V34.02L30.29,34H30.3a.5.5,0,0,1,.506.481.506.506,0,0,1-.025.154.5.5,0,0,1-.455.365l-.519.02v1.667l.482-.018H30.3a.5.5,0,0,1,.027,1l-.519.02v1.667l.482-.018H30.3a.5.5,0,0,1,.029,1l-1,.04-1.189.045v.21A3.043,3.043,0,0,1,25.1,43.668Zm2.039-3.209-4.455.17-6.529.251a2.041,2.041,0,0,0,2.023,1.788H25.1a2.042,2.042,0,0,0,2.039-2.039Zm1.667-2.732-4.658.18-.524.02-4.181.161-4.971.191v1.666l1.148-.043,7.511-.29,4.49-.174,1.185-.044Zm0-2.667-5,.194-9.329.358v1.666l1.9-.073,6.411-.247.588-.023.4-.015,5.029-.194Zm0-2.667-1.062.041-4.415.17-2.835.109-.212.008-5.809.223V34.61l9.229-.355,5.1-.2ZM2.5,5A1.5,1.5,0,0,0,1,6.5V34.138l2.024-1.593,5.641-4.438A.5.5,0,0,1,8.975,28h4.493a7.225,7.225,0,0,0-1.574-2.747l-.085-.093c-.065-.071-.132-.145-.2-.214A14.512,14.512,0,0,1,7.15,14.023,14.414,14.414,0,0,1,8.907,7.608,14.773,14.773,0,0,1,10.741,5ZM21.65,1c-.228,0-.473.007-.749.021A13.332,13.332,0,0,0,13.211,4c-.2.159-.393.327-.585.5l-.045.041c-.163.148-.332.3-.489.459A13.69,13.69,0,0,0,9.763,8.129,13.215,13.215,0,0,0,8.15,14.056,13.5,13.5,0,0,0,12.3,24.225a7.649,7.649,0,0,1,.826.948A8.247,8.247,0,0,1,14.5,28l.029.11c.034.127.069.259.1.39s.048.273.067.407l.013.093a8.563,8.563,0,0,1,.1,1.254V31.93l4.178-.161.421-.015,3.556-.137,3.8-.147.144-.005,1.569-.06V30.1a7.811,7.811,0,0,1,.087-1.1l.011-.083c.019-.137.038-.279.068-.417s.068-.282.106-.419L28.77,28a8.647,8.647,0,0,1,2.309-3.865,13.287,13.287,0,0,0,3.985-8.2,13.558,13.558,0,0,0,.078-1.431c0-.4-.021-.823-.065-1.293A13.285,13.285,0,0,0,31.213,5c-.043-.043-.085-.089-.126-.133s-.1-.112-.159-.165-.085-.075-.127-.11-.072-.06-.107-.091c-.223-.2-.407-.361-.58-.5a13.5,13.5,0,0,0-2.629-1.665A13.34,13.34,0,0,0,21.65,1ZM32.594,5a14.306,14.306,0,0,1,3.481,8.181c.045.512.067.932.067,1.32,0,.129-.009.258-.017.383-.005.075-.01.149-.013.223a14.388,14.388,0,0,1-4.334,9.743A7.723,7.723,0,0,0,29.8,28H41.167a1.5,1.5,0,0,0,1.5-1.5V6.5a1.5,1.5,0,0,0-1.5-1.5Zm7.049,34.668a1.833,1.833,0,1,1,1.833-1.833A1.835,1.835,0,0,1,39.643,39.667Zm0-2.667a.833.833,0,1,0,.833.833A.834.834,0,0,0,39.643,37Zm-32,1.334A1.833,1.833,0,1,1,9.473,36.5,1.835,1.835,0,0,1,7.639,38.335Zm0-2.667a.833.833,0,1,0,.833.833A.834.834,0,0,0,7.639,35.668ZM34.975,35a1.833,1.833,0,1,1,1.834-1.833A1.835,1.835,0,0,1,34.975,35Zm0-2.667a.833.833,0,1,0,.833.833A.834.834,0,0,0,34.975,32.334ZM3.833,28.3a.5.5,0,0,1-.5-.5V21.938a.5.5,0,0,1,1,0V27.8A.5.5,0,0,1,3.833,28.3Zm35.333-2.626a.5.5,0,0,1-.5-.5v-.833h-.833a.5.5,0,0,1,0-1h.833V22.5a.5.5,0,1,1,1,0v.833H40.5a.5.5,0,1,1,0,1h-.833v.833A.5.5,0,0,1,39.166,25.669ZM21.641,25a10.528,10.528,0,0,1-1.7-.138.5.5,0,0,1-.411-.416l-.5-3.11c-.129-.05-.256-.1-.376-.157l-2.55,1.85a.488.488,0,0,1-.112.058.511.511,0,0,1-.188.036.491.491,0,0,1-.287-.092,10.561,10.561,0,0,1-2.406-2.41.5.5,0,0,1,0-.585l.6-.831,1.247-1.72c-.057-.125-.109-.251-.156-.374l-1.047-.167-.656-.1L11.7,16.618a.5.5,0,0,1-.414-.411,10.3,10.3,0,0,1,0-3.411.5.5,0,0,1,.414-.411l1.384-.22.167-.026,1.559-.248c.046-.122.1-.244.156-.374l-1.052-1.448-.8-1.1a.505.505,0,0,1,0-.587,10.549,10.549,0,0,1,2.407-2.411.5.5,0,0,1,.293-.094.491.491,0,0,1,.293.1l.314.227,2.238,1.623c.144-.064.263-.114.374-.156L19.455,5l.071-.444a.151.151,0,0,1,.009-.032.2.2,0,0,0,.008-.023.5.5,0,0,1,.394-.359,10.457,10.457,0,0,1,3.407,0,.494.494,0,0,1,.393.359c0,.008.005.016.008.024a.182.182,0,0,1,.01.032L23.828,5l.424,2.668c.14.054.262.106.373.158l2.551-1.851a.492.492,0,0,1,.293-.1.5.5,0,0,1,.293.094,10.4,10.4,0,0,1,2.407,2.413.5.5,0,0,1,0,.583l-1.849,2.548c.06.135.111.258.157.374l3.111.494A.5.5,0,0,1,32,12.8c.051.308.087.638.112,1.01.013.193.029.446.029.695a10.542,10.542,0,0,1-.141,1.7.5.5,0,0,1-.415.412l-3.111.495c-.048.123-.1.249-.157.374l1.733,2.389.116.162a.5.5,0,0,1,0,.585,10.491,10.491,0,0,1-2.407,2.41.5.5,0,0,1-.586,0l-.591-.428-1.643-1.194-.314-.229c-.12.054-.247.107-.375.157l-.5,3.111a.5.5,0,0,1-.412.416A10.544,10.544,0,0,1,21.641,25ZM18.6,20.1a.505.505,0,0,1,.23.056,5.663,5.663,0,0,0,.806.337.5.5,0,0,1,.335.394l.485,3.041A9.5,9.5,0,0,0,21.639,24a9.6,9.6,0,0,0,1.188-.073l.483-3.041a.5.5,0,0,1,.335-.394,6,6,0,0,0,.81-.339.5.5,0,0,1,.519.042l.3.219L27.4,21.959l.063.046a9.4,9.4,0,0,0,.92-.818,9.736,9.736,0,0,0,.757-.86l-1.808-2.493a.5.5,0,0,1-.042-.517c.072-.146.142-.3.213-.48.053-.128.093-.233.125-.329a.5.5,0,0,1,.4-.336l.176-.028,2.863-.455a9.376,9.376,0,0,0,.076-1.186c0-.07,0-.142-.006-.212,0-.03,0-.061,0-.091-.01-.319-.032-.608-.067-.885l-3.039-.483a.5.5,0,0,1-.4-.335,6.565,6.565,0,0,0-.339-.813.5.5,0,0,1,.043-.516l1.808-2.49A9.411,9.411,0,0,0,27.465,7l-2.49,1.808a.5.5,0,0,1-.517.043,6.2,6.2,0,0,0-.811-.338.5.5,0,0,1-.337-.4l-.483-3.042a9.591,9.591,0,0,0-2.372,0l-.485,3.042a.5.5,0,0,1-.337.4,6.281,6.281,0,0,0-.812.338.5.5,0,0,1-.514-.044L15.816,7c-.056.043-.108.091-.158.137s-.075.069-.115.1a9.417,9.417,0,0,0-1.4,1.44l.258.355,1.551,2.135a.5.5,0,0,1,.041.519,6.144,6.144,0,0,0-.336.806.5.5,0,0,1-.4.337l-1.828.291-.368.058-.844.135a9.351,9.351,0,0,0,0,2.373l.765.122.845.135,1.43.227a.5.5,0,0,1,.4.338,5.989,5.989,0,0,0,.335.8.5.5,0,0,1-.04.519l-1.78,2.453-.029.04c.019.025.04.048.061.07s.036.039.053.06A9.6,9.6,0,0,0,15.816,22l2.493-1.81A.492.492,0,0,1,18.6,20.1Zm20.565.236a.5.5,0,1,1,.5-.5A.5.5,0,0,1,39.166,20.335ZM3.833,19.772a.5.5,0,0,1-.5-.5V17.8a.5.5,0,1,1,1,0v1.475A.5.5,0,0,1,3.833,19.772Zm35.333-1.436a.5.5,0,1,1,.5-.5A.5.5,0,0,1,39.166,18.336Zm-17.524,0A3.834,3.834,0,1,1,25.475,14.5,3.838,3.838,0,0,1,21.642,18.335Zm0-6.667a2.834,2.834,0,0,0,0,5.667,2.775,2.775,0,0,0,.756-.116,2.817,2.817,0,0,0,0-5.436A2.771,2.771,0,0,0,21.642,11.668Zm17.524,4a.5.5,0,1,1,.5-.5A.5.5,0,0,1,39.166,15.669Zm0-4a.5.5,0,1,1,.5-.5A.5.5,0,0,1,39.166,11.668ZM5.167,11a.5.5,0,0,1-.5-.5V9.667H3.833a.5.5,0,0,1,0-1h.833V7.834a.5.5,0,1,1,1,0v.833H6.5a.5.5,0,1,1,0,1H5.666V10.5A.5.5,0,0,1,5.167,11Z" transform="translate(0.167 0.163)"/></g></g></g></svg>