<svg xmlns="http://www.w3.org/2000/svg" width="52" height="52" viewBox="0 0 52 52"><defs><style>.a{fill:none;}.b{fill:#ff265a;}.c{fill:#323261;}</style></defs><path class="a" d="M0,0H52V52H0Z"/><path class="b" d="M12.48,10.4V1.04a1.04,1.04,0,0,1,2.08,0V10.4H28.08a1.04,1.04,0,1,1,0,2.08H1.04a1.04,1.04,0,0,1,0-2.08Z" transform="translate(8.32 10.4)"/><path class="b" d="M3.12,0a3.12,3.12,0,0,0,0,6.24H4.16V4.16H3.12a1.04,1.04,0,1,1,0-2.08H4.16V0Z" transform="translate(41.6 24.96)"/><path class="c" d="M38.48,27.04a1.04,1.04,0,1,1,0-2.08h2.08A1.039,1.039,0,0,0,41.6,23.92V16.931a3.12,3.12,0,0,0-2.508-3.06L32.036,12.46a1.041,1.041,0,0,1-.688-.484L26.32,3.595A3.118,3.118,0,0,0,23.645,2.08H12.176a3.119,3.119,0,0,0-2.9,1.961L6.166,11.826a1.042,1.042,0,0,1-.5.545L3.8,13.3A3.121,3.121,0,0,0,2.08,16.091V23.92a1.04,1.04,0,0,0,1.04,1.04H5.2a1.04,1.04,0,0,1,0,2.08H3.12A3.12,3.12,0,0,1,0,23.92V16.091A5.2,5.2,0,0,1,2.875,11.44l1.507-.753L7.349,3.269A5.2,5.2,0,0,1,12.176,0H23.645A5.2,5.2,0,0,1,28.1,2.525L32.9,10.51,39.5,11.831a5.2,5.2,0,0,1,4.18,5.1V23.92A3.12,3.12,0,0,1,40.56,27.04Zm-24.961,0a1.04,1.04,0,0,1,0-2.08H30.16a1.04,1.04,0,1,1,0,2.08Z" transform="translate(4.16 10.4)"/><path class="c" d="M1.04,2.08H3.12A1.04,1.04,0,0,0,3.12,0H1.04a1.04,1.04,0,0,0,0,2.08Z" transform="translate(24.96 24.96)"/><path class="c" d="M5.2,10.4a5.2,5.2,0,1,1,5.2-5.2A5.206,5.206,0,0,1,5.2,10.4Zm0-8.321A3.12,3.12,0,1,0,8.32,5.2,3.124,3.124,0,0,0,5.2,2.08Z" transform="translate(33.28 33.28)"/><path class="c" d="M5.2,10.4a5.2,5.2,0,1,1,5.2-5.2A5.206,5.206,0,0,1,5.2,10.4Zm0-8.321A3.12,3.12,0,1,0,8.32,5.2,3.124,3.124,0,0,0,5.2,2.08Z" transform="translate(8.32 33.28)"/></svg>