<svg xmlns="http://www.w3.org/2000/svg" xmlns:xlink="http://www.w3.org/1999/xlink" width="56.397" height="51.083" viewBox="0 0 56.397 51.083"><defs><style>.a{fill:none;}.b{clip-path:url(#a);}.c{fill:#ff265a;}.d{clip-path:url(#b);}.e{clip-path:url(#c);}.f{fill:#fff;}</style><clipPath id="a"><path class="a" d="M0,0H15.582V12.527H0Z" transform="translate(0.001 0.184)"/></clipPath><clipPath id="b"><path class="a" d="M0,0H16.3V20.083H0Z" transform="translate(0.544 0.186)"/></clipPath><clipPath id="c"><path class="a" d="M0,0H21.168V21.168H0Z" transform="translate(0 0.258)"/></clipPath></defs><g transform="translate(0 -0.732)"><g transform="translate(6.592 0.549)"><path class="a" d="M0,0H15.582V12.527H0Z" transform="translate(0.001 0.184)"/><g class="b"><path class="c" d="M15.582,3.214A8.782,8.782,0,0,0,.843,12.527,19.618,19.618,0,0,1,15.582,3.214" transform="translate(0.001 0.184)"/></g></g><g transform="translate(39.549 21.056)"><path class="a" d="M0,0H16.3V20.083H0Z" transform="translate(0.544 0.186)"/><g class="d"><path class="c" d="M8.955,20.083h0L3.96,15.088a.551.551,0,0,0-.778,0l-.841.841L0,13.586A19.43,19.43,0,0,0,3.668,2.2c0-.607-.031-1.241-.093-1.883A10.218,10.218,0,0,1,16.3,10.254a10.148,10.148,0,0,1-2.082,6.19,10.339,10.339,0,0,1-5.266,3.639Zm-3.638-9.1a.549.549,0,0,0,0,1.1h.915V13a.549.549,0,0,0,1.1,0v-.915h.915a.549.549,0,0,0,0-1.1H7.331v-.915a.549.549,0,0,0-1.1,0v.915ZM6.782,6.593a.549.549,0,1,0,.549.549A.55.55,0,0,0,6.782,6.593Zm0-2.2a.549.549,0,1,0,.549.55A.551.551,0,0,0,6.782,4.395Zm3.662-1.282a.549.549,0,1,0,.55.55A.55.55,0,0,0,10.445,3.113ZM6.782.734a.549.549,0,1,0,.549.549A.55.55,0,0,0,6.782.734Z" transform="translate(0.544 0.186)"/></g></g><g transform="translate(0 26.182)"><path class="a" d="M0,0H21.168V21.168H0Z" transform="translate(0 0.258)"/><g class="e"><path class="c" d="M11.718,21.168A11.718,11.718,0,0,1,0,9.45,11.541,11.541,0,0,1,1.313,4.068,11.87,11.87,0,0,1,4.808,0,19.419,19.419,0,0,0,6.73,5.919a19.661,19.661,0,0,0,3.593,4.925,19.662,19.662,0,0,0,4.926,3.593,19.423,19.423,0,0,0,5.919,1.922,11.67,11.67,0,0,1-3.747,3.324.54.54,0,0,0-.391-.166.551.551,0,0,0-.55.55v.084A11.609,11.609,0,0,1,11.718,21.168ZM7.509,15.361a.55.55,0,0,0-.55.549v1.1a.549.549,0,0,0,1.1,0v-1.1A.55.55,0,0,0,7.509,15.361ZM8.79,14.08a.549.549,0,0,0,0,1.1h1.1a.549.549,0,0,0,0-1.1Zm-3.663,0a.549.549,0,0,0,0,1.1h1.1a.549.549,0,0,0,0-1.1ZM7.509,11.7a.551.551,0,0,0-.55.55v1.1a.549.549,0,0,0,1.1,0v-1.1A.55.55,0,0,0,7.509,11.7Z" transform="translate(0 0.258)"/></g></g><path class="f" d="M12.452,47.97a.55.55,0,0,1-.55-.549v-1.1a.549.549,0,0,1,1.1,0v1.1A.55.55,0,0,1,12.452,47.97Zm29.967,0a3.457,3.457,0,0,1-2.459-1.017l-1.112-1.111-6.366-6.365a.551.551,0,0,1,0-.777l.841-.841-2.343-2.343a19.535,19.535,0,0,1-20.31,1.515,19.725,19.725,0,0,1-8.519-8.517A19.415,19.415,0,0,1,.23,22.6a19.866,19.866,0,0,1-.23-3A19.52,19.52,0,0,1,2.858,9.413a19.842,19.842,0,0,1,6.2-6.332A19.582,19.582,0,0,1,17.6.1,19.827,19.827,0,0,1,19.591,0a19.616,19.616,0,0,1,19.5,17.709c.062.641.093,1.274.093,1.882a19.433,19.433,0,0,1-3.667,11.391l2.343,2.342.84-.84a.551.551,0,0,1,.778,0l5,4.994,1.37,1.371,1.111,1.111a3.478,3.478,0,0,1,0,4.919L44.88,46.952A3.456,3.456,0,0,1,42.42,47.969Zm3.033-7.955-5.439,5.439.723.723a2.387,2.387,0,0,0,3.367,0l1.945-1.946.126-.126a2.379,2.379,0,0,0,0-3.366Zm-6.367-6.365h0l-.838.84L36.3,36.436l-1.813,1.812-.839.84L35.458,40.9l3.78,3.779,3.628-3.629,1.809-1.809L43.2,37.76l-4.113-4.111ZM19.591,1.1c-.385,0-.8.016-1.266.048A18.459,18.459,0,0,0,9.63,4.022a18.675,18.675,0,0,0-6.151,6.509A18.477,18.477,0,0,0,30.2,34.729l.111-.078c.113-.079.23-.161.342-.245.253-.189.517-.4.83-.662.407-.343.8-.7,1.162-1.06s.746-.781,1.105-1.208c.254-.3.47-.572.661-.827.083-.11.164-.225.241-.337l.082-.117a18.354,18.354,0,0,0,3.355-10.6c0-.479-.023-.986-.069-1.55a18.441,18.441,0,0,0-4.947-11.1A18.547,18.547,0,0,0,28.25,3.255a18.315,18.315,0,0,0-5.881-1.947A18.531,18.531,0,0,0,19.591,1.1ZM34.846,31.865a20.1,20.1,0,0,1-1.6,1.758c-.444.432-.909.843-1.38,1.223L34.1,37.082l1.273-1.273L37.081,34.1ZM14.833,45.59h-1.1a.549.549,0,0,1,0-1.1h1.1a.549.549,0,0,1,0,1.1Zm-3.663,0h-1.1a.549.549,0,0,1,0-1.1h1.1a.549.549,0,0,1,0,1.1Zm15.144-.754a2.014,2.014,0,1,1,2.014-2.014A2.016,2.016,0,0,1,26.314,44.836Zm0-2.93a.916.916,0,1,0,.915.915A.916.916,0,0,0,26.314,41.907Zm-13.862,2.4a.551.551,0,0,1-.55-.55v-1.1a.551.551,0,0,1,.55-.55.555.555,0,0,1,.549.55v1.1A.55.55,0,0,1,12.452,44.309ZM2.93,40.153a.55.55,0,0,1-.549-.549V38.5a.549.549,0,0,1,1.1,0v1.1A.55.55,0,0,1,2.93,40.153Zm2.38-2.38h-1.1a.549.549,0,0,1,0-1.1h1.1a.549.549,0,0,1,0,1.1Zm-3.663,0H.549a.549.549,0,0,1,0-1.1h1.1a.549.549,0,0,1,0,1.1ZM2.93,36.491a.55.55,0,0,1-.549-.549v-1.1a.549.549,0,0,1,1.1,0v1.1A.55.55,0,0,1,2.93,36.491Zm16.661-2.435c-.236,0-.472-.016-.7-.032l-.209-.014A14.446,14.446,0,0,1,5.173,20.5c0-.074-.01-.148-.015-.221-.016-.226-.032-.458-.032-.691a14.29,14.29,0,0,1,1.428-6.223,14.454,14.454,0,0,1,13.009-8.24h.028A14.481,14.481,0,0,1,34.056,19.591c0,.393-.029.787-.058,1.157a14.394,14.394,0,0,1-2.667,7.261A14.657,14.657,0,0,1,26.289,32.4,14.424,14.424,0,0,1,19.591,34.056Zm0-3.3a.551.551,0,0,1,.55.55v1.62A13.329,13.329,0,0,0,32.93,20.141H31.311a.549.549,0,1,1,0-1.1H32.93A13.354,13.354,0,0,0,20.141,6.253v1.62a.549.549,0,0,1-.938.388.542.542,0,0,1-.161-.388V6.253a13.312,13.312,0,0,0-6.818,2.2,13.45,13.45,0,0,0-4.676,5.384,13.217,13.217,0,0,0-1.294,5.208h1.62a.549.549,0,0,1,0,1.1H6.254c0,.077.006.155.011.229a13.358,13.358,0,0,0,5.958,10.362c.068.045.139.087.207.127.051.03.1.061.153.092a13.34,13.34,0,0,0,6.233,1.966l.227.012V31.31A.55.55,0,0,1,19.591,30.76Zm22.707.186a.55.55,0,0,1-.55-.549v-.915h-.915a.549.549,0,0,1,0-1.1h.915v-.915a.549.549,0,1,1,1.1,0v.915h.915a.549.549,0,1,1,0,1.1h-.915V30.4A.55.55,0,0,1,42.3,30.947ZM18.257,27.524h-.024a.556.556,0,0,1-.349-.153.548.548,0,0,1-.147-.218l-.1-.3-3.42-9.968-.951-2.773-.049-.139a.55.55,0,0,1,.7-.7l.791.271,2.109.725L27.095,17.8a.55.55,0,0,1,.37.5.544.544,0,0,1-.326.526l-5.8,2.581-2.58,5.8A.55.55,0,0,1,18.257,27.524Zm-3.64-12.848.42,1.223,3.285,9.576,2.1-4.716a.546.546,0,0,1,.279-.279l4.715-2.1-9.58-3.287ZM42.3,25.088a.549.549,0,1,1,.549-.549A.55.55,0,0,1,42.3,25.088Zm0-2.2a.549.549,0,1,1,.549-.55A.551.551,0,0,1,42.3,22.89Zm3.662-1.282a.549.549,0,1,1,.55-.55A.55.55,0,0,1,45.96,21.608ZM42.3,19.228a.549.549,0,1,1,.549-.549A.55.55,0,0,1,42.3,19.228Zm3.662-2.015a.549.549,0,1,1,.55-.549A.55.55,0,0,1,45.96,17.213Zm0-2.93a.549.549,0,1,1,.55-.549A.55.55,0,0,1,45.96,14.283Zm0-2.2a.549.549,0,1,1,.55-.549A.55.55,0,0,1,45.96,12.086Zm0-2.93a.55.55,0,0,1-.549-.549V7.691H44.5a.549.549,0,0,1,0-1.1h.915V5.677a.549.549,0,1,1,1.1,0v.915h.915a.549.549,0,0,1,0,1.1H46.51v.916A.55.55,0,0,1,45.96,9.156Zm-7.926-3.14A2.014,2.014,0,1,1,40.048,4,2.016,2.016,0,0,1,38.034,6.016Zm0-2.93A.916.916,0,1,0,38.949,4,.917.917,0,0,0,38.034,3.085Z" transform="translate(4.578 3.846)"/></g></svg>