<svg xmlns="http://www.w3.org/2000/svg" width="52" height="52" viewBox="0 0 52 52"><defs><style>.a{fill:none;}.b{fill:#323261;}.c{fill:#ff265a;}</style></defs><path class="a" d="M0,0H52V52H0Z"/><path class="b" d="M30.16,33.28H1.04A1.042,1.042,0,0,1,0,32.24V30.811a7.437,7.437,0,0,1,4.255-6.456l2.282-1.217-.169-1.631A23.819,23.819,0,0,1,8,10.048,26.376,26.376,0,0,1,14.9.268a1.041,1.041,0,0,1,1.394,0,26.379,26.379,0,0,1,6.907,9.78,23.825,23.825,0,0,1,1.628,11.459l-.17,1.631,2.281,1.217A7.436,7.436,0,0,1,31.2,30.811V32.24A1.042,1.042,0,0,1,30.16,33.28ZM15.6,2.464h0a24.1,24.1,0,0,0-5.828,8.751A21.759,21.759,0,0,0,8.437,21.293L9.465,31.2H21.734l1.03-9.907a21.757,21.757,0,0,0-1.336-10.078A24.1,24.1,0,0,0,15.6,2.464Zm8.832,22.907L23.826,31.2H29.12v-.39a5.4,5.4,0,0,0-3.154-4.621Zm-17.663,0-1.534.819A5.4,5.4,0,0,0,2.08,30.811v.39H7.375Z" transform="translate(10.4 4.16)"/><path class="c" d="M2.08,1.094A1.068,1.068,0,0,0,1.04,0,1.068,1.068,0,0,0,0,1.094,8.2,8.2,0,0,0,4.735,8.2a.994.994,0,0,0,.93,0A8.2,8.2,0,0,0,10.4,1.094a1.041,1.041,0,1,0-2.08,0A5.88,5.88,0,0,1,5.2,5.985,5.88,5.88,0,0,1,2.08,1.094Z" transform="translate(20.8 39.52)"/><path class="c" d="M5.2,10.4a5.2,5.2,0,1,1,5.2-5.2A5.206,5.206,0,0,1,5.2,10.4Zm0-8.321A3.12,3.12,0,1,0,8.32,5.2,3.124,3.124,0,0,0,5.2,2.08Z" transform="translate(20.8 16.64)"/></svg>