<svg xmlns="http://www.w3.org/2000/svg" width="52" height="52" viewBox="0 0 52 52"><defs><style>.a{fill:none;}.b{fill:#ff265a;}.c{fill:#323261;}</style></defs><path class="a" d="M0,0H52V52H0Z"/><path class="b" d="M5.2,10.4a5.2,5.2,0,1,1,5.2-5.2A5.206,5.206,0,0,1,5.2,10.4Zm0-8.321A3.12,3.12,0,1,0,8.32,5.2,3.124,3.124,0,0,0,5.2,2.08Z" transform="translate(4.16 31.2)"/><path class="b" d="M8.32,16.64A8.32,8.32,0,1,1,16.64,8.32,8.329,8.329,0,0,1,8.32,16.64Zm0-14.56A6.24,6.24,0,1,0,14.56,8.32,6.247,6.247,0,0,0,8.32,2.08Z" transform="translate(31.2 24.96)"/><path class="c" d="M15.616,27.04H1.04a1.04,1.04,0,1,1,0-2.08l5.2.069V22.04L2.155,11.827a1.04,1.04,0,1,1,1.931-.773l3.9,9.746H15.6a1.042,1.042,0,0,1,1.04,1.04v.914l8.514-11.919a1.029,1.029,0,0,1,.563-.4L25,7.554a1.057,1.057,0,0,1-.036-.274A1.041,1.041,0,0,1,26,6.241h.637l-1.3-3.884-5.253,1.75a1.04,1.04,0,0,1-.658-1.973L25.672.054a1.038,1.038,0,0,1,1.315.657l2.081,6.241a1.041,1.041,0,0,1-.987,1.369h-.748l3.837,15.348a1.04,1.04,0,1,1-2.018.5L26.308,12.8,16.647,26.323C16.588,26.772,16.2,27.04,15.616,27.04Zm-7.3-4.16v2.08H14.56V22.88Z" transform="translate(8.32 10.4)"/></svg>