<svg xmlns="http://www.w3.org/2000/svg" xmlns:xlink="http://www.w3.org/1999/xlink" width="445" height="375" viewBox="0 0 445 375"><defs><style>.a{fill:none;}.b{fill:#fff;}.c{fill:#ff265a;}.d{fill:#7723ef;}.e{clip-path:url(#a);}.f{fill:#e9edff;}</style><clipPath id="a"><path class="a" d="M0,375H445V0H0Z"/></clipPath></defs><path class="b" d="M393.719,86c-.332,0-.661-.006-.977-.017L.32,85.985a.323.323,0,0,1-.313-.256.328.328,0,0,1,.179-.363A153.517,153.517,0,0,1,30.29,75a135.7,135.7,0,0,1,30.244-3.486,124.716,124.716,0,0,1,20.1,1.62,126.281,126.281,0,0,1,20.223,5.08c-6.375-15.748-7.152-30.257-2.248-41.957,5.635-13.448,18.616-23.273,38.583-29.2C153.6,2.186,170.811,1.05,181.092.372h.017C184.848.125,188.65,0,192.409,0c26.441,0,53.34,6.087,79.95,18.091A269.84,269.84,0,0,1,331,54.734c3.692-9.712,11.335-16.818,22.1-20.55a52.484,52.484,0,0,1,17-2.726,58.393,58.393,0,0,1,15.184,2c12.766,3.441,22.241,8.371,28.161,14.655,5.081,5.391,7.276,11.554,6.349,17.823a22.391,22.391,0,0,1-9.017,14.432A28.42,28.42,0,0,1,393.719,86ZM60.527,72.162a134.841,134.841,0,0,0-29.415,3.316A152.2,152.2,0,0,0,1.8,85.338H392.752c.318.011.642.016.961.016a28.19,28.19,0,0,0,8.845-1.415,26.966,26.966,0,0,0,7.831-4.09,21.747,21.747,0,0,0,8.767-14.011c.9-6.065-1.238-12.041-6.178-17.283-5.843-6.2-15.217-11.068-27.861-14.474A57.731,57.731,0,0,0,370.1,32.1a51.863,51.863,0,0,0-16.784,2.69c-7.49,2.6-17.362,8.276-21.862,20.583a.328.328,0,0,1-.217.2.309.309,0,0,1-.084.012.324.324,0,0,1-.2-.072A269.5,269.5,0,0,0,272.1,18.68C245.567,6.714,218.761.646,192.421.646c-3.749,0-7.54.125-11.269.371-10.254.675-27.417,1.8-43.773,6.659C117.607,13.546,104.763,23.247,99.2,36.51c-4.907,11.712-4.035,26.276,2.522,42.118a.327.327,0,0,1-.063.346.323.323,0,0,1-.235.1.305.305,0,0,1-.1-.018,125.384,125.384,0,0,0-20.79-5.283A124.015,124.015,0,0,0,60.527,72.162Z" transform="translate(10 257)"/><path class="c" d="M15.926,76S2.853,74.984,3,68.311,7.791,61.2,7.791,61.2-6.59,42.781,3.725,29.871,26.481,18.825,26.481,18.825,24.73,4.488,35.335,1.006A19.2,19.2,0,0,1,53.406,4.2S67.787-7.845,82.6,9.564c6.3,8.557,8.232,15.52,14.72,14.747s17.142.677,8.329,12.862S86.935,44.839,81.61,44.742,33.988,68.8,33.988,68.8Z" transform="translate(219 110)"/><path class="b" d="M16.171,77h-.013a31.574,31.574,0,0,1-6.6-1.361C5.207,74.177,2.939,71.909,3,69.078c.078-3.543,1.418-5.345,2.528-6.233A5.251,5.251,0,0,1,7.7,61.793a46.994,46.994,0,0,1-5.8-10.75C-.237,45.277-1.643,36.98,3.767,30.192c5.388-6.764,11.363-9.451,15.427-10.514a23.54,23.54,0,0,1,5.887-.784c.742,0,1.279.043,1.533.069a25.781,25.781,0,0,1,.718-8.409,15.536,15.536,0,0,1,2.677-5.6,11.663,11.663,0,0,1,5.646-3.941A19.775,19.775,0,0,1,41.842,0,19.48,19.48,0,0,1,50.1,1.859a18.248,18.248,0,0,1,3.789,2.318A20.74,20.74,0,0,1,62.967.347,18.461,18.461,0,0,1,65.76.132c7.865,0,13.932,5.2,17.637,9.565,1.671,2.276,3.038,4.443,4.245,6.355a39.245,39.245,0,0,0,4.406,6.164,6.825,6.825,0,0,0,5.078,2.365,8.013,8.013,0,0,0,.942-.058,24.554,24.554,0,0,1,2.912-.177,16.176,16.176,0,0,1,5.012.7,5.912,5.912,0,0,1,3.394,2.454c1.374,2.336.436,5.786-2.787,10.252a21.287,21.287,0,0,1-7.756,6.962,16.585,16.585,0,0,1-7.5,1.659,38.34,38.34,0,0,1-5.693-.542,28.416,28.416,0,0,0-3.383-.373h-.031c-1.23,0-4.488,1.263-9.684,3.755-4.163,2-9.574,4.781-16.083,8.278-11.355,6.1-21.945,12.16-22.043,12.216l-18.2,7.278A.167.167,0,0,1,16.171,77Zm8.911-57.784A23.235,23.235,0,0,0,19.259,20a28.912,28.912,0,0,0-15.241,10.4C-1.3,37.065.094,45.243,2.2,50.929A45.841,45.841,0,0,0,8.111,61.806a.164.164,0,0,1,.021.167.16.16,0,0,1-.131.1,4.7,4.7,0,0,0-2.356,1.077c-1.482,1.233-2.264,3.231-2.322,5.939a4.878,4.878,0,0,0,1.838,3.846,12.8,12.8,0,0,0,4.235,2.3,31.1,31.1,0,0,0,6.752,1.447l18.141-7.256c.423-.243,42.372-24.282,47.953-24.282h.033a27.94,27.94,0,0,1,3.341.366l.084.012a37.841,37.841,0,0,0,5.615.535A16.353,16.353,0,0,0,98.7,44.417a20.945,20.945,0,0,0,7.637-6.852c3.14-4.353,4.072-7.684,2.77-9.9-.659-1.12-2.589-3-8.108-3a24.458,24.458,0,0,0-2.894.176,8.521,8.521,0,0,1-1.005.062,7.043,7.043,0,0,1-5.237-2.4,39.215,39.215,0,0,1-4.487-6.264l-.008-.013c-1.2-1.906-2.568-4.066-4.226-6.326C79.486,5.59,73.5.456,65.756.456a18.129,18.129,0,0,0-2.727.209A20.11,20.11,0,0,0,53.993,4.51a.161.161,0,0,1-.212,0A19.114,19.114,0,0,0,35.754,1.321a11.364,11.364,0,0,0-5.774,4.21,16.044,16.044,0,0,0-2.541,5.927,25.551,25.551,0,0,0-.486,7.67.161.161,0,0,1-.047.135.168.168,0,0,1-.112.045l-.026,0A13.093,13.093,0,0,0,25.082,19.217Z" transform="translate(218 110)"/><path class="d" d="M13.68,60.764c0-2.033,12.515-52.582,44.24-58.683s61.706,1.744,69.565,16.56S140,140,140,140H0Z" transform="translate(156 202)"/><path class="b" d="M140.677,141H.323a.319.319,0,0,1-.247-.115.316.316,0,0,1-.072-.26L13.717,61.2C13.781,59.907,17,46.671,24,33.195,30.455,20.77,41.651,5.287,58.33,2.079A114.8,114.8,0,0,1,79.959,0c11.311,0,21.829,1.732,30.416,5.01,8.777,3.35,15.016,8.135,18.04,13.837C136.237,33.593,140.809,136.3,141,140.665a.323.323,0,0,1-.322.336ZM80.029.631A114.577,114.577,0,0,0,58.451,2.71C42.026,5.869,30.962,21.192,24.573,33.491,17.5,47.108,14.359,60.257,14.359,61.232a.373.373,0,0,1,0,.055L.7,140.357H140.342c-.054-1.181-1.329-29.27-3.535-57.762-1.234-15.935-2.536-29.206-3.872-39.446-1.653-12.675-3.365-20.751-5.089-24-3.816-7.194-12.939-12.877-25.69-16A93.19,93.19,0,0,0,80.029.631Z" transform="translate(155 201)"/><path class="b" d="M432.146,34H10.853C4.869,34,0,26.374,0,17S4.869,0,10.853,0H432.146C438.131,0,443,7.626,443,17S438.131,34,432.146,34ZM10.853.975C5.4.975.966,8.163.966,17S5.4,33.025,10.853,33.025H432.146c5.453,0,9.889-7.189,9.889-16.026S437.6.975,432.146.975Z" transform="translate(0 341)"/><path class="b" d="M9.765,0S29.726,7.927,35,13.8C34.358,16,33.717,16,33.717,16L0,14.9Z" transform="translate(230 315)"/><path class="b" d="M34.385,16h0L.308,14.942a.318.318,0,0,1-.273-.17.305.305,0,0,1,.02-.317L9.922.138A.316.316,0,0,1,10.184,0,.328.328,0,0,1,10.3.022c.827.313,20.315,7.729,25.616,13.34a.312.312,0,0,1,.071.3C35.321,15.832,34.592,16,34.385,16ZM10.307.693.9,14.337l33.452,1.039c.079-.035.5-.28.968-1.722-2.135-2.177-6.7-4.9-13.57-8.1C16.545,3.131,11.675,1.221,10.307.693Z" transform="translate(229 315)"/><path class="d" d="M50.046,100.452S101.24,90.87,128,109.742L106.766,135H15.722s-23.852-8.42-12.8-30.194S39.761,29.234,49.465,18,71.183,2.129,86.308,0" transform="translate(119 206)"/><path class="b" d="M107.385,136h-91.3a.309.309,0,0,1-.108-.02c-.11-.037-11.05-3.991-14.75-13.208-2.1-5.223-1.512-11.115,1.737-17.513,2.106-4.148,4.7-9.365,7.706-15.409,12.384-24.9,31.1-62.538,39.007-71.691C58.591,7.844,69.7,2.414,86.825,0a.322.322,0,1,1,.09.637C69.958,3.027,58.968,8.391,50.168,18.579,42.313,27.67,23.62,65.262,11.25,90.137c-3.005,6.044-5.6,11.263-7.708,15.414-3.16,6.222-3.736,11.935-1.715,16.979,3.461,8.63,13.515,12.528,14.318,12.827h91.089l20.97-24.941c-13.677-9.475-33.726-11.494-48.318-11.494h-.345a179.394,179.394,0,0,0-28.975,2.432.319.319,0,0,1-.376-.255.322.322,0,0,1,.258-.376,179.765,179.765,0,0,1,29.08-2.443h.358c14.788,0,35.156,2.066,48.977,11.811a.321.321,0,0,1,.061.469l-21.294,25.325a.319.319,0,0,1-.246.116" transform="translate(119 206)"/><path class="b" d="M.484,20a.465.465,0,0,1-.257-.073.479.479,0,0,1-.152-.664C.75,18.2,1.5,17.119,2.292,16.057a.492.492,0,0,1,.391-.194.482.482,0,0,1,.387.769c-.788,1.051-1.52,2.109-2.175,3.144A.481.481,0,0,1,.484,20ZM5.1,13.815a.487.487,0,0,1-.483-.446.475.475,0,0,1,.116-.349c.814-.947,1.7-1.915,2.623-2.876a.481.481,0,0,1,.35-.148.489.489,0,0,1,.336.133.482.482,0,0,1,.149.341.474.474,0,0,1-.134.34c-.9.931-1.77,1.885-2.588,2.836A.48.48,0,0,1,5.1,13.815Zm5.367-5.568a.482.482,0,0,1-.354-.152.479.479,0,0,1,.02-.68c.945-.881,1.924-1.753,2.91-2.589a.493.493,0,0,1,.316-.115.481.481,0,0,1,.482.519.477.477,0,0,1-.168.328c-.981.833-1.949,1.694-2.875,2.559A.487.487,0,0,1,10.469,8.247Zm5.9-5.009a.483.483,0,0,1-.383-.186.479.479,0,0,1,.086-.675c1.778-1.369,2.951-2.152,3.169-2.3A.491.491,0,0,1,19.515,0a.484.484,0,0,1,.405.216.477.477,0,0,1,.07.361.481.481,0,0,1-.209.307c-.007,0-1.237.811-3.112,2.255A.48.48,0,0,1,16.372,3.238Z" transform="translate(217 313)"/><path class="a" d="M0,375H445V0H0Z"/><g class="e"><path class="b" d="M0,10H48V0H0Z" transform="translate(213 330)"/><path class="b" d="M48.676,11H.324A.325.325,0,0,1,0,10.675V.327A.326.326,0,0,1,.324,0H48.676A.325.325,0,0,1,49,.327V10.675A.324.324,0,0,1,48.676,11ZM.648.652v9.7h47.7V.652Z" transform="translate(212 330)"/><path class="b" d="M0,10H84V0H0Z" transform="translate(261 330)"/><path class="b" d="M84.678,11H.323A.324.324,0,0,1,0,10.675V.327A.325.325,0,0,1,.323,0H84.678A.324.324,0,0,1,85,.327V10.675A.323.323,0,0,1,84.678,11ZM.644.652v9.7H84.357V.652Z" transform="translate(260 330)"/><path class="d" d="M0,58.232C18.4,117.24,69.034,103,83.558,86.912,94.914,74.337,122.87,10.367,122.87,10.367c2.008-5.188-19.852-14.492-23.625-8.332,0,0-15.1,19.184-25.174,38.369S47.54,65.209,37.083,46.217,9.364,8.523,8.854,7.87" transform="translate(273 210)"/><path class="b" d="M48.762,101a47.013,47.013,0,0,1-10.006-1.063C16.013,94.985,5.136,74.547.015,58.275a.318.318,0,0,1,.212-.4.327.327,0,0,1,.4.21C5.7,74.2,16.453,94.427,38.894,99.314A50.672,50.672,0,0,0,65.3,97.64c7.63-2.516,14.4-6.59,18.583-11.178,4.636-5.086,12.91-19.83,23.931-42.636,8.334-17.249,15.367-33.175,15.438-33.334.671-1.719-2.009-4.422-6.676-6.714A31.382,31.382,0,0,0,106.753.746c-2.361-.264-5.429-.175-6.626,1.762-.007.01-.014.021-.022.031-.15.19-15.245,19.258-25.214,38.075-5.8,10.942-13.832,17.521-21.493,17.6h-.14c-6.19,0-11.729-4.083-16.026-11.817C31.12,35.4,21.286,22.12,9.539,9c-.38-.426-.538-.6-.591-.668A.317.317,0,0,1,9,7.888a.324.324,0,0,1,.451.055c.042.055.261.3.564.637C21.8,21.732,31.661,35.052,37.794,46.087c4.177,7.518,9.523,11.486,15.464,11.486h.132c7.421-.074,15.245-6.524,20.931-17.257C84.2,21.669,99.092,2.784,99.589,2.158,100.681.412,103.181-.3,106.825.112a32.005,32.005,0,0,1,10.035,3.094c4.026,1.977,7.976,4.995,6.985,7.53-.075.172-7.114,16.108-15.452,33.366C97.19,67.29,89.1,81.686,84.361,86.891,80.108,91.556,73.234,95.7,65.5,98.245A53.917,53.917,0,0,1,48.762,101" transform="translate(273 210)"/><path class="b" d="M.323,26a.322.322,0,0,1-.217-.562C9.024,17.387,11.335.452,11.357.281A.323.323,0,1,1,12,.365C11.976.537,9.636,17.706.54,25.918A.328.328,0,0,1,.323,26" transform="translate(182 280)"/><path class="b" d="M54.593,49.43c-9.869,13.7-4.245,28.847-5.419,31.034-2.785,5.393-24.183,5.978-38.4,1.749S-1.1,74.34,3.739,71.134c11.286-7.289,17.294-41.549,17.587-42.277,0,0,1.76-5.249,3.079-5.541-2.639-4.957-2.786-13.266,5.569-13.849s10.553,8.456,10.553,8.456,9.38-1.749,12.117-15.453c3.81,11.274,13.19,13.51,21.2.486C79.221-5.5,84.877,6.327,86.7,11.785c.874,2.626,1.609,33.739-24.675,37.238S29.877,33.376,29.877,33.376" transform="translate(215 141)"/><path class="b" d="M31.677,86a76.506,76.506,0,0,1-20.752-2.8C.546,80.081.157,77.479.029,76.624-.278,74.563,1.913,72.8,3.856,71.5,8.37,68.548,14.989,59.052,20.89,30.559c.209-1.009.267-1.275.305-1.373.257-.775,1.6-4.687,2.918-5.59a14.635,14.635,0,0,1-1.439-5.189,9.354,9.354,0,0,1,.972-5.268c1.192-2.164,3.408-3.419,6.408-3.63.261-.018.522-.028.776-.028a9.2,9.2,0,0,1,7.412,3.639,14.8,14.8,0,0,1,2.535,4.814,13.615,13.615,0,0,0,5.44-3.254c3.009-2.832,5.044-6.85,6.049-11.94a.321.321,0,0,1,.294-.26h.011a.328.328,0,0,1,.314.22c1.807,5.412,4.915,8.751,8.528,9.161a6.878,6.878,0,0,0,.771.043,9.284,9.284,0,0,0,5.7-2.254,24.238,24.238,0,0,0,5.472-6.529C74.658,1.05,76.089,0,77.607,0a3.4,3.4,0,0,1,.412.025c1.766.218,3.569,1.812,5.359,4.739a37.958,37.958,0,0,1,3.315,7.295c.538,1.631,1.136,15-5.4,25.516A25.8,25.8,0,0,1,61.934,49.881a45.323,45.323,0,0,1-6.045.419c-.4,0-.805-.006-1.2-.018-7.074,10.042-5.923,20.886-5.3,26.711.233,2.19.387,3.637.038,4.3a5.311,5.311,0,0,1-2.249,2.092,16.408,16.408,0,0,1-4,1.469A49.861,49.861,0,0,1,31.677,86Zm-.834-75.873c-.249,0-.5.009-.743.026-2.812.2-4.794,1.309-5.893,3.3-1.664,3.016-.885,7.264.625,10.136a.325.325,0,0,1-.213.468c-.781.175-2.119,3.234-2.82,5.351-.032.093-.132.578-.259,1.193l-.019.09C16.813,53.416,10.827,67.714,4.209,72.039,1.6,73.792.471,75.219.666,76.529c.3,2.025,3.815,4.062,10.444,6.055a73.842,73.842,0,0,0,20.346,2.773,50.88,50.88,0,0,0,11.4-1.115c3.231-.77,5.3-1.895,6-3.251.26-.488.1-2-.105-3.918v-.011c-.618-5.825-1.769-16.666,5.18-26.81-7.31-.355-13.364-2.709-17.991-6.995a23.111,23.111,0,0,1-6.261-9.319.327.327,0,0,1,.215-.4.313.313,0,0,1,.094-.014.324.324,0,0,1,.306.23A23.138,23.138,0,0,0,36.394,42.8,24.732,24.732,0,0,0,45.9,48.231a33.464,33.464,0,0,0,9.966,1.422,44.964,44.964,0,0,0,5.982-.414,25.178,25.178,0,0,0,18.9-12.007c6.421-10.334,5.86-23.383,5.336-24.971A37.07,37.07,0,0,0,82.83,5.1C81.171,2.39,79.481.857,77.943.668a2.7,2.7,0,0,0-.331-.021c-1.289,0-2.537.948-3.71,2.818a24.712,24.712,0,0,1-5.7,6.753,9.849,9.849,0,0,1-6.013,2.333,7.5,7.5,0,0,1-.847-.048A8.406,8.406,0,0,1,56.368,9.97a16.752,16.752,0,0,1-3.709-6,24.667,24.667,0,0,1-3.134,7.7,17.807,17.807,0,0,1-3.979,4.438,13.057,13.057,0,0,1-4.933,2.535.326.326,0,0,1-.058.005.32.32,0,0,1-.312-.247C40.161,18.062,38.17,10.128,30.843,10.128Z" transform="translate(214 140)"/><path class="b" d="M0,0S7.337,9.331,12.723,7.838L15,4.185S5.038,3.428,0,0" transform="translate(255 186)"/><path class="b" d="M44.646,77s4.617-8.613,3.016-12.727-5.306-3.079-5.106-3.644,5.807-11.5-1.9-14.793-8.71-8.291-5.807-11.494-.7-14.134-6.206-15.264-7.909-2.638-7.609-5.936S5.718-3.914,1.913,1.081a7.906,7.906,0,0,0,2,11.966c3.3,2.073,5.707,9.706-.3,13.38s-3,25.534,11.613,32.319S31.845,77,31.845,77Z" transform="translate(2 247)"/><path class="b" d="M45.3,78H32.4a.325.325,0,0,1-.318-.266,20.815,20.815,0,0,0-2.9-6.6,28.5,28.5,0,0,0-5.012-5.883,34.684,34.684,0,0,0-8.649-5.62C6.049,55.24,1.221,44.419.746,36.223c-.272-4.7.868-8.3,3.049-9.63a6.964,6.964,0,0,0,3.558-6.142C7.368,17.773,5.968,14.869,4.1,13.7A8.755,8.755,0,0,1,.124,7.987,8.507,8.507,0,0,1,1.994,1.209,3.223,3.223,0,0,1,4.714,0,8.59,8.59,0,0,1,7.725.656,32.374,32.374,0,0,1,17.105,6.97c2.376,2.2,4.865,5.086,4.729,6.58-.268,2.935,1.74,4.459,7.408,5.62,2.086.428,5.112,2.714,6.774,7.752,1.38,4.182.725,6.934-.347,8.114a4.985,4.985,0,0,0-1.311,4.5c.555,2.515,3.058,4.838,7.049,6.54a6.591,6.591,0,0,1,3.732,3.7c.758,1.926,1.107,5.453-1.532,11.315a.333.333,0,0,1-.014.031c.076.012.161.023.244.034l.024,0a5.3,5.3,0,0,1,4.778,3.615c.677,1.734.388,4.492-.836,7.976a39.371,39.371,0,0,1-2.219,5.078A.321.321,0,0,1,45.3,78ZM4.7.633A2.6,2.6,0,0,0,2.508,1.6,7.9,7.9,0,0,0,.761,7.872,8.119,8.119,0,0,0,4.44,13.154c2.081,1.3,3.577,4.372,3.56,7.3a7.684,7.684,0,0,1-3.865,6.688c-1.974,1.2-3,4.586-2.742,9.046C1.857,44.2,6.563,54.768,15.8,59.045A32.054,32.054,0,0,1,29.829,70.893a21.618,21.618,0,0,1,2.839,6.464H45.1a40.133,40.133,0,0,0,2.235-5.269c1.061-3.164,1.3-5.547.7-7.08A4.673,4.673,0,0,0,43.777,61.8h-.006c-.445-.057-.714-.092-.849-.311a.411.411,0,0,1-.033-.36c.014-.045.058-.142.128-.3,2.546-5.656,2.232-9.005,1.52-10.819a5.977,5.977,0,0,0-3.387-3.347c-4.187-1.786-6.824-4.27-7.424-6.993A5.611,5.611,0,0,1,35.189,34.6c1.194-1.316,1.277-4.252.211-7.482-.985-2.985-3.223-6.694-6.289-7.323-5.149-1.055-8.271-2.478-7.922-6.307.193-2.112-7.554-9.871-13.7-12.235A8.022,8.022,0,0,0,4.7.633Z" transform="translate(1 247)"/><path class="f" d="M.4,46.763c-.016-.392-1.8-23.9,2.3-27.427S8.461,12.384,5.578,7.621s9.2-13.9,12.592-1.047c.7,3.715-1.5,7.428,3,8.952s6.689,5.333,2.895,7.238-4.092,4.477-2.4,6.381,6.689,12.665.2,15.809S13.877,76,13.877,76H6.689S.626,52,.4,46.763" transform="translate(39 250)"/><path class="b" d="M6.278,52s9.192-11.245,14.84-11.386,9.523-9.114,6.866-12.326c2.768-4.211,16.057-2.55,14.95-10.194s-9.3-12.41-16.168-7.2C21.34,9.23,22.877-.632,17.955.032S11.373,8.9,12.148,13.551C4.506,14.992-.7,25.186.076,34.6" transform="translate(49 274)"/><path class="b" d="M6.653,53a.324.324,0,0,1-.251-.529C6.784,52,15.829,41.032,21.606,40.89c2.01-.049,4.78-1.466,6.524-5.293,1.191-2.613,1.254-5.261.156-6.587a.326.326,0,0,1-.021-.385c1.177-1.788,3.992-2.547,6.97-3.348,4.27-1.15,8.684-2.339,8.053-6.689a10.762,10.762,0,0,0-6.377-8.495A9.291,9.291,0,0,0,27.5,11.548a.324.324,0,0,1-.29.052c-2.85-.871-3.887-3.822-4.8-6.425C21.368,2.2,20.614.39,18.469.679a4.987,4.987,0,0,0-3.345,2.17c-2.161,2.926-2.764,7.886-2.233,11.067a.324.324,0,0,1-.261.371C5.484,15.632-.08,25.375.724,35.136a.324.324,0,1,1-.646.053A24.939,24.939,0,0,1,3.02,21.4c2.311-4.173,5.563-6.89,9.183-7.684-.464-3.318.2-8.272,2.4-11.248A5.6,5.6,0,0,1,18.381.038c2.785-.381,3.686,2.2,4.644,4.923.887,2.526,1.8,5.135,4.223,5.97a10.018,10.018,0,0,1,9.91-1.438,11.411,11.411,0,0,1,6.772,9c.714,4.92-4.195,6.243-8.526,7.408-2.743.739-5.339,1.439-6.464,2.894,1.115,1.576,1.038,4.311-.219,7.069-1.226,2.688-3.733,5.589-7.1,5.671C16.141,41.673,7,52.769,6.9,52.881A.322.322,0,0,1,6.653,53" transform="translate(48 273)"/><path class="f" d="M30.869,23.087s-.165-1.333,1.811-6-1.564-9.744-7.354-8.578c-.521-3.747-4.828-5.247-8.368-3.665S14.406-.4,8.067.018s-5.6,8.911-2.88,12.909C.412,11.344.165,14.675.165,14.675-1.317,24.086,7.491,25.919,14.9,22.837S27.822,30,27.822,30L35,29.5" transform="translate(1 295)"/><path class="f" d="M.3,18.528C.19,16-1.835.561,6.371.9c3.517.333,2.664,5.22,2.664,5.22s-.107-7.109,3.517-6S15.794,5.05,13.7,8.031c6.846,5.082.927,6.081.927,6.081L9.781,19Z" transform="translate(52 306)"/><path class="b" d="M0,0,.714,2H4q-.39-.994-.753-2Z" transform="translate(25 332)"/><path class="b" d="M37,0H0Q.352,1.005.728,2H36.159Z" transform="translate(28 332)"/><path class="b" d="M36.829,2H1.057a.328.328,0,0,1-.288-.165C.508,1.356.259.88.03.421A.278.278,0,0,1,.051.137.327.327,0,0,1,.321,0H37.679a.325.325,0,0,1,.276.147.276.276,0,0,1,.005.294l-.849,1.406A.332.332,0,0,1,36.829,2ZM.827.592c.166.321.3.581.428.815H36.641l.491-.815Z" transform="translate(28 332)"/><path class="b" d="M2.684.211s-7.439,2.473,2.45,3.448,24.508-.45,24.508-.45,3.32-1.8-.424-2.173S7.464-.464,2.379.211" transform="translate(30 349)"/><path class="b" d="M39,0,29.15,17H8.075L0,0Z" transform="translate(25 334)"/><path class="b" d="M29.737,18H8.472a.327.327,0,0,1-.3-.184L.029.445a.3.3,0,0,1,.023-.3A.324.324,0,0,1,.325,0H39.674a.325.325,0,0,1,.281.155.3.3,0,0,1,0,.314L30.02,17.837A.326.326,0,0,1,29.737,18ZM.83.632,8.68,17.37H29.546L39.123.632Z" transform="translate(25 333)"/><path class="b" d="M0,9H48V0H0Z" transform="translate(21 323)"/><path class="b" d="M48.674,9H.325A.315.315,0,0,1,0,8.7V.307A.317.317,0,0,1,.325,0H48.674A.317.317,0,0,1,49,.307V8.7A.316.316,0,0,1,48.674,9ZM.652.611V8.389h47.7V.611Z" transform="translate(20 323)"/><path class="b" d="M0,51C0,50.418,24.194,0,24.194,0H108L78,51Z" transform="translate(267 277)"/><path class="b" d="M78.581,52H.323A.324.324,0,0,1,0,51.675C0,51.057,18.6,12.107,24.305.184A.323.323,0,0,1,24.6,0h84.083a.324.324,0,0,1,.277.488L78.856,51.84A.318.318,0,0,1,78.581,52ZM24.8.647h0C16.668,17.652,2.462,47.468.79,51.352H78.4L108.116.647H24.8Z" transform="translate(267 276)"/><path class="b" d="M25.878.946,32,0,7.61,51H0Z" transform="translate(260 277)"/><path class="b" d="M0,2H132V0H0Z" transform="translate(213 340)"/><path class="b" d="M11,5.5A5.5,5.5,0,1,1,5.5,0,5.5,5.5,0,0,1,11,5.5" transform="translate(318 296)"/><path class="b" d="M4.685,25h0a.318.318,0,0,1-.3-.332A65.333,65.333,0,0,0,2.291,6.587,30.657,30.657,0,0,0,.043.494.339.339,0,0,1,.15.046.3.3,0,0,1,.571.16a30.438,30.438,0,0,1,2.3,6.211A66.02,66.02,0,0,1,4.992,24.678.318.318,0,0,1,4.685,25" transform="translate(246 236)"/><path class="b" d="M.089,2.787s-1.557,7.107,8.338,9.476,12.451-1.636,12.562-2.707-.5-6.431-8.45-8.291S.978-.652.089,2.787" transform="translate(373 212)"/><path class="b" d="M.222,31.762s-1.66-13.987,4.1-16.438,18.658,1.3,23.492-2.307S42.177-1.547,47.6.184s-6.448,10.918-9.085,15.7-6.3,13-11.869,13.574-10.4,4.9-11.721,8.074C7.351,39.472-.518,34.975.222,31.762" transform="translate(375 185)"/><path class="b" d="M11.322,39h-.007A16.382,16.382,0,0,1,5.67,37.988,11.85,11.85,0,0,1,1.6,35.552,3.641,3.641,0,0,1,.224,32.37a41.99,41.99,0,0,1-.067-7.917,18.925,18.925,0,0,1,1.22-5.427A6.212,6.212,0,0,1,4.469,15.5a16.244,16.244,0,0,1,6.421-.936c1.438,0,2.99.068,4.492.133h.02c1.476.063,3,.129,4.447.129,2.614,0,5.856-.184,7.736-1.616,1.226-.936,2.846-2.444,4.413-3.9C36.453,5.158,42,0,46.081,0A4.234,4.234,0,0,1,47.4.2,2.1,2.1,0,0,1,48.934,1.61c.558,2.09-2.491,5.506-5.719,9.122a37.61,37.61,0,0,0-4.6,5.774c-.3.555-.61,1.153-.939,1.785l-.03.058C35.122,23.2,31.668,29.844,26.656,30.376c-5.5.583-10.1,4.994-11.307,7.953a.316.316,0,0,1-.213.189A15.076,15.076,0,0,1,11.322,39Zm-.365-23.794a16.15,16.15,0,0,0-6.234.88C-.684,18.439.849,32.209.865,32.348a.3.3,0,0,1-.005.109,3.005,3.005,0,0,0,1.18,2.633A11.242,11.242,0,0,0,5.917,37.4a15.69,15.69,0,0,0,5.384.959,14.506,14.506,0,0,0,3.521-.427A14.11,14.11,0,0,1,19.09,32.9a15.177,15.177,0,0,1,7.5-3.159c4.672-.5,8.035-6.962,10.489-11.684l.021-.041c.334-.642.649-1.249.954-1.812a37.79,37.79,0,0,1,4.676-5.884l.011-.012c2.834-3.175,6.045-6.773,5.578-8.526A1.489,1.489,0,0,0,47.2.813,3.574,3.574,0,0,0,46.088.645c-3.844,0-9.515,5.277-13.655,9.13l-.075.07c-1.629,1.514-3.168,2.945-4.387,3.873-2.03,1.549-5.41,1.747-8.127,1.747-1.463,0-3-.067-4.489-.131l-.123-.005C13.812,15.268,12.344,15.206,10.958,15.206Z" transform="translate(375 185)"/><path class="b" d="M29,8H4A4,4,0,1,1,4,0H29a4,4,0,1,1,0,8" transform="translate(400 334)"/><path class="b" d="M30,0V8.005a14.944,14.944,0,0,1-1.908,7.328,15.087,15.087,0,0,1-2.827,3.606A15,15,0,0,1,0,8.005V0Z" transform="translate(402 316)"/><path class="b" d="M15,24C6.728,24,0,17.026,0,8.454V.329A.322.322,0,0,1,.315,0H29.686A.322.322,0,0,1,30,.329V8.454a16.02,16.02,0,0,1-1.907,7.6,15.548,15.548,0,0,1-2.827,3.74A14.68,14.68,0,0,1,15,24ZM.631.655v7.8A14.653,14.653,0,0,0,15,23.345a14.059,14.059,0,0,0,9.836-4.032,14.861,14.861,0,0,0,2.707-3.582,15.334,15.334,0,0,0,1.829-7.277V.655Z" transform="translate(402 315)"/><path class="b" d="M12.445.521A1.841,1.841,0,0,0,11.12,0l-.866.011C9.082.032,6.9.065,4.754.086V3.75c1.648-.018,3.326-.037,4.553-.057v8.78a22.731,22.731,0,0,1-6.469.859A15.083,15.083,0,0,1,0,16.926c.873.049,1.694.074,2.47.074,6.292,0,9.311-1.522,9.561-1.661A1.832,1.832,0,0,0,13,13.727V1.832A1.834,1.834,0,0,0,12.445.521" transform="translate(428 317)"/><path class="b" d="M2.575,17c-.707,0-1.454-.023-2.284-.071a.306.306,0,0,1-.272-.2A.31.31,0,0,1,.1,16.394,14.124,14.124,0,0,0,2.743,13a.312.312,0,0,1,.266-.158A21.756,21.756,0,0,0,8.867,12.1V4.183C7.5,4.2,6.033,4.22,4.839,4.231h-.01a.287.287,0,0,1-.209-.088.307.307,0,0,1-.092-.22V.392a.31.31,0,0,1,.305-.31C6.74.065,8.79.035,10.072.013L10.9,0h.063A2.017,2.017,0,0,1,12.38.59,2.111,2.111,0,0,1,13,2.075V13.537a2.069,2.069,0,0,1-1.085,1.826,10.537,10.537,0,0,1-2.319.843A27.605,27.605,0,0,1,2.686,17ZM9.17,3.559h0a.328.328,0,0,1,.22.089.307.307,0,0,1,.092.22v8.46a.308.308,0,0,1-.216.3,21.421,21.421,0,0,1-6.073.84,14.75,14.75,0,0,1-2.168,2.883c.569.024,1.02.037,1.418.037l.242,0c5.814,0,8.629-1.4,8.931-1.558a1.463,1.463,0,0,0,.768-1.286V2.075a1.477,1.477,0,0,0-.436-1.042A1.453,1.453,0,0,0,10.938.62h-.03c-.015,0-.309,0-.827.011C9.05.65,7.124.679,5.145.7V3.611C6.815,3.592,8.17,3.575,9.17,3.559Z" transform="translate(428 317)"/><path class="b" d="M12.216.545s-28.229,4.675,1.138,4.447S101,1.722,101,1.722V0Z" transform="translate(111 341)"/><path class="b" d="M106.68,12H.32A.332.332,0,0,1,0,11.657V.343A.332.332,0,0,1,.32,0H106.68a.333.333,0,0,1,.32.343V11.657A.333.333,0,0,1,106.68,12ZM.641.685V11.314H106.359V.685Z" transform="translate(27 153)"/><path class="b" d="M0,42H13V0H0Z" transform="translate(31 112)"/><path class="b" d="M13.679,43H.321A.323.323,0,0,1,0,42.675V.325A.323.323,0,0,1,.321,0H13.679A.323.323,0,0,1,14,.325v42.35A.323.323,0,0,1,13.679,43ZM.644.649v41.7H13.358V.649Z" transform="translate(31 111)"/><path class="f" d="M0,42H13V0H0Z" transform="translate(53 112)"/><path class="b" d="M0,17H13V0H0Z" transform="translate(74 137)"/><path class="b" d="M0,17H13V0H0Z" transform="translate(93 137)"/><path class="b" d="M11.5,23A11.5,11.5,0,1,1,23,11.5,11.513,11.513,0,0,1,11.5,23ZM11.5.65A10.85,10.85,0,1,0,22.351,11.5,10.863,10.863,0,0,0,11.5.65Z" transform="translate(419 274)"/><path class="b" d="M9,4.5A4.5,4.5,0,1,0,4.5,9,4.5,4.5,0,0,0,9,4.5" transform="translate(408 260)"/><path class="b" d="M3,6A3,3,0,1,1,6,3,3,3,0,0,1,3,6ZM3,.7A2.3,2.3,0,1,0,5.3,3,2.3,2.3,0,0,0,3,.7Z" transform="translate(431 248)"/><path class="b" d="M109.518,90H.482A.483.483,0,0,1,0,89.518V.482A.483.483,0,0,1,.482,0H80.656a.483.483,0,0,1,0,.965H.965V89.035H109.036V.482a.482.482,0,1,1,.964,0V89.518a.482.482,0,0,1-.482.482" transform="translate(334 30)"/><path class="d" d="M4,0,0,9H8Z" transform="translate(401 64)"/><path class="d" d="M8.678,10H.32a.32.32,0,0,1-.268-.148.33.33,0,0,1-.024-.31L4.207.191a.321.321,0,0,1,.587,0L8.971,9.542A.325.325,0,0,1,8.678,10ZM4.5,1.112.818,9.351H8.182L4.5,1.112h0Z" transform="translate(401 63)"/><path class="c" d="M22,4.041,18.907.578,16.384,4.154,13.06.924l-4.013,4.5L5.38,0,0,4.154V53H22Z" transform="translate(395 88)"/><path class="c" d="M21.689,54H.313A.321.321,0,0,1,0,53.673V4.506a.333.333,0,0,1,.122-.258L5.35.067A.307.307,0,0,1,5.539,0a.3.3,0,0,1,.05,0A.305.305,0,0,1,5.8.143L9.136,5.257l3.633-4.22a.312.312,0,0,1,.221-.109H13a.305.305,0,0,1,.221.091L16.188,4.01,18.427.717A.31.31,0,0,1,18.664.58h.013a.308.308,0,0,1,.238.108L21.92,4.174A.329.329,0,0,1,22,4.393v49.28A.319.319,0,0,1,21.689,54ZM5.468.794.625,4.667V53.348H21.377V4.517L18.712,1.427,16.488,4.7a.317.317,0,0,1-.226.136l-.031,0a.308.308,0,0,1-.215-.092l-3-3.019L9.334,6A.3.3,0,0,1,9.1,6.11H9.081a.313.313,0,0,1-.238-.142L5.468.794Z" transform="translate(395 88)"/><path class="d" d="M0,0V2.328c0,7.562,22,7.562,22,0V0Z" transform="translate(395 141)"/><path class="b" d="M22,15.315V19.61l-3.093-3.482-2.523,3.6L13.06,16.474,9.047,21,5.38,15.546,0,19.723V15.315L6.817,0h8.365Z" transform="translate(395 73)"/><path class="b" d="M0,18H23V0H0Z" transform="translate(349 40)"/><path class="b" d="M22.684,19H.317A.321.321,0,0,1,0,18.675V.324A.321.321,0,0,1,.317,0H22.684A.321.321,0,0,1,23,.324V18.675A.321.321,0,0,1,22.684,19ZM.634.647V18.353H22.367V.647Z" transform="translate(349 40)"/><path class="d" d="M0,6.484,7.485,15,19,2.247,17.224,0,7.473,10.9,2.044,5.085Z" transform="translate(354 38)"/><path class="b" d="M0,18H23V0H0Z" transform="translate(349 66)"/><path class="b" d="M22.684,19H.317A.32.32,0,0,1,0,18.678V.325A.321.321,0,0,1,.317,0H22.684A.321.321,0,0,1,23,.325V18.678A.32.32,0,0,1,22.684,19ZM.634.647V18.353H22.367V.647Z" transform="translate(349 65)"/><path class="d" d="M0,6.485,7.485,15,19,2.247,17.224,0,7.473,10.9,2.044,5.086Z" transform="translate(354 63)"/><path class="b" d="M10.366,0,0,40H23Z" transform="translate(129 8)"/><path class="b" d="M48.681,44H.32a.318.318,0,0,1-.253-.127.326.326,0,0,1-.056-.28L11.333.241A.322.322,0,0,1,11.642,0H34.88a.321.321,0,0,1,.3.224l13.8,43.353a.33.33,0,0,1-.045.29A.32.32,0,0,1,48.681,44ZM11.886.647.733,43.354H48.244L34.649.647H11.886Z" transform="translate(116 48)"/><path class="b" d="M10.367,0,0,40H23Z" transform="translate(209 8)"/><path class="b" d="M48.682,44H.32a.317.317,0,0,1-.253-.127.329.329,0,0,1-.056-.28L11.334.241A.32.32,0,0,1,11.642,0h23.24a.323.323,0,0,1,.3.224l13.8,43.353a.337.337,0,0,1-.046.29A.319.319,0,0,1,48.682,44ZM11.887.647h0L.734,43.354H48.245L34.649.647H11.887Z" transform="translate(196 48)"/><path class="b" d="M0,18H7V0H0Z" transform="translate(135)"/><path class="b" d="M6.673,19H.327A.324.324,0,0,1,0,18.679V.321A.324.324,0,0,1,.327,0H6.673A.325.325,0,0,1,7,.321V18.679A.325.325,0,0,1,6.673,19ZM.655.644V18.355H6.343V.644Z" transform="translate(135)"/><path class="b" d="M0,18H7V0H0Z" transform="translate(216)"/><path class="b" d="M6.673,19H.328A.325.325,0,0,1,0,18.679V.321A.325.325,0,0,1,.328,0H6.673A.325.325,0,0,1,7,.321V18.679A.325.325,0,0,1,6.673,19ZM.657.644V18.355H6.345V.644Z" transform="translate(216)"/><path class="b" d="M22.929,29H4.548a.323.323,0,0,1-.3-.2,60.364,60.364,0,0,1-2.4-7.891A63.727,63.727,0,0,1,.089,2.876a.321.321,0,0,1,.31-.3h.02c2.127-.08,20.958-.832,27.018-2.56A.329.329,0,0,1,27.526,0a.315.315,0,0,1,.187.06.32.32,0,0,1,.134.247c1.145,24.208-4.491,28.464-4.731,28.634A.322.322,0,0,1,22.929,29ZM27.221.737C20.748,2.4,2.748,3.127.716,3.2A61.347,61.347,0,0,0,2.26,19.834a63.286,63.286,0,0,0,2.507,8.523H22.812c.373-.341,1.679-1.77,2.808-5.806C27.093,17.29,27.631,9.951,27.221.737Z" transform="translate(207 262)"/><path class="b" d="M2.8,8,0,2.494,27,0,23.969,6Z" transform="translate(208 262)"/><path class="b" d="M3.164,9a.324.324,0,0,1-.292-.181L.034,3.072a.326.326,0,0,1,.006-.3A.323.323,0,0,1,.3,2.6L27.644,0l.033,0a.317.317,0,0,1,.265.14.321.321,0,0,1,.025.329L24.9,6.73a.322.322,0,0,1-.26.181L3.2,9ZM27.127.7l-26.3,2.5L3.357,8.329,24.391,6.282Z" transform="translate(207 262)"/><path class="d" d="M.261,12.086S-2.563-4.213,13.886,1.044c2.014.643-2.756,2.691-1.792,5.491s11.092,16.1,14.644,17.332c4.619,2.3-4.33,7.106-12.469,4.255S-1.524,15.828.261,12.086" transform="translate(212 201)"/><path class="b" d="M20.136,30a16.5,16.5,0,0,1-5.468-.905C8.292,26.863,2.4,20.8.6,16.467a5.213,5.213,0,0,1-.354-3.955A18.077,18.077,0,0,1,.13,8.555C.365,5.59,1.36,3.263,3.005,1.824A8.1,8.1,0,0,1,8.51,0a20.021,20.021,0,0,1,5.974,1.072,1,1,0,0,1,.71.6c.139.5-.319,1.025-.9,1.684-.838.952-1.88,2.137-1.419,3.477.973,2.826,11.2,16.159,14.633,17.342a.248.248,0,0,1,.038.014c1.756.873,1.509,2.009,1.321,2.457a5.249,5.249,0,0,1-3.031,2.339A15.83,15.83,0,0,1,20.136,30ZM8.512.646A7.49,7.49,0,0,0,3.432,2.31C-.241,5.521.892,12.432.9,12.5a.328.328,0,0,1-.027.2A4.5,4.5,0,0,0,1.2,16.219C2.949,20.425,8.675,26.31,14.881,28.483a15.854,15.854,0,0,0,5.256.88,15.146,15.146,0,0,0,5.4-.958A4.83,4.83,0,0,0,28.274,26.4c.257-.611-.078-1.155-1-1.615a12.641,12.641,0,0,1-3.756-2.907,69.872,69.872,0,0,1-4.75-5.343c-3.21-3.955-6.007-8.032-6.508-9.485-.584-1.695.645-3.093,1.542-4.114.322-.366.808-.919.763-1.085-.005-.021-.067-.089-.282-.156A19.342,19.342,0,0,0,8.512.646Z" transform="translate(211 200)"/><path class="d" d="M.055,21.916c1.154-6.872,8.819-2.32,12-9.674A33.365,33.365,0,0,0,14.771.414c.078-1.246,2.94.615,4.849,1.69,5.095,2.871,3.792,14.211.29,17.287S-1.1,28.789.055,21.916" transform="translate(249 205)"/><path class="b" d="M4.013,25a5.7,5.7,0,0,1-2.791-.571A2.472,2.472,0,0,1,.057,21.614c.6-3.556,2.9-4.158,5.337-4.8H5.4c2.393-.624,4.868-1.268,6.351-4.7A32.056,32.056,0,0,0,14.364.7a.693.693,0,0,1,.355-.608A.854.854,0,0,1,15.131,0c.756,0,1.982.678,3.631,1.635l.255.147.008,0c.183.106.358.207.525.3C21.408,3.138,22.6,5.4,22.917,8.471c.438,4.276-.893,9.1-3.031,10.98a25.913,25.913,0,0,1-6.868,3.524A29.051,29.051,0,0,1,4.013,25ZM15.16.629h0a.294.294,0,0,0-.141.029c-.018.008-.024.078-.024.084a32.629,32.629,0,0,1-2.664,11.63c-1.605,3.718-4.351,4.434-6.773,5.066S1.209,18.574.68,21.722a1.861,1.861,0,0,0,.851,2.149,4.939,4.939,0,0,0,2.393.471,28.1,28.1,0,0,0,8.658-1.9,24.709,24.709,0,0,0,6.887-3.47c1.965-1.73,3.229-6.41,2.817-10.431C22,5.683,20.915,3.592,19.242,2.65c-.263-.149-.549-.315-.794-.458l-.024-.014A12.218,12.218,0,0,0,15.16.63Z" transform="translate(249 205)"/><path class="b" d="M15.73,11a19.152,19.152,0,0,1-3.87-.382.487.487,0,0,1-.313-.211.471.471,0,0,1-.067-.359.5.5,0,0,1,.485-.382.509.509,0,0,1,.1.01,18.238,18.238,0,0,0,3.666.36h.149a.491.491,0,0,1,.5.48.474.474,0,0,1-.143.341.5.5,0,0,1-.348.143H15.73Zm4.075-.367a.49.49,0,0,1-.485-.4A.468.468,0,0,1,19.4,9.88a.488.488,0,0,1,.322-.2c.2-.036.416-.077.62-.116l.069-.013a.5.5,0,0,1,.1-.01.492.492,0,0,1,.483.387.467.467,0,0,1-.069.356.489.489,0,0,1-.316.211c-.228.046-.462.089-.713.133A.555.555,0,0,1,19.805,10.633ZM8.244,9.376a.5.5,0,0,1-.22-.05A15.691,15.691,0,0,1,4.652,7.113a.472.472,0,0,1-.045-.68.5.5,0,0,1,.7-.044,14.763,14.763,0,0,0,3.16,2.074.481.481,0,0,1,.249.28.468.468,0,0,1-.026.364A.49.49,0,0,1,8.244,9.376ZM2.353,4.363a.5.5,0,0,1-.4-.205A14.854,14.854,0,0,1,.025.634.468.468,0,0,1,.05.27.487.487,0,0,1,.338.024.508.508,0,0,1,.493,0,.492.492,0,0,1,.962.329a14.386,14.386,0,0,0,1.8,3.277.466.466,0,0,1,.082.355.479.479,0,0,1-.2.314A.5.5,0,0,1,2.353,4.363Z" transform="translate(367 220)"/></g></svg>