<svg xmlns="http://www.w3.org/2000/svg" xmlns:xlink="http://www.w3.org/1999/xlink" width="539.825" height="409.448" viewBox="0 0 539.825 409.448"><defs><style>.a{fill:none;}.b{fill:#323261;}.c{fill:#1a1a1a;}.d{fill:#fff;}.e{clip-path:url(#a);}.f{clip-path:url(#b);}.g{clip-path:url(#c);}.h{fill:#7723ef;}</style><clipPath id="a"><path class="a" d="M0,0H172.109V45.128H0Z" transform="translate(0.98 0.505)"/></clipPath><clipPath id="b"><path class="a" d="M0,0H439.313V135.55H0Z" transform="translate(0 1.141)"/></clipPath><clipPath id="c"><path class="a" d="M0,409.448H539.825V0H0Z"/></clipPath></defs><path class="b" d="M29.761,34.278c2.829-12.676,15.56-4.913,22.986-1.7,5.628,2.277,12.187-.326,13.144-6.6,1.069-5.973.269-12.434,3.1-18,5.7-13.08,23.74-9.119,23.492,5.061C89.042,27,102.8,28.858,104.445,19.317c.58-11.618,14.1-15.625,20.412-5.8,5.63,8.3,3.24,23.873-7.224,26.563-3,.688-6.123.033-9.2-.021-16.512.882-4.719,12.726-7.624,21.148-1.5,3.225-5.668,4.489-9.148,3.748C83.84,63.956,77.056,49.86,68.956,57c-1.876,2.35-1.139,5.754-1.587,8.728-.843,5.6-6.173,9.658-11.71,10.827-11.186,2.341-22.429-4.472-33.626-2.4-5.353,1-11.022,3.97-15.885,1.526-8.165-3.67-7.282-24.318-2.659-30.322,3.146-4.092,8.5-5.653,13.5-6.974C21.6,37.162,25.15,35.5,29.761,34.278" transform="translate(411.821 274.138)"/><path class="c" d="M50.79,77.388A60.619,60.619,0,0,1,38.721,75.74,60.368,60.368,0,0,0,26.713,74.1a24.454,24.454,0,0,0-4.5.392c-1.383.258-2.817.658-4.2,1.045l-.109.03a28.114,28.114,0,0,1-7.375,1.391A9.376,9.376,0,0,1,6.224,76C3.746,74.89,1.893,72.137.865,68.041-1,60.606.281,49.615,3.507,45.425c3.313-4.312,9.247-5.885,13.579-7.034h.005c2.306-.612,4.375-1.343,6.376-2.05,1.974-.7,4.016-1.42,6.3-2.029.726-3.16,2.144-5.279,4.214-6.3a7.863,7.863,0,0,1,3.5-.744c3.971,0,8.6,2.15,12.685,4.047l.017.008c1.018.474,1.93.9,2.779,1.264a10.806,10.806,0,0,0,4.066.8,9.6,9.6,0,0,0,4.746-1.214,8.238,8.238,0,0,0,4.1-6.055,59.779,59.779,0,0,0,.657-6.2v-.01c.283-4,.576-8.144,2.456-11.848a13.342,13.342,0,0,1,6.188-6.8A12.17,12.17,0,0,1,90,4.482a13.286,13.286,0,0,1,2.8,8.721c-1.131,4.611-.463,8.459,1.831,10.558a5.5,5.5,0,0,0,5.578,1.2,6.654,6.654,0,0,0,4.212-5.5c.274-5.479,3.569-9.851,8.4-11.138a10.723,10.723,0,0,1,2.76-.366,11.424,11.424,0,0,1,9.57,5.637c3.27,4.822,3.94,12.1,1.666,18.117-1.727,4.567-4.92,7.659-8.99,8.707a14.051,14.051,0,0,1-3.141.315c-1.087,0-2.184-.085-3.245-.167h-.008c-.932-.073-1.895-.147-2.85-.166-4.08.219-6.665,1.127-7.9,2.777-1.588,2.117-.848,5.293-.064,8.655l0,.007,0,.013c.756,3.238,1.537,6.586.5,9.582a6.608,6.608,0,0,1-3.077,3.083,9.853,9.853,0,0,1-6.267.776c-3.046-.388-5.959-2.756-8.776-5.045-3.113-2.531-6.053-4.921-9.151-4.921A6.911,6.911,0,0,0,69.221,57.3c-1.233,1.549-1.285,3.583-1.34,5.736v.027a23.407,23.407,0,0,1-.189,2.861c-.9,6.01-6.773,9.9-11.842,10.97A24.388,24.388,0,0,1,50.79,77.388Zm-24.077-3.63A60.746,60.746,0,0,1,38.788,75.4a60.411,60.411,0,0,0,12,1.639,24.1,24.1,0,0,0,4.985-.488c4.958-1.047,10.695-4.838,11.574-10.686a22.815,22.815,0,0,0,.185-2.839v-.018c.056-2.111.115-4.294,1.438-5.953A7.231,7.231,0,0,1,73.836,55c3.266,0,6.377,2.53,9.385,4.977,2.781,2.261,5.656,4.6,8.618,4.976a9.294,9.294,0,0,0,1.929.2,9.184,9.184,0,0,0,4.106-.93,6.261,6.261,0,0,0,2.935-2.92c.995-2.885.225-6.186-.519-9.377l0-.013c-.806-3.443-1.568-6.694.121-8.942,1.3-1.736,3.975-2.689,8.171-2.913.95.015,1.9.089,2.827.16l.056,0,.026,0c1.05.081,2.135.165,3.207.165a13.622,13.622,0,0,0,3.053-.306c3.957-1.018,7.065-4.035,8.753-8.5,2.2-5.821,1.53-13.143-1.631-17.806A11.1,11.1,0,0,0,115.581,8.3a10.359,10.359,0,0,0-2.67.355c-4.679,1.247-7.875,5.5-8.143,10.844a7,7,0,0,1-4.441,5.783A5.855,5.855,0,0,1,94.4,24.015c-2.391-2.192-3.1-6.148-1.936-10.856C92.555,7.949,89.688,2.05,83.086.616A11.912,11.912,0,0,0,80.558.347,11.729,11.729,0,0,0,74.374,2.08,13.151,13.151,0,0,0,69.3,8.207c-1.86,3.663-2.148,7.767-2.425,11.736l-.006.086a58.144,58.144,0,0,1-.657,6.143,8.563,8.563,0,0,1-4.261,6.3,9.963,9.963,0,0,1-4.919,1.259,11.139,11.139,0,0,1-4.2-.824c-.805-.347-1.663-.746-2.571-1.168l-.22-.1c-3.855-1.792-8.654-4.023-12.554-4.023a7.56,7.56,0,0,0-3.359.708c-1.994.983-3.357,3.057-4.051,6.165a.169.169,0,0,1-.122.128c-2.325.617-4.477,1.379-6.375,2.051-2,.707-4.071,1.438-6.4,2.057-5.352,1.417-10.405,3.012-13.406,6.913C.6,49.754-.65,60.6,1.2,67.957c1,3.99,2.792,6.665,5.174,7.736a9.054,9.054,0,0,0,4.159.92A27.908,27.908,0,0,0,17.8,75.242l.016,0c1.423-.4,2.894-.811,4.343-1.082A24.865,24.865,0,0,1,26.713,73.759Z" transform="translate(411.668 273.968)"/><path class="d" d="M33.6,95.009A57.726,57.726,0,0,0,46.51,96.757c4.353-.068,8.824-1.212,12.166-4S64,85.332,62.89,81.121c-1.083-4.119-4.881-7.642-4.223-11.85.686-4.376,5.84-6.526,10.268-6.611s8.994,1.037,13.211-.315a11.709,11.709,0,0,0,3.205-20.7c-1.9-1.351-4.157-2.1-6.18-3.263s-3.925-2.934-4.264-5.242c-.6-4.112,3.677-7.028,6.112-10.394,3.632-5.026,3.045-12.51-.972-17.234A16.829,16.829,0,0,0,63.124.579,20.3,20.3,0,0,0,49.969,12.774c-1.73,4.4-2.023,9.244-3.524,13.728A27.453,27.453,0,0,1,20.511,44.73c-4.795-.11-9.884-1.457-14.2.636-5.455,2.647-7.2,9.868-5.9,15.789A23.319,23.319,0,0,0,10.633,75.709c4.026,2.537,6.46,6.9,10.75,8.966,3.316,1.594,7.006,2.685,9.633,5.262A10.371,10.371,0,0,1,33.6,95.009" transform="translate(379.958 225.121)"/><path class="c" d="M46.371,97.455A60.293,60.293,0,0,1,33.9,95.7l-.028-.006a.345.345,0,0,1-.26-.249,10.059,10.059,0,0,0-2.491-4.913c-1.905-1.872-4.454-2.969-6.918-4.03l-.027-.012c-.813-.348-1.732-.743-2.6-1.156a22.44,22.44,0,0,1-6.041-4.854l-.007-.008a27.27,27.27,0,0,0-4.733-4.124A23.527,23.527,0,0,1,.418,61.579c-1.3-5.937.369-13.4,6.087-16.168a13.54,13.54,0,0,1,6.075-1.2c1.48,0,2.992.135,4.456.266h.006l.1.009c1.229.11,2.5.223,3.722.249.157,0,.343.008.529.008a26.64,26.64,0,0,0,15.327-5.121,26.449,26.449,0,0,0,9.745-12.88,53.18,53.18,0,0,0,1.53-6.194L48,20.5A45.085,45.085,0,0,1,49.991,13,20.7,20.7,0,0,1,63.377.6,17.361,17.361,0,0,1,67.916,0,16.808,16.808,0,0,1,80.65,5.644c4.237,4.985,4.662,12.576.988,17.657a32.5,32.5,0,0,1-2.3,2.73c-2.14,2.36-4.161,4.589-3.747,7.414.37,2.518,2.726,4.209,4.1,4.993.794.457,1.646.859,2.471,1.247l.028.013a23.793,23.793,0,0,1,3.711,2.021,12.053,12.053,0,0,1-3.3,21.3,16.307,16.307,0,0,1-5.069.685c-1.289,0-2.594-.09-3.856-.177l-.026,0-.35-.025c-1.1-.079-2.242-.161-3.365-.161-.22,0-.436,0-.643.009-4.459.086-9.3,2.284-9.936,6.322-.386,2.471.835,4.695,2.127,7.049l.009.016a21.147,21.147,0,0,1,2.079,4.643c1.08,4.1-.658,8.92-4.324,11.984-3.921,3.273-8.9,4.027-12.379,4.082C46.7,97.453,46.534,97.455,46.371,97.455ZM12.582,44.9h0A12.885,12.885,0,0,0,6.8,46.025C1.4,48.644-.16,55.759,1.087,61.434A22.834,22.834,0,0,0,11.158,75.771a27.7,27.7,0,0,1,4.834,4.2l.023.023.011.011a21.48,21.48,0,0,0,5.847,4.711c.842.405,1.719.782,2.567,1.146,2.533,1.088,5.152,2.212,7.157,4.179a10.552,10.552,0,0,1,2.619,5.027,59.276,59.276,0,0,0,12.162,1.7c.155,0,.313,0,.467,0,3.374-.053,8.186-.777,11.952-3.923,3.467-2.9,5.116-7.43,4.1-11.281a20.463,20.463,0,0,0-2.027-4.5c-1.29-2.355-2.623-4.789-2.2-7.487.722-4.613,6-6.81,10.6-6.9.154,0,.313,0,.473,0,1.352,0,2.789.1,3.943.181,1.255.087,2.552.177,3.827.177a15.67,15.67,0,0,0,4.869-.653A11.367,11.367,0,0,0,85.5,42.278a23.211,23.211,0,0,0-3.56-1.939l-.044-.021c-.843-.4-1.715-.8-2.551-1.285-1.479-.847-4.02-2.686-4.431-5.489-.463-3.144,1.764-5.6,3.916-7.972A33.22,33.22,0,0,0,81.083,22.9c3.437-4.755,3.018-12.14-.955-16.813A16.1,16.1,0,0,0,67.925.683a16.682,16.682,0,0,0-4.37.579A19.986,19.986,0,0,0,50.63,13.251a44.662,44.662,0,0,0-1.956,7.384,53.887,53.887,0,0,1-1.561,6.328,27.131,27.131,0,0,1-10,13.213A27.34,27.34,0,0,1,21.389,45.43c-.181,0-.362,0-.537-.005h-.005c-1.285-.03-2.6-.148-3.866-.262h-.007c-1.444-.13-2.937-.263-4.39-.263Z" transform="translate(379.616 224.77)"/><path class="d" d="M17.072,0S8.036,5.6,0,3.048" transform="translate(433.619 268.953)"/><path class="c" d="M4.9,4.409A15.37,15.37,0,0,1,.238,3.718a.344.344,0,0,1-.222-.43.349.349,0,0,1,.43-.224C8.236,5.545,17.145.107,17.233.052a.343.343,0,0,1,.361.583c-.3.187-6.18,3.774-12.7,3.774" transform="translate(433.277 268.61)"/><path class="d" d="M.514,29.986a.514.514,0,0,1-.081-1.022C.965,28.88,53.827,20.291,78.067.119a.514.514,0,1,1,.657.791C54.266,21.261,1.129,29.9.595,29.98a.48.48,0,0,1-.081.006" transform="translate(421.404 305.806)"/><path class="d" d="M.513,19.361a.514.514,0,0,1-.338-.9C6.738,12.738,4.63.73,4.607.608a.512.512,0,0,1,.414-.6.507.507,0,0,1,.6.414c.1.516,2.241,12.7-4.766,18.81a.51.51,0,0,1-.338.126" transform="translate(488.981 294.537)"/><path class="d" d="M14.21,4.072C11.1,4.072,6.581,3.4.329.995A.514.514,0,0,1,.7.035c13.34,5.132,18.517,2.113,18.565,2.079a.52.52,0,0,1,.707.166.513.513,0,0,1-.16.7c-.122.078-1.8,1.088-5.6,1.088" transform="translate(480.58 317.234)"/><path class="d" d="M.514,11.623a.514.514,0,0,1-.248-.964C4.974,8.064,4.285.639,4.277.565A.514.514,0,1,1,5.3.461c.033.333.767,8.173-4.538,11.1a.519.519,0,0,1-.248.064" transform="translate(460.658 314.448)"/><path class="d" d="M12.74,8.192a.425.425,0,0,1-.061,0C12.185,8.13.58,6.67,0,.561A.513.513,0,0,1,.465,0a.52.52,0,0,1,.56.462c.5,5.289,11.664,6.69,11.777,6.705a.514.514,0,0,1-.061,1.024" transform="translate(449.13 328.528)"/><path class="d" d="M36.844,0s-4.172,25.827-11.5,38.232S-.449,63.394.008,70.367" transform="translate(408.275 233.769)"/><path class="c" d="M.351,71.054a.344.344,0,0,1-.342-.321C-.253,66.739,5.22,61.162,11.557,54.7c4.953-5.046,10.567-10.768,13.835-16.3C32.6,26.193,36.807.545,36.848.288a.331.331,0,0,1,.394-.283A.341.341,0,0,1,37.525.4C37.482.656,33.258,26.43,25.984,38.75c-3.311,5.605-8.956,11.358-13.938,16.433C6.084,61.261.45,67,.694,70.689a.343.343,0,0,1-.319.364l-.023,0" transform="translate(407.932 233.426)"/><path class="d" d="M17.931,0C17.968.564,12.869,7.335,0,1.176" transform="translate(413.165 294.123)"/><path class="c" d="M10.116,4.468A23.147,23.147,0,0,1,.2,1.863a.343.343,0,1,1,.3-.618C7.726,4.706,12.347,4,14.953,2.8A6.21,6.21,0,0,0,17.936.347a.318.318,0,0,1,.318-.338c.2-.056.348.158.362.347.027.43-.782,1.459-2.032,2.306a11.337,11.337,0,0,1-6.468,1.806" transform="translate(412.822 293.745)"/><path class="d" d="M.233,0S-1.217,12.7,3.12,16.7" transform="translate(413.333 275.033)"/><path class="c" d="M3.472,17.39A.339.339,0,0,1,3.24,17.3C-1.175,13.221.183.83.244.3A.336.336,0,0,1,.623,0a.341.341,0,0,1,.3.379C.91.506-.456,12.952,3.7,16.8a.34.34,0,0,1,.02.484.334.334,0,0,1-.251.111" transform="translate(412.982 274.69)"/><path class="d" d="M6.375,0A7.994,7.994,0,0,1,0,5.894" transform="translate(443.164 237.832)"/><path class="c" d="M.343,6.581A.343.343,0,0,1,.273,5.9,7.588,7.588,0,0,0,6.384.278a.331.331,0,0,1,.4-.269.34.34,0,0,1,.271.4A8.409,8.409,0,0,1,.413,6.575a.373.373,0,0,1-.07.006" transform="translate(442.821 237.488)"/><path class="d" d="M171.423,22.221c0,12.272-38.375,22.221-85.712,22.221S0,34.493,0,22.221,38.373,0,85.711,0s85.712,9.948,85.712,22.221" transform="translate(37.83 364.663)"/><g transform="translate(36.507 363.814)"><path class="a" d="M0,0H172.109V45.128H0Z" transform="translate(0.98 0.505)"/><g class="e"><path class="c" d="M86.054,45.129C38.6,45.129,0,35.007,0,22.565S38.6,0,86.054,0,172.11,10.123,172.11,22.565,133.505,45.129,86.054,45.129Zm0-44.443C38.982.686.686,10.5.686,22.565s38.3,21.878,85.369,21.878,85.369-9.814,85.369-21.878S133.127.686,86.054.686Z" transform="translate(0.98 0.505)"/></g></g><path class="d" d="M24.207,134.859H433.6c.7-1.01,8.085-12.049,3.482-24.113C433,100.057,421.253,93.129,408.456,94.5c3.386-22.943-2-45.9-16.634-56.09-21.617-15.061-66.338-4.306-90.13,38.681,2.32-28.237-16.247-50.287-40.617-61.117-32.624-11.6-49.981,14.005-57.639,20.888C193.974,26.45,178.907,13.438,157.4,6.3,132.586-1.933,88.677-5.827,71.916,18.682c-5.948,8.7-6.955,18.748-6.576,26.691-23.524-7.589-49.012,2.9-59.958,23.982-11.723,22.584-3.78,51.581,18.825,65.5" transform="translate(0.385 217.754)"/><g transform="translate(0 216.265)"><path class="a" d="M0,0H439.313V135.55H0Z" transform="translate(0 1.141)"/><g class="f"><path class="c" d="M433.985,135.55H24.593a.349.349,0,0,1-.181-.051C1.813,121.58-6.511,92.61,5.462,69.547A48.665,48.665,0,0,1,24.173,50.015a51.688,51.688,0,0,1,26.079-7.063,50.723,50.723,0,0,1,15.109,2.294c-.417-10.454,1.824-19.339,6.657-26.409,4.487-6.561,11.188-11.5,19.919-14.671C99.54,1.4,108.551,0,118.719,0A129.607,129.607,0,0,1,157.9,6.326c17.3,5.741,32.759,15.969,45.946,30.4,1.007-.931,2.2-2.189,3.465-3.52C214.492,25.647,226.513,13,245.242,13a48.85,48.85,0,0,1,16.332,3,80.133,80.133,0,0,1,17.895,10.848A66.453,66.453,0,0,1,292.617,41a57.688,57.688,0,0,1,7.864,16.638,55.281,55.281,0,0,1,2.043,18.317,100.74,100.74,0,0,1,10.643-15.192,91.306,91.306,0,0,1,12.755-12.367,81.243,81.243,0,0,1,14.419-9.182,72.251,72.251,0,0,1,15.635-5.635,59.4,59.4,0,0,1,13.418-1.593c8.956,0,16.914,2.246,23.011,6.5,6.743,4.7,11.891,12.446,14.886,22.408s3.67,21.569,1.956,33.578c.954-.089,1.917-.134,2.861-.134a28.923,28.923,0,0,1,15.718,4.529,25,25,0,0,1,9.962,12.115c4.634,12.14-2.672,23.207-3.52,24.429A.341.341,0,0,1,433.985,135.55ZM50.25,43.635A50.987,50.987,0,0,0,24.526,50.6,47.988,47.988,0,0,0,6.072,69.862a48.513,48.513,0,0,0-3.452,35.864A50.577,50.577,0,0,0,24.69,134.864H433.8a30.528,30.528,0,0,0,3.749-8.195,26.509,26.509,0,0,0,1.077-7.183,22.682,22.682,0,0,0-1.483-8.269,24.318,24.318,0,0,0-9.711-11.793A28.268,28.268,0,0,0,412.1,95.016a30.418,30.418,0,0,0-3.218.172l-.041,0a.33.33,0,0,1-.242-.1.348.348,0,0,1-.093-.289c3.6-24.389-2.874-46.275-16.492-55.759-5.985-4.169-13.806-6.372-22.618-6.372a58.7,58.7,0,0,0-13.262,1.576c-21.7,5.043-41.292,20.849-53.753,43.363a.349.349,0,0,1-.306.175.368.368,0,0,1-.094-.012.342.342,0,0,1-.242-.358c1.642-19.969-8.113-46.421-40.416-60.776a47.975,47.975,0,0,0-16.039-2.945c-18.477,0-30.37,12.513-37.476,19.99-1.375,1.448-2.673,2.815-3.754,3.786a.34.34,0,0,1-.228.087.349.349,0,0,1-.255-.112c-13.159-14.478-28.6-24.727-45.886-30.464a129.01,129.01,0,0,0-39-6.3c-10.051,0-18.952,1.381-26.456,4.1C83.61,7.9,77,12.762,72.583,19.224c-4.824,7.055-7.016,15.964-6.516,26.481a.338.338,0,0,1-.134.288.344.344,0,0,1-.207.07.336.336,0,0,1-.106-.017A50.015,50.015,0,0,0,50.25,43.635Z" transform="translate(0 1.141)"/></g></g><path class="a" d="M0,409.448H539.825V0H0Z"/><g class="g"><path class="d" d="M0,58.025H27.853V0H0Z" transform="translate(239.667 195.561)"/><path class="c" d="M28.2,58.708H.344A.343.343,0,0,1,0,58.366V.342A.343.343,0,0,1,.344,0H28.2a.343.343,0,0,1,.344.342V58.366A.343.343,0,0,1,28.2,58.708ZM.686.685V58.023H27.851V.685Z" transform="translate(239.325 195.22)"/><path class="b" d="M137.125,0H101.849L0,46.162H30.476l89.01-30.173L208.5,46.162h30.476Z" transform="translate(134.108 247.912)"/><path class="c" d="M239.146,46.506H208.669a.188.188,0,0,1-.054-.009L119.659,16.343,30.7,46.5a.18.18,0,0,1-.055.009H.171A.172.172,0,0,1,.1,46.178L101.948.017A.171.171,0,0,1,102.019,0H137.3a.165.165,0,0,1,.07.017L239.216,46.178a.171.171,0,0,1,.1.192A.175.175,0,0,1,239.146,46.506ZM119.659,15.99a.162.162,0,0,1,.055.009L208.7,46.163h29.655L137.26.344h-35.2L.965,46.163H30.62L119.6,16A.162.162,0,0,1,119.659,15.99Z" transform="translate(133.936 247.74)"/><path class="d" d="M0,52.517H329.578V0H0Z" transform="translate(74.881 294.073)"/><path class="c" d="M329.922,53.2H.344A.343.343,0,0,1,0,52.861V.342A.343.343,0,0,1,.344,0H329.922a.342.342,0,0,1,.342.342V52.861A.342.342,0,0,1,329.922,53.2ZM.686.686V52.517H329.578V.686Z" transform="translate(74.537 293.731)"/><path class="d" d="M.761,0V40.293" transform="translate(338.282 300.438)"/><path class="c" d="M.761,40.979a.345.345,0,0,1-.344-.344V.342a.344.344,0,0,1,.688,0V40.635a.345.345,0,0,1-.344.344" transform="translate(338.282 300.095)"/><path class="b" d="M0,6.022H329.578V0H0Z" transform="translate(74.881 346.592)"/><path class="c" d="M329.748,6.365H.17A.169.169,0,0,1,0,6.194V.172A.169.169,0,0,1,.17,0H329.748a.171.171,0,0,1,.17.172V6.194A.171.171,0,0,1,329.748,6.365ZM.341.342v5.68H329.576V.342Z" transform="translate(74.71 346.42)"/><path class="d" d="M.761,0V40.293" transform="translate(181.144 300.438)"/><path class="c" d="M.761,40.979a.345.345,0,0,1-.344-.344V.342a.344.344,0,0,1,.688,0V40.635a.345.345,0,0,1-.344.344" transform="translate(181.144 300.095)"/><path class="d" d="M.761,0V40.293" transform="translate(125.467 300.438)"/><path class="c" d="M.761,40.979a.345.345,0,0,1-.344-.344V.342a.344.344,0,0,1,.688,0V40.635a.345.345,0,0,1-.344.344" transform="translate(125.467 300.095)"/><path class="c" d="M449.234,1.275H.514a.514.514,0,0,1,0-1.028h448.72a.514.514,0,0,1,0,1.028" transform="translate(5.267 351.853)"/><path class="d" d="M260.651,197.54H59.64A59.639,59.639,0,0,1,0,137.9V59.64A59.638,59.638,0,0,1,59.64,0H260.651a59.639,59.639,0,0,1,59.64,59.64V137.9a59.64,59.64,0,0,1-59.64,59.64" transform="translate(91.645 0.343)"/><path class="c" d="M260.995,198.224H59.984A60.051,60.051,0,0,1,0,138.242V59.982A60.051,60.051,0,0,1,59.984,0H260.995a60.051,60.051,0,0,1,59.984,59.982v78.26A60.051,60.051,0,0,1,260.995,198.224ZM59.984.685a59.364,59.364,0,0,0-59.3,59.3v78.26a59.364,59.364,0,0,0,59.3,59.3H260.995a59.365,59.365,0,0,0,59.3-59.3V59.982a59.365,59.365,0,0,0-59.3-59.3Z" transform="translate(91.3 0.001)"/><path class="d" d="M66.02,14.18V166.811A14.185,14.185,0,0,1,51.835,181H0V0H51.835A14.184,14.184,0,0,1,66.02,14.18" transform="translate(337.149 8.615)"/><path class="c" d="M52.179,181.682H.342A.343.343,0,0,1,0,181.339V.342A.342.342,0,0,1,.342,0H52.179A14.542,14.542,0,0,1,66.706,14.523V167.155A14.543,14.543,0,0,1,52.179,181.682ZM.686.685V181H52.179a13.857,13.857,0,0,0,13.84-13.842V14.523A13.855,13.855,0,0,0,52.179.685Z" transform="translate(336.805 8.272)"/><path class="d" d="M0,83.251H236.736V0H0Z" transform="translate(100.413 45.52)"/><path class="c" d="M237.08,83.938H.344A.344.344,0,0,1,0,83.594V.342A.343.343,0,0,1,.344,0H237.08a.342.342,0,0,1,.342.342V83.594A.343.343,0,0,1,237.08,83.938ZM.688.685V83.251h236.05V.685Z" transform="translate(100.069 45.177)"/><path class="c" d="M221.581,72.479h-4.11a.342.342,0,0,1,0-.685h3.768V69.775a.343.343,0,0,1,.686,0v2.362A.343.343,0,0,1,221.581,72.479Zm-8.22,0h-4.112a.342.342,0,1,1,0-.685h4.112a.342.342,0,1,1,0,.685Zm-8.222,0h-4.109a.342.342,0,1,1,0-.685h4.109a.342.342,0,1,1,0,.685Zm-8.22,0h-4.112a.342.342,0,0,1,0-.685h4.112a.342.342,0,0,1,0,.685Zm-8.223,0h-4.11a.342.342,0,0,1,0-.685h4.11a.342.342,0,1,1,0,.685Zm-8.221,0h-4.109a.342.342,0,1,1,0-.685h4.109a.342.342,0,1,1,0,.685Zm-8.22,0h-4.112a.342.342,0,1,1,0-.685h4.112a.342.342,0,0,1,0,.685Zm-8.223,0h-4.11a.342.342,0,0,1,0-.685h4.11a.342.342,0,1,1,0,.685Zm-8.22,0H151.7a.342.342,0,1,1,0-.685h4.11a.342.342,0,1,1,0,.685Zm-8.222,0h-4.109a.342.342,0,1,1,0-.685h4.109a.342.342,0,1,1,0,.685Zm-8.22,0h-4.112a.342.342,0,0,1,0-.685h4.112a.342.342,0,0,1,0,.685Zm-8.221,0h-4.112a.342.342,0,0,1,0-.685h4.112a.342.342,0,1,1,0,.685Zm-8.222,0h-4.109a.342.342,0,1,1,0-.685h4.109a.342.342,0,1,1,0,.685Zm-8.22,0H110.6a.342.342,0,1,1,0-.685h4.11a.342.342,0,0,1,0,.685Zm-8.223,0h-4.11a.342.342,0,0,1,0-.685h4.11a.342.342,0,1,1,0,.685Zm-8.221,0H94.154a.342.342,0,1,1,0-.685h4.109a.342.342,0,1,1,0,.685Zm-8.22,0H85.931a.342.342,0,1,1,0-.685h4.112a.342.342,0,0,1,0,.685Zm-8.222,0H77.71a.342.342,0,0,1,0-.685h4.112a.342.342,0,0,1,0,.685Zm-8.222,0H69.49a.342.342,0,1,1,0-.685H73.6a.342.342,0,1,1,0,.685Zm-8.222,0h-4.11a.342.342,0,1,1,0-.685h4.11a.342.342,0,1,1,0,.685Zm-8.22,0h-4.11a.342.342,0,1,1,0-.685h4.11a.342.342,0,0,1,0,.685Zm-8.222,0H44.825a.342.342,0,0,1,0-.685h4.112a.342.342,0,1,1,0,.685Zm-8.222,0H36.6a.342.342,0,1,1,0-.685h4.109a.342.342,0,1,1,0,.685Zm-8.22,0h-4.11a.342.342,0,1,1,0-.685h4.11a.342.342,0,0,1,0,.685Zm-8.221,0H20.161a.342.342,0,0,1,0-.685h4.112a.342.342,0,0,1,0,.685Zm-8.222,0H11.941a.342.342,0,1,1,0-.685h4.109a.342.342,0,1,1,0,.685Zm-8.22,0H3.719a.342.342,0,1,1,0-.685H7.831a.342.342,0,1,1,0,.685ZM.342,71.744A.342.342,0,0,1,0,71.4v-4.11a.343.343,0,0,1,.686,0V71.4A.343.343,0,0,1,.342,71.744Zm221.239-5.736a.342.342,0,0,1-.342-.342v-4.11a.343.343,0,0,1,.686,0v4.11A.343.343,0,0,1,221.581,66.008ZM.342,63.524A.342.342,0,0,1,0,63.182V59.07a.343.343,0,0,1,.686,0v4.112A.343.343,0,0,1,.342,63.524Zm221.239-5.738a.343.343,0,0,1-.342-.343V53.334a.343.343,0,1,1,.686,0v4.109A.344.344,0,0,1,221.581,57.786ZM.342,55.3A.343.343,0,0,1,0,54.959V50.85a.343.343,0,1,1,.686,0v4.109A.344.344,0,0,1,.342,55.3Zm221.239-5.737a.342.342,0,0,1-.342-.342V45.113a.343.343,0,1,1,.686,0v4.111A.343.343,0,0,1,221.581,49.566ZM.342,47.081A.343.343,0,0,1,0,46.738V42.629a.343.343,0,1,1,.686,0v4.109A.344.344,0,0,1,.342,47.081Zm221.239-5.737a.342.342,0,0,1-.342-.342V36.89a.343.343,0,0,1,.686,0V41A.343.343,0,0,1,221.581,41.344ZM.342,38.86A.342.342,0,0,1,0,38.518V34.406a.343.343,0,0,1,.686,0v4.112A.343.343,0,0,1,.342,38.86Zm221.239-5.737a.342.342,0,0,1-.342-.342V28.67a.343.343,0,0,1,.686,0v4.11A.343.343,0,0,1,221.581,33.123ZM.342,30.639A.342.342,0,0,1,0,30.3v-4.11a.343.343,0,1,1,.686,0V30.3A.343.343,0,0,1,.342,30.639ZM221.581,24.9a.343.343,0,0,1-.342-.343V20.449a.343.343,0,0,1,.686,0v4.109A.344.344,0,0,1,221.581,24.9ZM.342,22.418A.342.342,0,0,1,0,22.076V17.965a.343.343,0,0,1,.686,0v4.111A.343.343,0,0,1,.342,22.418Zm221.239-5.737a.342.342,0,0,1-.342-.342V12.227a.343.343,0,0,1,.686,0v4.112A.343.343,0,0,1,221.581,16.681ZM.342,14.2A.342.342,0,0,1,0,13.855V9.744a.343.343,0,1,1,.686,0v4.11A.343.343,0,0,1,.342,14.2ZM221.581,8.459a.342.342,0,0,1-.342-.342V4.007a.343.343,0,1,1,.686,0v4.11A.343.343,0,0,1,221.581,8.459ZM.342,5.975A.342.342,0,0,1,0,5.633V1.523a.343.343,0,0,1,.686,0v4.11A.343.343,0,0,1,.342,5.975ZM221.134.685h-4.11a.342.342,0,0,1,0-.685h4.11a.342.342,0,1,1,0,.685Zm-8.22,0H208.8a.342.342,0,1,1,0-.685h4.11a.342.342,0,1,1,0,.685Zm-8.221,0h-4.111a.342.342,0,1,1,0-.685h4.111a.342.342,0,0,1,0,.685Zm-8.222,0h-4.111a.342.342,0,1,1,0-.685h4.111a.342.342,0,0,1,0,.685Zm-8.221,0h-4.11a.342.342,0,0,1,0-.685h4.11a.342.342,0,1,1,0,.685Zm-8.221,0h-4.11a.342.342,0,1,1,0-.685h4.11a.342.342,0,1,1,0,.685Zm-8.221,0H167.7a.342.342,0,1,1,0-.685h4.11a.342.342,0,0,1,0,.685Zm-8.221,0h-4.112a.342.342,0,0,1,0-.685h4.112a.342.342,0,1,1,0,.685Zm-8.222,0h-4.11a.342.342,0,1,1,0-.685h4.11a.342.342,0,1,1,0,.685Zm-8.221,0h-4.11a.342.342,0,1,1,0-.685h4.11a.342.342,0,0,1,0,.685Zm-8.222,0h-4.112a.342.342,0,0,1,0-.685h4.112a.342.342,0,0,1,0,.685Zm-8.221,0h-4.11a.342.342,0,0,1,0-.685h4.11a.342.342,0,1,1,0,.685Zm-8.221,0H118.37a.342.342,0,1,1,0-.685h4.111a.342.342,0,1,1,0,.685Zm-8.222,0h-4.11a.342.342,0,1,1,0-.685h4.11a.342.342,0,0,1,0,.685Zm-8.221,0h-4.11a.342.342,0,0,1,0-.685h4.11a.342.342,0,1,1,0,.685Zm-8.222,0h-4.11a.342.342,0,1,1,0-.685h4.11a.342.342,0,1,1,0,.685ZM89.6.685h-4.11a.342.342,0,1,1,0-.685H89.6a.342.342,0,0,1,0,.685Zm-8.221,0H77.262a.342.342,0,0,1,0-.685h4.113a.342.342,0,1,1,0,.685Zm-8.222,0h-4.11a.342.342,0,0,1,0-.685h4.11a.342.342,0,1,1,0,.685Zm-8.221,0h-4.11a.342.342,0,1,1,0-.685h4.11a.342.342,0,1,1,0,.685Zm-8.222,0H52.6A.342.342,0,1,1,52.6,0h4.11a.342.342,0,0,1,0,.685Zm-8.221,0h-4.11a.342.342,0,0,1,0-.685h4.11a.342.342,0,1,1,0,.685Zm-8.221,0H36.158a.342.342,0,1,1,0-.685h4.111a.342.342,0,1,1,0,.685Zm-8.222,0h-4.11a.342.342,0,1,1,0-.685h4.11a.342.342,0,0,1,0,.685Zm-8.221,0H19.715a.342.342,0,0,1,0-.685h4.111a.342.342,0,1,1,0,.685ZM15.6.685H11.494a.342.342,0,1,1,0-.685H15.6a.342.342,0,1,1,0,.685Zm-8.22,0H3.273a.342.342,0,1,1,0-.685h4.11a.342.342,0,1,1,0,.685Z" transform="translate(107.937 50.46)"/><path class="d" d="M236.736,0V36.906H0V14.18A14.181,14.181,0,0,1,14.18,0Z" transform="translate(100.412 8.615)"/><path class="c" d="M237.078,37.59H.342A.343.343,0,0,1,0,37.247V14.522A14.539,14.539,0,0,1,14.523,0H237.078a.343.343,0,0,1,.344.342V37.247A.344.344,0,0,1,237.078,37.59ZM14.523.685A13.853,13.853,0,0,0,.686,14.522V36.905h236.05V.685Z" transform="translate(100.07 8.272)"/><path class="d" d="M236.736,0V60.841H14.18A14.182,14.182,0,0,1,0,46.654V0Z" transform="translate(100.412 128.772)"/><path class="c" d="M237.078,61.525H14.523A14.542,14.542,0,0,1,0,47V.342A.342.342,0,0,1,.342,0H237.078a.343.343,0,0,1,.344.342V61.181A.344.344,0,0,1,237.078,61.525ZM.686.685V47A13.855,13.855,0,0,0,14.523,60.839H236.736V.685Z" transform="translate(100.07 128.429)"/><path class="d" d="M23.725,11.862A11.863,11.863,0,1,0,11.863,23.725,11.861,11.861,0,0,0,23.725,11.862" transform="translate(359.328 60.688)"/><path class="c" d="M12.206,24.41A12.2,12.2,0,1,1,24.41,12.2,12.22,12.22,0,0,1,12.206,24.41Zm0-23.725A11.52,11.52,0,1,0,23.723,12.2,11.533,11.533,0,0,0,12.206.685Z" transform="translate(358.985 60.346)"/><path class="d" d="M23.725,11.862A11.863,11.863,0,1,0,11.863,23.725,11.861,11.861,0,0,0,23.725,11.862" transform="translate(277.047 79.105)"/><path class="c" d="M12.206,24.41A12.2,12.2,0,1,1,24.41,12.2,12.22,12.22,0,0,1,12.206,24.41Zm0-23.725A11.52,11.52,0,1,0,23.723,12.2,11.533,11.533,0,0,0,12.206.685Z" transform="translate(276.705 78.762)"/><path class="d" d="M23.725,11.863A11.863,11.863,0,1,0,11.862,23.725,11.863,11.863,0,0,0,23.725,11.863" transform="translate(231.226 16.065)"/><path class="c" d="M12.2,24.41a12.2,12.2,0,1,1,12.206-12.2A12.218,12.218,0,0,1,12.2,24.41ZM12.2.685A11.52,11.52,0,1,0,23.723,12.206,11.533,11.533,0,0,0,12.2.685Z" transform="translate(230.884 15.724)"/><path class="d" d="M23.727,11.863A11.863,11.863,0,1,0,11.863,23.727,11.864,11.864,0,0,0,23.727,11.863" transform="translate(263.666 148.988)"/><path class="c" d="M12.206,24.411a12.205,12.205,0,1,1,12.2-12.2A12.219,12.219,0,0,1,12.206,24.411Zm0-23.726A11.52,11.52,0,1,0,23.725,12.206,11.533,11.533,0,0,0,12.206.685Z" transform="translate(263.324 148.646)"/><path class="b" d="M0,8.4V7.711l.876-.852C2.984,4.852,3.938,3.786,3.95,2.54A1.473,1.473,0,0,0,2.312.928a2.813,2.813,0,0,0-1.754.7L.2.84A3.617,3.617,0,0,1,2.54,0,2.324,2.324,0,0,1,5.068,2.4c0,1.524-1.106,2.756-2.846,4.433l-.66.61v.024h3.71V8.4Z" transform="translate(240.453 23.73)"/><path class="b" d="M.3,7.113a3.73,3.73,0,0,0,1.828.52c1.436,0,1.88-.914,1.868-1.6-.012-1.156-1.056-1.65-2.134-1.65H1.244V3.544h.622c.814,0,1.842-.42,1.842-1.4C3.709,1.486,3.289.9,2.26.9a3.041,3.041,0,0,0-1.652.546L.318.636A3.917,3.917,0,0,1,2.476,0C4.1,0,4.839.964,4.839,1.968A2.052,2.052,0,0,1,3.315,3.912v.026a2.149,2.149,0,0,1,1.841,2.12c0,1.32-1.027,2.476-3.009,2.476A4.2,4.2,0,0,1,0,7.977Z" transform="translate(286.332 86.699)"/><path class="b" d="M1.678,1.042H1.652L.216,1.816,0,.966,1.8,0h.952V8.257H1.678Z" transform="translate(369.812 68.422)"/><path class="b" d="M4.889,8.257H3.835V6.008H0V5.272L3.681,0H4.889V5.133H6.045v.876H4.889V8.256ZM3.835,1.08h0c-.255.486-.459.839-.686,1.219L1.13,5.107v.026h2.7V2.376c0-.414.013-.85.038-1.3Z" transform="translate(272.507 156.722)"/><path class="c" d="M221.583,46.711h-4.11a.342.342,0,1,1,0-.685H221.3a.3.3,0,0,1,.258-.126.348.348,0,0,1,.368.317v.152A.342.342,0,0,1,221.583,46.711Zm-8.221,0h-4.113a.342.342,0,0,1,0-.685h4.113a.342.342,0,1,1,0,.685Zm-8.223,0h-4.109a.342.342,0,1,1,0-.685h4.109a.342.342,0,1,1,0,.685Zm-8.22,0h-4.11a.342.342,0,1,1,0-.685h4.11a.342.342,0,1,1,0,.685Zm-8.221,0h-4.11a.342.342,0,1,1,0-.685h4.11a.342.342,0,0,1,0,.685Zm-8.222,0h-4.109a.342.342,0,1,1,0-.685h4.109a.342.342,0,1,1,0,.685Zm-8.22,0h-4.112a.342.342,0,1,1,0-.685h4.112a.342.342,0,1,1,0,.685Zm-8.222,0h-4.11a.342.342,0,1,1,0-.685h4.11a.342.342,0,0,1,0,.685Zm-8.221,0H151.7a.342.342,0,1,1,0-.685h4.111a.342.342,0,0,1,0,.685Zm-8.223,0h-4.109a.342.342,0,1,1,0-.685h4.109a.342.342,0,1,1,0,.685Zm-8.22,0h-4.11a.342.342,0,1,1,0-.685h4.11a.342.342,0,1,1,0,.685Zm-8.221,0h-4.111a.342.342,0,1,1,0-.685h4.111a.342.342,0,1,1,0,.685Zm-8.223,0h-4.109a.342.342,0,1,1,0-.685h4.109a.342.342,0,1,1,0,.685Zm-8.22,0H110.6a.342.342,0,1,1,0-.685h4.11a.342.342,0,1,1,0,.685Zm-8.222,0h-4.11a.342.342,0,1,1,0-.685h4.11a.342.342,0,0,1,0,.685Zm-8.221,0H94.154a.342.342,0,1,1,0-.685h4.111a.342.342,0,0,1,0,.685Zm-8.221,0H85.931a.342.342,0,0,1,0-.685h4.112a.342.342,0,1,1,0,.685Zm-8.222,0h-4.11a.342.342,0,1,1,0-.685h4.11a.342.342,0,1,1,0,.685Zm-8.221,0h-4.11a.342.342,0,1,1,0-.685H73.6a.342.342,0,0,1,0,.685Zm-8.223,0h-4.11a.342.342,0,0,1,0-.685h4.11a.342.342,0,1,1,0,.685Zm-8.22,0h-4.11a.342.342,0,1,1,0-.685h4.11a.342.342,0,1,1,0,.685Zm-8.221,0H44.826a.342.342,0,1,1,0-.685h4.111a.342.342,0,0,1,0,.685Zm-8.222,0H36.6a.342.342,0,1,1,0-.685h4.111a.342.342,0,0,1,0,.685Zm-8.221,0h-4.11a.342.342,0,1,1,0-.685h4.11a.342.342,0,1,1,0,.685Zm-8.221,0h-4.11a.342.342,0,1,1,0-.685h4.11a.342.342,0,1,1,0,.685Zm-8.221,0h-4.11a.342.342,0,1,1,0-.685h4.11a.342.342,0,0,1,0,.685Zm-8.222,0H3.719a.342.342,0,0,1,0-.685H7.831a.342.342,0,1,1,0,.685ZM.344,45.977A.344.344,0,0,1,0,45.634v-4.11a.343.343,0,0,1,.686,0v4.11A.343.343,0,0,1,.344,45.977Zm221.239-3.528a.344.344,0,0,1-.344-.344v-4.11a.343.343,0,0,1,.686,0V42.1A.343.343,0,0,1,221.583,42.449ZM.344,37.756A.343.343,0,0,1,0,37.414V33.3a.343.343,0,0,1,.686,0v4.112A.342.342,0,0,1,.344,37.756Zm221.239-3.529a.343.343,0,0,1-.344-.342v-4.11a.343.343,0,1,1,.686,0v4.11A.342.342,0,0,1,221.583,34.227ZM.344,29.534A.344.344,0,0,1,0,29.192V25.082a.343.343,0,1,1,.686,0v4.109A.343.343,0,0,1,.344,29.534Zm221.239-3.529a.344.344,0,0,1-.344-.343V21.553a.343.343,0,0,1,.686,0v4.109A.343.343,0,0,1,221.583,26.006ZM.344,21.314A.344.344,0,0,1,0,20.97V16.861a.343.343,0,1,1,.686,0V20.97A.343.343,0,0,1,.344,21.314Zm221.239-3.529a.343.343,0,0,1-.344-.342V13.331a.343.343,0,0,1,.686,0v4.112A.342.342,0,0,1,221.583,17.785ZM.344,13.092A.343.343,0,0,1,0,12.75V8.638a.343.343,0,0,1,.686,0V12.75A.342.342,0,0,1,.344,13.092ZM221.583,9.563a.343.343,0,0,1-.344-.342V5.111a.343.343,0,0,1,.686,0v4.11A.342.342,0,0,1,221.583,9.563ZM.344,4.871A.343.343,0,0,1,0,4.529V.419a.343.343,0,0,1,.686,0v4.11A.342.342,0,0,1,.344,4.871ZM221.583,1.342A.344.344,0,0,1,221.239,1V.685h-3.109a.342.342,0,0,1,0-.685h3.453a.342.342,0,0,1,.342.342V1A.343.343,0,0,1,221.583,1.342ZM214.018.685h-4.11a.342.342,0,1,1,0-.685h4.11a.342.342,0,1,1,0,.685Zm-8.221,0h-4.11a.342.342,0,1,1,0-.685h4.11a.342.342,0,1,1,0,.685Zm-8.22,0h-4.113a.342.342,0,1,1,0-.685h4.113a.342.342,0,0,1,0,.685Zm-8.223,0h-4.11a.342.342,0,0,1,0-.685h4.11a.342.342,0,1,1,0,.685Zm-8.221,0h-4.109a.342.342,0,1,1,0-.685h4.109a.342.342,0,1,1,0,.685Zm-8.221,0H168.8a.342.342,0,1,1,0-.685h4.11a.342.342,0,0,1,0,.685Zm-8.222,0h-4.11a.342.342,0,0,1,0-.685h4.11a.342.342,0,1,1,0,.685Zm-8.221,0h-4.111a.342.342,0,1,1,0-.685h4.111a.342.342,0,1,1,0,.685Zm-8.222,0h-4.11a.342.342,0,1,1,0-.685h4.11a.342.342,0,0,1,0,.685Zm-8.22,0h-4.112a.342.342,0,0,1,0-.685h4.112a.342.342,0,0,1,0,.685Zm-8.223,0H127.7a.342.342,0,0,1,0-.685h4.11a.342.342,0,1,1,0,.685Zm-8.221,0h-4.11a.342.342,0,1,1,0-.685h4.11a.342.342,0,1,1,0,.685Zm-8.22,0h-4.112a.342.342,0,1,1,0-.685h4.112a.342.342,0,0,1,0,.685Zm-8.223,0h-4.11a.342.342,0,0,1,0-.685h4.11a.342.342,0,1,1,0,.685Zm-8.221,0h-4.11a.342.342,0,1,1,0-.685h4.11a.342.342,0,1,1,0,.685ZM90.7.685H86.59a.342.342,0,1,1,0-.685H90.7a.342.342,0,0,1,0,.685Zm-8.22,0H78.368a.342.342,0,0,1,0-.685h4.112a.342.342,0,0,1,0,.685Zm-8.222,0H70.147a.342.342,0,0,1,0-.685h4.111a.342.342,0,1,1,0,.685Zm-8.222,0h-4.11a.342.342,0,1,1,0-.685h4.11a.342.342,0,1,1,0,.685Zm-8.22,0h-4.11a.342.342,0,1,1,0-.685h4.11a.342.342,0,0,1,0,.685Zm-8.223,0h-4.11a.342.342,0,0,1,0-.685h4.11a.342.342,0,1,1,0,.685Zm-8.221,0h-4.11a.342.342,0,1,1,0-.685h4.11a.342.342,0,1,1,0,.685Zm-8.22,0H29.041a.342.342,0,1,1,0-.685h4.112a.342.342,0,0,1,0,.685Zm-8.222,0H20.82a.342.342,0,0,1,0-.685h4.111a.342.342,0,1,1,0,.685Zm-8.221,0H12.6A.342.342,0,0,1,12.6,0h4.11a.342.342,0,1,1,0,.685Zm-8.221,0H4.378a.342.342,0,1,1,0-.685h4.11a.342.342,0,1,1,0,.685Z" transform="translate(107.937 136.077)"/><path class="h" d="M.7,3.673S-1.818,2.64,2.682.407,12.222,5.736,12.051,8.4s-7.823,7.134-7.823,7.134Z" transform="translate(175.368 83.199)"/><path class="c" d="M4.572,16.221a.326.326,0,0,1-.127-.024.337.337,0,0,1-.2-.22L.761,4.256A1.369,1.369,0,0,1,0,3.165C-.03,2.308.91,1.418,2.873.443A4.163,4.163,0,0,1,4.739,0a5.617,5.617,0,0,1,3.1,1.056c2.786,1.852,5.021,5.788,4.9,7.71-.176,2.758-7.193,6.94-7.992,7.408A.325.325,0,0,1,4.572,16.221ZM4.747.681a3.491,3.491,0,0,0-1.569.375C.906,2.184.678,2.888.685,3.138c.011.354.49.559.5.561a.354.354,0,0,1,.2.22l3.4,11.44c2.647-1.6,7.16-4.8,7.277-6.637.1-1.526-1.831-5.26-4.593-7.1A4.941,4.941,0,0,0,4.747.681Z" transform="translate(175.025 82.856)"/><path class="d" d="M12.315,1.167S8.1-2.528,5.7,3.231,0,16.19,0,16.19s3.737,5.872,6.145,5.356c11.264-5.009,6.17-20.379,6.17-20.379" transform="translate(177.583 70.608)"/><path class="c" d="M6.227,22.243c-1.083,0-2.4-.855-3.913-2.542A24.794,24.794,0,0,1,.053,16.718.351.351,0,0,1,.03,16.39C.063,16.318,3.34,9.14,5.72,3.443,6.521,1.528,7.611.4,8.96.088A3.4,3.4,0,0,1,9.735,0a5.4,5.4,0,0,1,3.147,1.252.345.345,0,0,1,.1.15A27.656,27.656,0,0,1,14.1,9.957a16.063,16.063,0,0,1-1.662,6.875A11.742,11.742,0,0,1,6.627,22.2,1.881,1.881,0,0,1,6.227,22.243ZM9.727.684h0a2.737,2.737,0,0,0-.616.069c-1.12.262-2.048,1.255-2.758,2.951C4.2,8.863,1.292,15.272.731,16.5,1.965,18.389,4.5,21.579,6.164,21.58a1.181,1.181,0,0,0,.252-.026,11,11,0,0,0,5.343-4.863,14.944,14.944,0,0,0,1.651-6.306A26.826,26.826,0,0,0,12.362,1.71,4.665,4.665,0,0,0,9.727.685Z" transform="translate(177.241 70.266)"/><path class="d" d="M5.681,0,65.673,5.158,57.938,49.686,0,41.262Z" transform="translate(185.514 48.996)"/><path class="c" d="M58.28,50.372a.286.286,0,0,1-.049,0L.293,41.945A.345.345,0,0,1,0,41.558L5.686.3A.33.33,0,0,1,6.019,0l.035,0L66.046,5.16a.356.356,0,0,1,.244.132.361.361,0,0,1,.066.269L58.619,50.089A.343.343,0,0,1,58.28,50.372ZM6.321.714h0L.729,41.315,58,49.644,65.615,5.81,6.321.714Z" transform="translate(185.171 48.653)"/><path class="d" d="M.551,8.509,15.92,0l1.2,1.675L.146,10.83a2.323,2.323,0,0,1,.4-2.321" transform="translate(220.525 62.966)"/><path class="c" d="M.491,11.516A.325.325,0,0,1,.385,11.5a.339.339,0,0,1-.2-.175A2.647,2.647,0,0,1,.62,8.649a.378.378,0,0,1,.108-.1L16.1.044A.337.337,0,0,1,16.263,0a.342.342,0,0,1,.278.145L17.746,1.82A.338.338,0,0,1,17.8,2.1a.349.349,0,0,1-.172.225L.653,11.476A.347.347,0,0,1,.491,11.516ZM16.163.791,1.128,9.116A2.113,2.113,0,0,0,.7,10.67L16.963,1.9l-.8-1.112Z" transform="translate(220.182 62.622)"/><path class="h" d="M31.866,0S-7.589,38.425,1.306,57.251c5.675,10.7,22.823-.645,22.823-.645Z" transform="translate(104.262 80.803)"/><path class="c" d="M9.734,62.534A11.559,11.559,0,0,1,6.9,62.2a8.459,8.459,0,0,1-5.537-4.447c-3.752-7.94.276-20.067,11.971-36.046A196.036,196.036,0,0,1,31.979.1a.346.346,0,0,1,.4-.064.338.338,0,0,1,.184.352L24.824,56.993a.339.339,0,0,1-.149.24C24.347,57.45,16.568,62.534,9.734,62.534ZM31.745,1.3A191.146,191.146,0,0,0,11.862,25,76.33,76.33,0,0,0,2.491,42.255C.3,48.431.127,53.542,1.972,57.447a7.769,7.769,0,0,0,5.091,4.087,10.724,10.724,0,0,0,2.643.31,23.43,23.43,0,0,0,9.169-2.3,41.948,41.948,0,0,0,5.294-2.8Z" transform="translate(103.906 80.46)"/><path class="b" d="M17.018,3.917l.567-2.787S3.4-.635,1.6.247c0,0-.719,1.5-1.6,3.721,5.161,1.739,11.428,1.165,17.018-.05" transform="translate(135.349 369.019)"/><path class="c" d="M7.626,5.4A23.638,23.638,0,0,1,.116,4.3a.178.178,0,0,1-.1-.09.17.17,0,0,1,0-.136C.838,1.977,1.535.5,1.611.342A.192.192,0,0,1,1.692.258,7.084,7.084,0,0,1,4.143,0c4.59,0,13.545,1.117,13.635,1.129a.17.17,0,0,1,.147.2l-.568,2.786a.168.168,0,0,1-.132.134A45.744,45.744,0,0,1,7.626,5.4ZM4.107.336A7.306,7.306,0,0,0,1.895.545C1.889.555,1.22,1.953.4,4.029A23.48,23.48,0,0,0,7.625,5.054a45.209,45.209,0,0,0,9.418-1.115l.509-2.494C13.418.934,7.415.336,4.107.336Z" transform="translate(135.178 368.852)"/><path class="d" d="M31.827,2.886c-5.243-.429-12.206-.6-12.206-.6L20.086,0C14.5,1.214,8.229,1.787,3.069.05c-2.28,5.791-5.605,16.516.047,18.567,7.823,2.837,27.595-3.181,33.955-7.736,2.064-1.977,0-7.565-5.243-8" transform="translate(132.281 372.937)"/><path class="c" d="M8.593,20.017a15.765,15.765,0,0,1-5.246-.732A4.57,4.57,0,0,1,.676,16.769C-1.12,12.785,1,5.6,3.1.271A.339.339,0,0,1,3.415.052.368.368,0,0,1,3.527.07a23.091,23.091,0,0,0,7.348,1.075A45.2,45.2,0,0,0,20.363.011.282.282,0,0,1,20.44,0a.345.345,0,0,1,.236.1.339.339,0,0,1,.094.311L20.387,2.3c2.125.06,7.534.24,11.818.59A6.933,6.933,0,0,1,38.233,7.37a3.841,3.841,0,0,1-.575,4.1c-2.692,1.929-7.6,4.081-13.141,5.758A59.012,59.012,0,0,1,8.593,20.017ZM3.618.822C-.158,10.551.547,14.813,1.3,16.488a3.843,3.843,0,0,0,2.28,2.152,15.29,15.29,0,0,0,5.093.708,51.383,51.383,0,0,0,12.229-1.814c6.624-1.7,13.181-4.342,16.316-6.586a3.226,3.226,0,0,0,.365-3.35,6.237,6.237,0,0,0-5.438-4.025c-5.135-.421-12.129-.6-12.187-.6a.344.344,0,0,1-.328-.411L20,.789A45.3,45.3,0,0,1,10.87,1.828,24.139,24.139,0,0,1,3.618.822Z" transform="translate(131.932 372.591)"/><path class="b" d="M16.748,8.209l.964-4.334S5.911-.262,3.92.013A57.766,57.766,0,0,0,0,5.211c4.8,3.821,10.856,4.183,16.748,3" transform="translate(72.537 362.333)"/><path class="c" d="M11.257,9.153A17.479,17.479,0,0,1,.065,5.515a.169.169,0,0,1-.037-.228A59.832,59.832,0,0,1,3.941.1L3.962.071A.186.186,0,0,1,4.069.015,1.515,1.515,0,0,1,4.3,0C6.89,0,17.83,3.846,17.94,3.885a.172.172,0,0,1,.111.2l-.964,4.333a.17.17,0,0,1-.134.13A29.047,29.047,0,0,1,11.257,9.153ZM4.329.342c-.058,0-.108,0-.151.006a57.213,57.213,0,0,0-3.776,5,17.2,17.2,0,0,0,10.86,3.461,28.648,28.648,0,0,0,5.513-.574l.906-4.075C17.236,4,6.7.342,4.329.342Z" transform="translate(72.366 362.162)"/><path class="d" d="M32.3,9.5C27.451,7.46,20.889,5.125,20.889,5.125L21.363,3C15.472,4.183,9.415,3.821,4.616,0c-3.293,4.915-6.865,12-2.8,15.187,6.548,5.135,25.509,5.893,32.973,3.547C37.366,17.5,37.148,11.548,32.3,9.5" transform="translate(67.922 367.544)"/><path class="c" d="M23.978,20.7c-7.281,0-17.419-1.282-22.025-4.9C-2.251,12.5,1.115,5.471,4.679.153A.346.346,0,0,1,4.912,0a.289.289,0,0,1,.05,0,.351.351,0,0,1,.215.075A16.983,16.983,0,0,0,16.053,3.6a28.443,28.443,0,0,0,5.592-.6A.32.32,0,0,1,21.712,3a.352.352,0,0,1,.245.1.347.347,0,0,1,.089.313l-.409,1.833c1.566.562,7,2.537,11.145,4.285a6.924,6.924,0,0,1,4.33,6.134,3.847,3.847,0,0,1-1.826,3.72A40.346,40.346,0,0,1,23.978,20.7ZM5.045.84C-.894,9.831.315,13.645,2.375,15.261c1.915,1.5,5.155,2.737,9.371,3.576a65.6,65.6,0,0,0,12.386,1.149,39.764,39.764,0,0,0,10.9-1.235,3.218,3.218,0,0,0,1.391-3.066,6.243,6.243,0,0,0-3.91-5.522C28.324,8.4,22.789,6.389,21.193,5.816l-.07-.025a.342.342,0,0,1-.22-.4l.359-1.617a28.758,28.758,0,0,1-5.211.507A17.751,17.751,0,0,1,5.045.84Z" transform="translate(67.574 367.201)"/><path class="d" d="M112.953,1.34S58.8-3.044,49.126,4.048,22.951,48.791,31.977,102.431C14.183,132.6,0,195.011,0,195.011s11.433,6.618,16.247,5.073c6.962-10.316,39.714-66.708,53.639-125.762C81.233,37.7,88.711,20.94,88.711,20.94" transform="translate(74.108 168.949)"/><path class="c" d="M14.885,201.021c-5.4,0-14.293-5.106-14.715-5.351a.343.343,0,0,1-.161-.373c.141-.624,14.366-62.655,31.953-92.571C23.011,49.331,39.082,11.6,49.267,4.134c9.659-7.087,61.838-2.953,64.056-2.773a.341.341,0,0,1,.313.368.328.328,0,0,1-.37.315C112.726,2,59.127-2.25,49.67,4.686,45.019,8.1,38.434,19.175,34.216,36.228c-3.462,13.993-6.544,36.89-1.559,66.508a.349.349,0,0,1-.043.23c-17,28.824-30.877,87.9-31.881,92.235,1.588.89,11.331,6.194,15.64,4.953C23.811,189.082,56.16,132.855,69.9,74.6,81.124,38.362,88.666,21.33,88.741,21.161a.343.343,0,0,1,.627.28c-.076.167-7.6,17.169-18.812,53.343-13.8,58.507-46.361,115-53.682,125.853a.353.353,0,0,1-.179.135,5.992,5.992,0,0,1-1.809.248" transform="translate(73.765 168.586)"/><path class="d" d="M20.33,0c.516,0,39.09,3.208,39.983,5.214s1.924,56.034-5.038,89.816-33.1,110.546-33.1,110.546S2.75,207.813,0,203.858c.688-11.176,13.582-83.382,20.115-94.042C17.881,98.3,2.659,62.766,9.626,36.983" transform="translate(134.108 166.291)"/><path class="c" d="M11.608,206.893c-5.027,0-10.17-.519-11.547-2.5A.346.346,0,0,1,0,204.179c.628-10.217,13.387-82.777,20.1-94.085-.519-2.6-1.657-6.319-3.089-11.011C12.227,83.438,4.229,57.255,9.637,37.237A.347.347,0,0,1,10.058,37a.343.343,0,0,1,.242.42c-5.359,19.828,2.606,45.894,7.364,61.467,1.465,4.79,2.619,8.576,3.13,11.211a.34.34,0,0,1-.043.243C14.123,121.149,1.415,193.417.693,204.1c2.349,2.954,16.124,2.116,21.574,1.506,1.506-4.439,26.311-77.777,33.015-110.3,7.044-34.18,5.77-88.015,5.061-89.607C59.037,4,22.7.733,20.67.685a.344.344,0,0,1-.336-.347A.339.339,0,0,1,20.673,0c.379,0,39.282,3.138,40.3,5.417s1.783,57.035-5.015,90.026c-6.889,33.416-32.847,109.818-33.109,110.586a.341.341,0,0,1-.286.231,107.489,107.489,0,0,1-10.951.633Z" transform="translate(133.765 165.949)"/><path class="b" d="M1.369,6.869s5.9,3.5,20.675,3.745,33.7-3.582,40.292-3.745A36.416,36.416,0,0,0,72.958,5.234V0L1.369,2.311,0,5.313Z" transform="translate(121.765 168.948)"/><path class="c" d="M23.618,10.967c-.528,0-.988,0-1.4-.011-14.628-.243-20.7-3.734-20.76-3.769a.243.243,0,0,1-.041-.033L.042,5.6a.168.168,0,0,1-.026-.184l1.369-3a.172.172,0,0,1,.15-.1L73.124,0h.006a.167.167,0,0,1,.119.049A.166.166,0,0,1,73.3.172V5.4a.171.171,0,0,1-.112.161A36.725,36.725,0,0,1,62.513,7.212c-2.386.059-6.491.613-11.243,1.254l-.013,0C42.99,9.581,32.7,10.967,23.618,10.967ZM72.96.348,1.653,2.65l-1.28,2.8L1.652,6.906A23.275,23.275,0,0,0,6.8,8.759a66.129,66.129,0,0,0,15.414,1.855c.485.009.986.013,1.489.013,8.956,0,19.133-1.372,27.31-2.474l.206-.028C55.984,7.484,60.1,6.929,62.5,6.87A37.8,37.8,0,0,0,72.96,5.283Z" transform="translate(121.593 168.777)"/><path class="h" d="M29.169.622s-10.96-3.1-21.921,16.5-7.736,75.818-1.806,80.2,29.271,5.415,37.91,3.739,25.144-1.935,30.43-3.094,6.705-13.669,6.06-25.015-.56-54.838-27.85-68.726C38.066-2.215,29.169.622,29.169.622" transform="translate(117.791 75.668)"/><path class="c" d="M32.862,102.51a112.548,112.548,0,0,1-15.832-1.078c-5.519-.813-9.478-2.012-11.448-3.467C2.588,95.751.193,80.847.012,63.3-.2,43.036,2.523,25.848,7.292,17.32c3.652-6.53,7.677-11.26,11.965-14.06A15.459,15.459,0,0,1,27.684.443,8.1,8.1,0,0,1,29.5.626,20.521,20.521,0,0,1,34.984,0,41.911,41.911,0,0,1,52.478,4.282C78.065,17.3,79.758,55.949,80.4,70.5c.05,1.158.09,2.036.132,2.8.621,10.926-.664,24.125-6.33,25.368a115.211,115.211,0,0,1-12.6,1.261l-.088.006a171.93,171.93,0,0,0-17.753,1.83A63,63,0,0,1,32.862,102.51ZM27.851,1.162a15.11,15.11,0,0,0-8.145,2.7C15.453,6.6,11.478,11.237,7.889,17.654-3.148,37.393.331,93.231,5.989,97.413c1.862,1.376,5.69,2.533,11.072,3.346a110.536,110.536,0,0,0,15.718,1.112,61.56,61.56,0,0,0,10.85-.781,173.016,173.016,0,0,1,17.832-1.838A119.016,119.016,0,0,0,74.052,98c4.907-1.078,6.445-13.163,5.792-24.662-.044-.765-.083-1.646-.133-2.807-.632-14.44-2.31-52.8-27.533-65.633A41.257,41.257,0,0,0,34.952.713a19.891,19.891,0,0,0-5.337.595.321.321,0,0,1-.1.016.426.426,0,0,1-.093-.011A6.54,6.54,0,0,0,27.851,1.162Z" transform="translate(117.448 75.308)"/><path class="h" d="M0,19.674S7.434,70.043,45.646,59.9C78.525,51.178,70.617,1.666,70.617,1.666S70.53.806,68.124.806s-8.94-2.493-8.94,1.288S57.47,27.825,47.666,30.111,33.331,18.48,31.7,15.987" transform="translate(155.47 81.372)"/><path class="c" d="M36.269,61.937A28.176,28.176,0,0,1,20.452,57.27C11.884,51.627,6.779,41.808,4.006,34.564A76.969,76.969,0,0,1,0,20.07a.342.342,0,0,1,.289-.388.331.331,0,0,1,.388.289c.04.26,4.028,26.112,20.15,36.729,7.087,4.668,15.522,5.753,25.07,3.219C78.1,51.373,70.7,2.557,70.62,2.066c-.044-.154-.525-.572-2.154-.572a15.957,15.957,0,0,1-2.528-.345c-2.017-.371-4.533-.832-5.57.029a1.537,1.537,0,0,0-.5,1.264c0,5.079-2.1,26.09-11.784,28.348C39.646,32.75,35.02,23.157,32.8,18.544a21.522,21.522,0,0,0-1.045-2.023.343.343,0,0,1,.573-.376,21.814,21.814,0,0,1,1.088,2.1C35.56,22.7,40.029,31.971,47.931,30.123c5.009-1.168,7.758-7.823,9.182-13.2a67.275,67.275,0,0,0,2.07-14.481A2.205,2.205,0,0,1,59.93.651C61.214-.417,63.789.056,66.062.474a15.994,15.994,0,0,0,2.4.335c2.584,0,2.814.972,2.832,1.168.078.478,7.577,49.9-25.223,58.6a38.214,38.214,0,0,1-9.807,1.357" transform="translate(155.128 81.027)"/><path class="d" d="M10.887,17.125s6.1-8.3,4.814-11.089S8.224.319,6.675.018.486,3.243.1,4.4.529,9.388,1.218,10.29a26.678,26.678,0,0,1,2.105,6.018c0,.473,7.565.817,7.565.817" transform="translate(213.136 66.558)"/><path class="c" d="M11.228,17.806h-.015c-7.891-.359-7.891-.8-7.891-1.159a27.9,27.9,0,0,0-2.036-5.809c-.756-.992-1.6-4.93-1.171-6.2A8.717,8.717,0,0,1,2.928,1.842,8.457,8.457,0,0,1,6.839,0a1.27,1.27,0,0,1,.242.022C8.537.3,14.956,3.206,16.352,6.231,17.689,9.126,12.14,16.8,11.5,17.667A.341.341,0,0,1,11.228,17.806ZM6.786.679C5.273.679,1.085,3.893.765,4.85.415,5.9,1.2,9.594,1.829,10.422a26.319,26.319,0,0,1,2.156,6.043,52.265,52.265,0,0,0,7.074.648c2.021-2.786,5.6-8.586,4.673-10.595C14.535,3.926,8.519,1,6.95.694A.853.853,0,0,0,6.786.679Z" transform="translate(212.796 66.218)"/><path class="d" d="M2.236,0S-.558,2.793,1.161,4.641,0,7.779,0,7.779" transform="translate(217.748 70.745)"/><path class="c" d="M.342,8.464a.339.339,0,0,1-.312-.2A.344.344,0,0,1,.2,7.808c.364-.164,1.343-.747,1.488-1.463a1.283,1.283,0,0,0-.438-1.129C-.67,3.151,2.211.224,2.336.1A.343.343,0,0,1,2.82.584C2.794.609.28,3.167,1.754,4.751A1.936,1.936,0,0,1,2.36,6.482C2.114,7.691.549,8.4.482,8.434a.327.327,0,0,1-.14.03" transform="translate(217.407 70.403)"/><path class="d" d="M5.365,0,1.891,1.888,0,3.479H2.75L6.231,2.4Z" transform="translate(208.122 74.445)"/><path class="c" d="M3.093,4.162H.343a.346.346,0,0,1-.322-.225.34.34,0,0,1,.1-.379L2.013,1.967,5.545.041A.351.351,0,0,1,5.71,0a.338.338,0,0,1,.32.225l.865,2.4a.344.344,0,0,1-.015.27.356.356,0,0,1-.205.175L3.195,4.146A.325.325,0,0,1,3.093,4.162ZM5.521.833h0L2.4,2.53l-1.118.947H3.041l3.088-.953L5.521.833Z" transform="translate(207.779 74.104)"/><path class="d" d="M22.522,30.6s5.631.73,9.156-1.333C38.983,23.424,24.671,0,24.671,0S0,12.636,0,12.893,5.245,29.4,5.587,29.484s4.729,1.634,4.729,1.634,1.03,6.448-.259,10.83c2.493,3.1,13.667,4.214,19.685.43,1.719-1.2.558-2.245.558-2.245s-2.711-7.566-3.009-9.544" transform="translate(129.982 36.028)"/><path class="c" d="M20.125,45.447a22.525,22.525,0,0,1-6.086-.778,7.747,7.747,0,0,1-3.906-2.162.342.342,0,0,1-.061-.311c1.127-3.835.43-9.4.279-10.481-1.94-.683-4.283-1.5-4.5-1.555C5.14,29.983,0,13.392,0,13.237c0-.282,0-.468,24.858-13.2A.323.323,0,0,1,25.012,0a.349.349,0,0,1,.3.165c.591.967,14.381,23.753,6.927,29.715a11.463,11.463,0,0,1-4.2,1.345c.472,2.221,2.656,8.372,2.9,9.067a1.579,1.579,0,0,1,.426,1.136A2.165,2.165,0,0,1,30.281,43,19.742,19.742,0,0,1,20.125,45.447ZM24.884.793C17.3,4.681,2.479,12.317.725,13.385c.453,1.628,4.791,14.891,5.418,16.149.827.261,4.593,1.591,4.63,1.6a.347.347,0,0,1,.225.267v.007c.1.658.957,6.555-.219,10.8a7.828,7.828,0,0,0,3.691,1.847,22.784,22.784,0,0,0,5.781.7A18.5,18.5,0,0,0,29.9,42.432a1.559,1.559,0,0,0,.78-1.04.912.912,0,0,0-.269-.661.342.342,0,0,1-.092-.139c-.025-.068-2.468-6.87-2.967-9.283a21.066,21.066,0,0,1-2.15.107,19.8,19.8,0,0,1-2.385-.131.334.334,0,0,1-.225-.128.342.342,0,0,1,.273-.553l.041,0a20.626,20.626,0,0,0,2.295.119,13.838,13.838,0,0,0,6.642-1.407c1.5-1.2,2.135-3.319,1.888-6.3A33.8,33.8,0,0,0,31.4,14.076,97.184,97.184,0,0,0,24.884.793Z" transform="translate(129.639 35.684)"/><path class="b" d="M5.514,1.4S.916,1.187,0,.119C5.342.3,5.189.272,5.189.272Z" transform="translate(152.082 66.594)"/><path class="c" d="M5.686,1.862a.01.01,0,0,1-.007,0C5.2,1.833.964,1.558.041.324A.215.215,0,0,1,.017.112.173.173,0,0,1,.173,0C4.328.165,5.151.178,5.3.178h.033l.014,0h.01a.179.179,0,0,1,.164.141l.326,1.294a.211.211,0,0,1-.032.176A.162.162,0,0,1,5.686,1.862ZM.712.415h0C2,1.191,5.1,1.43,5.454,1.454L5.225.542c-.1.006-.218.008-.368.008C4.238.55,3.063.507.712.415Z" transform="translate(151.91 66.542)"/><path class="b" d="M22.208,29.459s-8.08-7.393-9.026.773,5.587,5.589,7.91,5.417c0,0,1.2,3.953,0,6.618s-8.683,8.424-12.035,5.415S-.485,32.606.03,26.391,3.124,15.017,7.423,12.609,27.538,6.593,29,1.35c.688-2.837,4.125-.859,5.759,2.75S39.315,9,36.65,11.665s-13.5,6.361-14.785,6.705c.257,6.018,3.955,11.174,3.354,11.346s-2.236,1.2-3.01-.257" transform="translate(121.871 23.245)"/><path class="c" d="M11.619,48.875a3.633,3.633,0,0,1-2.5-.893C5.873,45.074-.508,33.064.032,26.548.571,20.064,3.3,14.992,7.513,12.633a49.594,49.594,0,0,1,6.246-2.494l.079-.028c5.981-2.132,14.172-5.052,15.17-8.636.274-1.127.928-1.42,1.427-1.468A1.572,1.572,0,0,1,30.595,0C32.072,0,34,1.806,35.088,4.2a16.561,16.561,0,0,0,1.646,2.738l.013.019c1.243,1.773,2.141,3.054.2,5C34.377,14.525,24.2,18.1,22.215,18.67a25.7,25.7,0,0,0,2.752,9.387c.554,1.2.74,1.623.633,1.856a.25.25,0,0,1-.161.14c-.083.024-.187.066-.307.114l-.065.026a4.081,4.081,0,0,1-1.467.379,1.465,1.465,0,0,1-1.354-.834c-.345-.307-3.437-3.006-5.847-3.006a2.624,2.624,0,0,0-.923.157c-1.068.4-1.723,1.587-1.948,3.535-.272,2.353.069,4,1.014,4.884a3.752,3.752,0,0,0,2.682.86,15.644,15.644,0,0,0,2.729-.324l.023,0c.5-.089.928-.166,1.277-.192a.188.188,0,0,1,.177.121c.012.04,1.22,4.023-.007,6.739-.869,1.924-4.922,5.463-8.527,6.223A6.123,6.123,0,0,1,11.619,48.875ZM30.6.342a1.264,1.264,0,0,0-.132.006C29.9.4,29.523.809,29.34,1.561c-1.048,3.758-9,6.594-15.385,8.873a49.981,49.981,0,0,0-6.275,2.5C3.566,15.235.9,20.209.374,26.577c-.523,6.3,5.851,18.352,8.968,21.15a3.3,3.3,0,0,0,2.28.8,5.863,5.863,0,0,0,1.2-.134c3.394-.714,7.442-4.16,8.286-6.03,1.04-2.3.207-5.705.03-6.364-.291.029-.633.091-1.03.162l-.1.017-.014,0a16.029,16.029,0,0,1-2.785.326,4.053,4.053,0,0,1-2.907-.953c-1.03-.967-1.407-2.707-1.121-5.173.242-2.086.972-3.37,2.171-3.817a2.944,2.944,0,0,1,1.041-.179c2.664,0,5.962,2.987,6.1,3.115a.16.16,0,0,1,.034.047,1.141,1.141,0,0,0,1.07.677,3.773,3.773,0,0,0,1.334-.351c.112-.046.242-.1.35-.135a8.659,8.659,0,0,0-.606-1.482l-.027-.058a25.782,25.782,0,0,1-2.786-9.652.172.172,0,0,1,.126-.174c1.5-.4,12.1-4.048,14.708-6.66,1.742-1.743,1-2.8-.236-4.56l-.021-.03a16.954,16.954,0,0,1-1.669-2.782C33.761,2.1,31.926.342,30.6.342Z" transform="translate(121.698 23.074)"/><path class="d" d="M0,0S4.215-.023,3.783,3.264,0,7.5,0,7.5" transform="translate(185.514 76.184)"/><path class="c" d="M.343,8.184a.343.343,0,0,1-.094-.672A5.048,5.048,0,0,0,3.786,3.562a2.147,2.147,0,0,0-.461-1.795A4.562,4.562,0,0,0,.344.685h0A.342.342,0,0,1,.341,0H.347A5.158,5.158,0,0,1,3.838,1.313a2.833,2.833,0,0,1,.628,2.339A5.739,5.739,0,0,1,.437,8.171a.335.335,0,0,1-.094.012" transform="translate(185.171 75.841)"/><path class="d" d="M16.083,25.262c0,.294.012.581.032.87a13.228,13.228,0,1,1,10.33-12.647A11.872,11.872,0,0,0,16.083,25.262" transform="translate(4.631 158.928)"/><path class="c" d="M13.538,27.131A13.571,13.571,0,0,1,3.965,3.966a13.587,13.587,0,0,1,19.188,0,13.468,13.468,0,0,1,3.972,9.86.343.343,0,0,1-.3.333A11.545,11.545,0,0,0,16.762,25.6c0,.286.01.563.03.848a.339.339,0,0,1-.267.355A13.7,13.7,0,0,1,13.538,27.131ZM13.559.684A12.877,12.877,0,0,0,4.451,22.669a12.783,12.783,0,0,0,9.093,3.777,13.043,13.043,0,0,0,2.547-.253c-.011-.236-.015-.426-.015-.6A12.235,12.235,0,0,1,26.442,13.521,12.877,12.877,0,0,0,13.559.684Z" transform="translate(4.295 158.592)"/><path class="b" d="M23.717,11.874A11.875,11.875,0,0,1,0,12.744,13.148,13.148,0,0,0,6.46,9.188,13.191,13.191,0,0,0,10.331.1,11.869,11.869,0,0,1,23.717,11.874" transform="translate(20.745 172.316)"/><path class="c" d="M12.014,24.09A12.085,12.085,0,0,1,0,12.927a.174.174,0,0,1,.133-.18A12.975,12.975,0,0,0,6.51,9.238,13,13,0,0,0,10.332.265.173.173,0,0,1,10.48.1,12.2,12.2,0,0,1,12.014,0a12.045,12.045,0,0,1,0,24.09Zm0-23.748A12.109,12.109,0,0,0,10.67.419,13.349,13.349,0,0,1,6.753,9.48a13.341,13.341,0,0,1-6.4,3.568A11.7,11.7,0,1,0,12.014.342Z" transform="translate(20.574 172.145)"/><path class="d" d="M25.988,12.995A12.994,12.994,0,1,1,12.993,0,12.993,12.993,0,0,1,25.988,12.995" transform="translate(358.64 114.735)"/><path class="c" d="M13.337,26.673A13.337,13.337,0,1,1,26.676,13.337,13.352,13.352,0,0,1,13.337,26.673Zm0-25.988A12.652,12.652,0,1,0,25.988,13.337,12.665,12.665,0,0,0,13.337.685Z" transform="translate(358.296 114.393)"/><path class="d" d="M13.967,13.829H.007s-.129-1.615.71-2S2.2,3.489,4.6,2.521c.373-.152.688-.28.954-.386a1.525,1.525,0,0,1-.116-.583,1.552,1.552,0,0,1,3.1,0,1.584,1.584,0,0,1-.114.583l.954.386c2.391.969,3.036,8.917,3.877,9.3s.712,2,.712,2" transform="translate(364.647 119.699)"/><path class="c" d="M14.31,14.513H.351A.343.343,0,0,1,.01,14.2c-.015-.19-.12-1.866.906-2.343A12.065,12.065,0,0,0,1.68,9.285c.651-2.7,1.46-6.063,3.13-6.739l.663-.271a1.862,1.862,0,0,1-.04-.382,1.894,1.894,0,0,1,3.789,0,1.77,1.77,0,0,1-.04.382l.667.271c1.664.675,2.474,4.027,3.125,6.72l0,.015,0,.009a10.85,10.85,0,0,0,.786,2.58c1,.458.9,2.137.885,2.327A.342.342,0,0,1,14.31,14.513ZM7.33.685A1.211,1.211,0,0,0,6.12,1.894a1.193,1.193,0,0,0,.09.452.342.342,0,0,1-.188.449l-.952.386C3.725,3.723,2.9,7.165,2.347,9.442c-.472,1.958-.7,2.832-1.143,3.036S.7,13.49.687,13.828H13.972c-.01-.337-.078-1.146-.517-1.351s-.67-1.078-1.142-3.036c-.549-2.277-1.379-5.718-2.722-6.261l-.95-.386a.34.34,0,0,1-.19-.445,1.257,1.257,0,0,0,.086-.456A1.21,1.21,0,0,0,7.33.685Z" transform="translate(364.304 119.356)"/><path class="c" d="M4.469,0A2.235,2.235,0,0,1,2.235,2.235,2.235,2.235,0,0,1,0,0Z" transform="translate(369.399 133.527)"/><path class="c" d="M2.579,2.919A2.581,2.581,0,0,1,0,.342.343.343,0,0,1,.344,0H4.811a.343.343,0,0,1,.344.342A2.58,2.58,0,0,1,2.579,2.919ZM.718.685a1.89,1.89,0,0,0,3.719,0Z" transform="translate(369.056 133.185)"/><path class="d" d="M0,10.744H2.279V0H0Z" transform="translate(346.654 315.334)"/><path class="c" d="M2.623,11.431H.344A.344.344,0,0,1,0,11.087V.344A.344.344,0,0,1,.344,0H2.623a.344.344,0,0,1,.344.344V11.087A.344.344,0,0,1,2.623,11.431ZM.686.688V10.745H2.279V.688Z" transform="translate(346.31 314.99)"/><path class="d" d="M0,10.744H2.279V0H0Z" transform="translate(187.061 315.334)"/><path class="c" d="M2.623,11.431H.344A.344.344,0,0,1,0,11.087V.344A.344.344,0,0,1,.344,0H2.623a.344.344,0,0,1,.344.344V11.087A.344.344,0,0,1,2.623,11.431ZM.686.688V10.745H2.279V.688Z" transform="translate(186.717 314.99)"/><path class="d" d="M0,10.744H2.279V0H0Z" transform="translate(129.445 315.334)"/><path class="c" d="M2.623,11.431H.344A.344.344,0,0,1,0,11.087V.344A.344.344,0,0,1,.344,0H2.623a.344.344,0,0,1,.344.344V11.087A.344.344,0,0,1,2.623,11.431ZM.688.688V10.745H2.281V.688Z" transform="translate(129.101 314.99)"/><path class="b" d="M0,9.9H41.025V0H0Z" transform="translate(349.646 23.731)"/><path class="c" d="M41.195,10.24H.172A.171.171,0,0,1,0,10.07V.172A.172.172,0,0,1,.172,0H41.195a.172.172,0,0,1,.172.172v9.9A.169.169,0,0,1,41.195,10.24ZM.342.344V9.9H41.025V.344Z" transform="translate(349.476 23.559)"/><path class="b" d="M0,9.9H41.025V0H0Z" transform="translate(349.646 172.547)"/><path class="c" d="M41.195,10.24H.172A.171.171,0,0,1,0,10.07V.172A.172.172,0,0,1,.172,0H41.195a.172.172,0,0,1,.172.172v9.9A.169.169,0,0,1,41.195,10.24ZM.342.344V9.9H41.025V.344Z" transform="translate(349.476 172.376)"/><path class="b" d="M0,9.9H41.025V0H0Z" transform="translate(349.646 151.773)"/><path class="c" d="M41.195,10.24H.172A.172.172,0,0,1,0,10.068V.172A.172.172,0,0,1,.172,0H41.195a.172.172,0,0,1,.172.172v9.9A.172.172,0,0,1,41.195,10.24ZM.342.344V9.9H41.025V.344Z" transform="translate(349.476 151.603)"/><path class="d" d="M21.528,22.793l-5.546-1.568a1.852,1.852,0,0,0-1.69.357L9.856,25.26A1.857,1.857,0,0,1,6.816,23.9L6.6,18.144a1.861,1.861,0,0,0-.862-1.5L.863,13.566a1.857,1.857,0,0,1,.351-3.311l5.408-1.99A1.86,1.86,0,0,0,7.781,6.981L9.207,1.4A1.857,1.857,0,0,1,12.465.709l3.564,4.528a1.852,1.852,0,0,0,1.577.7l5.75-.368a1.857,1.857,0,0,1,1.663,2.886l-3.207,4.789a1.858,1.858,0,0,0-.183,1.717l2.128,5.356a1.856,1.856,0,0,1-2.23,2.472" transform="translate(448.192 166.624)"/><path class="c" d="M9.018,26.375a2.213,2.213,0,0,1-.9-.193,2.179,2.179,0,0,1-1.3-1.923L6.594,18.5a1.509,1.509,0,0,0-.7-1.221L1.022,14.2a2.2,2.2,0,0,1,.418-3.921l5.405-1.99a1.524,1.524,0,0,0,.947-1.047L9.219,1.657A2.185,2.185,0,0,1,10.892.049,2.25,2.25,0,0,1,11.355,0a2.177,2.177,0,0,1,1.721.841L16.64,5.368a1.576,1.576,0,0,0,1.236.576h.049l5.752-.369c.045,0,.092,0,.137,0a2.2,2.2,0,0,1,1.832,3.421l-3.206,4.791a1.505,1.505,0,0,0-.149,1.4l2.127,5.356a2.2,2.2,0,0,1-2.037,3.012,2.225,2.225,0,0,1-.6-.084L16.231,21.9a1.475,1.475,0,0,0-.412-.059,1.518,1.518,0,0,0-.966.35l-4.435,3.678A2.2,2.2,0,0,1,9.018,26.375ZM11.362.685a1.547,1.547,0,0,0-.329.034A1.487,1.487,0,0,0,9.88,1.825L8.455,7.408A2.193,2.193,0,0,1,7.083,8.927L1.677,10.919a1.513,1.513,0,0,0-.289,2.7L6.259,16.7a2.2,2.2,0,0,1,1.019,1.774L7.5,24.232a1.493,1.493,0,0,0,.9,1.325,1.516,1.516,0,0,0,.624.136,1.493,1.493,0,0,0,.96-.354l4.435-3.677a2.2,2.2,0,0,1,2-.425l5.547,1.569a1.547,1.547,0,0,0,.428.061,1.519,1.519,0,0,0,1.389-2.076l-2.126-5.356A2.2,2.2,0,0,1,21.87,13.4l3.207-4.788a1.515,1.515,0,0,0-1.264-2.356l-.092,0-5.75.368c-.051,0-.1.005-.154.005a2.168,2.168,0,0,1-1.715-.84L12.538,1.264A1.476,1.476,0,0,0,11.362.685Z" transform="translate(447.849 166.282)"/><path class="d" d="M0,29.677H29.677V0H0Z" transform="translate(48.387 99.897)"/><path class="c" d="M30.021,30.362H.344A.343.343,0,0,1,0,30.02V.342A.343.343,0,0,1,.344,0H30.021a.342.342,0,0,1,.342.342V30.02A.342.342,0,0,1,30.021,30.362ZM.686.685V29.678H29.677V.685Z" transform="translate(48.043 99.555)"/><path class="d" d="M.761,0V19.536" transform="translate(62.465 104.968)"/><path class="c" d="M.761,20.22a.344.344,0,0,1-.344-.342V.342a.344.344,0,0,1,.688,0V19.878a.344.344,0,0,1-.344.342" transform="translate(62.465 104.625)"/><path class="d" d="M0,.761H19.222" transform="translate(53.492 113.975)"/><path class="c" d="M19.565,1.1H.342a.342.342,0,1,1,0-.685H19.565a.342.342,0,1,1,0,.685" transform="translate(53.15 113.975)"/><path class="d" d="M37.9,18.952A18.952,18.952,0,1,0,18.952,37.9,18.952,18.952,0,0,0,37.9,18.952" transform="translate(444.379 36.028)"/><path class="c" d="M19.3,38.589a19.295,19.295,0,1,1,19.3-19.3A19.317,19.317,0,0,1,19.3,38.589Zm0-37.9a18.61,18.61,0,1,0,18.61,18.609A18.629,18.629,0,0,0,19.3.685Z" transform="translate(444.035 35.685)"/><path class="d" d="M21.232,10.213H19.378V21.757H13.435V16.021a2.587,2.587,0,1,0-5.175,0v5.736H2.312V10.213H0L10.435,0Z" transform="translate(452.715 42.681)"/><path class="c" d="M19.722,22.441H13.777a.342.342,0,0,1-.342-.342V16.362a2.245,2.245,0,1,0-4.489,0V22.1a.343.343,0,0,1-.344.342H2.656a.343.343,0,0,1-.344-.342V10.9H.342A.342.342,0,0,1,.1,10.31L10.54.1a.343.343,0,0,1,.473,0l10.8,10.214a.342.342,0,0,1-.236.59h-1.51V22.1A.342.342,0,0,1,19.722,22.441ZM11.19,13.432a2.934,2.934,0,0,1,2.931,2.93v5.395h5.257v-11.2a.343.343,0,0,1,.344-.342h.994L10.784.816l-9.6,9.4H2.656A.342.342,0,0,1,3,10.554v11.2h5.26V16.362A2.934,2.934,0,0,1,11.19,13.432Z" transform="translate(452.372 42.339)"/></g></svg>